<svg xmlns="http://www.w3.org/2000/svg" viewBox="0 0 60 60"><defs><style>.cls-1{fill:#9e1724;}.cls-2{fill:#fff;}</style></defs><g id="Capa_2" data-name="Capa 2"><g id="Capa_1-2" data-name="Capa 1"><path class="cls-1" d="M30,5A25,25,0,1,0,55,30,25,25,0,0,0,30,5Z"/><path class="cls-1" d="M30,60A30,30,0,1,1,60,30a29.44,29.44,0,0,1-1.47,9.27.63.63,0,0,1-.8.4.62.62,0,0,1-.4-.79A28.17,28.17,0,0,0,58.74,30a28.73,28.73,0,1,0-5.36,16.72.63.63,0,1,1,1,.73A30.05,30.05,0,0,1,30,60Z"/><path class="cls-2" d="M19.6,13.53a49.18,49.18,0,0,1,9.72-1.07,17,17,0,0,1,5.46.8,8.6,8.6,0,0,1,4,2.74,7.41,7.41,0,0,1,1.64,4.75v.79a7.27,7.27,0,0,1-1.32,4.24A10.49,10.49,0,0,1,35.47,29l-3.22,1.61a5,5,0,0,0-1.2.85,3.25,3.25,0,0,0-.73,1.2,5,5,0,0,0-.27,1.75v3.76H24V34.37a9.25,9.25,0,0,1,1.19-4.83A9.93,9.93,0,0,1,29.37,26l3.12-1.61a3.06,3.06,0,0,0,1.81-2.88V20.8c0-2.14-1.66-3.22-5-3.22A58.68,58.68,0,0,0,20,18.66ZM30.15,41.31v6.15H23.9V41.31Z"/></g></g></svg>