<svg xmlns="http://www.w3.org/2000/svg" viewBox="0 0 60 60"><defs><style>.cls-1{fill:#9e1724;}.cls-2{fill:#fff;}</style></defs><g id="Capa_2" data-name="Capa 2"><g id="Capa_1-2" data-name="Capa 1"><path class="cls-1" d="M30,5A25,25,0,1,0,55,30,25,25,0,0,0,30,5Z"/><path class="cls-1" d="M30,60A30,30,0,1,1,60,30a29.44,29.44,0,0,1-1.47,9.27.63.63,0,0,1-.8.4.62.62,0,0,1-.4-.79A28.17,28.17,0,0,0,58.74,30a28.73,28.73,0,1,0-5.36,16.72.63.63,0,1,1,1,.73A30.05,30.05,0,0,1,30,60Z"/><path class="cls-2" d="M47.36,15.49l-2.7-2.69a1,1,0,0,0-1.43,0L27.58,28.44,25,25.81a1,1,0,0,0-1.44,0l-2.69,2.7a1,1,0,0,0,0,1.43l3.31,3.32,0,0,2.7,2.7a1,1,0,0,0,1.44,0L47.36,16.93a1,1,0,0,0,0-1.44Z"/><path class="cls-2" d="M45.15,21.87l-2.5,2.5a14.14,14.14,0,0,1,1.2,5.7,14.07,14.07,0,1,1-8.1-12.74l2.49-2.49A16.38,16.38,0,0,0,36.56,14a17.43,17.43,0,1,0,9.27,9.28A14.24,14.24,0,0,0,45.15,21.87Z"/></g></g></svg>