<svg xmlns="http://www.w3.org/2000/svg" viewBox="0 0 60 60"><defs><style>.cls-1{fill:#9e1724;}.cls-2{fill:#fff;}</style></defs><g id="Capa_2" data-name="Capa 2"><g id="Capa_1-2" data-name="Capa 1"><path class="cls-1" d="M30,5A25,25,0,1,0,55,30,25,25,0,0,0,30,5Z"/><path class="cls-1" d="M30,60A30,30,0,1,1,60,30a29.44,29.44,0,0,1-1.47,9.27.63.63,0,0,1-.8.4.62.62,0,0,1-.4-.79A28.17,28.17,0,0,0,58.74,30a28.73,28.73,0,1,0-5.36,16.72.63.63,0,1,1,1,.73A30.05,30.05,0,0,1,30,60Z"/><path class="cls-2" d="M24,39.53a3.23,3.23,0,1,1,3.22-3.23A3.22,3.22,0,0,1,24,39.53Z"/><path class="cls-2" d="M30.3,47.46H17.71a.28.28,0,0,1-.29-.28,6.59,6.59,0,1,1,13.17,0A.28.28,0,0,1,30.3,47.46Z"/><path class="cls-2" d="M37.33,17.88H22.67a.27.27,0,0,1-.28-.28.28.28,0,0,1,.28-.28H37.33a.28.28,0,0,1,.28.28A.27.27,0,0,1,37.33,17.88Z"/><path class="cls-2" d="M37.33,20.39H22.67a.28.28,0,1,1,0-.55H37.33a.28.28,0,1,1,0,.55Z"/><path class="cls-2" d="M37.33,22.91H22.67a.28.28,0,1,1,0-.55H37.33a.28.28,0,1,1,0,.55Z"/><path class="cls-2" d="M20,27.29a2,2,0,0,0,.65.23A4.14,4.14,0,0,1,20,27.29Zm-2.5-3.11.06.21a.86.86,0,0,1,0-.21Z"/><path class="cls-2" d="M38.23,12.46H21.77a4.37,4.37,0,0,0-4.35,4.39v6.46a4.21,4.21,0,0,0,.08.87h0a.86.86,0,0,0,0,.21,1.88,1.88,0,0,0,.16.49,3.44,3.44,0,0,0,.25.56c.06.11.14.23.22.35a1.19,1.19,0,0,0,.26.33,2.94,2.94,0,0,0,.45.48,1.14,1.14,0,0,0,.31.23,1,1,0,0,0,.26.18,2.3,2.3,0,0,0,.49.26l0,0a3.81,3.81,0,0,0,.65.23,3.46,3.46,0,0,0,1.12.18H35.49c.87,1,.79,2.7.4,4.49-.1.43-.08.61,0,.61.43,0,2.34-3.35,3.18-5.2a4.35,4.35,0,0,0,3.49-4.29V16.85A4.37,4.37,0,0,0,38.23,12.46Zm3.66,10.85A3.67,3.67,0,0,1,39,26.91a.72.72,0,0,0-.52.4,28.05,28.05,0,0,1-1.59,3A4.23,4.23,0,0,0,36,27.21a.76.76,0,0,0-.55-.24H21.77a3.52,3.52,0,0,1-1.22-.22,2.58,2.58,0,0,1-.69-.33,1.9,1.9,0,0,1-.33-.22l-.06-.06a1.7,1.7,0,0,1-.39-.37,2.93,2.93,0,0,1-.34-.43.42.42,0,0,1-.08-.12,2.44,2.44,0,0,1-.21-.43s0,0,0,0a2.13,2.13,0,0,1-.18-.5s0,0,0-.07a4.22,4.22,0,0,1-.1-.87V16.85a3.66,3.66,0,0,1,3.64-3.68H38.23a3.67,3.67,0,0,1,3.66,3.68Z"/></g></g></svg>