<svg xmlns="http://www.w3.org/2000/svg" xmlns:xlink="http://www.w3.org/1999/xlink" viewBox="0 0 60 60"><defs><style>.cls-1,.cls-3,.cls-5{fill:#fff;}.cls-1{clip-rule:evenodd;}.cls-2{fill:#9e1724;}.cls-3{fill-rule:evenodd;}.cls-4{clip-path:url(#clip-path);}.cls-6{clip-path:url(#clip-path-2);}.cls-7{clip-path:url(#clip-path-3);}.cls-8{clip-path:url(#clip-path-4);}.cls-9{clip-path:url(#clip-path-5);}.cls-10{clip-path:url(#clip-path-6);}.cls-11{clip-path:url(#clip-path-7);}.cls-12{clip-path:url(#clip-path-8);}.cls-13{clip-path:url(#clip-path-9);}.cls-14{clip-path:url(#clip-path-10);}</style><clipPath id="clip-path"><path class="cls-1" d="M35.93,14.49h0a7.09,7.09,0,0,0-.9.07,5.43,5.43,0,0,1-1.45,0c2.67,2.08,2.4,5.91,2.17,8.14,2.27-1.5,3.38-6.46,1.39-7.91a2,2,0,0,0-1.19-.32"/></clipPath><clipPath id="clip-path-2"><path class="cls-1" d="M38.78,18.59c.94,3.26-1.53,6.19-3,7.86,2.72.12,6.53-3.24,5.77-5.58-.37-1.13-1.91-1.42-2.74-2.28Z"/></clipPath><clipPath id="clip-path-3"><path class="cls-1" d="M40.64,24.9c-1.15,3.19-4.88,4.11-7.07,4.57,2.13,1.71,7.19,1.23,8-1.11.37-1.13-.71-2.28-.88-3.46Z"/></clipPath><clipPath id="clip-path-4"><path class="cls-1" d="M37.12,34.41c1-.7.76-2.26,1.32-3.31h0c-2.81,1.9-6.36.46-8.41-.45C30.75,33.27,35.13,35.86,37.12,34.41Z"/></clipPath><clipPath id="clip-path-5"><path class="cls-1" d="M30,36.73c1.19,0,1.94-1.39,3-1.91-3.39-.11-5.42-3.37-6.54-5.31C25.52,32.06,27.54,36.73,30,36.73Z"/></clipPath><clipPath id="clip-path-6"><path class="cls-1" d="M22.88,34.41a2.94,2.94,0,0,0,2.11.26,5,5,0,0,1,1.45,0c-2.68-2.09-2.4-5.91-2.17-8.14C22,28,20.89,33,22.88,34.41Z"/></clipPath><clipPath id="clip-path-7"><path class="cls-1" d="M18.48,28.36c.37,1.12,1.91,1.42,2.74,2.28h0c-.94-3.26,1.53-6.2,3-7.86H24.1C21.39,22.78,17.73,26.06,18.48,28.36Z"/></clipPath><clipPath id="clip-path-8"><path class="cls-1" d="M18.48,20.87c-.37,1.13.71,2.27.88,3.45,1.15-3.18,4.88-4.1,7.07-4.57a5.84,5.84,0,0,0-3.52-1C20.93,18.74,18.94,19.47,18.48,20.87Z"/></clipPath><clipPath id="clip-path-9"><path class="cls-1" d="M22.88,14.81c-1,.7-.76,2.26-1.32,3.31,2.81-1.89,6.36-.45,8.41.46-.58-2.1-3.5-4.18-5.67-4.18A2.44,2.44,0,0,0,22.88,14.81Z"/></clipPath><clipPath id="clip-path-10"><path class="cls-1" d="M27,14.4h0c3.39.12,5.42,3.37,6.54,5.31,1-2.55-1.06-7.21-3.52-7.21-1.19,0-1.94,1.38-3,1.9"/></clipPath></defs><g id="Capa_2" data-name="Capa 2"><g id="Capa_1-2" data-name="Capa 1"><path class="cls-2" d="M30,5A25,25,0,1,0,55,30,25,25,0,0,0,30,5Z"/><path class="cls-2" d="M30,60A30,30,0,1,1,60,30a29.44,29.44,0,0,1-1.47,9.27.63.63,0,0,1-.8.4.62.62,0,0,1-.4-.79A28.17,28.17,0,0,0,58.74,30a28.73,28.73,0,1,0-5.36,16.72.63.63,0,1,1,1,.73A30.05,30.05,0,0,1,30,60Z"/><path class="cls-3" d="M35.93,14.49h0a7.09,7.09,0,0,0-.9.07,5.43,5.43,0,0,1-1.45,0c2.67,2.08,2.4,5.91,2.17,8.14,2.27-1.5,3.38-6.46,1.39-7.91a2,2,0,0,0-1.19-.32"/><g class="cls-4"><rect class="cls-5" x="33.56" y="14.49" width="5.55" height="8.23"/></g><path class="cls-3" d="M38.78,18.59c.94,3.26-1.53,6.19-3,7.86,2.72.12,6.53-3.24,5.77-5.58-.37-1.13-1.91-1.42-2.74-2.28Z"/><g class="cls-6"><rect class="cls-5" x="35.75" y="18.59" width="6.53" height="7.98"/></g><path class="cls-3" d="M40.64,24.9c-1.15,3.19-4.88,4.11-7.07,4.57,2.13,1.71,7.19,1.23,8-1.11.37-1.13-.71-2.28-.88-3.46Z"/><g class="cls-7"><rect class="cls-5" x="33.57" y="24.9" width="8.31" height="6.28"/></g><path class="cls-3" d="M37.12,34.41c1-.7.76-2.26,1.32-3.31h0c-2.81,1.9-6.36.46-8.41-.45C30.75,33.27,35.13,35.86,37.12,34.41Z"/><g class="cls-8"><rect class="cls-5" x="30.03" y="30.65" width="8.41" height="5.21"/></g><path class="cls-3" d="M30,36.73c1.19,0,1.94-1.39,3-1.91-3.39-.11-5.42-3.37-6.54-5.31C25.52,32.06,27.54,36.73,30,36.73Z"/><g class="cls-9"><rect class="cls-5" x="25.52" y="29.51" width="7.5" height="7.21"/></g><path class="cls-3" d="M22.88,34.41a2.94,2.94,0,0,0,2.11.26,5,5,0,0,1,1.45,0c-2.68-2.09-2.4-5.91-2.17-8.14C22,28,20.89,33,22.88,34.41Z"/><g class="cls-10"><rect class="cls-5" x="20.89" y="26.51" width="5.55" height="8.33"/></g><path class="cls-3" d="M18.48,28.36c.37,1.12,1.91,1.42,2.74,2.28h0c-.94-3.26,1.53-6.2,3-7.86H24.1C21.39,22.78,17.73,26.06,18.48,28.36Z"/><g class="cls-11"><rect class="cls-5" x="17.73" y="22.78" width="6.52" height="7.86"/></g><path class="cls-3" d="M18.48,20.87c-.37,1.13.71,2.27.88,3.45,1.15-3.18,4.88-4.1,7.07-4.57a5.84,5.84,0,0,0-3.52-1C20.93,18.74,18.94,19.47,18.48,20.87Z"/><g class="cls-12"><rect class="cls-5" x="18.11" y="18.74" width="8.31" height="5.59"/></g><path class="cls-3" d="M22.88,14.81c-1,.7-.76,2.26-1.32,3.31,2.81-1.89,6.36-.45,8.41.46-.58-2.1-3.5-4.18-5.67-4.18A2.44,2.44,0,0,0,22.88,14.81Z"/><g class="cls-13"><rect class="cls-5" x="21.56" y="14.4" width="8.41" height="4.18"/></g><path class="cls-3" d="M27,14.4h0c3.39.12,5.42,3.37,6.54,5.31,1-2.55-1.06-7.21-3.52-7.21-1.19,0-1.94,1.38-3,1.9"/><g class="cls-14"><rect class="cls-5" x="26.98" y="12.5" width="7.5" height="7.21"/></g><path class="cls-5" d="M24.12,40.53l2.51,7h-.89l-.58-1.56H22.34l-.57,1.56h-.89l2.52-7Zm-.37,1.25-1.23,3.49H25Z"/><path class="cls-5" d="M30.72,40.53a2,2,0,0,1,1.61.61,2.37,2.37,0,0,1,.52,1.62,2.32,2.32,0,0,1-.53,1.61,2,2,0,0,1-1.6.61h-2V47.5h-.87v-7Zm0,3.71a1.14,1.14,0,0,0,1-.4A1.67,1.67,0,0,0,32,42.76a1.73,1.73,0,0,0-.32-1.1,1.16,1.16,0,0,0-1-.39h-2v3Z"/><path class="cls-5" d="M37,40.53a2,2,0,0,1,1.6.61,2.33,2.33,0,0,1,.53,1.62,2.37,2.37,0,0,1-.53,1.61A2,2,0,0,1,37,45H35V47.5h-.87v-7Zm0,3.71a1.14,1.14,0,0,0,1-.4,1.67,1.67,0,0,0,.32-1.08,1.73,1.73,0,0,0-.32-1.1,1.16,1.16,0,0,0-1-.39H35v3Z"/></g></g></svg>