<svg xmlns="http://www.w3.org/2000/svg" viewBox="0 0 60 60"><defs><style>.cls-1{fill:#9e1724;}.cls-2{fill:#fff;fill-rule:evenodd;}</style></defs><g id="Capa_2" data-name="Capa 2"><g id="Capa_1-2" data-name="Capa 1"><path class="cls-1" d="M30,5A25,25,0,1,0,55,30,25,25,0,0,0,30,5Z"/><path class="cls-1" d="M30,60A30,30,0,1,1,60,30a29.44,29.44,0,0,1-1.47,9.27.63.63,0,0,1-.8.4.62.62,0,0,1-.4-.79A28.17,28.17,0,0,0,58.74,30a28.73,28.73,0,1,0-5.36,16.72.63.63,0,1,1,1,.73A30.05,30.05,0,0,1,30,60Z"/><path class="cls-2" d="M34.29,47A9.11,9.11,0,0,1,31,45.74C24,41.79,19.65,36,16.89,28.86c-1-2.64-1.92-5.43-1.54-8.35A9.29,9.29,0,0,1,21,12.81a5.73,5.73,0,0,1,4.63.42,4,4,0,0,1,.47,1c.25,2.45.61,4.77.89,7.15a1.71,1.71,0,0,1-.55,1.3,14.42,14.42,0,0,1-2.85,2.09,1.25,1.25,0,0,0-.75,1.69,20.69,20.69,0,0,0,8.48,12,1.39,1.39,0,0,0,1.82,0c1.14-.71,2.3-1.52,3.4-2.32a1.57,1.57,0,0,1,2,0c1.4,1.12,2.78,2.24,4.12,3.29a10.7,10.7,0,0,0,1,.75c1.41,1.18,1.37,1.3.66,2.92C43,46.4,39.83,47.42,36.53,47.5A6.2,6.2,0,0,1,34.29,47Z"/></g></g></svg>