<svg xmlns="http://www.w3.org/2000/svg" viewBox="0 0 60 60"><defs><style>.cls-1{fill:#9e1724;}.cls-2{fill:#fff;}</style></defs><g id="Capa_2" data-name="Capa 2"><g id="Capa_1-2" data-name="Capa 1"><path class="cls-1" d="M30,5A25,25,0,1,0,55,30,25,25,0,0,0,30,5Z"/><path class="cls-1" d="M30,60A30,30,0,1,1,60,30a29.44,29.44,0,0,1-1.47,9.27.63.63,0,0,1-.8.4.62.62,0,0,1-.4-.79A28.17,28.17,0,0,0,58.74,30a28.73,28.73,0,1,0-5.36,16.72.63.63,0,1,1,1,.73A30.05,30.05,0,0,1,30,60Z"/><path class="cls-2" d="M43.17,19.2v0a.67.67,0,0,0-.19-.47l-.11-.11-.8-.8-.52-.53L37.4,13.13l-.07-.08-.22-.21-.34-.34H18.11a1.28,1.28,0,0,0-1.28,1.28V46.22a1.28,1.28,0,0,0,1.28,1.28H41.89a1.28,1.28,0,0,0,1.28-1.28v-25a.54.54,0,0,0-.55-.55h0a.55.55,0,0,0-.55.55V46.26a.25.25,0,0,1-.25.25H18.18a.25.25,0,0,1-.25-.25V13.85a.25.25,0,0,1,.25-.25H36v5.29a.67.67,0,0,0,.67.67h6.11A.36.36,0,0,0,43.17,19.2Zm-6.06-4.74,4.14,4.14H37.11Z"/><path class="cls-2" d="M34.63,28.16a7.16,7.16,0,0,0-3.31-5,4.85,4.85,0,1,0-8.53-4.19,3.79,3.79,0,0,0-1.2,6.33,7.25,7.25,0,0,0-1.18,3.93H34.7A7.17,7.17,0,0,0,34.63,28.16ZM27.47,16.38a3.8,3.8,0,0,1,2.9,6.26,4,4,0,0,1-.9.78,3.82,3.82,0,0,1-1.83.56,3.57,3.57,0,0,0,.26-.86,4.62,4.62,0,0,0,.05-.65c0-.13,0-.27,0-.4a3.8,3.8,0,0,0-3.78-3.39H24A3.8,3.8,0,0,1,27.47,16.38Zm-6.06,6.09a2.74,2.74,0,0,1,1.21-2.27,2.57,2.57,0,0,1,1.07-.43,2.38,2.38,0,0,1,.46,0,2.76,2.76,0,0,1,2.73,2.36c0,.13,0,.26,0,.38a3,3,0,0,1-.08.68,2.88,2.88,0,0,1-.3.72.35.35,0,0,1-.05.08,2.61,2.61,0,0,1-.72.76h0a2.75,2.75,0,0,1-1.6.51,2.65,2.65,0,0,1-1-.2,2.54,2.54,0,0,1-.89-.58A2.74,2.74,0,0,1,21.41,22.47Zm.14,5.69a6,6,0,0,1,.91-2.29,3.69,3.69,0,0,0,1.69.4,3.78,3.78,0,0,0,2.35-.81L28,27a.53.53,0,0,0,.9-.37.51.51,0,0,0-.15-.37L27.55,25a4.85,4.85,0,0,0,3-1.12,6.05,6.05,0,0,1,3,4.25Z"/><rect class="cls-2" x="26.7" y="31.93" width="12.94" height="1.35" rx="0.67" transform="translate(66.34 65.21) rotate(180)"/><rect class="cls-2" x="20.36" y="34.75" width="19.28" height="1.35" rx="0.67" transform="translate(60 70.84) rotate(-180)"/><rect class="cls-2" x="24.66" y="37.56" width="14.98" height="1.35" rx="0.67" transform="translate(64.3 76.47) rotate(180)"/><rect class="cls-2" x="26.7" y="40.38" width="12.94" height="1.35" rx="0.67" transform="translate(66.34 82.1) rotate(-180)"/><rect class="cls-2" x="22.5" y="40.38" width="2.81" height="1.35" rx="0.67" transform="translate(47.8 82.1) rotate(-180)"/><rect class="cls-2" x="20.4" y="37.5" width="2.81" height="1.35" rx="0.67" transform="translate(43.61 76.34) rotate(-180)"/><rect class="cls-2" x="22.51" y="31.93" width="2.81" height="1.35" rx="0.67" transform="translate(47.84 65.21) rotate(180)"/><rect class="cls-2" x="20.36" y="43.19" width="19.28" height="1.35" rx="0.67" transform="translate(60 87.73) rotate(-180)"/></g></g></svg>