<svg xmlns="http://www.w3.org/2000/svg" viewBox="0 0 60 60"><defs><style>.cls-1{fill:#9e1724;}.cls-2{fill:#fff;}</style></defs><g id="Capa_2" data-name="Capa 2"><g id="Capa_1-2" data-name="Capa 1"><path class="cls-1" d="M30,5A25,25,0,1,0,55,30,25,25,0,0,0,30,5Z"/><path class="cls-1" d="M30,60A30,30,0,1,1,60,30a29.44,29.44,0,0,1-1.47,9.27.63.63,0,0,1-.8.4.62.62,0,0,1-.4-.79A28.17,28.17,0,0,0,58.74,30a28.73,28.73,0,1,0-5.36,16.72.63.63,0,1,1,1,.73A30.05,30.05,0,0,1,30,60Z"/><path class="cls-2" d="M43.17,19.2v0a.67.67,0,0,0-.19-.47l-.11-.11-.8-.8-.52-.53L37.4,13.13l-.07-.08-.22-.21-.34-.34H18.11a1.28,1.28,0,0,0-1.28,1.28V46.22a1.28,1.28,0,0,0,1.28,1.28H41.89a1.28,1.28,0,0,0,1.28-1.28v-25a.54.54,0,0,0-.55-.55h0a.55.55,0,0,0-.55.55V46.26a.25.25,0,0,1-.25.25H18.18a.25.25,0,0,1-.25-.25V13.85a.25.25,0,0,1,.25-.25H36v5.29a.67.67,0,0,0,.67.67h6.11A.36.36,0,0,0,43.17,19.2Zm-6.06-4.74,4.14,4.14H37.11Z"/><path class="cls-2" d="M39.84,31.56a.4.4,0,0,0-.39-.38h-19a.38.38,0,0,0-.38.38V41.69a.4.4,0,0,0,.39.38h19a.38.38,0,0,0,.38-.38V31.56Zm-1.17,2.77H35.54v-2h3.13Zm-7.56,3.44V35.5h3.26v2.27Zm3.26,1.16v2H31.11v-2Zm-4.43-1.16H21.23V35.5h8.71Zm1.17-3.44v-2h3.26v2Zm4.43,1.17h3.13v2.27H35.54Zm-5.6-3.16v2H21.23v-2Zm-8.71,6.59h8.71v2H21.23Zm14.31,2v-2h3.13v2Z"/><rect class="cls-2" x="28.23" y="21.56" width="11.51" height="1.35" rx="0.67"/><rect class="cls-2" x="20.26" y="24.37" width="19.47" height="1.35" rx="0.67"/><rect class="cls-2" x="20.26" y="27.19" width="19.47" height="1.35" rx="0.67"/></g></g></svg>