<svg xmlns="http://www.w3.org/2000/svg" viewBox="0 0 60 60"><defs><style>.cls-1{fill:#9e1724;}.cls-2{fill:#fff;}</style></defs><g id="Capa_2" data-name="Capa 2"><g id="Capa_1-2" data-name="Capa 1"><path class="cls-1" d="M30,5A25,25,0,1,0,55,30,25,25,0,0,0,30,5Z"/><path class="cls-1" d="M30,60A30,30,0,1,1,60,30a29.44,29.44,0,0,1-1.47,9.27.63.63,0,0,1-.8.4.62.62,0,0,1-.4-.79A28.17,28.17,0,0,0,58.74,30a28.73,28.73,0,1,0-5.36,16.72.63.63,0,1,1,1,.73A30.05,30.05,0,0,1,30,60Z"/><path class="cls-2" d="M39.16,13.69V34.48H37.85a1.19,1.19,0,0,0-1.1.73l-4,9.33,0,.1A2.76,2.76,0,0,1,30,46.31a3,3,0,0,1-2.91-1.76v0l-3.75-9.28a1.2,1.2,0,0,0-1.11-.75H20.84V13.69h.55L25,22.42l0,0a5.42,5.42,0,0,0,4.8,3c3.16,0,4.42-1.32,5.34-3.3.6-1.3,2.63-6.33,3.49-8.47h.51m1.19-1.19H37.84c-.42,1-3.08,7.68-3.77,9.16s-1.59,2.61-4.25,2.61A4.21,4.21,0,0,1,26.11,22L22.19,12.5H19.65V35.68h2.57L26,45a4.21,4.21,0,0,0,4,2.54A3.93,3.93,0,0,0,33.9,45l4-9.33h2.5V12.5Z"/><path class="cls-2" d="M22.77,28.69A2.12,2.12,0,0,1,23.5,27,2.66,2.66,0,0,1,27,27a2.08,2.08,0,0,1,.73,1.66v2.6A2.12,2.12,0,0,1,27,33a2.63,2.63,0,0,1-3.46,0,2.15,2.15,0,0,1-.73-1.67Zm3.45,0a1.07,1.07,0,0,0-.29-.79,1,1,0,0,0-.7-.29,1,1,0,0,0-.7.29,1.07,1.07,0,0,0-.29.79v2.6a1.13,1.13,0,0,0,.29.81,1,1,0,0,0,.7.3,1,1,0,0,0,.48-.13,1,1,0,0,0,.37-.38,1.27,1.27,0,0,0,.14-.6Z"/><path class="cls-2" d="M31.07,26.56v6.92H29.59V27.89l-1.19.19-.21-1.21,2-.31Z"/><path class="cls-2" d="M32.05,31.07a1.54,1.54,0,0,1,.19-.79,1,1,0,0,1,.54-.46c-.45-.19-.67-.64-.67-1.34a2.13,2.13,0,0,1,.21-1,1.55,1.55,0,0,1,.56-.65,2.76,2.76,0,0,1,.8-.36,4.06,4.06,0,0,1,1-.11,3.32,3.32,0,0,1,.64.05,2.93,2.93,0,0,1,.6.15,2.06,2.06,0,0,1,.51.27,1.9,1.9,0,0,1,.41.39,2.17,2.17,0,0,1,.27.55,2.43,2.43,0,0,1,.09.68c0,.7-.22,1.15-.66,1.34a1.17,1.17,0,0,1,.38.26,1.08,1.08,0,0,1,.26.43,1.69,1.69,0,0,1,.1.56v.53a1.8,1.8,0,0,1-.37,1.13,2.17,2.17,0,0,1-1,.68,4.2,4.2,0,0,1-2.56,0,2.11,2.11,0,0,1-.93-.68,1.75,1.75,0,0,1-.37-1.13Zm3.64,0a.61.61,0,0,0-.16-.43.52.52,0,0,0-.38-.17h-1a.57.57,0,0,0-.38.16.6.6,0,0,0-.16.44v.53c0,.48.35.72,1,.72s1.06-.24,1.06-.72Zm-.62-1.9a.54.54,0,0,0,.4-.16.76.76,0,0,0,.15-.53.71.71,0,0,0-.25-.62,1.26,1.26,0,0,0-.74-.18,1.25,1.25,0,0,0-.73.18.71.71,0,0,0-.25.62.82.82,0,0,0,.05.33.51.51,0,0,0,.13.22.54.54,0,0,0,.18.11.66.66,0,0,0,.21,0Z"/></g></g></svg>