<svg xmlns="http://www.w3.org/2000/svg" viewBox="0 0 60 60"><defs><style>.cls-1{fill:#9e1724;}.cls-2{fill:#fff;}</style></defs><g id="Capa_2" data-name="Capa 2"><g id="Capa_1-2" data-name="Capa 1"><path class="cls-1" d="M30,5A25,25,0,1,0,55,30,25,25,0,0,0,30,5Z"/><path class="cls-1" d="M30,60A30,30,0,1,1,60,30a29.44,29.44,0,0,1-1.47,9.27.63.63,0,0,1-.8.4.62.62,0,0,1-.4-.79A28.17,28.17,0,0,0,58.74,30a28.73,28.73,0,1,0-5.36,16.72.63.63,0,1,1,1,.73A30.05,30.05,0,0,1,30,60Z"/><rect class="cls-2" x="19.46" y="21.52" width="28.04" height="1.98" rx="0.99"/><rect class="cls-2" x="19.46" y="29.01" width="28.04" height="1.98" rx="0.99"/><rect class="cls-2" x="19.46" y="36.5" width="28.04" height="1.98" rx="0.99"/><circle class="cls-2" cx="14.43" cy="22.51" r="1.93"/><circle class="cls-2" cx="14.43" cy="30" r="1.93"/><circle class="cls-2" cx="14.43" cy="37.49" r="1.93"/></g></g></svg>