<svg xmlns="http://www.w3.org/2000/svg" viewBox="0 0 60 60"><defs><style>.cls-1{fill:#9e1724;}.cls-2{fill:#fff;}</style></defs><g id="Capa_2" data-name="Capa 2"><g id="Capa_1-2" data-name="Capa 1"><path class="cls-1" d="M30,4.87a25,25,0,1,0,25,25A25,25,0,0,0,30,4.87ZM38.89,39,39,39h0a.26.26,0,0,1,.17.1l.09.1.12.13c.08.09.14.18.2.26a.2.2,0,0,1-.06.28.21.21,0,0,1-.11,0,.21.21,0,0,1-.17-.08l-.08-.1c-.11-.12-.21-.25-.33-.37a.18.18,0,0,1,0-.15.24.24,0,0,1,.09-.17ZM34.3,41.22a.29.29,0,0,1,0,.1v0a2.15,2.15,0,0,0-.1.76,2.06,2.06,0,0,0,.21.76.21.21,0,0,1,0,.23.19.19,0,0,1-.16.08h0c-.15,0-.26-.23-.37-.65a2.8,2.8,0,0,1-.06-.72,2.66,2.66,0,0,1,.14-.66h0A.22.22,0,0,1,34,41h.09A.23.23,0,0,1,34.3,41.22Zm-.16-.43a.32.32,0,0,1,0-.16,2.86,2.86,0,0,1,.84-.7h0a2.74,2.74,0,0,1,.63-.21l.07,0a.22.22,0,0,1,.25.22c0,.1-.07.17-.19.2h0l-.3.09a1.73,1.73,0,0,0-.52.27,1.9,1.9,0,0,0-.4.4.19.19,0,0,1-.16.09.24.24,0,0,1-.14,0A.22.22,0,0,1,34.14,40.79Zm.24,2.37h0a.19.19,0,0,1,.18.12A1.39,1.39,0,0,0,35.8,44a.24.24,0,0,1,.2.33.19.19,0,0,1-.15.08h0a1.73,1.73,0,0,1-1.61-1,.25.25,0,0,1,0-.17A.21.21,0,0,1,34.38,43.16Zm.78.32c-.17,0-.34-.23-.47-.44a2.17,2.17,0,0,1-.3-1.18h0a.19.19,0,0,1,.16-.18h0a.19.19,0,0,1,.19.15.28.28,0,0,1,0,.09h0a1.82,1.82,0,0,0,.12.65,1.72,1.72,0,0,0,.36.57.2.2,0,0,1-.09.34Zm-.31-2a.2.2,0,0,1-.17.17H34.6a.29.29,0,0,1-.12-.07.32.32,0,0,1,0-.14,1.27,1.27,0,0,1,.73-.92h0l0,0a.2.2,0,0,1,.23.13.17.17,0,0,1-.09.24A1,1,0,0,0,34.85,41.49Zm.6-.91a.19.19,0,0,1,.1-.23l.21-.07a2.31,2.31,0,0,1,.79,0A2,2,0,0,1,38,41.57a.18.18,0,0,1,0,.2.2.2,0,0,1-.13.09h-.06a.19.19,0,0,1-.15-.11,1.67,1.67,0,0,0-1.2-1.08,1.74,1.74,0,0,0-.51,0l-.16,0h0A.23.23,0,0,1,35.45,40.58ZM37.85,42a.2.2,0,0,1,.12-.1h0c.12,0,.16.09.2.18l0,0a4.24,4.24,0,0,1,.17.47.14.14,0,0,1,0,.11.18.18,0,0,1-.1.07h0a.16.16,0,0,1-.18-.1l0-.13c-.06-.13-.11-.28-.17-.41A.13.13,0,0,1,37.85,42Zm.51-.29a.19.19,0,0,1-.15-.08.86.86,0,0,1-.1-.16L38,41.38,38,41.27c-.1-.15-.2-.3-.31-.44a1.62,1.62,0,0,0-.58-.47,1.91,1.91,0,0,0-.8-.24.22.22,0,0,1-.19-.17.22.22,0,0,1,.13-.23h.08l.18,0a2.17,2.17,0,0,1,.93.35,2.33,2.33,0,0,1,.44.35,3.08,3.08,0,0,1,.35.44,4.66,4.66,0,0,1,.3.47l0,.08a.2.2,0,0,1-.06.27A.24.24,0,0,1,38.36,41.73ZM38,40.12h0a.33.33,0,0,1-.17-.07v0a2.6,2.6,0,0,0-1-.49,2.44,2.44,0,0,0-1.17,0,2.74,2.74,0,0,0-.63.21l-.17.1-.16.09a.25.25,0,0,1-.17,0,.17.17,0,0,1-.15-.16.21.21,0,0,1,.1-.23,4.27,4.27,0,0,1,.77-.37l.32-.09.39-.05a2.78,2.78,0,0,1,.91.07,3,3,0,0,1,1.29.64.2.2,0,0,1,0,.22A.19.19,0,0,1,38,40.12ZM36.33,38.2a3,3,0,0,0-.79,0,2.18,2.18,0,0,0-.4.08,4.18,4.18,0,0,0-.56.2c-.18.08-.36.18-.54.28l-.07,0-.12,0a.19.19,0,0,1-.17-.1.19.19,0,0,1,0-.15.23.23,0,0,1,.09-.14l0,0,.15-.09a4.34,4.34,0,0,1,2.07-.6,4.69,4.69,0,0,1,1.23.14.25.25,0,0,1,.16.15.19.19,0,0,1,0,.19.2.2,0,0,1-.23.07A3.6,3.6,0,0,0,36.33,38.2Zm.3.54a.19.19,0,0,1-.17.1h0a3.12,3.12,0,0,0-1,.07,5.36,5.36,0,0,0-.52.16h-.08a.23.23,0,0,1-.2-.11.28.28,0,0,1,0-.18.18.18,0,0,1,.11-.1l.13,0,.4-.13.11,0,.44-.07c.25,0,.69-.05.83.1A.18.18,0,0,1,36.63,38.74Zm-2.81.48a1.26,1.26,0,0,1,.47-.29.19.19,0,0,1,.22.08.21.21,0,0,1-.08.29l0,0c-.12.08-.25.17-.36.26a3.43,3.43,0,0,0-.33.33l-.1.1a.2.2,0,0,1-.14.06H33.4a.19.19,0,0,1-.15-.15.26.26,0,0,1,.1-.25C33.5,39.51,33.65,39.36,33.82,39.22Zm3.7-.08L37.09,39l-.17-.06a.21.21,0,0,1-.15-.15h0a.23.23,0,0,1,.16-.26H37c.2.07.43.14.65.24a3,3,0,0,1,.72.44,4.16,4.16,0,0,1,.48.46l.14.17,0,0a.36.36,0,0,1,.09.25.22.22,0,0,1-.09.14.2.2,0,0,1-.11,0,.21.21,0,0,1-.16-.08l-.07-.09L38.6,40a4.09,4.09,0,0,0-.37-.36A2.58,2.58,0,0,0,37.52,39.14Zm1.29-.34a.19.19,0,0,1-.06.16.22.22,0,0,1-.15.06l-.08,0-.12-.07,0,0a4.37,4.37,0,0,0-.76-.43.19.19,0,0,1-.13-.18.2.2,0,0,1,.16-.21.26.26,0,0,1,.15,0,4.37,4.37,0,0,1,.94.55A.18.18,0,0,1,38.81,38.8Zm-.52-1.16a1,1,0,0,1,.17.1.21.21,0,0,1-.15.35l-.1,0L38.09,38l-.19-.09a4.42,4.42,0,0,0-1.1-.31l-.37,0h-.16a.22.22,0,0,1-.2-.17.2.2,0,0,1,.13-.23h.27l.52.06A4.84,4.84,0,0,1,38.29,37.64Zm-3.37-1h0a5.85,5.85,0,0,1,.73-.12h.63a.81.81,0,0,1,.36.05.19.19,0,0,1,.08.25.21.21,0,0,1-.22.13,5.19,5.19,0,0,0-.79,0l-.62.09H35a.22.22,0,0,1-.2-.12.21.21,0,0,1,0-.19A.19.19,0,0,1,34.92,36.64Zm-1.17.44a.56.56,0,0,1,.23-.15l.08,0c.12,0,.24-.09.37-.12h0a.2.2,0,0,1,.23.15.23.23,0,0,1-.14.26l-.54.2-.08,0a.23.23,0,0,1-.16-.08A.19.19,0,0,1,33.75,37.08ZM33,38.24l.11-.09.09-.06a5.51,5.51,0,0,1,1.18-.63,4.7,4.7,0,0,1,.49-.16h0l.23-.06.16,0,.49-.05a.17.17,0,0,1,.13,0,.2.2,0,0,1,.07.15.21.21,0,0,1-.18.22h-.07a3.64,3.64,0,0,0-.66.11l-.15.05c-.18.06-.37.11-.56.19a4.3,4.3,0,0,0-1.09.65.23.23,0,0,1-.14,0h0a.18.18,0,0,1-.17-.16A.21.21,0,0,1,33,38.24Zm-.18,1.06a3.89,3.89,0,0,1,.34-.36l.1-.1,0,0h0l.09,0a.19.19,0,0,1,.21.09.23.23,0,0,1,0,.27l-.43.43a.28.28,0,0,1-.16.07.24.24,0,0,1-.14,0,.21.21,0,0,1-.07-.14A.17.17,0,0,1,32.83,39.3ZM33,40.77a.18.18,0,0,1-.13,0,.2.2,0,0,1-.06-.25l.17-.31a.22.22,0,0,1,.13-.08.18.18,0,0,1,.16,0,.22.22,0,0,1,.07.28.56.56,0,0,1,0,.08,1.14,1.14,0,0,1-.1.19.25.25,0,0,1-.16.11Zm.12.83a2.94,2.94,0,0,1,.33-1,2.88,2.88,0,0,1,.4-.58h0a.5.5,0,0,1,.24-.16.18.18,0,0,1,.19.07.21.21,0,0,1,0,.27,1.7,1.7,0,0,0-.29.36l-.08.12a1.48,1.48,0,0,0-.16.27,2.75,2.75,0,0,0-.21.69.21.21,0,0,1-.09.15.2.2,0,0,1-.11,0h0A.21.21,0,0,1,33.11,41.6Zm.12,1c0-.11,0-.23-.07-.34a.2.2,0,0,1,.17-.23h0a.2.2,0,0,1,.23.16l0,.1a1.55,1.55,0,0,1,0,.21.22.22,0,0,1-.06.19.19.19,0,0,1-.14.07h0A.19.19,0,0,1,33.23,42.58Zm1.45,2a.22.22,0,0,1-.16.09.28.28,0,0,1-.12,0,2.66,2.66,0,0,1-1-1.47.19.19,0,0,1,0-.15.24.24,0,0,1,.13-.09.22.22,0,0,1,.26.15,2.2,2.2,0,0,0,.82,1.21A.21.21,0,0,1,34.68,44.56Zm1.38.37a.16.16,0,0,1-.15.09h-.22a1.58,1.58,0,0,1-.78-.17.2.2,0,0,1-.1-.2.24.24,0,0,1,.17-.18.19.19,0,0,1,.15,0,1.39,1.39,0,0,0,.71.11.21.21,0,0,1,.2.09A.22.22,0,0,1,36.06,44.93Zm-.65-1.22a.15.15,0,0,1-.11-.13.19.19,0,0,1,.14-.24.17.17,0,0,1,.14,0,1.15,1.15,0,0,0,.87.09c.33-.08.5-.3.44-.54s-.18-.32-.77-.29H36c-.5,0-.86-.11-1-.57a.76.76,0,0,1,.09-.59A1,1,0,0,1,35.7,41l.12,0a1.36,1.36,0,0,1,.83,0,.2.2,0,0,1,0,.38.17.17,0,0,1-.12,0,1.17,1.17,0,0,0-.72,0,.64.64,0,0,0-.38.26.37.37,0,0,0,0,.27c.06.22.19.32.81.3s1,.14,1.1.56a.77.77,0,0,1-.12.66,1,1,0,0,1-.62.39,1.65,1.65,0,0,1-.43.06A1.62,1.62,0,0,1,35.41,43.71Zm.72.45a.17.17,0,0,1,.15-.18,1.45,1.45,0,0,0,1.15-.54.69.69,0,0,0,.07-.61l-.43-.91a1.54,1.54,0,0,0-.77.09.26.26,0,0,1-.15,0,.2.2,0,0,1-.11-.11.16.16,0,0,1,0-.15.2.2,0,0,1,.11-.11,1.29,1.29,0,0,1,.34-.11,1.77,1.77,0,0,1,.82,0,.18.18,0,0,1,.13.11l.44.94a1,1,0,0,1,0,1,2,2,0,0,1-1.5.74A.21.21,0,0,1,36.13,44.16Zm2,.05A2.86,2.86,0,0,1,36.5,45h0a.22.22,0,0,1-.16-.07.28.28,0,0,1,0-.22.2.2,0,0,1,.16-.12,2.46,2.46,0,0,0,1.42-.67.14.14,0,0,1,.1,0,.18.18,0,0,1,.2.1A.23.23,0,0,1,38.12,44.21Zm.49.59a.2.2,0,0,1-.14.14h-.1a.23.23,0,0,1-.16-.28,2.51,2.51,0,0,0,0-1.53.24.24,0,0,1,.17-.29h0a.17.17,0,0,1,.21.13A3.1,3.1,0,0,1,38.61,44.8Zm.52-.92h-.06a.2.2,0,0,1-.19-.12s0,0,0-.05a1.7,1.7,0,0,1,0-.22c0-.15,0-.31-.09-.46a3.36,3.36,0,0,0-.13-.47c0-.1-.08-.21-.12-.31L38.39,42a.33.33,0,0,1,0-.14.19.19,0,0,1,.16-.14h.05a.2.2,0,0,1,.18.13l.12.28.19.55a4.18,4.18,0,0,1,.09.41c0,.16.06.34.09.55A.19.19,0,0,1,39.13,43.88Zm.49-.85h-.06a.22.22,0,0,1-.21-.15l0-.12c0-.07,0-.15-.07-.23s-.13-.39-.21-.6a4.09,4.09,0,0,0-.41-.81c-.15-.24-.32-.48-.47-.69a.24.24,0,0,1,0-.32h0l.09,0a.22.22,0,0,1,.22.09l0,0a2.18,2.18,0,0,1,.22.31L39,41c.06.11.36.74.45.95v0a4.64,4.64,0,0,1,.26.82A.21.21,0,0,1,39.62,43Zm.25-1.32-.09,0h-.06a.24.24,0,0,1-.13-.11.61.61,0,0,1-.05-.12l-.09-.16-.38-.7a.22.22,0,0,1,0-.31h0a.11.11,0,0,1,.07,0,.23.23,0,0,1,.24.11l.14.26.06.09c0,.09.21.39.23.45s.07.16.11.23A.23.23,0,0,1,39.87,41.71Z"/><path class="cls-1" d="M30,60A30,30,0,1,1,60,30a29.44,29.44,0,0,1-1.47,9.27.63.63,0,0,1-.8.4.62.62,0,0,1-.4-.79A28.17,28.17,0,0,0,58.74,30a28.73,28.73,0,1,0-5.36,16.72.63.63,0,1,1,1,.73A30.05,30.05,0,0,1,30,60Z"/><path class="cls-2" d="M43.17,19.24v0a.7.7,0,0,0-.19-.47l-.11-.1-.8-.81-.52-.52L37.4,13.18l-.07-.08-.22-.21-.34-.35H18.11a1.28,1.28,0,0,0-1.28,1.29V46.26a1.28,1.28,0,0,0,1.28,1.28H41.89a1.28,1.28,0,0,0,1.28-1.28v-25a.55.55,0,0,0-.55-.55h0a.55.55,0,0,0-.55.55V46.3a.26.26,0,0,1-.25.26H18.18a.26.26,0,0,1-.25-.26V13.9a.26.26,0,0,1,.25-.26H36v5.3a.67.67,0,0,0,.67.66h6.11A.36.36,0,0,0,43.17,19.24Zm-6.06-4.73,4.14,4.14H37.11Z"/><rect class="cls-2" x="20.36" y="30.56" width="19.28" height="1.35" rx="0.67"/><rect class="cls-2" x="20.36" y="33.57" width="14.98" height="1.35" rx="0.67"/><rect class="cls-2" x="20.36" y="36.38" width="10.32" height="1.35" rx="0.67"/><rect class="cls-2" x="36.79" y="33.5" width="2.81" height="1.35" rx="0.67"/><rect class="cls-2" x="36.79" y="27.85" width="2.81" height="1.35" rx="0.67"/><rect class="cls-2" x="31.75" y="24.91" width="3.7" height="1.35" rx="0.67"/><rect class="cls-2" x="36.83" y="24.91" width="2.81" height="1.35" rx="0.67"/><rect class="cls-2" x="31.75" y="27.85" width="7.89" height="1.35" rx="0.67"/><rect class="cls-2" x="36.83" y="27.85" width="2.81" height="1.35" rx="0.67"/><rect class="cls-2" x="20.36" y="39.2" width="9.98" height="1.35" rx="0.67"/><path class="cls-2" d="M26,19.19a2.2,2.2,0,0,0-.86-.17A2.2,2.2,0,0,0,23,21.22a2.21,2.21,0,1,0,3.07-2Z"/><path class="cls-2" d="M29.33,24.91a2.13,2.13,0,0,0-1.85-1.1,3.51,3.51,0,0,1-2.3,1.08,3.51,3.51,0,0,1-2.3-1.08A2.13,2.13,0,0,0,21,24.91l-.67,4.29H30Z"/></g></g></svg>