<?xml version="1.0" encoding="utf-8"?>
<!-- Generator: Adobe Illustrator 24.1.0, SVG Export Plug-In . SVG Version: 6.00 Build 0)  -->
<svg version="1.1" id="Capa_1" xmlns="http://www.w3.org/2000/svg" xmlns:xlink="http://www.w3.org/1999/xlink" x="0px" y="0px"
	 viewBox="0 0 69 69" style="enable-background:new 0 0 69 69;" xml:space="preserve">
<style type="text/css">
	.st0{fill:#9E1724;}
	.st1{fill:#FFFFFF;}
</style>
<path class="st0" d="M34.5,6c-5.6,0-11.1,1.7-15.8,4.8s-8.3,7.6-10.5,12.8C6,28.8,5.4,34.5,6.5,40.1c1.1,5.5,3.8,10.6,7.8,14.6
	s9.1,6.7,14.6,7.8c5.5,1.1,11.3,0.5,16.5-1.6s9.7-5.8,12.8-10.5S63,40.1,63,34.5c0-3.7-0.7-7.4-2.2-10.9c-1.4-3.5-3.5-6.6-6.2-9.2
	c-2.6-2.6-5.8-4.7-9.2-6.2C41.9,6.7,38.2,6,34.5,6L34.5,6z"/>
<path class="st0" d="M34.5,69c-6.8,0-13.5-2-19.2-5.8C9.7,59.4,5.2,54,2.6,47.7c-2.6-6.3-3.3-13.2-2-19.9s4.6-12.8,9.4-17.7
	c4.8-4.8,11-8.1,17.7-9.4c6.7-1.3,13.6-0.6,19.9,2s11.7,7,15.5,12.7C67,21,69,27.7,69,34.5c0,3.6-0.6,7.2-1.7,10.7
	c0,0.1-0.1,0.2-0.1,0.2c-0.1,0.1-0.1,0.1-0.2,0.2c-0.1,0-0.2,0.1-0.3,0.1c-0.1,0-0.2,0-0.3,0c-0.1,0-0.2-0.1-0.2-0.1
	c-0.1-0.1-0.1-0.1-0.2-0.2c0-0.1-0.1-0.2-0.1-0.3c0-0.1,0-0.2,0-0.3c1.1-3.3,1.6-6.7,1.6-10.2c0-7.9-2.8-15.5-7.9-21.5
	c-5.1-6-12.2-9.9-20-11.2c-7.8-1.2-15.7,0.4-22.4,4.5C10.5,10.5,5.5,16.9,3,24.4S1,40,4,47.3S12.6,60.5,19.7,64
	c7,3.5,15.1,4.4,22.8,2.6c7.6-1.9,14.4-6.4,18.9-12.9c0-0.1,0.1-0.2,0.2-0.2c0.1-0.1,0.2-0.1,0.3-0.1c0.1,0,0.2,0,0.3,0
	c0.1,0,0.2,0.1,0.3,0.1c0.1,0.1,0.2,0.1,0.2,0.2c0.1,0.1,0.1,0.2,0.1,0.3c0,0.1,0,0.2,0,0.3c0,0.1-0.1,0.2-0.2,0.3
	c-3.2,4.5-7.4,8.1-12.3,10.6C45.4,67.7,40,69,34.5,69L34.5,69z"/>
<path class="st1" d="M42.8,42.3c-1.3,0-2.5,0.5-3.4,1.3l-12.3-6.9c0.1-0.4,0.2-0.8,0.2-1.2s-0.1-0.8-0.2-1.2l12.1-6.8
	c0.9,0.8,2.2,1.3,3.5,1.3c1.4,0,2.7-0.5,3.7-1.5c1-0.9,1.5-2.2,1.5-3.5c0-1.3-0.5-2.6-1.5-3.5c-1-0.9-2.3-1.5-3.7-1.5
	s-2.7,0.5-3.7,1.5c-1,0.9-1.5,2.2-1.5,3.5c0,0.4,0.1,0.8,0.2,1.2l-12.1,6.8c-0.9-0.8-2.2-1.3-3.5-1.3c-1.4,0-2.7,0.5-3.7,1.5
	c-1,0.9-1.5,2.2-1.5,3.5c0,1.3,0.5,2.6,1.5,3.5c1,0.9,2.3,1.5,3.7,1.5c1.4,0,2.6-0.5,3.5-1.3l12.3,6.9c-0.1,0.3-0.1,0.7-0.1,1.1
	c0,2.7,2.3,4.8,5,4.8c2.8,0,5-2.2,5-4.8c0-1.3-0.5-2.5-1.5-3.4C45.4,42.8,44.2,42.3,42.8,42.3z"/>
</svg>
