<?xml version="1.0" encoding="utf-8"?>
<!-- Generator: Adobe Illustrator 24.1.0, SVG Export Plug-In . SVG Version: 6.00 Build 0)  -->
<svg version="1.1" id="Capa_1" xmlns="http://www.w3.org/2000/svg" xmlns:xlink="http://www.w3.org/1999/xlink" x="0px" y="0px"
	 viewBox="0 0 60 60" style="enable-background:new 0 0 60 60;" xml:space="preserve">
<style type="text/css">
	.st0{clip-path:url(#SVGID_2_);}
	.st1{fill:#9E1724;}
	.st2{fill:#FFFFFF;}
</style>
<g>
	<defs>
		<rect id="SVGID_1_" width="60" height="60"/>
	</defs>
	<clipPath id="SVGID_2_">
		<use xlink:href="#SVGID_1_"  style="overflow:visible;"/>
	</clipPath>
	<g class="st0">
		<path class="st1" d="M30,5c-4.9,0-9.8,1.5-13.9,4.2C12,12,8.8,15.9,6.9,20.4C5,25,4.5,30,5.5,34.9c1,4.8,3.3,9.3,6.8,12.8
			c3.5,3.5,8,5.9,12.8,6.8c4.8,1,9.9,0.5,14.4-1.4S48,48,50.8,43.9C53.5,39.8,55,34.9,55,30c0-3.3-0.6-6.5-1.9-9.6
			c-1.3-3-3.1-5.8-5.4-8.1c-2.3-2.3-5.1-4.2-8.1-5.4S33.3,5,30,5z"/>
		<path class="st1" d="M30,60c-5.9,0-11.7-1.8-16.7-5.1c-4.9-3.3-8.8-8-11-13.5S-0.6,30,0.6,24.1c1.2-5.8,4-11.2,8.2-15.4
			c4.2-4.2,9.5-7.1,15.4-8.2C30-0.6,36,0,41.5,2.3s10.2,6.1,13.5,11C58.2,18.3,60,24.1,60,30c0,3.1-0.5,6.3-1.5,9.3
			c0,0.1-0.1,0.2-0.1,0.2c-0.1,0.1-0.1,0.1-0.2,0.2c-0.1,0-0.2,0.1-0.2,0.1c-0.1,0-0.2,0-0.2,0c-0.1,0-0.2-0.1-0.2-0.1
			c-0.1-0.1-0.1-0.1-0.2-0.2c0-0.1-0.1-0.2-0.1-0.2c0-0.1,0-0.2,0-0.2c0.9-2.9,1.4-5.9,1.4-8.9c0-6.8-2.5-13.5-6.9-18.7
			c-4.5-5.2-10.6-8.6-17.4-9.7C27.7,0.6,20.8,2,14.9,5.6C9.1,9.2,4.7,14.7,2.7,21.2c-2.1,6.5-1.8,13.6,0.9,19.9S11,52.6,17.1,55.7
			c6.1,3.1,13.1,3.9,19.8,2.2c6.6-1.6,12.5-5.6,16.5-11.2c0-0.1,0.1-0.2,0.2-0.2c0.1-0.1,0.2-0.1,0.2-0.1c0.1,0,0.2,0,0.3,0
			c0.1,0,0.2,0.1,0.3,0.1s0.1,0.1,0.2,0.2c0,0.1,0.1,0.2,0.1,0.3c0,0.1,0,0.2,0,0.3c0,0.1-0.1,0.2-0.2,0.2c-2.8,3.9-6.4,7-10.7,9.2
			C39.5,58.9,34.8,60,30,60z"/>
		<path class="st2" d="M30,43c1.5,0,2.8-1.2,2.8-2.8h-5.5c0,0.7,0.3,1.4,0.8,2C28.6,42.7,29.3,43,30,43z M38.3,34.7v-6.9
			c0-4.3-2.3-7.8-6.2-8.8v-0.9c0-1.1-0.9-2.1-2.1-2.1s-2.1,0.9-2.1,2.1V19c-3.9,0.9-6.2,4.5-6.2,8.8v6.9L19,37.5v1.4h22v-1.4
			L38.3,34.7z"/>
	</g>
</g>
</svg>
