<svg width="45" height="45" viewBox="0 0 45 45" fill="none" xmlns="http://www.w3.org/2000/svg">
<circle cx="22.5" cy="22.5" r="22" stroke="#9E1425"/>
<path d="M24.3641 24.3646H20.6355V13.1789H24.3641V24.3646ZM24.3641 31.8217H20.6355V28.0931H24.3641V31.8217ZM22.4998 3.85742C20.0516 3.85742 17.6273 4.33963 15.3655 5.27652C13.1036 6.21342 11.0484 7.58664 9.3173 9.31779C5.82109 12.814 3.85693 17.5559 3.85693 22.5003C3.85693 27.4447 5.82109 32.1866 9.3173 35.6828C11.0484 37.4139 13.1036 38.7871 15.3655 39.724C17.6273 40.6609 20.0516 41.1431 22.4998 41.1431C27.4442 41.1431 32.1861 39.179 35.6823 35.6828C39.1785 32.1866 41.1426 27.4447 41.1426 22.5003C41.1426 20.0521 40.6604 17.6278 39.7235 15.366C38.7867 13.1041 37.4134 11.0489 35.6823 9.31779C33.9511 7.58664 31.896 6.21342 29.6341 5.27652C27.3722 4.33963 24.948 3.85742 22.4998 3.85742Z" fill="#9E1425"/>
</svg>
