<svg xmlns="http://www.w3.org/2000/svg" viewBox="0 0 60 60"><g id="Capa_2" data-name="Capa 2"><g id="Capa_1-2" data-name="Capa 1"><path d="M30,4.87a25,25,0,1,0,25,25A25,25,0,0,0,30,4.87Z" fill="#9e1724"/><path d="M30,60A30,30,0,1,1,60,30a29.44,29.44,0,0,1-1.47,9.27.63.63,0,0,1-.8.4.62.62,0,0,1-.4-.79A28.17,28.17,0,0,0,58.74,30a28.73,28.73,0,1,0-5.36,16.72.63.63,0,1,1,1,.73A30.05,30.05,0,0,1,30,60Z" fill="#9e1724"/><path d="M43.17,19.07v0a.68.68,0,0,0-.19-.47l-.11-.11-.8-.8-.52-.52L37.4,13l-.07-.07-.22-.22-.34-.34H18.11a1.28,1.28,0,0,0-1.28,1.28V46.09a1.28,1.28,0,0,0,1.28,1.28H41.89a1.28,1.28,0,0,0,1.28-1.28v-25a.55.55,0,0,0-.55-.55h0a.55.55,0,0,0-.55.55V46.13a.26.26,0,0,1-.25.26H18.18a.26.26,0,0,1-.25-.26V13.73a.26.26,0,0,1,.25-.26H36v5.29a.67.67,0,0,0,.67.67h6.11A.36.36,0,0,0,43.17,19.07Zm-6.06-4.73,4.14,4.13H37.11Z" fill="#fff"/><rect x="28.23" y="26.9" width="11.51" height="1.35" rx="0.67" fill="#fff"/><rect x="20.26" y="29.71" width="19.47" height="1.35" rx="0.67" fill="#fff"/><rect x="20.26" y="32.53" width="19.47" height="1.35" rx="0.67" fill="#fff"/><rect x="20.26" y="35.34" width="19.47" height="1.35" rx="0.67" fill="#fff"/><rect x="20.26" y="38.16" width="19.47" height="1.35" rx="0.67" fill="#fff"/><rect x="20.26" y="40.98" width="11.51" height="1.35" rx="0.67" fill="#fff"/><path d="M28.08,26.08h0l-.17-.16a22.75,22.75,0,0,1-2-2.35l-.34-.43.54-1a6.27,6.27,0,0,0,.75-1.64.43.43,0,0,0,0-.11,1.21,1.21,0,0,0,0-.38c0-.08,0-.16,0-.25h0v0h0c0-.05,0-.09,0-.14V19l0-.05v0l0-.07v-.1l0-.07h0l0-.08v0l0-.06v0a.24.24,0,0,0,0-.08h0l0-.07v0l0-.06v0a.59.59,0,0,1,0-.08h0l0-.06v0l0-.07h0s0-.05,0-.08h0l0-.06v0a.25.25,0,0,1,0-.07h0l-.05-.07h0l0-.06v0L26,17.54h0L26,17.47v0l0-.05v0l-.12-.12,0,0-.05,0h0l-.07-.06h0l-.07-.05,0,0-.06,0h0l-.07,0h0l-.06,0h0l-.07,0h0l-.09,0h0l-.07,0h0l-.08,0h0l-.1,0h0l-.08,0H23.61l-.07,0h0l-.08,0h0l-.09,0h0l-.07,0h0l-.06,0h0L23,17h0l0,0,0,0-.06,0h0l-.07.05h0l-.06.05h0l-.05.05,0,0-.05.05h0l-.05.06h0l0,.06v0l0,.05h0l-.09.15h0l0,.06v0l0,.06h0l-.05.08h0l0,.07v0l0,.06v0l0,.07h0l0,.08h0l0,.06v0l0,.06v0a.24.24,0,0,0,0,.08h0a.24.24,0,0,1,0,.08v.1l0,.06v0l0,.07h0v.24l0,.07v.45h0a.28.28,0,0,0,0,.09h0v0h0v0h0a1.69,1.69,0,0,0,0,.5v.05s0,.05,0,.08v0h0A9.5,9.5,0,0,0,23,23.14l-.72,1s.3-.38.73-.95l0,.05a27,27,0,0,1-2.73,3.09,27.15,27.15,0,0,0,1.86,2.14,33.62,33.62,0,0,0,2.13-3.12c.28.45.57.89.88,1.32a16.49,16.49,0,0,0,1.31,1.71h0C27,27.61,27.56,26.86,28.08,26.08Zm-3.84-4.75a23.31,23.31,0,0,1-1.42-2.14h0a1.38,1.38,0,0,1-.12-.39,2.94,2.94,0,0,1,1.53-.38,2.61,2.61,0,0,1,1.52.45,1.58,1.58,0,0,1-.11.31C25.3,19.77,24.77,20.56,24.24,21.33Zm0,.06v0Z" fill="#fff"/></g></g></svg>