<svg xmlns="http://www.w3.org/2000/svg" viewBox="0 0 60 60"><g id="Capa_2" data-name="Capa 2"><g id="Capa_1-2" data-name="Capa 1"><path d="M30,60A30,30,0,1,1,60,30a29.44,29.44,0,0,1-1.47,9.27.63.63,0,0,1-.8.4.62.62,0,0,1-.4-.79A28.17,28.17,0,0,0,58.74,30a28.73,28.73,0,1,0-5.36,16.72.63.63,0,1,1,1,.73A30.05,30.05,0,0,1,30,60Z" fill="#9e1724"/><path d="M23.34,21.22a1.19,1.19,0,1,0,0-2.38,1.19,1.19,0,0,0,0,2.38Z" fill="#9e1724"/><path d="M30,4.87a25,25,0,1,0,25,25A25,25,0,0,0,30,4.87Zm13.17,14.2a.36.36,0,0,1-.36.36H36.7a.67.67,0,0,1-.67-.67V13.47H18.18a.26.26,0,0,0-.25.26v32.4a.26.26,0,0,0,.25.26H41.82a.26.26,0,0,0,.25-.26V21.06a.55.55,0,0,1,.55-.55.55.55,0,0,1,.55.55v25a1.28,1.28,0,0,1-1.28,1.28H18.11a1.28,1.28,0,0,1-1.28-1.28V13.65a1.28,1.28,0,0,1,1.28-1.28H36.77l.34.34.22.22.07.07,4.15,4.15.52.52.8.8.11.11a.68.68,0,0,1,.19.47ZM20.35,20a3,3,0,1,1,6,0,3,3,0,0,1-.76,2v2.8a.28.28,0,0,1-.27.28l-.1,0-2-.8-1.78.79a.27.27,0,0,1-.26,0,.28.28,0,0,1-.13-.23V22A3,3,0,0,1,20.35,20Zm8.57,11L35,33.14l-9.57,9.18-7.18-3.78Zm-.1-6.36H39.66a.69.69,0,0,1,.68.68.68.68,0,0,1-.68.67H28.82a.68.68,0,0,1-.68-.67A.69.69,0,0,1,28.82,24.66Zm-.68-2.14a.68.68,0,0,1,.68-.67h6.83a.68.68,0,0,1,0,1.35H28.82A.68.68,0,0,1,28.14,22.52Zm9.06,0a.67.67,0,0,1,.67-.67h.43a.68.68,0,0,1,0,1.35h-.43A.67.67,0,0,1,37.2,22.52Zm3.11,5.57a.67.67,0,0,1-.67.67h-.43a.68.68,0,0,1-.68-.67.69.69,0,0,1,.68-.68h.43A.68.68,0,0,1,40.31,28.09Zm-11.49-.61h8.12a.68.68,0,1,1,0,1.35H28.82a.68.68,0,1,1,0-1.35Zm.89,11.86L35.21,44l-1.86,2.19L26.41,42.7Zm.56-.54,5.36-5.43,6.19,2.05-6.1,8Z" fill="#9e1724"/><path d="M23.34,22.47A2.44,2.44,0,1,0,20.9,20,2.44,2.44,0,0,0,23.34,22.47Zm0-4.18A1.74,1.74,0,1,1,21.6,20,1.74,1.74,0,0,1,23.34,18.29Z" fill="#9e1724"/><path d="M21.61,22.46v1.93l1.49-.67a.26.26,0,0,1,.21,0L25,24.4V22.5a3,3,0,0,1-3.41,0Z" fill="#9e1724"/><path d="M27.32,33.26a1.92,1.92,0,0,0-1.92,1.92c0,1.44,1.92,3.57,1.92,3.57s1.92-2.13,1.92-3.57A1.92,1.92,0,0,0,27.32,33.26ZM26,35.18a1.37,1.37,0,0,1,2.74,0,5.78,5.78,0,0,1-1.37,2.71A5.87,5.87,0,0,1,26,35.18Z" fill="#9e1724"/><circle cx="27.32" cy="35.18" r="0.69" fill="#9e1724"/><ellipse cx="27.32" cy="39.05" rx="1.16" ry="0.11" fill="#9e1724"/></g></g></svg>