<svg xmlns="http://www.w3.org/2000/svg" viewBox="0 0 60 60"><g id="Capa_2" data-name="Capa 2"><g id="Capa_1-2" data-name="Capa 1"><path d="M30,60A30,30,0,1,1,60,30a29.44,29.44,0,0,1-1.47,9.27.63.63,0,0,1-.8.4.62.62,0,0,1-.4-.79A28.17,28.17,0,0,0,58.74,30a28.73,28.73,0,1,0-5.36,16.72.63.63,0,1,1,1,.73A30.05,30.05,0,0,1,30,60Z" fill="#9e1724"/><rect x="31.72" y="31.13" width="4.85" height="1.99" fill="#9e1724"/><rect x="31.72" y="37.72" width="4.85" height="1.98" fill="#9e1724"/><rect x="31.72" y="34.29" width="4.85" height="2.27" fill="#9e1724"/><rect x="38.3" y="31.13" width="4.66" height="1.99" fill="#9e1724"/><polygon points="42.94 15.48 41.72 14.34 32.05 24.02 33.18 25.24 42.94 15.48" fill="#9e1724"/><rect x="38.3" y="34.29" width="4.66" height="2.27" fill="#9e1724"/><rect x="38.3" y="37.72" width="4.66" height="1.98" fill="#9e1724"/><rect x="17.05" y="37.72" width="12.94" height="1.98" fill="#9e1724"/><path d="M30,4.87a25,25,0,1,0,25,25A25,25,0,0,0,30,4.87Zm12.1,8.55a.34.34,0,0,0,.45,0l.71-.59a.31.31,0,0,1,.44,0l.66.71a.31.31,0,0,1,0,.44l-.49.52a.32.32,0,0,0,0,.47l.07.06a.32.32,0,0,1,0,.47L33.61,25.93a.28.28,0,0,1-.17.09l-1.92.33a.31.31,0,0,0-.2.11l-.09.11a.35.35,0,0,1-.27.11H30.9a.32.32,0,0,1-.29-.23l0-.06a.3.3,0,0,1,0-.29l.17-.23a.35.35,0,0,0,.05-.13l.38-2a.26.26,0,0,1,.09-.17L41.64,13.41A.32.32,0,0,1,42.1,13.42Zm-23.83,12a1.05,1.05,0,0,0-.19-.28,1.18,1.18,0,0,0-.31-.21,2,2,0,0,0-.35-.16l-.4-.15a5.37,5.37,0,0,1-.6-.22,3.91,3.91,0,0,1-.55-.27,2.24,2.24,0,0,1-.49-.37,1.65,1.65,0,0,1-.32-.5,1.59,1.59,0,0,1-.14-.66,1.74,1.74,0,0,1,1.64-1.84v-.62h1.2v.58a3.64,3.64,0,0,1,1.68.6l-.59.94a3,3,0,0,0-1.52-.51,2.19,2.19,0,0,0-.47.05,1.07,1.07,0,0,0-.32.12.58.58,0,0,0-.2.18.7.7,0,0,0-.11.23,1.12,1.12,0,0,0,0,.27.83.83,0,0,0,.07.32,1.06,1.06,0,0,0,.17.23,1.13,1.13,0,0,0,.28.18l.32.14.37.13.47.17.44.18a2.24,2.24,0,0,1,.42.22,2.21,2.21,0,0,1,.35.27,1.07,1.07,0,0,1,.29.36,2,2,0,0,1,.17.44,1.92,1.92,0,0,1,.08.55,2.53,2.53,0,0,1-.12.82,1.68,1.68,0,0,1-.28.57,1.35,1.35,0,0,1-.43.35,1.81,1.81,0,0,1-.49.2l-.55.08v.56h-1.2v-.58a8.69,8.69,0,0,1-1.78-.42l.32-1c.51.16.91.28,1.2.34a4.34,4.34,0,0,0,.86.09h.36l.31-.06a.82.82,0,0,0,.28-.15.85.85,0,0,0,.17-.29,1.33,1.33,0,0,0,.07-.47A.87.87,0,0,0,18.27,25.47Zm-2.95,4.88c0-.21.25-.38.56-.38H44.11c.31,0,.56.17.57.38V40.47c0,.21-.25.39-.56.39H15.89c-.31,0-.56-.17-.57-.38V30.35Zm26.55-1.67H23.75a.68.68,0,1,1,0-1.35H41.87a.68.68,0,1,1,0,1.35ZM47.5,43.77h-35V17.44H35l-1.32,1.31H13.81V42.46H46.18V18.75H42.73L44,17.44H47.5Z" fill="#9e1724"/><rect x="17.05" y="34.29" width="12.94" height="2.27" fill="#9e1724"/><rect x="17.05" y="31.13" width="12.94" height="1.99" fill="#9e1724"/></g></g></svg>