<svg xmlns="http://www.w3.org/2000/svg" viewBox="0 0 60 60"><defs><style>.cls-1{fill:#fff;}.cls-2{fill:#9e1724;}</style></defs><g id="Capa_2" data-name="Capa 2"><g id="Capa_1-2" data-name="Capa 1"><path class="cls-1" d="M30,5A25,25,0,1,0,55,30,25,25,0,0,0,30,5Z"/><path class="cls-1" d="M30,60A30,30,0,1,1,60,30a29.44,29.44,0,0,1-1.47,9.27.63.63,0,0,1-.8.4.62.62,0,0,1-.4-.79A28.17,28.17,0,0,0,58.74,30a28.73,28.73,0,1,0-5.36,16.72.63.63,0,1,1,1,.73A30.05,30.05,0,0,1,30,60Z"/><path class="cls-2" d="M19.6,13.57a50,50,0,0,1,9.72-1.07,17,17,0,0,1,5.46.81,8.5,8.5,0,0,1,4,2.73A7.42,7.42,0,0,1,40.4,20.8v.78a7.3,7.3,0,0,1-1.32,4.25A10.46,10.46,0,0,1,35.47,29l-3.22,1.61a5.28,5.28,0,0,0-1.2.85,3.25,3.25,0,0,0-.73,1.2,5.09,5.09,0,0,0-.27,1.76v3.76H24V34.42a9.2,9.2,0,0,1,1.19-4.83,9.87,9.87,0,0,1,4.18-3.52l3.12-1.61a3.06,3.06,0,0,0,1.81-2.88v-.73q0-3.23-5-3.22A58.4,58.4,0,0,0,20,18.7ZM30.15,41.35V47.5H23.9V41.35Z"/></g></g></svg>