<svg xmlns="http://www.w3.org/2000/svg" xmlns:xlink="http://www.w3.org/1999/xlink" viewBox="0 0 60 60"><defs><style>.cls-1{fill:#9e1724;}.cls-2{fill:#fff;}.cls-3{clip-path:url(#clip-path);}</style><clipPath id="clip-path"><path class="cls-1" d="M21.16,44.31a6.84,6.84,0,0,0,3.69,1.43c.8.1.8-1.15,0-1.26A5.47,5.47,0,0,1,22,43.42a.59.59,0,0,0-.41-.17.62.62,0,0,0-.47,1.06m12.33-1.05a10,10,0,0,1-6.22,1.48.63.63,0,0,0-.1,1.25A11.11,11.11,0,0,0,34,44.39a.68.68,0,0,0-.25-1.23.54.54,0,0,0-.3.1m2.68-3.68a.77.77,0,0,0-.73.78,10.24,10.24,0,0,1-1.15,6.12.69.69,0,0,0,.31.94.67.67,0,0,0,.3.08.53.53,0,0,0,.49-.32,12.45,12.45,0,0,0,1.33-7.09.5.5,0,0,0-.53-.51h0M19.74,38.3a6.72,6.72,0,0,0,5.34,5c.79.19.85-1.07.07-1.25A5.72,5.72,0,0,1,21,38a.63.63,0,0,0-1.23.26m-3-1.82a10.26,10.26,0,0,0,2.64,6.45c.55.59,1.43-.3.88-.9A8.84,8.84,0,0,1,18,36.49a.65.65,0,0,0-.68-.6.53.53,0,0,0-.57.59m20.5-.65a.78.78,0,0,0-.07.42c.12.76.28,1.51.38,2.27a16,16,0,0,1,.13,1.95c0,.92,0,1.85-.07,2.77,0,.07,0,.14,0,.17a.64.64,0,0,0,.69.5.6.6,0,0,0,.55-.53c0-.74.09-1.49.11-2.24a14.79,14.79,0,0,0,0-1.63c-.07-.77-.18-1.53-.29-2.3,0-.4-.13-.8-.22-1.2a.65.65,0,0,0-.51-.51h-.11a.59.59,0,0,0-.56.33m-1.85-.37h0a.74.74,0,0,0-.53.31.58.58,0,0,0-.11.45c.12.59.22,1.19.31,1.77l.09.54a.67.67,0,0,0,.64.55h0a.62.62,0,0,0,.45-.21.58.58,0,0,0,.14-.43,14,14,0,0,0-.29-1.95l0-.15c-.07-.4-.15-.88-.65-.88Zm-6.89-2.37a.59.59,0,0,0-.46.71.6.6,0,0,0,.71.46,6.43,6.43,0,0,1,3.31.3l1,4.07c.25,2.2-1.56,4.14-5.93,3.73-.64-.06-.76.94-.13,1.14,3.19.61,8.22-.86,7.3-5.36l-1-4h0a.58.58,0,0,0-.3-.4,7.2,7.2,0,0,0-4.5-.59m-12-.31a12.89,12.89,0,0,0,0,1.39.61.61,0,0,0,.51.57.67.67,0,0,0,.76-.65c0-.41,0-.82,0-1.23a.63.63,0,0,0-.57-.65h0a.64.64,0,0,0-.65.58m5.11-.44a8.09,8.09,0,0,0-.25,2.29,7.61,7.61,0,0,0,.46,2.44c.18.49.72,2,1.36,2h0a.54.54,0,0,0,.51-.29.63.63,0,0,0,0-.67,7.35,7.35,0,0,1-1-2.59,7.26,7.26,0,0,1,.06-2.71l0,0a1.65,1.65,0,0,0,0-.32.6.6,0,0,0-.53-.55h-.08a.59.59,0,0,0-.58.43m19.68-2a.69.69,0,0,0-.34.94c.33,1,.63,2,.93,3,.12.41.21.82.32,1.23A.61.61,0,0,0,43,36a.66.66,0,0,0,.46-.79c-.07-.31-.14-.63-.22-1s-.42-1.56-.54-1.95l-.51-1.52a.67.67,0,0,0-.62-.51.69.69,0,0,0-.24,0m-14-.11c-2.08.1-3.53,1.5-3.45,3.21v0c.09,1.79,1.28,2.55,3.82,3,2.32.37,2.89.92,2.94,1.94v0c0,1.08-.88,1.9-2.35,2a4.93,4.93,0,0,1-3.51-1.13.54.54,0,0,0-.38-.12.58.58,0,0,0-.56.63.55.55,0,0,0,.25.46,6.39,6.39,0,0,0,4.21,1.27c2.17-.1,3.67-1.39,3.58-3.27v0c-.08-1.67-1.24-2.5-3.7-2.92s-3-1-3.07-2v0c-.05-1,.83-1.87,2.26-1.94a4.56,4.56,0,0,1,2.91.71.56.56,0,0,0,.36.09.59.59,0,0,0,.57-.62.63.63,0,0,0-.29-.49,5.4,5.4,0,0,0-3.09-.81h-.5m-7-1a8.86,8.86,0,0,0-1.06,2.42,8.74,8.74,0,0,0-.36,2.83c0,.69.12,2.38.75,2.63a.57.57,0,0,0,.6-.12.66.66,0,0,0,.19-.69A8.27,8.27,0,0,1,20.21,33a8.57,8.57,0,0,1,1-3,1.27,1.27,0,0,0,.18-.37.61.61,0,0,0-.36-.71.63.63,0,0,0-.27-.06.62.62,0,0,0-.52.27m17.55-.38a.68.68,0,0,0-.23.94c.43,1,.86,2.07,1.26,3.12a18.66,18.66,0,0,1,.94,3.52c.14.85.25,1.7.35,2.55.06.48.06,1,.1,1.45A.65.65,0,0,0,41,41a.63.63,0,0,0,.57-.64A19.92,19.92,0,0,0,41.19,37l0-.13c-.17-.9-.84-3.62-1-4.06-.24-.69-.49-1.4-.75-2.11-.2-.52-.45-1-.69-1.53a.64.64,0,0,0-.91-.35M25.69,28a4.9,4.9,0,0,0-3.47,2.91.48.48,0,0,0,.31.66.85.85,0,0,0,.23,0,.64.64,0,0,0,.62-.43,4,4,0,0,1,2.66-2,.51.51,0,0,0,.41-.63.64.64,0,0,0-.61-.53l-.15,0m1.6-.43a.53.53,0,0,0-.43.61.67.67,0,0,0,.7.56h0l.17,0c.22,0,.44,0,.65,0a6.58,6.58,0,0,1,2.08.46c2.67,1,3.61,3.77,3.94,5.33a.5.5,0,0,0,.34.41.58.58,0,0,0,.19,0,.68.68,0,0,0,.45-.17.6.6,0,0,0,.19-.58,8,8,0,0,0-4.5-6.08,8.62,8.62,0,0,0-3-.65,3.61,3.61,0,0,0-.84.09m2.6-1.32a.63.63,0,0,0,.47.64,8.09,8.09,0,0,1,3,1.61,7.37,7.37,0,0,1,1.93,2.41c.39.81.71,1.65,1.05,2.48.15.39.25.8.43,1.17a.59.59,0,0,0,.8.26.65.65,0,0,0,.35-.79c-.29-.8-.57-1.61-.9-2.39a12.65,12.65,0,0,0-1-2,10.68,10.68,0,0,0-1.39-1.69,8.67,8.67,0,0,0-3.29-2.07c-.22-.08-.45-.15-.68-.21a.41.41,0,0,0-.19,0h0a.69.69,0,0,0-.53.62m-4.34-.75a9.82,9.82,0,0,0-3.76,2,.66.66,0,0,0-.09.89.63.63,0,0,0,.92.09,7.94,7.94,0,0,1,2-1.28,7.4,7.4,0,0,1,2.3-.66c.47,0,.95-.06,1.42-.08s.67-.19.74-.5a.65.65,0,0,0-.63-.8h-.26a10.54,10.54,0,0,0-2.61.32m16-.56a.72.72,0,0,0-.37.94c.43.71.81,1.44,1.21,2.16a.67.67,0,0,0,.81.31.59.59,0,0,0,.35-.81A12.38,12.38,0,0,0,43,26.34c-.19-.35-.42-.69-.62-1s-.29-.46-.56-.46a.69.69,0,0,0-.26.06m-20.64,0a13.38,13.38,0,0,0-2,1.9,11.82,11.82,0,0,0-2.06,3.49.65.65,0,0,0,.34.84.62.62,0,0,0,.85-.39,12.31,12.31,0,0,1,1.42-2.59,13.1,13.1,0,0,1,1.26-1.32,7.87,7.87,0,0,1,1.47-1.23.65.65,0,0,0,.22-.78.57.57,0,0,0-.53-.33,1.74,1.74,0,0,0-1,.41m-3.47-.25a12.92,12.92,0,0,0-.9,1.06.61.61,0,0,0,0,.77.66.66,0,0,0,1,0c.29-.29.54-.62.8-.93a.63.63,0,0,0,0-.87.65.65,0,0,0-.46-.18.58.58,0,0,0-.43.18m9.33-2a14.85,14.85,0,0,0-3.26.81.64.64,0,0,0-.47.61.55.55,0,0,0,.35.57.94.94,0,0,0,.55,0c.49-.14,1-.36,1.47-.49a10.94,10.94,0,0,1,2.69-.32,10.61,10.61,0,0,1,8.21,3.87.94.94,0,0,0,.58.45.66.66,0,0,0,.65-.3.6.6,0,0,0,0-.71,11.84,11.84,0,0,0-4.43-3.5,12.1,12.1,0,0,0-3.47-1,11.54,11.54,0,0,0-1.55-.11,9.32,9.32,0,0,0-1.29.09m6.75-.55a.6.6,0,0,0,.36.54c.73.46,1.49.89,2.2,1.39a10.7,10.7,0,0,1,2.45,2.44c.41.56.79,1.14,1.16,1.74.2.32.33.68.51,1a.64.64,0,0,0,.78.31.67.67,0,0,0,.36-.34,1.25,1.25,0,0,0-.16-.89c-.14-.28-.29-.58-.45-.87a14.7,14.7,0,0,0-1.5-2.17A12.4,12.4,0,0,0,36.82,23a26.69,26.69,0,0,0-2.34-1.44.63.63,0,0,0-1,.56m-12-.49c-.75.42-1.47.88-2.19,1.34-.26.16-.53.35-.51.73a.64.64,0,0,0,1,.51c.67-.45,1.33-.92,2-1.32a16.29,16.29,0,0,1,1.81-.8.63.63,0,0,0,.45-.81.6.6,0,0,0-.62-.35,5.07,5.07,0,0,0-2,.7m15.18-.73a.57.57,0,0,0,.27.63,16.42,16.42,0,0,1,2.68,2.31,3,3,0,0,0,.47.47.77.77,0,0,0,.71,0,.65.65,0,0,0,.14-.95,17.44,17.44,0,0,0-3.2-2.87.76.76,0,0,0-.46-.15.61.61,0,0,0-.61.53m-9.1-.83c-.73,0-1.46.16-2.19.25a.62.62,0,0,0-.49.76.7.7,0,0,0,.78.48,17.68,17.68,0,0,1,2.18-.21A12.93,12.93,0,0,1,32,22a.62.62,0,0,0,.77-.79c-.38-.64-2.12-.9-3-1a17.11,17.11,0,0,0-1.75-.1h-.47m-7.77-.42a6,6,0,0,0-.62.34c-.54.36-1.08.74-1.61,1.13a.62.62,0,0,0-.13.87.67.67,0,0,0,.92.13c.67-.45,1.35-.89,2-1.33a.72.72,0,0,0,.3-.8.62.62,0,0,0-.59-.39,1.17,1.17,0,0,0-.3.05m2.75-1.22c-.26.08-.52.18-.78.28a.65.65,0,1,0,.47,1.2c.88-.27,1.76-.56,2.66-.76a19.24,19.24,0,0,1,2.4-.33,11.09,11.09,0,0,1,1.63,0,16.34,16.34,0,0,1,3.18.51,16,16,0,0,1,3.07,1.16.6.6,0,0,0,.71-.07.69.69,0,0,0-.21-1.11A16.75,16.75,0,0,0,31,17.8a19.51,19.51,0,0,0-3.15-.27h0a17.19,17.19,0,0,0-5.32.92m9.91-2.89a.66.66,0,0,0-.55.64.67.67,0,0,0,.51.61c.67.21,1.36.39,2,.63a16.68,16.68,0,0,1,4.1,2.14c.38.27.74.56,1.12.84a.63.63,0,0,0,1-.8,2.53,2.53,0,0,0-.53-.5,18.57,18.57,0,0,0-4.69-2.7c-.88-.34-1.79-.58-2.68-.86l-.1,0-.15,0M27.14,15c-.68.05-1.36.11-2,.22A21.67,21.67,0,0,0,20,16.74l-.9.41a.67.67,0,0,0-.43.63.58.58,0,0,0,.42.58.72.72,0,0,0,.48,0,18.18,18.18,0,0,1,4.89-1.69c1-.17,2-.24,3-.34a16,16,0,0,1,3,.11.61.61,0,0,0,.68-.55.59.59,0,0,0-.48-.69c-.65-.08-1.29-.14-1.94-.18h-.65c-.31,0-.61,0-.91,0M25.8,12.62c-.62.06-1.24.14-1.86.23a2.11,2.11,0,0,0-.94.35.58.58,0,0,0-.11.71.62.62,0,0,0,.69.32l2.28-.34a.68.68,0,0,0,.57-.69.59.59,0,0,0-.57-.59H25.8m1.48.66a.73.73,0,0,0,.68.49c.95,0,1.9.08,2.85.17a16.44,16.44,0,0,1,3.1.65.67.67,0,0,0,.77-.26.56.56,0,0,0-.07-.77,1.11,1.11,0,0,0-.54-.27c-1.07-.23-2.14-.49-3.23-.64s-2-.13-3-.15h0a.59.59,0,0,0-.54.78"/></clipPath></defs><g id="Capa_2" data-name="Capa 2"><g id="Capa_1-2" data-name="Capa 1"><path class="cls-2" d="M30,5A25,25,0,1,0,55,30,25,25,0,0,0,30,5Z"/><path class="cls-2" d="M30,60A30,30,0,1,1,60,30a29.44,29.44,0,0,1-1.47,9.27.63.63,0,0,1-.8.4.62.62,0,0,1-.4-.79A28.17,28.17,0,0,0,58.74,30a28.73,28.73,0,1,0-5.36,16.72.63.63,0,1,1,1,.73A30.05,30.05,0,0,1,30,60Z"/><path class="cls-1" d="M21.16,44.31a6.84,6.84,0,0,0,3.69,1.43c.8.1.8-1.15,0-1.26A5.47,5.47,0,0,1,22,43.42a.59.59,0,0,0-.41-.17.62.62,0,0,0-.47,1.06m12.33-1.05a10,10,0,0,1-6.22,1.48.63.63,0,0,0-.1,1.25A11.11,11.11,0,0,0,34,44.39a.68.68,0,0,0-.25-1.23.54.54,0,0,0-.3.1m2.68-3.68a.77.77,0,0,0-.73.78,10.24,10.24,0,0,1-1.15,6.12.69.69,0,0,0,.31.94.67.67,0,0,0,.3.08.53.53,0,0,0,.49-.32,12.45,12.45,0,0,0,1.33-7.09.5.5,0,0,0-.53-.51h0M19.74,38.3a6.72,6.72,0,0,0,5.34,5c.79.19.85-1.07.07-1.25A5.72,5.72,0,0,1,21,38a.63.63,0,0,0-1.23.26m-3-1.82a10.26,10.26,0,0,0,2.64,6.45c.55.59,1.43-.3.88-.9A8.84,8.84,0,0,1,18,36.49a.65.65,0,0,0-.68-.6.53.53,0,0,0-.57.59m20.5-.65a.78.78,0,0,0-.07.42c.12.76.28,1.51.38,2.27a16,16,0,0,1,.13,1.95c0,.92,0,1.85-.07,2.77,0,.07,0,.14,0,.17a.64.64,0,0,0,.69.5.6.6,0,0,0,.55-.53c0-.74.09-1.49.11-2.24a14.79,14.79,0,0,0,0-1.63c-.07-.77-.18-1.53-.29-2.3,0-.4-.13-.8-.22-1.2a.65.65,0,0,0-.51-.51h-.11a.59.59,0,0,0-.56.33m-1.85-.37h0a.74.74,0,0,0-.53.31.58.58,0,0,0-.11.45c.12.59.22,1.19.31,1.77l.09.54a.67.67,0,0,0,.64.55h0a.62.62,0,0,0,.45-.21.58.58,0,0,0,.14-.43,14,14,0,0,0-.29-1.95l0-.15c-.07-.4-.15-.88-.65-.88Zm-6.89-2.37a.59.59,0,0,0-.46.71.6.6,0,0,0,.71.46,6.43,6.43,0,0,1,3.31.3l1,4.07c.25,2.2-1.56,4.14-5.93,3.73-.64-.06-.76.94-.13,1.14,3.19.61,8.22-.86,7.3-5.36l-1-4h0a.58.58,0,0,0-.3-.4,7.2,7.2,0,0,0-4.5-.59m-12-.31a12.89,12.89,0,0,0,0,1.39.61.61,0,0,0,.51.57.67.67,0,0,0,.76-.65c0-.41,0-.82,0-1.23a.63.63,0,0,0-.57-.65h0a.64.64,0,0,0-.65.58m5.11-.44a8.09,8.09,0,0,0-.25,2.29,7.61,7.61,0,0,0,.46,2.44c.18.49.72,2,1.36,2h0a.54.54,0,0,0,.51-.29.63.63,0,0,0,0-.67,7.35,7.35,0,0,1-1-2.59,7.26,7.26,0,0,1,.06-2.71l0,0a1.65,1.65,0,0,0,0-.32.6.6,0,0,0-.53-.55h-.08a.59.59,0,0,0-.58.43m19.68-2a.69.69,0,0,0-.34.94c.33,1,.63,2,.93,3,.12.41.21.82.32,1.23A.61.61,0,0,0,43,36a.66.66,0,0,0,.46-.79c-.07-.31-.14-.63-.22-1s-.42-1.56-.54-1.95l-.51-1.52a.67.67,0,0,0-.62-.51.69.69,0,0,0-.24,0m-14-.11c-2.08.1-3.53,1.5-3.45,3.21v0c.09,1.79,1.28,2.55,3.82,3,2.32.37,2.89.92,2.94,1.94v0c0,1.08-.88,1.9-2.35,2a4.93,4.93,0,0,1-3.51-1.13.54.54,0,0,0-.38-.12.58.58,0,0,0-.56.63.55.55,0,0,0,.25.46,6.39,6.39,0,0,0,4.21,1.27c2.17-.1,3.67-1.39,3.58-3.27v0c-.08-1.67-1.24-2.5-3.7-2.92s-3-1-3.07-2v0c-.05-1,.83-1.87,2.26-1.94a4.56,4.56,0,0,1,2.91.71.56.56,0,0,0,.36.09.59.59,0,0,0,.57-.62.63.63,0,0,0-.29-.49,5.4,5.4,0,0,0-3.09-.81h-.5m-7-1a8.86,8.86,0,0,0-1.06,2.42,8.74,8.74,0,0,0-.36,2.83c0,.69.12,2.38.75,2.63a.57.57,0,0,0,.6-.12.66.66,0,0,0,.19-.69A8.27,8.27,0,0,1,20.21,33a8.57,8.57,0,0,1,1-3,1.27,1.27,0,0,0,.18-.37.61.61,0,0,0-.36-.71.63.63,0,0,0-.27-.06.62.62,0,0,0-.52.27m17.55-.38a.68.68,0,0,0-.23.94c.43,1,.86,2.07,1.26,3.12a18.66,18.66,0,0,1,.94,3.52c.14.85.25,1.7.35,2.55.06.48.06,1,.1,1.45A.65.65,0,0,0,41,41a.63.63,0,0,0,.57-.64A19.92,19.92,0,0,0,41.19,37l0-.13c-.17-.9-.84-3.62-1-4.06-.24-.69-.49-1.4-.75-2.11-.2-.52-.45-1-.69-1.53a.64.64,0,0,0-.91-.35M25.69,28a4.9,4.9,0,0,0-3.47,2.91.48.48,0,0,0,.31.66.85.85,0,0,0,.23,0,.64.64,0,0,0,.62-.43,4,4,0,0,1,2.66-2,.51.51,0,0,0,.41-.63.64.64,0,0,0-.61-.53l-.15,0m1.6-.43a.53.53,0,0,0-.43.61.67.67,0,0,0,.7.56h0l.17,0c.22,0,.44,0,.65,0a6.58,6.58,0,0,1,2.08.46c2.67,1,3.61,3.77,3.94,5.33a.5.5,0,0,0,.34.41.58.58,0,0,0,.19,0,.68.68,0,0,0,.45-.17.6.6,0,0,0,.19-.58,8,8,0,0,0-4.5-6.08,8.62,8.62,0,0,0-3-.65,3.61,3.61,0,0,0-.84.09m2.6-1.32a.63.63,0,0,0,.47.64,8.09,8.09,0,0,1,3,1.61,7.37,7.37,0,0,1,1.93,2.41c.39.81.71,1.65,1.05,2.48.15.39.25.8.43,1.17a.59.59,0,0,0,.8.26.65.65,0,0,0,.35-.79c-.29-.8-.57-1.61-.9-2.39a12.65,12.65,0,0,0-1-2,10.68,10.68,0,0,0-1.39-1.69,8.67,8.67,0,0,0-3.29-2.07c-.22-.08-.45-.15-.68-.21a.41.41,0,0,0-.19,0h0a.69.69,0,0,0-.53.62m-4.34-.75a9.82,9.82,0,0,0-3.76,2,.66.66,0,0,0-.09.89.63.63,0,0,0,.92.09,7.94,7.94,0,0,1,2-1.28,7.4,7.4,0,0,1,2.3-.66c.47,0,.95-.06,1.42-.08s.67-.19.74-.5a.65.65,0,0,0-.63-.8h-.26a10.54,10.54,0,0,0-2.61.32m16-.56a.72.72,0,0,0-.37.94c.43.71.81,1.44,1.21,2.16a.67.67,0,0,0,.81.31.59.59,0,0,0,.35-.81A12.38,12.38,0,0,0,43,26.34c-.19-.35-.42-.69-.62-1s-.29-.46-.56-.46a.69.69,0,0,0-.26.06m-20.64,0a13.38,13.38,0,0,0-2,1.9,11.82,11.82,0,0,0-2.06,3.49.65.65,0,0,0,.34.84.62.62,0,0,0,.85-.39,12.31,12.31,0,0,1,1.42-2.59,13.1,13.1,0,0,1,1.26-1.32,7.87,7.87,0,0,1,1.47-1.23.65.65,0,0,0,.22-.78.57.57,0,0,0-.53-.33,1.74,1.74,0,0,0-1,.41m-3.47-.25a12.92,12.92,0,0,0-.9,1.06.61.61,0,0,0,0,.77.66.66,0,0,0,1,0c.29-.29.54-.62.8-.93a.63.63,0,0,0,0-.87.65.65,0,0,0-.46-.18.58.58,0,0,0-.43.18m9.33-2a14.85,14.85,0,0,0-3.26.81.64.64,0,0,0-.47.61.55.55,0,0,0,.35.57.94.94,0,0,0,.55,0c.49-.14,1-.36,1.47-.49a10.94,10.94,0,0,1,2.69-.32,10.61,10.61,0,0,1,8.21,3.87.94.94,0,0,0,.58.45.66.66,0,0,0,.65-.3.6.6,0,0,0,0-.71,11.84,11.84,0,0,0-4.43-3.5,12.1,12.1,0,0,0-3.47-1,11.54,11.54,0,0,0-1.55-.11,9.32,9.32,0,0,0-1.29.09m6.75-.55a.6.6,0,0,0,.36.54c.73.46,1.49.89,2.2,1.39a10.7,10.7,0,0,1,2.45,2.44c.41.56.79,1.14,1.16,1.74.2.32.33.68.51,1a.64.64,0,0,0,.78.31.67.67,0,0,0,.36-.34,1.25,1.25,0,0,0-.16-.89c-.14-.28-.29-.58-.45-.87a14.7,14.7,0,0,0-1.5-2.17A12.4,12.4,0,0,0,36.82,23a26.69,26.69,0,0,0-2.34-1.44.63.63,0,0,0-1,.56m-12-.49c-.75.42-1.47.88-2.19,1.34-.26.16-.53.35-.51.73a.64.64,0,0,0,1,.51c.67-.45,1.33-.92,2-1.32a16.29,16.29,0,0,1,1.81-.8.63.63,0,0,0,.45-.81.6.6,0,0,0-.62-.35,5.07,5.07,0,0,0-2,.7m15.18-.73a.57.57,0,0,0,.27.63,16.42,16.42,0,0,1,2.68,2.31,3,3,0,0,0,.47.47.77.77,0,0,0,.71,0,.65.65,0,0,0,.14-.95,17.44,17.44,0,0,0-3.2-2.87.76.76,0,0,0-.46-.15.61.61,0,0,0-.61.53m-9.1-.83c-.73,0-1.46.16-2.19.25a.62.62,0,0,0-.49.76.7.7,0,0,0,.78.48,17.68,17.68,0,0,1,2.18-.21A12.93,12.93,0,0,1,32,22a.62.62,0,0,0,.77-.79c-.38-.64-2.12-.9-3-1a17.11,17.11,0,0,0-1.75-.1h-.47m-7.77-.42a6,6,0,0,0-.62.34c-.54.36-1.08.74-1.61,1.13a.62.62,0,0,0-.13.87.67.67,0,0,0,.92.13c.67-.45,1.35-.89,2-1.33a.72.72,0,0,0,.3-.8.62.62,0,0,0-.59-.39,1.17,1.17,0,0,0-.3.05m2.75-1.22c-.26.08-.52.18-.78.28a.65.65,0,1,0,.47,1.2c.88-.27,1.76-.56,2.66-.76a19.24,19.24,0,0,1,2.4-.33,11.09,11.09,0,0,1,1.63,0,16.34,16.34,0,0,1,3.18.51,16,16,0,0,1,3.07,1.16.6.6,0,0,0,.71-.07.69.69,0,0,0-.21-1.11A16.75,16.75,0,0,0,31,17.8a19.51,19.51,0,0,0-3.15-.27h0a17.19,17.19,0,0,0-5.32.92m9.91-2.89a.66.66,0,0,0-.55.64.67.67,0,0,0,.51.61c.67.21,1.36.39,2,.63a16.68,16.68,0,0,1,4.1,2.14c.38.27.74.56,1.12.84a.63.63,0,0,0,1-.8,2.53,2.53,0,0,0-.53-.5,18.57,18.57,0,0,0-4.69-2.7c-.88-.34-1.79-.58-2.68-.86l-.1,0-.15,0M27.14,15c-.68.05-1.36.11-2,.22A21.67,21.67,0,0,0,20,16.74l-.9.41a.67.67,0,0,0-.43.63.58.58,0,0,0,.42.58.72.72,0,0,0,.48,0,18.18,18.18,0,0,1,4.89-1.69c1-.17,2-.24,3-.34a16,16,0,0,1,3,.11.61.61,0,0,0,.68-.55.59.59,0,0,0-.48-.69c-.65-.08-1.29-.14-1.94-.18h-.65c-.31,0-.61,0-.91,0M25.8,12.62c-.62.06-1.24.14-1.86.23a2.11,2.11,0,0,0-.94.35.58.58,0,0,0-.11.71.62.62,0,0,0,.69.32l2.28-.34a.68.68,0,0,0,.57-.69.59.59,0,0,0-.57-.59H25.8m1.48.66a.73.73,0,0,0,.68.49c.95,0,1.9.08,2.85.17a16.44,16.44,0,0,1,3.1.65.67.67,0,0,0,.77-.26.56.56,0,0,0-.07-.77,1.11,1.11,0,0,0-.54-.27c-1.07-.23-2.14-.49-3.23-.64s-2-.13-3-.15h0a.59.59,0,0,0-.54.78"/><g class="cls-3"><rect class="cls-1" x="10.97" y="8.76" width="38.08" height="42.48" transform="translate(-8.77 12.77) rotate(-21.04)"/></g></g></g></svg>