<svg xmlns="http://www.w3.org/2000/svg" viewBox="0 0 60 60"><defs><style>.cls-1{fill:#fff;}.cls-2{fill:#9e1724;}</style></defs><g id="Capa_2" data-name="Capa 2"><g id="Capa_1-2" data-name="Capa 1"><path class="cls-1" d="M30,5A25,25,0,1,0,55,30,25,25,0,0,0,30,5Z"/><path class="cls-1" d="M30,60A30,30,0,1,1,60,30a29.44,29.44,0,0,1-1.47,9.27.63.63,0,0,1-.8.4.62.62,0,0,1-.4-.79A28.17,28.17,0,0,0,58.74,30a28.73,28.73,0,1,0-5.36,16.72.63.63,0,1,1,1,.73A30.05,30.05,0,0,1,30,60Z"/><path class="cls-2" d="M24,39.57a3.23,3.23,0,1,1,3.22-3.23A3.23,3.23,0,0,1,24,39.57Z"/><path class="cls-2" d="M30.3,47.5H17.71a.29.29,0,0,1-.29-.29,6.59,6.59,0,0,1,13.17,0A.29.29,0,0,1,30.3,47.5Z"/><path class="cls-2" d="M37.33,17.92H22.67a.28.28,0,0,1,0-.56H37.33a.28.28,0,0,1,0,.56Z"/><path class="cls-2" d="M37.33,20.43H22.67a.28.28,0,1,1,0-.55H37.33a.28.28,0,1,1,0,.55Z"/><path class="cls-2" d="M37.33,23H22.67a.28.28,0,1,1,0-.56H37.33a.28.28,0,1,1,0,.56Z"/><path class="cls-2" d="M20,27.32a1.78,1.78,0,0,0,.65.24A3.35,3.35,0,0,1,20,27.32Zm-2.5-3.11c0,.08,0,.16.06.22a.85.85,0,0,1,0-.22Z"/><path class="cls-2" d="M38.23,12.5H21.77a4.37,4.37,0,0,0-4.35,4.39v6.46a4,4,0,0,0,.08.86h0a.85.85,0,0,0,0,.22,2,2,0,0,0,.16.49,3.35,3.35,0,0,0,.25.55,3.48,3.48,0,0,0,.22.36,1.57,1.57,0,0,0,.26.33,2.52,2.52,0,0,0,.45.47,1.18,1.18,0,0,0,.31.24,1,1,0,0,0,.26.18,2.26,2.26,0,0,0,.49.25l0,0a3.12,3.12,0,0,0,.65.24,3.46,3.46,0,0,0,1.12.18H35.49c.87,1,.79,2.69.4,4.48-.1.44-.08.61,0,.61.43,0,2.34-3.34,3.18-5.19a4.37,4.37,0,0,0,3.49-4.29V16.89A4.37,4.37,0,0,0,38.23,12.5Zm3.66,10.85A3.68,3.68,0,0,1,39,27a.73.73,0,0,0-.52.39,26.28,26.28,0,0,1-1.59,3A4.24,4.24,0,0,0,36,27.24a.79.79,0,0,0-.55-.23H21.77a3.52,3.52,0,0,1-1.22-.22,3.37,3.37,0,0,1-.69-.33,1.9,1.9,0,0,1-.33-.22l-.06-.06a2.28,2.28,0,0,1-.39-.37,2.56,2.56,0,0,1-.34-.44.59.59,0,0,1-.08-.11,2.23,2.23,0,0,1-.21-.44s0,0,0,0a1.9,1.9,0,0,1-.18-.49s0,0,0-.08a4,4,0,0,1-.1-.86V16.89a3.65,3.65,0,0,1,3.64-3.68H38.23a3.67,3.67,0,0,1,3.66,3.68Z"/></g></g></svg>