<svg xmlns="http://www.w3.org/2000/svg" viewBox="0 0 60 60"><defs><style>.cls-1{fill:#fff;}.cls-2{fill:#9e1724;}</style></defs><g id="Capa_2" data-name="Capa 2"><g id="Capa_1-2" data-name="Capa 1"><path class="cls-1" d="M30,5A25,25,0,1,0,55,30,25,25,0,0,0,30,5Z"/><path class="cls-1" d="M30,60A30,30,0,1,1,60,30a29.44,29.44,0,0,1-1.47,9.27.63.63,0,0,1-.8.4.62.62,0,0,1-.4-.79A28.17,28.17,0,0,0,58.74,30a28.73,28.73,0,1,0-5.36,16.72.63.63,0,1,1,1,.73A30.05,30.05,0,0,1,30,60Z"/><path class="cls-2" d="M32.64,21.41l-.24,1.36H24.9c-.15,0-.29-.28-.29-.68s.14-.68.29-.68Z"/><path class="cls-2" d="M22.29,20.75H19.41a.28.28,0,0,0-.29.29v2.9a.29.29,0,0,0,.29.29h2.88a.3.3,0,0,0,.29-.29V21A.29.29,0,0,0,22.29,20.75ZM22,23.65H19.7V21.33H22Z"/><path class="cls-2" d="M22.29,30.42H19.41a.29.29,0,0,0-.29.29v2.9a.28.28,0,0,0,.29.29h2.88a.29.29,0,0,0,.29-.29v-2.9A.3.3,0,0,0,22.29,30.42ZM22,33.32H19.7V31H22Z"/><path class="cls-2" d="M30.63,26.28l-.24,1.36H24.9c-.15,0-.29-.32-.29-.68s.14-.68.29-.68Z"/><path class="cls-2" d="M28.64,31.14,28.4,32.5H24.9c-.15,0-.29-.28-.29-.68s.14-.68.29-.68Z"/><path class="cls-2" d="M26.63,36H24.9c-.15,0-.29.28-.29.68s.14.68.29.68h1.5Z"/><path class="cls-2" d="M21,28a.3.3,0,0,1-.16-.05L20,27.36a.29.29,0,0,1,.31-.5l.66.41L22.54,25a.29.29,0,0,1,.4-.07.29.29,0,0,1,.07.41l-1.78,2.54A.28.28,0,0,1,21,28Z"/><path class="cls-2" d="M22,27.2v1.07H19.7V26h1.57l.5-.58H19.41a.29.29,0,0,0-.29.29v2.9a.29.29,0,0,0,.29.29h2.88a.29.29,0,0,0,.29-.29v-2Z"/><path class="cls-2" d="M21,37.8a.29.29,0,0,1-.16,0L20,37.21a.3.3,0,0,1-.09-.41.29.29,0,0,1,.4-.09l.66.41,1.62-2.32a.29.29,0,0,1,.4-.07.29.29,0,0,1,.07.41l-1.78,2.54A.27.27,0,0,1,21,37.8Z"/><path class="cls-2" d="M22,37.05v1.07H19.7V35.8h1.57l.5-.58H19.41a.29.29,0,0,0-.29.29v2.9a.29.29,0,0,0,.29.29h2.88a.29.29,0,0,0,.29-.29v-2Z"/><path class="cls-2" d="M43.88,14.45h0a.58.58,0,0,0-.76.31l-2.45,6-.8-.34a.58.58,0,0,0-.45,0,.57.57,0,0,0-.31.32L38.2,22.9,37,23.28a.55.55,0,0,0-.36.34L29.3,41.34,28.42,41a.59.59,0,0,0-.76.32.69.69,0,0,0,0,.45.61.61,0,0,0,.32.31l3.34,1.4-.87,2.1-.9-.37a.56.56,0,0,0-.75.31.58.58,0,0,0,.31.77L32,47.46a.62.62,0,0,0,.23,0,.57.57,0,0,0,.53-.36.58.58,0,0,0-.31-.77l-.9-.37.87-2.1,3.34,1.39a.6.6,0,0,0,.76-.31.69.69,0,0,0,0-.45.59.59,0,0,0-.32-.32l-.87-.36,7.29-17.72a.58.58,0,0,0,0-.5L42,24.47l.91-2.21a.58.58,0,0,0-.32-.76l-.8-.34,2.45-5.95A.58.58,0,0,0,43.88,14.45Zm-3.1,9.82a.58.58,0,0,0,0,.5l.61,1.16-.27.64-1.66-.69a.85.85,0,0,0-1.12.46.87.87,0,0,0,.47,1.13l1.66.7-.21.49L38.64,28a.87.87,0,1,0-.66,1.6l1.66.69-.2.49-1.66-.69a.85.85,0,0,0-1.12.46.84.84,0,0,0,0,.66.82.82,0,0,0,.46.47l1.66.7-.2.49-1.66-.7a.84.84,0,0,0-.66,0,.88.88,0,0,0-.46.47.84.84,0,0,0,0,.66.88.88,0,0,0,.46.47l1.66.69-.2.49-1.66-.69a.84.84,0,0,0-1.12.46.87.87,0,0,0,.46,1.13l1.66.7-.2.49-1.66-.7a.86.86,0,0,0-1.12.47.84.84,0,0,0,0,.66.87.87,0,0,0,.47.47l1.66.69-.21.49-1.66-.69a.82.82,0,0,0-.65,0,.85.85,0,0,0-.47.46.94.94,0,0,0,0,.66.87.87,0,0,0,.47.47l1.66.7L34.23,43.4l-3.86-1.62,7.19-17.46,1.24-.39a.58.58,0,0,0,.37-.33L40,21.68l1.61.67Z"/><path class="cls-2" d="M38.52,18.67V16.51h-21V44.79H27.77V47.5H17.53A1.78,1.78,0,0,1,16.27,47a1.82,1.82,0,0,1-.51-1.25V15.91a1.76,1.76,0,0,1,1.77-1.77h4.24c1.4-1.18,3.8-1.64,6.45-1.64s4.91.46,6.31,1.64h4a1.79,1.79,0,0,1,1.25.52A1,1,0,0,1,40,15v3.62Z"/></g></g></svg>