<svg xmlns="http://www.w3.org/2000/svg" viewBox="0 0 60 60"><defs><style>.cls-1{fill:#fff;}.cls-2{fill:#9e1724;}</style></defs><g id="Capa_2" data-name="Capa 2"><g id="Capa_1-2" data-name="Capa 1"><path class="cls-1" d="M30,5A25,25,0,1,0,55,30,25,25,0,0,0,30,5Z"/><path class="cls-1" d="M30,60A30,30,0,1,1,60,30a29.44,29.44,0,0,1-1.47,9.27.63.63,0,0,1-.8.4.62.62,0,0,1-.4-.79A28.17,28.17,0,0,0,58.74,30a28.73,28.73,0,1,0-5.36,16.72.63.63,0,1,1,1,.73A30.05,30.05,0,0,1,30,60Z"/><path class="cls-2" d="M47.5,39.09h-35V20.91h35ZM13.81,37.78H46.19V22.22H13.81Z"/><path class="cls-2" d="M43.83,26.86a.67.67,0,0,1-.67.68H24.4l.84-1.35H43.16A.67.67,0,0,1,43.83,26.86Z"/><path class="cls-2" d="M41.72,29.85a.67.67,0,0,1-.68.67H25.18a5.46,5.46,0,0,0-.27-.6,4.52,4.52,0,0,0-.51-.75H41A.68.68,0,0,1,41.72,29.85Z"/><path class="cls-2" d="M37.45,32.8a.67.67,0,0,1-.67.67H25.17a7.13,7.13,0,0,0,.11-1.34h11.5A.68.68,0,0,1,37.45,32.8Z"/><path class="cls-2" d="M20.77,23.66v.9a5.72,5.72,0,0,1,2.58.92l-.91,1.45a4.53,4.53,0,0,0-2.34-.79,3.82,3.82,0,0,0-.72.07,2.21,2.21,0,0,0-.5.18,1.19,1.19,0,0,0-.31.28,1,1,0,0,0-.16.36,1.7,1.7,0,0,0-.05.41,1,1,0,0,0,.12.5,1.37,1.37,0,0,0,.25.35,1.77,1.77,0,0,0,.43.28,4.52,4.52,0,0,0,.49.22l.57.2.74.25.66.28a3.65,3.65,0,0,1,1.19.76,2,2,0,0,1,.45.55,4,4,0,0,1,.27.68,3.3,3.3,0,0,1,.11.85,4.39,4.39,0,0,1-.17,1.27,2.94,2.94,0,0,1-.44.87,2.17,2.17,0,0,1-.66.54,3,3,0,0,1-.76.31,8.47,8.47,0,0,1-.84.12v.87H18.92v-.9a12.57,12.57,0,0,1-2.75-.65l.5-1.58c.78.25,1.4.42,1.85.52a6.74,6.74,0,0,0,1.32.14h.55a2.66,2.66,0,0,0,.47-.1,1.14,1.14,0,0,0,.44-.23,1.19,1.19,0,0,0,.26-.44,2,2,0,0,0,.11-.73,1.4,1.4,0,0,0-.12-.58,2.05,2.05,0,0,0-.29-.42,1.88,1.88,0,0,0-.49-.33,4.32,4.32,0,0,0-.53-.24l-.62-.23c-.38-.12-.68-.23-.93-.33a7.46,7.46,0,0,1-.83-.43,3.28,3.28,0,0,1-.77-.57,2.84,2.84,0,0,1-.49-.76,2.46,2.46,0,0,1-.2-1,2.66,2.66,0,0,1,2.52-2.82v-1Z"/></g></g></svg>