<svg xmlns="http://www.w3.org/2000/svg" viewBox="0 0 60 60"><defs><style>.cls-1{fill:#fff;}.cls-2{fill:#9e1724;fill-rule:evenodd;}</style></defs><g id="Capa_2" data-name="Capa 2"><g id="Capa_1-2" data-name="Capa 1"><path class="cls-1" d="M30,5A25,25,0,1,0,55,30,25,25,0,0,0,30,5Z"/><path class="cls-1" d="M30,60A30,30,0,1,1,60,30a29.44,29.44,0,0,1-1.47,9.27.63.63,0,0,1-.8.4.62.62,0,0,1-.4-.79A28.17,28.17,0,0,0,58.74,30a28.73,28.73,0,1,0-5.36,16.72.63.63,0,1,1,1,.73A30.05,30.05,0,0,1,30,60Z"/><path class="cls-2" d="M46.48,29.77a.77.77,0,0,1-1.1,0l-7.11-7.11a.86.86,0,0,1-.14-.13l-3-3.05a.93.93,0,0,1-.14-.14l-5-4.95L14.62,29.77a.77.77,0,0,1-1.1,0,.78.78,0,0,1,0-1.1L29.36,12.84a.75.75,0,0,1,.07-.12.85.85,0,0,1,1.14,0,.75.75,0,0,1,.07.12L34.77,17V14.88h0a.79.79,0,0,1,.8-.79h3.18a.79.79,0,0,1,.56.23.78.78,0,0,1,.24.56v6.86l6.93,6.93A.78.78,0,0,1,46.48,29.77ZM38,15.68h-1.6v2.88L38,20.15ZM18.86,28.41a.79.79,0,0,1,.8.79V44.32a1.59,1.59,0,0,0,1.59,1.59H26V35.57a.8.8,0,0,1,.8-.8h6.36a.8.8,0,0,1,.8.8V45.91h4.77a1.59,1.59,0,0,0,1.59-1.59V29.2a.79.79,0,0,1,.8-.79.79.79,0,0,1,.79.79V44.32a3.18,3.18,0,0,1-3.18,3.18H21.25a3.18,3.18,0,0,1-3.18-3.18V29.2A.79.79,0,0,1,18.86,28.41Zm13.53,17.5V36.36H27.61v9.55h4.78ZM30.86,19.3v.89a5.76,5.76,0,0,1,2.59.93l-.91,1.45a4.5,4.5,0,0,0-2.34-.79,3.65,3.65,0,0,0-.72.07A2,2,0,0,0,29,22a1.05,1.05,0,0,0-.31.28,1,1,0,0,0-.17.36,1.73,1.73,0,0,0,0,.41,1.1,1.1,0,0,0,.11.49,1.28,1.28,0,0,0,.26.36,1.88,1.88,0,0,0,.43.28,4.5,4.5,0,0,0,.48.22l.58.2.73.25.67.28a5.24,5.24,0,0,1,.65.34,4,4,0,0,1,.53.42,1.9,1.9,0,0,1,.46.55,3.33,3.33,0,0,1,.26.68,2.91,2.91,0,0,1,.12.85,4.05,4.05,0,0,1-.18,1.27,2.53,2.53,0,0,1-.44.87,2.08,2.08,0,0,1-.66.54,2.5,2.5,0,0,1-.76.3,6.2,6.2,0,0,1-.84.13V32H29v-.89a12.64,12.64,0,0,1-2.76-.65l.5-1.59c.79.26,1.41.43,1.86.53a6.74,6.74,0,0,0,1.32.14,4,4,0,0,0,.54,0A2.79,2.79,0,0,0,31,29.4a1,1,0,0,0,.43-.23,1.24,1.24,0,0,0,.27-.45,2.18,2.18,0,0,0,.11-.72,1.24,1.24,0,0,0-.13-.58,1.49,1.49,0,0,0-.29-.42,1.65,1.65,0,0,0-.48-.33,5.13,5.13,0,0,0-.53-.24l-.63-.23c-.37-.12-.68-.23-.92-.33s-.52-.25-.84-.43a3.2,3.2,0,0,1-.76-.57,2.55,2.55,0,0,1-.49-.77,2.38,2.38,0,0,1-.21-1A2.66,2.66,0,0,1,29,20.26v-1Z"/></g></g></svg>