<svg xmlns="http://www.w3.org/2000/svg" viewBox="0 0 60 60"><defs><style>.cls-1{fill:#fff;}.cls-2{fill:#9e1724;}</style></defs><g id="Capa_2" data-name="Capa 2"><g id="Capa_1-2" data-name="Capa 1"><path class="cls-1" d="M30,4.87a25,25,0,1,0,25,25A25,25,0,0,0,30,4.87Z"/><path class="cls-1" d="M30,60A30,30,0,1,1,60,30a29.44,29.44,0,0,1-1.47,9.27.63.63,0,0,1-.8.4.62.62,0,0,1-.4-.79A28.17,28.17,0,0,0,58.74,30a28.73,28.73,0,1,0-5.36,16.72.63.63,0,1,1,1,.73A30.05,30.05,0,0,1,30,60Z"/><path class="cls-2" d="M47.47,29.15l0-.14c0-.94,0-1.91,0-2.88,0-.42,0-.83-.08-1.22-.14-2-.39-3.9-1.58-5.34a6,6,0,0,0-4.26-1.8c-1.69-.2-3.46-.33-5.4-.39-3.66-.14-7.34-.06-10.91,0-1.83,0-3.74.05-5.62.22-2.5.19-5,.61-6.21,3.16a15.33,15.33,0,0,0-.91,6.39v.72c0,2.11,0,4,.06,6,.11,2.65.24,6.28,3.43,7.55a15.74,15.74,0,0,0,5,.89c1.3.08,2.6.11,3.88.11.39,0,.77,0,1.19,0h1.77c2.16,0,4.29-.06,6.37-.08.77,0,1.58-.06,2.38-.06h.19A23.88,23.88,0,0,0,44,41.39c2.3-.78,2.93-3.1,3.24-5.26a36.23,36.23,0,0,0,.22-4.85c0-.33,0-.64,0-.94ZM46.2,31.28A32.91,32.91,0,0,1,46,35.93c-.25,1.86-.72,3.66-2.36,4.24a23.85,23.85,0,0,1-6.86.83l-2.58,0c-2.66.06-5.4.12-8.11.09-.39,0-.8,0-1.22,0-1.22,0-2.52,0-3.77-.11a15.18,15.18,0,0,1-4.62-.78c-2.38-1-2.49-4-2.6-6.42-.09-1.91-.06-3.79-.06-5.9v-.72a14.5,14.5,0,0,1,.78-5.84c.91-1.94,3-2.24,5.15-2.41,1.85-.17,3.74-.19,5.54-.25h.11c2.1,0,4.29-.08,6.48-.08,1.55,0,2.93,0,4.23.08,1.91.06,3.66.19,5.32.39a4.88,4.88,0,0,1,3.4,1.33c.95,1.16,1.17,2.85,1.31,4.62,0,.36,0,.75.05,1.17,0,.94,0,1.91,0,2.85,0,.41,0,.86,0,1.3Z"/><path class="cls-1" d="M46.17,30.34l0,.94A32.91,32.91,0,0,1,46,35.93c-.25,1.86-.72,3.66-2.36,4.24a23.85,23.85,0,0,1-6.86.83l-2.58,0c-2.66.06-5.4.12-8.11.09-.39,0-.8,0-1.22,0-1.22,0-2.52,0-3.77-.11a15.18,15.18,0,0,1-4.62-.78c-2.38-1-2.49-4-2.6-6.42-.09-1.91-.06-3.79-.06-5.9v-.72a14.5,14.5,0,0,1,.78-5.84c.91-1.94,3-2.24,5.15-2.41,1.85-.17,3.74-.19,5.54-.25h.11c2.1,0,4.29-.08,6.48-.08,1.55,0,2.93,0,4.23.08,1.91.06,3.66.19,5.32.39a4.88,4.88,0,0,1,3.4,1.33c.95,1.16,1.17,2.85,1.31,4.62,0,.36,0,.75.05,1.17,0,.94,0,1.91,0,2.85C46.17,29.45,46.17,29.9,46.17,30.34Z"/><polygon class="cls-2" points="35.53 29.83 25.93 35.47 25.93 24.2 35.53 29.83"/></g></g></svg>