<svg xmlns="http://www.w3.org/2000/svg" viewBox="0 0 60 60"><defs><style>.cls-1{fill:#fff;}.cls-2{fill:#9e1724;}</style></defs><g id="Capa_2" data-name="Capa 2"><g id="Capa_1-2" data-name="Capa 1"><path class="cls-1" d="M30,4.87a25,25,0,1,0,25,25A25,25,0,0,0,30,4.87Z"/><path class="cls-1" d="M30,60A30,30,0,1,1,60,30a29.44,29.44,0,0,1-1.47,9.27.63.63,0,0,1-.8.4.62.62,0,0,1-.4-.79A28.17,28.17,0,0,0,58.74,30a28.73,28.73,0,1,0-5.36,16.72.63.63,0,1,1,1,.73A30.05,30.05,0,0,1,30,60Z"/><path class="cls-2" d="M44.6,14.43H35.79v1H44.6a.29.29,0,0,1,.3.3V44.25a.29.29,0,0,1-.3.3H32.92v1H44.6a1.33,1.33,0,0,0,1.33-1.33V15.76A1.32,1.32,0,0,0,44.6,14.43Z"/><path class="cls-2" d="M35.6,12.5H15.26a1.19,1.19,0,0,0-1.19,1.2V47.5H34V26.64a1.65,1.65,0,0,1,.45-1.13l1.7-1.78A2.5,2.5,0,0,0,36.83,22V13.72A1.23,1.23,0,0,0,35.6,12.5ZM35.79,22A1.51,1.51,0,0,1,35.38,23L33.67,24.8a2.67,2.67,0,0,0-.75,1.84V46.47H15.09V13.7a.17.17,0,0,1,.17-.17H35.6a.18.18,0,0,1,.19.19Z"/><path class="cls-2" d="M44,38.21a.66.66,0,0,1-.65.66H32.92V37.56H43.38A.66.66,0,0,1,44,38.21Z"/><path class="cls-2" d="M44,34.76a.67.67,0,0,1-.65.66H32.92V34.11H43.38A.66.66,0,0,1,44,34.76Z"/><path class="cls-2" d="M44,31.2a.66.66,0,0,1-.65.65H32.92V30.54H43.38A.67.67,0,0,1,44,31.2Z"/><path class="cls-2" d="M44,27.64a.66.66,0,0,1-.65.66H32.92V27H43.38A.66.66,0,0,1,44,27.64Z"/><path class="cls-2" d="M43.37,21.8H38.45a.66.66,0,0,1-.65-.66.65.65,0,0,1,.65-.65h4.92a.65.65,0,0,1,.66.65A.66.66,0,0,1,43.37,21.8Z"/></g></g></svg>