<svg xmlns="http://www.w3.org/2000/svg" viewBox="0 0 60 60"><defs><style>.cls-1{fill:#fff;}.cls-2{fill:#9e1724;}</style></defs><g id="Capa_2" data-name="Capa 2"><g id="Capa_1-2" data-name="Capa 1"><path class="cls-1" d="M30,4.87a25,25,0,1,0,25,25A25,25,0,0,0,30,4.87Z"/><path class="cls-1" d="M30,60A30,30,0,1,1,60,30a29.44,29.44,0,0,1-1.47,9.27.63.63,0,0,1-.8.4.62.62,0,0,1-.4-.79A28.17,28.17,0,0,0,58.74,30a28.73,28.73,0,1,0-5.36,16.72.63.63,0,1,1,1,.73A30.05,30.05,0,0,1,30,60Z"/><path class="cls-2" d="M43.17,19.24v0a.7.7,0,0,0-.19-.47l-.11-.1-.8-.81-.52-.52L37.4,13.18l-.07-.08-.22-.21-.34-.35H18.11a1.28,1.28,0,0,0-1.28,1.29V46.26a1.28,1.28,0,0,0,1.28,1.28H41.89a1.28,1.28,0,0,0,1.28-1.28v-25a.55.55,0,0,0-.55-.55h0a.55.55,0,0,0-.55.55V46.3a.26.26,0,0,1-.25.26H18.18a.26.26,0,0,1-.25-.26V13.9a.26.26,0,0,1,.25-.26H36v5.3a.67.67,0,0,0,.67.66h6.11A.36.36,0,0,0,43.17,19.24Z"/><rect class="cls-2" x="20.36" y="30.56" width="19.28" height="1.35" rx="0.67"/><rect class="cls-2" x="20.36" y="33.57" width="14.98" height="1.35" rx="0.67"/><rect class="cls-2" x="20.36" y="36.38" width="10.32" height="1.35" rx="0.67"/><rect class="cls-2" x="36.79" y="33.5" width="2.81" height="1.35" rx="0.67"/><rect class="cls-2" x="36.79" y="27.85" width="2.81" height="1.35" rx="0.67"/><rect class="cls-2" x="31.75" y="24.91" width="3.7" height="1.35" rx="0.67"/><rect class="cls-2" x="36.83" y="24.91" width="2.81" height="1.35" rx="0.67"/><rect class="cls-2" x="31.75" y="27.85" width="7.89" height="1.35" rx="0.67"/><rect class="cls-2" x="36.83" y="27.85" width="2.81" height="1.35" rx="0.67"/><rect class="cls-2" x="20.36" y="39.2" width="9.98" height="1.35" rx="0.67"/><path class="cls-2" d="M26,19.19a2.2,2.2,0,0,0-.86-.17A2.2,2.2,0,0,0,23,21.22a2.21,2.21,0,1,0,3.07-2Z"/><path class="cls-2" d="M29.33,24.91a2.13,2.13,0,0,0-1.85-1.1,3.51,3.51,0,0,1-2.3,1.08,3.51,3.51,0,0,1-2.3-1.08A2.13,2.13,0,0,0,21,24.91l-.67,4.29H30Z"/><path class="cls-2" d="M34.93,44.82a1.73,1.73,0,0,0,1,.15c.2,0,.14-.32-.06-.3a1.39,1.39,0,0,1-.75-.12.14.14,0,0,0-.11,0,.16.16,0,0,0-.06.29m3-.89a2.52,2.52,0,0,1-1.44.68.16.16,0,0,0,0,.31,2.84,2.84,0,0,0,1.6-.75.16.16,0,0,0-.13-.28s0,0-.07,0m.47-1a.18.18,0,0,0-.13.23,2.57,2.57,0,0,1,0,1.55.18.18,0,0,0,.12.22h.08a.14.14,0,0,0,.1-.1,3,3,0,0,0,0-1.8.12.12,0,0,0-.15-.1h0m-4.08.53a1.68,1.68,0,0,0,1.56.95c.2,0,.15-.31-.05-.31a1.46,1.46,0,0,1-1.23-.77.13.13,0,0,0-.17-.08.14.14,0,0,0-.11.21m-.83-.29a2.62,2.62,0,0,0,1,1.44.16.16,0,0,0,.17-.27,2.2,2.2,0,0,1-.84-1.24.17.17,0,0,0-.2-.11.15.15,0,0,0-.11.18m5-1.21a.17.17,0,0,0,0,.1c.07.18.15.36.21.54a3.62,3.62,0,0,1,.13.47c0,.22.09.45.13.68,0,0,0,0,0,0a.16.16,0,0,0,.2.09.15.15,0,0,0,.1-.16,4.85,4.85,0,0,0-.09-.55,2.59,2.59,0,0,0-.09-.4c-.06-.19-.12-.37-.19-.55a2.33,2.33,0,0,0-.11-.28.17.17,0,0,0-.16-.1h0a.16.16,0,0,0-.12.12m-.47,0h0a.2.2,0,0,0-.12.1.13.13,0,0,0,0,.12c.06.13.11.28.17.41l0,.13a.16.16,0,0,0,.18.1h0a.18.18,0,0,0,.1-.07.14.14,0,0,0,0-.11,4.24,4.24,0,0,0-.17-.47l0,0c0-.09-.08-.21-.2-.18Zm-1.81-.23a.15.15,0,0,0,.12.28,1.46,1.46,0,0,1,.83-.1l.44,1c.17.52-.17,1.09-1.26,1.21-.16,0-.14.27,0,.29.81,0,2-.63,1.51-1.69l-.45-.94h0a.12.12,0,0,0-.09-.08,1.68,1.68,0,0,0-.8,0,2.4,2.4,0,0,0-.33.1m-2.95.54a3.4,3.4,0,0,0,.07.34.15.15,0,0,0,.15.12.17.17,0,0,0,.15-.2c0-.1,0-.2-.06-.31a.14.14,0,0,0-.17-.12h0a.16.16,0,0,0-.13.17m1.23-.37a2.2,2.2,0,0,0,.05.57,2.35,2.35,0,0,0,.24.58c.07.11.28.44.44.42h0a.14.14,0,0,0,.11-.09.17.17,0,0,0,0-.17,1.72,1.72,0,0,1-.38-.58,1.89,1.89,0,0,1-.12-.67h0a.22.22,0,0,0,0-.08.14.14,0,0,0-.15-.11h0a.14.14,0,0,0-.12.13m4.71-1.5a.18.18,0,0,0,0,.25c.14.23.26.46.39.69l.14.29a.15.15,0,0,0,.21.07.15.15,0,0,0,.07-.21c0-.07-.07-.15-.1-.23s-.19-.36-.24-.44-.13-.23-.2-.35a.16.16,0,0,0-.18-.09l-.05,0m-3.44.69A.82.82,0,0,0,35,42h0c.12.44.45.56,1.09.54s.76.08.82.32h0c.07.26-.12.51-.47.6a1.27,1.27,0,0,1-.92-.09.11.11,0,0,0-.1,0,.15.15,0,0,0,0,.28,1.6,1.6,0,0,0,1.1.09.83.83,0,0,0,.71-1h0c-.1-.4-.43-.55-1-.52s-.79-.08-.85-.33h0c-.06-.24.11-.5.46-.59a1.14,1.14,0,0,1,.75,0h.09a.15.15,0,0,0,.11-.18.14.14,0,0,0-.1-.1,1.34,1.34,0,0,0-.8,0l-.12,0m-1.77.11a2.29,2.29,0,0,0-.14.64,2.41,2.41,0,0,0,.06.71c0,.17.15.58.32.61a.14.14,0,0,0,.14-.06.17.17,0,0,0,0-.18,2.1,2.1,0,0,1-.21-.78,2.29,2.29,0,0,1,.1-.78.38.38,0,0,0,0-.1.17.17,0,0,0-.13-.16h-.07a.16.16,0,0,0-.11.1m4.27-1a.18.18,0,0,0,0,.25l.47.69a4.19,4.19,0,0,1,.41.82c.08.2.15.4.22.6s.07.24.1.35a.15.15,0,0,0,.2.11.15.15,0,0,0,.11-.18,4.47,4.47,0,0,0-.25-.81l0,0c-.08-.21-.39-.84-.45-.94s-.19-.32-.29-.48a2.7,2.7,0,0,0-.25-.34.17.17,0,0,0-.17-.07l-.07,0m-3,.42a1.23,1.23,0,0,0-.7.89.13.13,0,0,0,.11.15h.06a.15.15,0,0,0,.13-.13,1,1,0,0,1,.55-.64.12.12,0,0,0,.06-.17.14.14,0,0,0-.17-.1h0m.37-.18a.12.12,0,0,0-.07.17.17.17,0,0,0,.2.1h0l0,0,.16,0a1.58,1.58,0,0,1,.53,0,1.71,1.71,0,0,1,1.24,1.1.11.11,0,0,0,.1.08h0a.14.14,0,0,0,.1-.07.13.13,0,0,0,0-.15,2,2,0,0,0-1.41-1.25,2.18,2.18,0,0,0-.77,0,.68.68,0,0,0-.2.07m.57-.46a.15.15,0,0,0,.15.13,2,2,0,0,1,1.41.73c.14.18.26.37.38.56s.11.18.17.26a.14.14,0,0,0,.21,0,.16.16,0,0,0,0-.21c-.11-.18-.22-.36-.34-.54a2.42,2.42,0,0,0-.35-.44,2.31,2.31,0,0,0-.42-.34,2.19,2.19,0,0,0-.91-.34l-.18,0h-.06a.18.18,0,0,0-.1.18M35,40a2.46,2.46,0,0,0-.82.69.16.16,0,0,0,0,.22.15.15,0,0,0,.23,0,1.81,1.81,0,0,1,.42-.41,1.75,1.75,0,0,1,.52-.28l.35-.09c.1,0,.15-.08.15-.16a.16.16,0,0,0-.19-.17l-.07,0A2.39,2.39,0,0,0,35,40m3.88-1a.18.18,0,0,0,0,.25c.14.15.27.31.41.47a.17.17,0,0,0,.21,0,.15.15,0,0,0,0-.22l-.2-.25-.2-.22S39.05,39,39,39l-.07,0m-5.05,1.06a4.42,4.42,0,0,0-.39.57,2.94,2.94,0,0,0-.32,1,.16.16,0,0,0,.12.19.16.16,0,0,0,.19-.14,2.85,2.85,0,0,1,.22-.7,2.11,2.11,0,0,1,.23-.39,2.28,2.28,0,0,1,.3-.38.17.17,0,0,0,0-.2.13.13,0,0,0-.15-.05.43.43,0,0,0-.22.14M33,40.2a3,3,0,0,0-.16.31.14.14,0,0,0,0,.18.18.18,0,0,0,.25,0c0-.09.1-.18.14-.27a.17.17,0,0,0-.05-.22.23.23,0,0,0-.12,0,.14.14,0,0,0-.1.07m2.19-1a3.9,3.9,0,0,0-.76.36.16.16,0,0,0-.08.18.14.14,0,0,0,.11.12.23.23,0,0,0,.14,0l.33-.2a2.4,2.4,0,0,1,.64-.21,2.56,2.56,0,0,1,1.2,0,2.59,2.59,0,0,1,1,.5c.05,0,.09.09.16.08a.15.15,0,0,0,.15-.1.16.16,0,0,0-.05-.18,3,3,0,0,0-1.26-.63,3,3,0,0,0-.9-.06,2.32,2.32,0,0,0-.38,0,1.58,1.58,0,0,0-.31.09m1.62-.48a.15.15,0,0,0,.11.11c.21.08.41.14.61.23a2.46,2.46,0,0,1,.73.47l.37.37c.06.06.12.15.18.22a.16.16,0,0,0,.2,0,.14.14,0,0,0,.07-.11c0-.08-.06-.18-.08-.21l-.16-.19a4,4,0,0,0-.47-.45,3.24,3.24,0,0,0-.71-.44c-.21-.09-.43-.16-.64-.23h-.09a.17.17,0,0,0-.12.2m-3,.49c-.16.14-.31.29-.46.44s-.12.12-.09.21a.15.15,0,0,0,.11.12.17.17,0,0,0,.16-.05c.14-.14.28-.29.43-.42a2.92,2.92,0,0,1,.4-.29.16.16,0,0,0,.07-.22A.16.16,0,0,0,34.3,39a1.57,1.57,0,0,0-.45.27m3.68-1a.15.15,0,0,0,.1.14,3.88,3.88,0,0,1,.77.43,1.1,1.1,0,0,0,.14.09.24.24,0,0,0,.18,0,.16.16,0,0,0,0-.24,4.34,4.34,0,0,0-.93-.54.17.17,0,0,0-.12,0,.15.15,0,0,0-.12.16m-2.27.26-.52.17a.16.16,0,1,0,.13.29,5.16,5.16,0,0,1,.52-.16,3.15,3.15,0,0,1,1.06-.07.15.15,0,0,0,.14-.23c-.12-.14-.56-.12-.78-.09a3.35,3.35,0,0,0-.44.07l-.11,0m-1.92.3a.92.92,0,0,0-.14.11l-.33.36a.16.16,0,0,0,0,.22.16.16,0,0,0,.23,0l.43-.42a.2.2,0,0,0,0-.22.16.16,0,0,0-.16-.06.11.11,0,0,0-.07,0m.61-.44-.18.11a.16.16,0,1,0,.18.26c.2-.11.4-.22.61-.32a5.49,5.49,0,0,1,.57-.2,2.57,2.57,0,0,1,.4-.08,3.55,3.55,0,0,1,.8,0,3.6,3.6,0,0,1,.81.12.14.14,0,0,0,.17-.05.17.17,0,0,0-.1-.26A4.57,4.57,0,0,0,36,37.82a5.2,5.2,0,0,0-.78.1h0a4.09,4.09,0,0,0-1.25.5m2.27-1.22a.17.17,0,0,0-.1.19.18.18,0,0,0,.16.12l.53.05a4.37,4.37,0,0,1,1.11.31l.31.15a.16.16,0,0,0,.2-.24l-.16-.1A4.87,4.87,0,0,0,37,37.26c-.23,0-.46,0-.69-.07h-.07m-1.32.14-.49.16a5.58,5.58,0,0,0-1.17.63l-.2.15a.15.15,0,0,0-.07.17.13.13,0,0,0,.13.12.17.17,0,0,0,.12,0,4.29,4.29,0,0,1,1.11-.66c.23-.09.46-.16.7-.23a3.68,3.68,0,0,1,.75-.13.15.15,0,0,0,.13-.17.14.14,0,0,0-.15-.14l-.48,0-.16,0-.22.05m-.46-.52L34,37a.5.5,0,0,0-.21.13.15.15,0,0,0,0,.18.14.14,0,0,0,.18,0l.54-.2a.18.18,0,0,0,.11-.2.14.14,0,0,0-.17-.11h0m.4.09A.16.16,0,0,0,35,37l.71-.1a4.17,4.17,0,0,1,.79,0,.16.16,0,0,0,.17-.1.14.14,0,0,0-.05-.19.37.37,0,0,0-.15,0c-.27,0-.55,0-.82,0a6.5,6.5,0,0,0-.75.12h0a.15.15,0,0,0-.09.22"/></g></g></svg>