<?xml version="1.0" encoding="utf-8"?>
<!-- Generator: Adobe Illustrator 24.1.0, SVG Export Plug-In . SVG Version: 6.00 Build 0)  -->
<svg version="1.1" id="Capa_1" xmlns="http://www.w3.org/2000/svg" xmlns:xlink="http://www.w3.org/1999/xlink" x="0px" y="0px"
	 viewBox="0 0 71 71" style="enable-background:new 0 0 71 71;" xml:space="preserve">
<style type="text/css">
	.st0{fill:#FFFFFF;}
	.st1{fill:#9E1724;}
</style>
<path class="st0" d="M35.5,5.8c-5.9,0-11.6,1.7-16.4,5C14.2,14,10.4,18.6,8.2,24c-2.2,5.4-2.8,11.4-1.7,17.1c1.1,5.7,4,11,8.1,15.1
	s9.4,7,15.1,8.1c5.7,1.1,11.7,0.6,17.1-1.7c5.4-2.2,10-6,13.3-10.9c3.3-4.9,5-10.6,5-16.4c0-3.9-0.8-7.7-2.3-11.3s-3.7-6.9-6.4-9.6
	c-2.7-2.7-6-4.9-9.6-6.4C43.2,6.5,39.4,5.8,35.5,5.8z"/>
<path class="st0" d="M35.5,71c-7,0-13.9-2.1-19.7-6C9.9,61.1,5.4,55.6,2.7,49.1c-2.7-6.5-3.4-13.6-2-20.5c1.4-6.9,4.8-13.2,9.7-18.2
	c5-5,11.3-8.3,18.2-9.7c6.9-1.4,14-0.7,20.5,2c6.5,2.7,12,7.2,15.9,13.1c3.9,5.8,6,12.7,6,19.7c0,3.7-0.6,7.4-1.7,11
	c0,0.1-0.1,0.2-0.1,0.3c-0.1,0.1-0.1,0.1-0.2,0.2c-0.1,0-0.2,0.1-0.3,0.1c-0.1,0-0.2,0-0.3,0c-0.1,0-0.2-0.1-0.3-0.1
	c-0.1-0.1-0.1-0.1-0.2-0.2c0-0.1-0.1-0.2-0.1-0.3c0-0.1,0-0.2,0-0.3c1.1-3.4,1.7-6.9,1.7-10.5c0-8.1-2.9-15.9-8.2-22.1
	C56.1,7.2,48.8,3.2,40.8,1.9c-8-1.3-16.2,0.4-23.1,4.7c-6.9,4.3-12,10.8-14.5,18.6c-2.5,7.7-2.1,16.1,1,23.5
	c3.1,7.5,8.8,13.6,16.1,17.2c7.2,3.6,15.5,4.6,23.4,2.6c7.9-1.9,14.8-6.6,19.5-13.2c0-0.1,0.1-0.2,0.2-0.3c0.1-0.1,0.2-0.1,0.3-0.1
	c0.1,0,0.2,0,0.3,0c0.1,0,0.2,0.1,0.3,0.1c0.1,0.1,0.2,0.1,0.2,0.2c0.1,0.1,0.1,0.2,0.1,0.3c0,0.1,0,0.2-0.1,0.3
	c0,0.1-0.1,0.2-0.2,0.3c-3.3,4.6-7.6,8.3-12.6,10.9C46.7,69.6,41.1,71,35.5,71z"/>
<path class="st1" d="M51.3,43.7v1.4c0,0.8-0.4,1.5-1,2c-0.7,0.5-1.5,0.8-2.5,0.8H23.5c-0.9,0-1.8-0.3-2.5-0.8c-0.7-0.5-1-1.3-1-2
	V24.9c0-0.8,0.4-1.5,1-2c0.7-0.5,1.5-0.8,2.5-0.8h24.3c0.9,0,1.8,0.3,2.5,0.8c0.7,0.5,1,1.3,1,2v1.4H35.6c-0.9,0-1.8,0.3-2.5,0.8
	c-0.7,0.5-1,1.3-1,2v11.6c0,0.8,0.4,1.5,1,2c0.7,0.5,1.5,0.8,2.5,0.8H51.3z M35.6,40.8H53V29.2H35.6V40.8z M42.6,37.2
	c-0.7,0-1.4-0.2-1.8-0.6c-0.5-0.4-0.8-1-0.8-1.5c0-0.6,0.3-1.1,0.8-1.5c0.5-0.4,1.2-0.6,1.8-0.6c0.7,0,1.4,0.2,1.8,0.6
	c0.5,0.4,0.8,1,0.8,1.5c0,0.6-0.3,1.1-0.8,1.5C43.9,36.9,43.3,37.2,42.6,37.2z"/>
</svg>
