<?xml version="1.0" encoding="utf-8"?>
<!-- Generator: Adobe Illustrator 24.1.0, SVG Export Plug-In . SVG Version: 6.00 Build 0)  -->
<svg version="1.1" id="Capa_1" xmlns="http://www.w3.org/2000/svg" xmlns:xlink="http://www.w3.org/1999/xlink" x="0px" y="0px"
	 viewBox="0 0 53 53" style="enable-background:new 0 0 53 53;" xml:space="preserve">
<style type="text/css">
	.st0{fill:#FFFFFF;}
	.st1{fill:#9E1724;}
</style>
<path class="st0" d="M26.5,4.3c-4.4,0-8.6,1.3-12.3,3.7c-3.6,2.4-6.5,5.9-8.1,9.9S4,26.4,4.8,30.7c0.9,4.3,3,8.2,6,11.3
	c3.1,3.1,7,5.2,11.3,6c4.3,0.9,8.7,0.4,12.8-1.3c4-1.7,7.5-4.5,9.9-8.1c2.4-3.6,3.7-7.9,3.7-12.3c0-2.9-0.6-5.8-1.7-8.5
	c-1.1-2.7-2.7-5.1-4.8-7.2C40.1,8.7,37.6,7.1,35,6C32.3,4.9,29.4,4.3,26.5,4.3L26.5,4.3z"/>
<path class="st0" d="M26.5,53c-5.2,0-10.4-1.6-14.7-4.5C7.4,45.6,4,41.5,2,36.6c-2-4.8-2.5-10.2-1.5-15.3c1-5.1,3.5-9.9,7.3-13.6
	c3.7-3.7,8.4-6.2,13.6-7.3C26.5-0.5,31.8,0,36.6,2c4.8,2,9,5.4,11.9,9.8c2.9,4.4,4.5,9.5,4.5,14.7c0,2.8-0.4,5.5-1.3,8.2
	c0,0.1-0.1,0.1-0.1,0.2S51.5,35,51.4,35c-0.1,0-0.1,0.1-0.2,0.1c-0.1,0-0.1,0-0.2,0c-0.1,0-0.1-0.1-0.2-0.1s-0.1-0.1-0.1-0.2
	c0-0.1-0.1-0.1-0.1-0.2c0-0.1,0-0.1,0-0.2c0.8-2.5,1.3-5.2,1.2-7.8c0-6.1-2.2-11.9-6.1-16.5c-3.9-4.6-9.4-7.6-15.4-8.6
	c-6-0.9-12.1,0.3-17.2,3.5C8,8.1,4.2,13,2.3,18.8c-1.8,5.8-1.6,12,0.8,17.6c2.3,5.6,6.6,10.1,12,12.9c5.4,2.7,11.6,3.4,17.5,2
	c5.9-1.5,11-5,14.6-9.9c0-0.1,0.1-0.1,0.1-0.2c0.1-0.1,0.1-0.1,0.2-0.1s0.2,0,0.2,0c0.1,0,0.2,0,0.2,0.1c0.1,0,0.1,0.1,0.2,0.2
	c0,0.1,0.1,0.2,0.1,0.2c0,0.1,0,0.2,0,0.2c0,0.1-0.1,0.1-0.1,0.2c-2.5,3.4-5.7,6.2-9.4,8.1C34.9,52,30.7,53,26.5,53L26.5,53z"/>
<path class="st1" d="M22.8,37.1c0.3,0,0.5-0.2,0.5-0.5v-8.4c0-0.3,0.2-0.5,0.5-0.5h5.4c0.3,0,0.5,0.2,0.5,0.5v8.4
	c0,0.3,0.2,0.5,0.5,0.5h6.9c0.3,0,0.5-0.2,0.5-0.5V25.1c0-0.3,0.2-0.5,0.5-0.5h2.9c0.5,0,0.7-0.6,0.3-0.9L26.8,10.9
	c-0.2-0.2-0.5-0.2-0.7,0L11.6,23.8c-0.3,0.3-0.1,0.9,0.3,0.9h2.9c0.3,0,0.5,0.2,0.5,0.5v11.5c0,0.3,0.2,0.5,0.5,0.5H22.8z"/>
</svg>
