<?xml version="1.0" standalone="no"?>
<!DOCTYPE svg PUBLIC "-//W3C//DTD SVG 1.1//EN" "http://www.w3.org/Graphics/SVG/1.1/DTD/svg11.dtd" >
<svg xmlns="http://www.w3.org/2000/svg" xmlns:xlink="http://www.w3.org/1999/xlink" version="1.1">
<metadata>
Created by FontForge 20190801 at Wed Sep  2 14:36:40 2015
 By www-data
Copyright (c) 2015 by Jonathan Hill. All rights reserved.
</metadata>
<defs>
<font id="BrokmanItalic" horiz-adv-x="0" >
  <font-face 
    font-family="BrokmanItalic"
    font-weight="400"
    font-style="italic"
    font-stretch="normal"
    units-per-em="1000"
    panose-1="2 1 5 0 2 2 0 0 0 3"
    ascent="750"
    descent="-250"
    x-height="503"
    cap-height="660"
    bbox="-635 -250.056 1014.2 926"
    underline-thickness="50"
    underline-position="-150"
    slope="-9"
    unicode-range="U+0020-25CA"
  />
<missing-glyph horiz-adv-x="361" 
d="M11 0l79 503h260l-79 -503h-260zM86 62h128l61 379h-128z" />
    <glyph glyph-name="f_f_i" unicode="ffi" horiz-adv-x="873" 
d="M836 503l-74 -503h-66l65 442h-243l-66 -442h-65l66 442h-263l-66 -442h-65l65 442h-62l8 61h63l2 12q16 112 58 158t121 46q45 0 84 -12l-15 -56q-37 7 -61 7q-54 0 -81.5 -32t-39.5 -113l-2 -10h263l2 12q16 112 57.5 158t120.5 46q46 0 84 -12l-15 -56q-37 7 -60 7
q-54 0 -81.5 -31.5t-40.5 -113.5l-1 -10h308zM798 694h66l-15 -101h-67z" />
    <glyph glyph-name="f_f" unicode="ff" horiz-adv-x="657" 
d="M651 658q-54 0 -81.5 -31.5t-40.5 -113.5l-2 -10h144l-9 -61h-144l-66 -442h-65l66 442h-263l-66 -442h-65l65 442h-62l8 61h63l2 12q16 112 58 158t121 46q45 0 84 -12l-15 -56q-37 7 -61 7q-54 0 -81.5 -32t-39.5 -113l-2 -10h256h7l2 12q16 112 57.5 158t120.5 46
q46 0 84 -12l-15 -56q-37 7 -60 7z" />
    <glyph glyph-name="f_f_l" unicode="ffl" horiz-adv-x="873" 
d="M529 513l-2 -10h144l-9 -61h-144l-66 -442h-65l66 442h-263l-66 -442h-65l65 442h-62l8 61h63l2 12q16 112 58 158t121 46q45 0 84 -12l-15 -56q-37 7 -61 7q-54 0 -81.5 -32t-39.5 -113l-2 -10h263l2 12q16 112 57.5 158t120.5 46q46 0 84 -12l-15 -56q-37 7 -60 7
q-54 0 -81.5 -31.5t-40.5 -113.5zM799 700h66l-104 -700h-66z" />
    <glyph glyph-name=".notdef" horiz-adv-x="361" 
d="M11 0l79 503h260l-79 -503h-260zM86 62h128l61 379h-128z" />
    <glyph glyph-name=".null" 
 />
    <glyph glyph-name="nonmarkingreturn" horiz-adv-x="333" 
 />
    <glyph glyph-name="space" unicode=" " horiz-adv-x="264" 
 />
    <glyph glyph-name="exclam" unicode="!" horiz-adv-x="200" 
d="M56 178l77 522h66l-77 -522h-66zM28 0l14 102h70l-15 -102h-69z" />
    <glyph glyph-name="quotedbl" unicode="&#x22;" horiz-adv-x="304" 
d="M98 502l29 198h66l-29 -198h-66zM221 502l29 198h66l-29 -198h-66z" />
    <glyph glyph-name="numbersign" unicode="#" horiz-adv-x="570" 
d="M589 430h-109l-66 -184h137l-8 -58h-150l-68 -188h-60l67 188h-155l-68 -188h-61l67 188h-99l8 58h112l66 184h-138l8 58h151l62 172h61l-62 -172h156l61 172h62l-62 -172h96zM353 246l66 184h-155l-66 -184h155z" />
    <glyph glyph-name="dollar" unicode="$" horiz-adv-x="489" 
d="M302 613q-70 0 -112.5 -31t-42.5 -86q0 -37 25 -60t94 -61q92 -52 119 -77q50 -47 50 -121q0 -83 -50.5 -132t-138.5 -61l-14 -97h-63l14 94q-81 1 -177 40l21 67q96 -37 168 -37q77 0 122.5 30.5t45.5 91.5q0 26 -7 45.5t-27 36t-35.5 26t-51.5 28.5q-11 6 -17 9
q-77 42 -111.5 78t-34.5 97q0 83 56 132t151 54l15 97h62l-14 -99q77 -9 124 -33l-24 -62q-60 31 -147 31z" />
    <glyph glyph-name="percent" unicode="%" horiz-adv-x="730" 
d="M108 0l504 700h55l-504 -700h-55zM192 311q-58 0 -93 36.5t-26 94.5l17 109q10 59 48 89.5t94 30.5q57 0 92.5 -34t25.5 -92l-18 -108q-10 -59 -48 -92.5t-92 -33.5zM194 360q34 0 57.5 25t29.5 65l15 92q6 37 -14 58.5t-53 21.5q-35 0 -58 -23t-30 -62l-16 -92
q-7 -37 14 -61t55 -24zM525 -12q-58 0 -93 36t-26 95l17 108q10 59 48 90t94 31q57 0 92.5 -34t25.5 -93l-18 -108q-10 -59 -48 -92t-92 -33zM527 37q35 0 58 24.5t29 64.5l15 93q6 37 -14 58.5t-53 21.5q-35 0 -58 -23t-30 -62l-16 -93q-7 -36 14 -60t55 -24z" />
    <glyph glyph-name="ampersand" unicode="&#x26;" horiz-adv-x="572" 
d="M530 293l-11 -71q-13 -95 -69 -158l50 -89l-56 -35l-46 81q-64 -40 -151 -40q-62 0 -112 17.5t-80.5 59t-23.5 100.5l5 41q6 50 33 81.5t78 62.5l54 30l-31 56q-30 52 -30 97q0 71 51.5 112t128.5 41q63 0 108 -32t45 -95q0 -57 -33.5 -97t-99.5 -79l-50 -29l126 -223
q29 41 38 99l11 70h65zM223 466l34 -61l57 33q47 26 70.5 52t23.5 64q0 33 -27 49.5t-64 16.5q-47 0 -79.5 -28.5t-32.5 -72.5q0 -20 18 -53zM251 41q67 0 117 35l-135 240l-49 -28q-33 -19 -53.5 -41.5t-25.5 -59.5l-4 -23q-8 -61 36 -92t114 -31z" />
    <glyph glyph-name="quotesingle" unicode="'" horiz-adv-x="181" 
d="M98 502l29 198h66l-29 -198h-66z" />
    <glyph glyph-name="parenleft" unicode="(" horiz-adv-x="260" 
d="M106 -150q-57 128 -57 277t46.5 294.5t131.5 263.5l50 -36q-75 -109 -118.5 -249t-43.5 -273t46 -251z" />
    <glyph glyph-name="parenright" unicode=")" horiz-adv-x="259" 
d="M38 -153l-49 35q76 113 117.5 249.5t41.5 273.5q0 138 -43 250l54 27q57 -130 57 -280q0 -151 -46.5 -294.5t-131.5 -260.5z" />
    <glyph glyph-name="asterisk" unicode="*" horiz-adv-x="424" 
d="M312 365l-64 118l-98 -117l-39 33l93 110l-116 42l23 54l121 -42l22 137h51l-21 -137l133 42l8 -55l-128 -41l60 -111z" />
    <glyph glyph-name="plus" unicode="+" horiz-adv-x="523" 
d="M476 341l-9 -61h-168l-27 -186h-67l28 186h-167l8 61h168l27 186h66l-27 -186h168z" />
    <glyph glyph-name="comma" unicode="," horiz-adv-x="225" 
d="M6 -109l-10 60q36 15 41 53l17 115h68l-18 -125q-7 -47 -35 -73.5t-63 -29.5z" />
    <glyph glyph-name="hyphen" unicode="-" horiz-adv-x="396" 
d="M70 261l9 61h259l-7 -61h-261z" />
    <glyph glyph-name="period" unicode="." horiz-adv-x="229" 
d="M41 0l17 119h68l-17 -119h-68z" />
    <glyph glyph-name="slash" unicode="/" horiz-adv-x="407" 
d="M-18 0l399 700h71l-398 -700h-72z" />
    <glyph glyph-name="zero" unicode="0" horiz-adv-x="575" 
d="M254 -19q-99 0 -154.5 61t-40.5 163l40 262q15 100 83 156t165 56q96 0 153 -58.5t42 -158.5l-39 -262q-15 -102 -85.5 -160.5t-163.5 -58.5zM258 41q67 0 117.5 44t61.5 118l39 260q11 74 -27.5 115t-105.5 41q-68 0 -118.5 -43t-62.5 -118l-37 -254q-12 -75 26.5 -119
t106.5 -44z" />
    <glyph glyph-name="one" unicode="1" horiz-adv-x="320" 
d="M133 0l88 588l-135 -21l-2 66l170 27h43l-97 -660h-67z" />
    <glyph glyph-name="two" unicode="2" horiz-adv-x="499" 
d="M8 0l10 68q12 79 39 128t70 81t126 71q80 37 120 73.5t40 95.5q0 48 -31 73.5t-90 25.5q-79 0 -173 -32l-11 62q90 33 189 33q87 0 134.5 -40.5t47.5 -121.5q0 -38 -11.5 -69.5t-27.5 -53t-46 -44t-54 -35.5t-66 -34q-53 -25 -77 -38.5t-51.5 -38t-39.5 -55t-18 -77.5
l-3 -11h337l-9 -61h-405z" />
    <glyph glyph-name="three" unicode="3" horiz-adv-x="523" 
d="M391 343q56 -37 56 -125q0 -122 -62.5 -179.5t-186.5 -57.5q-80 0 -190 32l16 58q102 -29 173 -29q94 0 139.5 42t45.5 131q0 44 -22 71t-69 27h-188l9 61h187q54 0 86 44.5t32 105.5q0 94 -130 94q-73 0 -174 -31l-8 59q120 33 185 33q194 0 194 -145q0 -62 -24 -113.5
t-69 -77.5z" />
    <glyph glyph-name="four" unicode="4" horiz-adv-x="547" 
d="M511 193l-7 -61h-107l-19 -132h-67l19 132h-309l6 49l273 504l56 -27l-250 -465h233l30 199l5 41h67l-35 -240h105z" />
    <glyph glyph-name="five" unicode="5" horiz-adv-x="504" 
d="M460 598h-262l-36 -197q63 5 89 5q190 0 190 -167q0 -135 -62.5 -196.5t-194.5 -61.5q-89 0 -183 35l24 60q79 -32 163 -32q187 0 187 185q0 115 -138 115q-38 0 -151 -9l57 325h326z" />
    <glyph glyph-name="six" unicode="6" horiz-adv-x="562" 
d="M328 424q87 0 138.5 -45.5t39.5 -133.5l-9 -59q-30 -205 -238 -205q-106 0 -161 57t-40 154l34 228q18 125 85.5 192t177.5 67q87 0 170 -36l-22 -56q-70 31 -144 31q-82 0 -134.5 -52.5t-66.5 -143.5l-5 -34q98 36 175 36zM440 246q8 59 -28 88t-98 29q-56 0 -170 -38
l-21 -139q-10 -67 28.5 -105.5t110.5 -38.5q64 0 112.5 36.5t58.5 115.5z" />
    <glyph glyph-name="seven" unicode="7" horiz-adv-x="484" 
d="M81 660h440l-7 -58q-113 -85 -204 -221t-112 -282l-15 -99h-66l15 104q20 142 100.5 272.5t184.5 222.5h-345z" />
    <glyph glyph-name="eight" unicode="8" horiz-adv-x="581" 
d="M449 345q70 -40 59 -135l-8 -60q-11 -85 -75 -127t-165 -42t-158 45.5t-46 131.5l7 60q13 94 99 132q-56 34 -56 114q0 215 237 215q90 0 144 -38.5t54 -115.5q0 -135 -92 -180zM338 618q-166 0 -166 -152q0 -43 25.5 -66t65.5 -23h96q56 0 86 39.5t30 98.5q0 53 -38 78
t-99 25zM441 209q7 50 -19 79.5t-75 29.5h-92q-52 0 -86 -28.5t-41 -82.5l-7 -51q-6 -56 33.5 -85t110.5 -29q154 0 170 117z" />
    <glyph glyph-name="nine" unicode="9" horiz-adv-x="559" 
d="M325 679q106 0 161 -57t40 -153l-34 -229q-18 -125 -85.5 -192t-178.5 -67q-81 0 -169 36l22 56q70 -31 144 -31q82 0 134.5 52.5t65.5 143.5l6 34q-95 -35 -175 -35q-87 0 -139 45.5t-39 132.5l9 59q30 205 238 205zM461 474q10 67 -28.5 105.5t-110.5 38.5
q-64 0 -112.5 -36.5t-58.5 -115.5l-7 -52q-8 -59 28 -87.5t98 -28.5q59 0 170 37z" />
    <glyph glyph-name="colon" unicode=":" horiz-adv-x="234" 
d="M102 381l17 119h69l-18 -119h-68zM45 0l18 119h68l-18 -119h-68z" />
    <glyph glyph-name="semicolon" unicode=";" horiz-adv-x="229" 
d="M96 381l19 119h68l-18 -119h-69zM10 -109l-10 60q36 15 41 53l17 115h68l-18 -125q-7 -47 -35 -73.5t-63 -29.5z" />
    <glyph glyph-name="less" unicode="&#x3c;" horiz-adv-x="423" 
d="M399 551l-11 -85l-269 -159l221 -159l-12 -82l-297 217l6 49z" />
    <glyph glyph-name="equal" unicode="=" horiz-adv-x="524" 
d="M80 378l9 62h402l-9 -62h-402zM51 179l8 61h402l-9 -61h-401z" />
    <glyph glyph-name="greater" unicode="&#x3e;" horiz-adv-x="422" 
d="M112 551l297 -219l-6 -49l-362 -217l12 85l269 158l-221 160z" />
    <glyph glyph-name="question" unicode="?" horiz-adv-x="442" 
d="M115 178l13 86q7 52 38.5 91.5t78.5 62.5l76 37q63 29 68 88l2 20q5 46 -25 70t-95 24q-77 0 -177 -20l-2 63q95 19 180 19q99 0 147 -41t39 -117l-3 -26q-11 -93 -107 -142l-76 -37q-68 -35 -79 -97l-11 -81h-67zM92 0l14 102h70l-14 -102h-70z" />
    <glyph glyph-name="at" unicode="@" horiz-adv-x="641" 
d="M361 614q114 0 183 -71t54 -190l-15 -111q-11 -86 -51 -129t-112 -43h-50l-2 20q-49 -31 -111 -31q-91 0 -91 88q0 65 37.5 92.5t110.5 27.5q39 0 76 -7l4 29q11 68 -59 68q-41 0 -98 -16l-10 48q55 20 117 20q57 0 88 -30t21 -95l-26 -166q43 0 69 30t35 100l15 110
q12 95 -43 148.5t-147 53.5t-153 -57t-76 -154l-37 -241q-14 -93 42 -147.5t146 -54.5q69 0 137 42l15 -45q-73 -51 -157 -51q-113 0 -183 72t-53 188l36 242q18 123 96.5 191.5t191.5 68.5zM222 158q0 -46 55 -46q49 0 95 31l11 71q-35 6 -73 6q-88 0 -88 -62z" />
    <glyph glyph-name="A" unicode="A" horiz-adv-x="585" 
d="M449 0l-29 147h-289l-71 -147h-72l332 660h60l138 -660h-69zM338 559l-174 -343h242z" />
    <glyph glyph-name="B" unicode="B" horiz-adv-x="595" 
d="M465 355q75 -39 75 -141q0 -97 -62.5 -155.5t-166.5 -58.5h-270l98 660h259q71 0 116 -39.5t45 -107.5q0 -47 -25.5 -91.5t-68.5 -66.5zM393 591h-193l-32 -209h207q48 0 81 38t33 84q0 38 -25.5 62.5t-70.5 24.5zM317 69q74 0 115 42t41 106q0 52 -27.5 77.5t-72.5 25.5
h-215l-38 -251h197z" />
    <glyph glyph-name="C" unicode="C" horiz-adv-x="536" 
d="M297 -19q-130 0 -189 73t-40 207l21 143q41 275 281 275q98 0 176 -35l-26 -60q-59 27 -151 27t-143 -53.5t-67 -162.5l-21 -135q-16 -105 27.5 -159t139.5 -54q92 0 159 31l14 -62q-79 -35 -181 -35z" />
    <glyph glyph-name="D" unicode="D" horiz-adv-x="621" 
d="M368 660q102 0 166 -64.5t47 -171.5l-28 -190q-19 -124 -88.5 -179t-191.5 -55h-232l98 660h229zM510 416q12 82 -30 128.5t-117 46.5h-164l-79 -522h161q88 0 139 42.5t65 135.5z" />
    <glyph glyph-name="E" unicode="E" horiz-adv-x="535" 
d="M526 591h-327l-33 -220h297l-10 -66h-297l-36 -236h335l-9 -69h-405l98 660h396z" />
    <glyph glyph-name="F" unicode="F" horiz-adv-x="487" 
d="M514 591h-315l-34 -230h284l-10 -69h-285l-43 -292h-70l98 660h385z" />
    <glyph glyph-name="G" unicode="G" horiz-adv-x="619" 
d="M352 302l9 68h204l-49 -350q-31 -18 -93 -28.5t-116 -10.5q-126 0 -192 74.5t-47 203.5l22 149q40 271 299 271q111 0 185 -37l-26 -60q-70 29 -155 29q-201 0 -234 -213l-21 -140q-17 -105 31 -158.5t141 -53.5q72 0 142 18l35 238h-135z" />
    <glyph glyph-name="H" unicode="H" horiz-adv-x="628" 
d="M542 660h70l-97 -660h-70l45 304h-334l-45 -304h-70l98 660h70l-43 -287h334z" />
    <glyph glyph-name="I" unicode="I" horiz-adv-x="225" 
d="M42 0l97 660h70l-97 -660h-70z" />
    <glyph glyph-name="J" unicode="J" horiz-adv-x="259" 
d="M-37 -153l-24 61q70 33 94 54q42 38 51 98l90 600h70l-93 -624q-5 -34 -22 -63t-34.5 -47t-47.5 -36.5t-43.5 -25t-40.5 -17.5z" />
    <glyph glyph-name="K" unicode="K" horiz-adv-x="573" 
d="M578 660l-353 -325l283 -335h-89l-262 312l-46 -312h-70l98 660h70l-45 -299l326 299h88z" />
    <glyph glyph-name="L" unicode="L" horiz-adv-x="490" 
d="M121 69h316l-10 -69h-386l98 660h70z" />
    <glyph glyph-name="M" unicode="M" horiz-adv-x="712" 
d="M627 660h53l-74 -660h-63l58 513l-245 -374h-38l-133 380l-96 -519h-63l120 660h51l152 -425z" />
    <glyph glyph-name="N" unicode="N" horiz-adv-x="624" 
d="M536 660h72l-98 -660h-58l-263 522l-79 -522h-70l98 660h59l261 -517z" />
    <glyph glyph-name="O" unicode="O" horiz-adv-x="628" 
d="M288 -19q-106 0 -173.5 66.5t-52.5 174.5l34 224q16 109 92 171t177 62q107 0 174.5 -65t51.5 -172l-33 -224q-16 -110 -91.5 -173.5t-178.5 -63.5zM291 47q75 0 129.5 49t67.5 130l33 216q12 81 -35 126t-124 45q-73 0 -128.5 -47t-68.5 -129l-33 -215
q-12 -81 35.5 -128t123.5 -47z" />
    <glyph glyph-name="P" unicode="P" horiz-adv-x="569" 
d="M403 660q86 0 130.5 -49.5t44.5 -126.5q0 -95 -63 -165t-169 -70h-198l-37 -249h-70l98 660h264zM352 317q70 0 113 48t43 112q0 52 -27.5 83t-83.5 31h-198l-41 -274h194z" />
    <glyph glyph-name="Q" unicode="Q" horiz-adv-x="638" 
d="M365 679q107 0 174.5 -65t51.5 -172l-33 -224q-19 -128 -118 -193l87 -109l-53 -49l-101 126q-41 -12 -85 -12q-106 0 -173.5 66.5t-52.5 174.5l34 224q16 109 92 171t177 62zM521 442q12 81 -35 126t-124 45q-73 0 -128.5 -47t-68.5 -129l-33 -215q-12 -81 35.5 -128
t123.5 -47q75 0 129.5 49t67.5 130z" />
    <glyph glyph-name="R" unicode="R" horiz-adv-x="604" 
d="M567 486q0 -84 -48.5 -140.5t-132.5 -70.5l126 -275h-76l-121 267h-164l-40 -267h-70l98 660h253q86 0 130.5 -50t44.5 -124zM199 591l-39 -258h185q69 0 110.5 43t41.5 106q0 47 -27 78t-83 31h-188z" />
    <glyph glyph-name="S" unicode="S" horiz-adv-x="489" 
d="M194 -19q-89 0 -188 40l21 67q96 -37 168 -37q77 0 122.5 30.5t45.5 91.5q0 26 -7 45.5t-27 36t-35.5 26t-51.5 28.5q-11 6 -17 9q-77 42 -111.5 78t-34.5 97q0 87 61.5 136.5t162.5 49.5q103 0 170 -35l-24 -62q-60 31 -147 31q-70 0 -112.5 -31t-42.5 -86q0 -37 25 -60
t94 -61q92 -52 119 -77q50 -47 50 -121q0 -95 -65.5 -145.5t-175.5 -50.5z" />
    <glyph glyph-name="T" unicode="T" horiz-adv-x="513" 
d="M552 660l-9 -69h-197l-87 -591h-70l87 591h-197l10 69h463z" />
    <glyph glyph-name="U" unicode="U" horiz-adv-x="617" 
d="M284 -19q-120 0 -177 69t-40 189l62 421h70l-62 -426q-13 -89 27 -138t124 -49q82 0 130 50.5t61 140.5l62 422h71l-63 -426q-37 -253 -265 -253z" />
    <glyph glyph-name="V" unicode="V" horiz-adv-x="565" 
d="M532 660h69l-318 -660h-66l-123 660h67l102 -555z" />
    <glyph glyph-name="W" unicode="W" horiz-adv-x="837" 
d="M802 660h70l-260 -660h-70l-77 526l-234 -526h-69l-68 660h69l53 -543l237 543h60l77 -542z" />
    <glyph glyph-name="X" unicode="X" horiz-adv-x="566" 
d="M588 660l-252 -325l161 -335h-76l-133 278l-214 -278h-80l263 344l-151 316h74l125 -260l203 260h80z" />
    <glyph glyph-name="Y" unicode="Y" horiz-adv-x="526" 
d="M494 660h75l-267 -407l-37 -253h-70l37 253l-146 407h72l120 -332z" />
    <glyph glyph-name="Z" unicode="Z" horiz-adv-x="544" 
d="M544 660l-8 -56l-426 -535h355l-8 -69h-449l7 54l428 537h-331l10 69h422z" />
    <glyph glyph-name="bracketleft" unicode="[" horiz-adv-x="287" 
d="M16 -163l128 863h206l-9 -61h-140l-110 -741h139l-8 -61h-206z" />
    <glyph glyph-name="backslash" unicode="\" horiz-adv-x="418" 
d="M286 0l-190 700h67l190 -700h-67z" />
    <glyph glyph-name="bracketright" unicode="]" horiz-adv-x="287" 
d="M-57 -163l8 61h140l110 741h-139l9 61h205l-128 -863h-205z" />
    <glyph glyph-name="asciicircum" unicode="^" horiz-adv-x="502" 
d="M475 401h-74l-92 211l-158 -211h-77l222 299h47z" />
    <glyph glyph-name="underscore" unicode="_" horiz-adv-x="513" 
d="M-22 -118l9 63h441l-9 -63h-441z" />
    <glyph glyph-name="grave" unicode="`" horiz-adv-x="232" 
d="M186 587l-106 140h83l90 -140h-67z" />
    <glyph glyph-name="a" unicode="a" horiz-adv-x="504" 
d="M279 519q193 0 165 -184l-42 -265l6 -70h-59l-7 31q-87 -50 -178 -50q-69 0 -109 37.5t-40 105.5q1 172 214 172q57 0 139 -12l9 56q10 66 -16.5 92.5t-85.5 26.5q-85 0 -160 -31l-9 61q90 30 173 30zM338 87l22 144q-76 12 -124 12q-154 0 -154 -118q0 -40 25 -62.5
t69 -22.5q92 0 162 47z" />
    <glyph glyph-name="b" unicode="b" horiz-adv-x="543" 
d="M335 519q83 0 129.5 -57t31.5 -154l-20 -130q-31 -197 -221 -197q-45 0 -109 12t-104 27l100 680h66l-33 -221q98 40 160 40zM429 300q11 73 -18 114.5t-89 41.5q-68 0 -156 -40l-52 -352q55 -20 138 -22q67 0 109 42t52 111z" />
    <glyph glyph-name="c" unicode="c" horiz-adv-x="468" 
d="M249 -19q-104 0 -159 57.5t-36 185.5l8 62q18 126 80 179.5t160 53.5q91 0 148 -25l-17 -57q-60 20 -123 20q-76 0 -121.5 -39.5t-60.5 -137.5l-9 -57q-29 -180 143 -180q57 0 119 20l7 -58q-66 -24 -139 -24z" />
    <glyph glyph-name="d" unicode="d" horiz-adv-x="547" 
d="M538 700l-94 -630l8 -70h-67l-6 36q-92 -55 -170 -55q-89 0 -130.5 61.5t-28.5 148.5l17 118q13 96 67.5 153t139.5 57q67 0 165 -44l33 225h66zM117 198q-9 -66 14.5 -111t91.5 -45q78 0 159 59l48 319q-77 35 -146 37q-61 0 -102 -44t-51 -118z" />
    <glyph glyph-name="e" unicode="e" horiz-adv-x="522" 
d="M290 519q100 0 148 -66t32 -171l-11 -76h-343q-12 -82 25.5 -122t114.5 -40q75 0 153 30l7 -57q-82 -36 -165 -36q-108 0 -161.5 61t-38.5 165l11 78q15 107 72.5 170.5t155.5 63.5zM289 459q-70 0 -109.5 -50t-51.5 -126l-3 -18h280l3 25q11 75 -19.5 122t-99.5 47z" />
    <glyph glyph-name="f" unicode="f" horiz-adv-x="328" 
d="M322 658q-54 0 -81.5 -32t-39.5 -113l-2 -10h143l-8 -61h-144l-66 -442h-65l65 442h-62l8 61h63l2 12q16 112 58 158t121 46q45 0 84 -12l-15 -56q-37 7 -61 7z" />
    <glyph glyph-name="g" unicode="g" horiz-adv-x="545" 
d="M458 503h68l-29 -70l-66 -449q-8 -54 -28 -91.5t-49.5 -57t-61 -27.5t-71.5 -8q-105 0 -181 35l22 58q63 -33 147 -33q137 0 155 118l7 50q-88 -47 -162 -47q-89 0 -130.5 61.5t-29.5 148.5l18 118q13 96 67.5 153t139.5 57q69 0 169 -46zM223 43q79 0 159 54l47 323
q-77 35 -146 37q-61 0 -101 -44t-51 -118l-15 -97q-9 -66 15 -110.5t92 -44.5z" />
    <glyph glyph-name="h" unicode="h" horiz-adv-x="560" 
d="M351 519q88 0 127 -52.5t24 -156.5l-47 -310h-66l47 312q22 146 -105 146q-83 0 -167 -54l-59 -404h-67l104 700h66l-34 -230q95 49 177 49z" />
    <glyph glyph-name="i" unicode="i" horiz-adv-x="217" 
d="M126 593l15 101h66l-15 -101h-66zM39 0l74 503h66l-74 -503h-66z" />
    <glyph glyph-name="j" unicode="j" horiz-adv-x="221" 
d="M129 593l16 101h66l-15 -101h-67zM-12 -200q-37 0 -73 14l15 50q19 -6 36 -6q56 0 66 72l85 573h65l-85 -581q-17 -122 -109 -122z" />
    <glyph glyph-name="k" unicode="k" horiz-adv-x="492" 
d="M483 503l-282 -246l231 -257h-81l-213 228l-33 -228h-67l104 700h66l-61 -410l249 213h87z" />
    <glyph glyph-name="l" unicode="l" horiz-adv-x="216" 
d="M38 0l104 700h66l-103 -700h-67z" />
    <glyph glyph-name="m" unicode="m" horiz-adv-x="821" 
d="M628 519q163 0 133 -214l-45 -305h-66l46 306q5 41 3.5 75t-24.5 55.5t-68 21.5q-38 0 -77.5 -14.5t-64.5 -36.5q6 -46 -3 -102l-45 -305h-66l46 306q5 41 4 75t-24 55.5t-68 21.5q-38 0 -77 -14.5t-64 -37.5l-60 -406h-66l64 433l-8 70h63l5 -36q81 52 164 52
q88 0 119 -60q84 60 179 60z" />
    <glyph glyph-name="n" unicode="n" horiz-adv-x="563" 
d="M355 519q88 0 127 -52.5t24 -156.5l-47 -310h-66l47 312q22 146 -105 146q-85 0 -167 -54l-60 -404h-66l64 433l-8 70h63l5 -39q101 55 189 55z" />
    <glyph glyph-name="o" unicode="o" horiz-adv-x="534" 
d="M242 -19q-91 0 -150 49.5t-47 129.5l28 188q12 81 73.5 126t148.5 45q92 0 150.5 -48t46.5 -129l-29 -188q-12 -83 -72 -128t-149 -45zM243 41q62 0 104 33t51 89l27 179q9 55 -30.5 86t-101.5 31q-63 0 -105 -32t-50 -89l-26 -179q-8 -54 30.5 -86t100.5 -32z" />
    <glyph glyph-name="p" unicode="p" horiz-adv-x="545" 
d="M338 519q83 0 128.5 -56.5t31.5 -154.5l-20 -130q-31 -197 -201 -197q-82 0 -165 49l-32 -210h-66l92 613l-8 70h67l5 -27q108 43 168 43zM431 300q10 75 -18 115.5t-90 40.5q-66 0 -154 -40l-49 -328q67 -46 145 -46q128 0 150 154z" />
    <glyph glyph-name="q" unicode="q" horiz-adv-x="545" 
d="M459 503h68l-28 -70l-91 -613h-67l31 208q-88 -47 -162 -47q-89 0 -130.5 61.5t-29.5 148.5l17 118q12 96 67 153t140 57q70 0 170 -46zM383 97l47 323q-77 37 -146 37q-61 0 -102 -44t-51 -118l-14 -97q-9 -66 15 -110.5t92 -44.5q79 0 159 54z" />
    <glyph glyph-name="r" unicode="r" horiz-adv-x="377" 
d="M333 519q45 0 70 -7l-7 -62q-29 6 -66 6q-67 0 -164 -63l-58 -393h-66l64 433l-8 70h63l6 -44q98 60 166 60z" />
    <glyph glyph-name="s" unicode="s" horiz-adv-x="440" 
d="M173 -19q-78 0 -177 33l19 59q88 -32 158 -32q146 0 146 96q0 21 -6 34.5t-25 25.5t-33.5 18t-53.5 20q-40 14 -59.5 22.5t-43 24.5t-32.5 37t-9 51q0 71 56.5 110t150.5 39q82 0 149 -25l-18 -58q-57 23 -133 23q-64 0 -101.5 -22.5t-37.5 -63.5q0 -29 22 -44t85 -38
q38 -14 53.5 -20.5t40.5 -20t34.5 -26.5t18 -34.5t8.5 -49.5q0 -83 -57.5 -121t-154.5 -38z" />
    <glyph glyph-name="t" unicode="t" horiz-adv-x="369" 
d="M202 442l-48 -321q-11 -79 69 -79q41 0 79 13l5 -52q-52 -22 -108 -22t-88.5 32t-23.5 96l49 333h-80l8 61h82l16 114h67l-17 -114h144l-9 -61h-145z" />
    <glyph glyph-name="u" unicode="u" horiz-adv-x="538" 
d="M498 503l-65 -433l7 -70h-63l-6 36q-85 -55 -161 -55q-84 0 -126 52t-27 157l47 313h66l-47 -316q-11 -73 12.5 -109t86.5 -36q71 0 149 56l60 405h67z" />
    <glyph glyph-name="v" unicode="v" horiz-adv-x="489" 
d="M434 503h72l-261 -503h-65l-117 503h69l89 -416z" />
    <glyph glyph-name="w" unicode="w" horiz-adv-x="717" 
d="M669 503h65l-214 -503h-67l-71 387l-189 -387h-64l-66 503h61l52 -413l192 413h58l70 -411z" />
    <glyph glyph-name="x" unicode="x" horiz-adv-x="498" 
d="M501 503l-213 -259l139 -244h-73l-114 199l-170 -199h-79l215 259l-140 244h74l115 -202l169 202h77z" />
    <glyph glyph-name="y" unicode="y" horiz-adv-x="493" 
d="M439 503l70 -2q-237 -432 -286 -511q-89 -147 -143 -178q-22 -12 -45 -12q-26 0 -55 10l15 57q9 -3 26 -3q37 0 72 39t89 129l-120 471h67l99 -393z" />
    <glyph glyph-name="z" unicode="z" horiz-adv-x="453" 
d="M442 503l-6 -52l-344 -390h294l-8 -61h-381l7 52l343 390h-264l9 61h350z" />
    <glyph glyph-name="braceleft" unicode="{" horiz-adv-x="338" 
d="M328 719q43 0 86 -12l-3 -56q-36 8 -71 8q-50 0 -76 -29t-38 -110l-14 -98q-10 -69 -28 -104t-56 -53q31 -19 39.5 -55.5t-1.5 -99.5l-15 -98q-12 -80 2.5 -107t60.5 -27q34 0 78 11l-5 -60q-41 -11 -85 -11q-37 0 -60.5 8t-41.5 30.5t-19.5 61.5t5.5 102l14 96
q11 69 -4 93.5t-61 26.5l4 62q48 2 72.5 29.5t35.5 99.5l14 96q17 117 55.5 156.5t111.5 39.5z" />
    <glyph glyph-name="bar" unicode="|" horiz-adv-x="218" 
d="M14 -160l126 843h66l-125 -843h-67z" />
    <glyph glyph-name="braceright" unicode="}" horiz-adv-x="338" 
d="M242 421q-11 -69 4 -93.5t62 -26.5l-3 -61q-48 -2 -73 -30t-36 -100l-14 -96q-16 -117 -54.5 -156.5t-112.5 -39.5q-41 0 -87 12l5 57q35 -9 70 -9q50 0 76.5 29t37.5 109l14 100q9 68 27.5 103t57.5 53q-32 20 -40.5 56.5t1.5 99.5l14 97q13 80 -2 107.5t-61 27.5
q-32 0 -78 -11l5 60q51 11 86 11q76 0 105 -42t11 -160z" />
    <glyph glyph-name="asciitilde" unicode="~" horiz-adv-x="546" 
d="M103 222l-42 36q41 69 70.5 97.5t67.5 28.5t73 -23l69 -49q19 -14 37 -14q20 0 37 21.5t37 58.5q3 5 4 8l46 -28q-31 -59 -61 -91.5t-64 -32.5q-32 0 -63 22l-70 49q-21 14 -42 14q-28 0 -51 -25.5t-48 -71.5z" />
    <glyph glyph-name="uni00A0" unicode="&#xa0;" 
 />
    <glyph glyph-name="exclamdown" unicode="&#xa1;" horiz-adv-x="200" 
d="M89 415l15 102h70l-15 -102h-70zM2 -183l78 522h66l-78 -522h-66z" />
    <glyph glyph-name="cent" unicode="&#xa2;" horiz-adv-x="468" 
d="M128 280l-9 -57q-29 -180 143 -180q57 0 119 20l7 -58q-59 -23 -128 -24l-13 -94h-62l14 97q-176 28 -145 240l8 62q18 118 73.5 172t143.5 60l13 94h62l-14 -95q63 -4 110 -23l-17 -57q-60 20 -123 20q-76 0 -121.5 -39.5t-60.5 -137.5z" />
    <glyph glyph-name="sterling" unicode="&#xa3;" horiz-adv-x="516" 
d="M369 614q-96 0 -148 -72q-21 -30 -27 -68.5t-7 -104.5h202l-7 -52h-196q-1 -69 -4 -105t-16 -76.5t-39 -66.5h295l-9 -69h-399l5 59q68 39 83 109q7 33 10 136v13h-58l8 52h50q2 79 13.5 131t44.5 92q70 87 193 87q62 0 139 -17l-16 -64q-59 16 -117 16z" />
    <glyph glyph-name="currency" unicode="&#xa4;" horiz-adv-x="567" 
d="M572 632l-95 -118q35 -46 26 -107l-24 -163q-10 -65 -55 -110l58 -110l-48 -31l-57 106q-49 -26 -105 -26q-70 0 -120 39l-95 -117l-41 31l100 124q-27 43 -20 99l25 163q9 60 47 103l-61 117l48 31l59 -112q50 30 112 30q63 0 113 -31l92 113zM437 406q8 51 -28.5 81
t-87.5 30q-50 0 -89.5 -32t-47.5 -86l-22 -148q-8 -51 28.5 -82t86.5 -31t89.5 32t48.5 85z" />
    <glyph glyph-name="yen" unicode="&#xa5;" horiz-adv-x="526" 
d="M569 660l-192 -294h106l-6 -53h-135l-40 -60l-6 -43h168l-7 -52h-169l-23 -158h-70l23 158h-180l7 52h181l6 43l-21 60h-148l7 53h122l-106 294h72l120 -332l216 332h75z" />
    <glyph glyph-name="brokenbar" unicode="&#xa6;" horiz-adv-x="218" 
d="M87 325l53 358h66l-53 -358h-66zM14 -160l53 358h67l-53 -358h-67z" />
    <glyph glyph-name="section" unicode="&#xa7;" horiz-adv-x="455" 
d="M286 563q-64 0 -98 -23t-37 -62q-4 -36 21 -53t86 -36q39 -13 60 -22.5t50 -29t39 -48.5t3 -68q-13 -69 -79 -99q49 -36 40 -108q-19 -146 -210 -146q-77 0 -179 34l21 61q88 -33 158 -33q134 0 146 89q5 38 -20.5 55.5t-98.5 39.5q-87 28 -119 54.5t-24 87.5
q10 83 87 117q-56 38 -46 110q8 61 55.5 100.5t142.5 39.5q88 0 162 -31l-26 -56q-57 27 -134 27zM345 229q4 24 -2.5 41t-26 29t-37 18.5t-50.5 16.5l-38 12q-73 -27 -81 -90q-2 -18 2.5 -30.5t21.5 -22.5t31.5 -15.5t50.5 -16.5l62 -22q58 20 67 80z" />
    <glyph glyph-name="dieresis" unicode="&#xa8;" horiz-adv-x="334" 
d="M122 618l11 78h67l-11 -78h-67zM259 618l12 78h68l-11 -78h-69z" />
    <glyph glyph-name="copyright" unicode="&#xa9;" horiz-adv-x="736" 
d="M385 27q-135 0 -229 95t-94 231t93 229.5t228 93.5t229 -94t94 -231q0 -136 -93.5 -230t-227.5 -94zM385 80q111 0 189.5 79t78.5 192q0 115 -79 194t-191 79t-190 -79t-78 -193t78.5 -193t191.5 -79zM384 179q-140 0 -140 142v72q0 143 136 143q55 0 99 -18l-12 -45
q-45 15 -83 15q-88 0 -88 -97v-66q0 -97 88 -97q43 0 86 15l13 -46q-43 -18 -99 -18z" />
    <glyph glyph-name="ordfeminine" unicode="&#xaa;" horiz-adv-x="333" 
d="M228 677q126 0 107 -119l-26 -164l6 -48h-49l-3 16q-53 -28 -108 -28q-44 0 -69.5 24t-25.5 69q1 110 134 110q36 0 85 -7l5 32q12 70 -60 70q-49 0 -101 -20l-6 47q62 18 111 18zM109 428q0 -23 14.5 -36t41.5 -13q54 0 95 25l13 84q-48 8 -73 8q-91 0 -91 -68z" />
    <glyph glyph-name="guillemotleft" unicode="&#xab;" horiz-adv-x="609" 
d="M572 466l-12 -90l-189 -142l146 -141l-12 -83l-210 202l7 44zM297 466l-12 -90l-189 -141l147 -142l-13 -83l-209 202l6 44z" />
    <glyph glyph-name="logicalnot" unicode="&#xac;" horiz-adv-x="524" 
d="M373 94l28 186h-335l8 62h402l-37 -248h-66z" />
    <glyph glyph-name="registered" unicode="&#xae;" horiz-adv-x="502" 
d="M293 676q94 0 160 -66t66 -160t-65.5 -160t-159.5 -66t-159.5 66t-65.5 161q0 94 65 159.5t159 65.5zM294 260q78 0 133 55t55 135q0 79 -55 134.5t-134 55.5q-78 0 -132.5 -55t-54.5 -135t54.5 -135t133.5 -55zM389 501q0 -58 -54 -69l61 -97h-39l-59 93h-52v-93h-35
v238h100q39 0 58.5 -20t19.5 -52zM245 539l1 -78h65q23 0 34 11.5t11 27.5q0 39 -45 39h-66z" />
    <glyph glyph-name="macron" unicode="&#xaf;" horiz-adv-x="421" 
d="M124 615l8 58h286l-7 -58h-287z" />
    <glyph glyph-name="degree" unicode="&#xb0;" horiz-adv-x="328" 
d="M197 401q-53 0 -89 36.5t-36 93.5q0 68 44 115.5t109 47.5q53 0 88.5 -36.5t35.5 -93.5q0 -67 -44 -115t-108 -48zM199 457q42 0 70 30.5t28 74.5q0 34 -21.5 55.5t-52.5 21.5q-43 0 -70.5 -29.5t-27.5 -73.5q0 -35 21 -57t53 -22z" />
    <glyph glyph-name="plusminus" unicode="&#xb1;" horiz-adv-x="525" 
d="M313 379h168l-9 -62h-168l-28 -185h-66l27 185h-166l8 62h167l28 185h67zM23 0l8 61h403l-10 -61h-401z" />
    <glyph glyph-name="acute" unicode="&#xb4;" horiz-adv-x="231" 
d="M85 587l116 140h86l-132 -140h-70z" />
    <glyph glyph-name="uni00B5" unicode="&#xb5;" horiz-adv-x="604" 
d="M520 46l6 -52q-35 -13 -66 -13q-62 0 -72 60q-97 -60 -185 -60q-71 0 -109 42l-19 -203h-69l56 370l47 313h66l-48 -316q-22 -145 94 -145q82 0 166 62q1 2 1.5 6.5t0.5 6.5l58 386h66l-57 -388q-6 -41 -0.5 -59t26.5 -18q14 0 38 8z" />
    <glyph glyph-name="paragraph" unicode="&#xb6;" horiz-adv-x="515" 
d="M538 700l-7 -46h-50l-117 -784h-48l117 784h-96l-116 -784h-48l67 446h-50q-50 0 -80.5 37.5t-22.5 94.5l19 127q8 58 48.5 91.5t92.5 33.5h291z" />
    <glyph glyph-name="periodcentered" unicode="&#xb7;" horiz-adv-x="175" 
d="M57 274l20 137h69l-21 -137h-68z" />
    <glyph glyph-name="cedilla" unicode="&#xb8;" horiz-adv-x="290" 
d="M86 -70q39 -2 63.5 -23.5t24.5 -58.5q0 -59 -54 -82.5t-138 -11.5l10 52q51 -10 89 0t38 41q0 19 -26 28.5t-74 6.5l30 130h57z" />
    <glyph glyph-name="ordmasculine" unicode="&#xba;" horiz-adv-x="350" 
d="M198 334q-59 0 -97 32t-31 84l17 116q8 53 48 82t95 29q61 0 98.5 -31t29.5 -84l-18 -117q-8 -53 -47 -82t-95 -29zM198 379q37 0 62 20t30 54l17 109q6 33 -17 51.5t-61 18.5t-62.5 -19.5t-29.5 -54.5l-15 -108q-5 -32 17.5 -51.5t58.5 -19.5z" />
    <glyph glyph-name="guillemotright" unicode="&#xbb;" horiz-adv-x="610" 
d="M374 466l210 -210l-6 -44l-270 -202l12 89l190 143l-147 142zM99 466l210 -210l-6 -44l-270 -202l12 89l190 143l-147 142z" />
    <glyph glyph-name="onequarter" unicode="&#xbc;" horiz-adv-x="859" 
d="M615 700h53l-397 -700h-54zM241 277h-54l49 326l-112 -20l-1 53l141 24h33zM822 118l-7 -48h-56l-11 -70h-52l11 70h-179l5 35l154 288l45 -23l-135 -252h117l14 89l4 28h52l-18 -117h56z" />
    <glyph glyph-name="onehalf" unicode="&#xbd;" horiz-adv-x="856" 
d="M217 0l398 700h53l-397 -700h-54zM187 277l49 326l-112 -20l-1 53l141 24h33l-56 -383h-54zM536 0l7 47q8 63 36.5 96t98.5 65q46 20 65.5 37t19.5 47q0 52 -60 52q-48 0 -99 -22l-12 49q54 23 117 23q107 0 107 -102q0 -54 -30 -83.5t-90 -54.5q-51 -21 -72.5 -40
t-25.5 -61l-4 -4h192l-8 -49h-242z" />
    <glyph glyph-name="threequarters" unicode="&#xbe;" horiz-adv-x="861" 
d="M617 700h53l-397 -700h-54zM307 398q0 -132 -151 -132q-43 0 -112 17l11 48q57 -15 101 -15q47 0 73 21.5t26 58.5q0 22 -12.5 37t-36.5 15h-109l7 49h107q29 0 45.5 20t16.5 49q0 26 -18 41t-53 15q-36 0 -96 -17l-5 50q65 16 107 16q118 0 118 -94q0 -73 -50 -104
q31 -25 31 -75zM824 118l-7 -48h-56l-11 -70h-52l11 70h-179l5 35l154 288l45 -23l-135 -252h117l14 89l4 28h52l-18 -117h56z" />
    <glyph glyph-name="questiondown" unicode="&#xbf;" horiz-adv-x="441" 
d="M350 500l-14 -102h-70l14 102h70zM327 322l-13 -86q-7 -52 -38.5 -91.5t-78.5 -62.5l-76 -37q-63 -29 -68 -88l-2 -20q-5 -46 25 -70t95 -24q77 0 177 20l2 -63q-95 -19 -180 -19q-99 0 -147 41t-39 117l3 26q11 93 107 142l76 37q68 35 79 97l11 81h67z" />
    <glyph glyph-name="Agrave" unicode="&#xc0;" horiz-adv-x="585" 
d="M393 752h-68l-111 138h83zM449 0l-29 147h-289l-71 -147h-72l332 660h60l138 -660h-69zM338 559l-174 -343h242z" />
    <glyph glyph-name="Aacute" unicode="&#xc1;" horiz-adv-x="585" 
d="M544 886l-150 -139h-72l136 139h86zM320 660h60l138 -660h-69l-29 147h-289l-71 -147h-72zM338 559l-174 -343h242z" />
    <glyph glyph-name="Acircumflex" unicode="&#xc2;" horiz-adv-x="585" 
d="M371 824l-93 -77h-63l126 123h70l92 -123h-63zM449 0l-29 147h-289l-71 -147h-72l332 660h60l138 -660h-69zM338 559l-174 -343h242z" />
    <glyph glyph-name="Atilde" unicode="&#xc3;" horiz-adv-x="585" 
d="M316 811q-29 0 -57 -57l-46 21q44 94 100 94q30 0 66.5 -27.5t46.5 -27.5q26 0 49 53l47 -20q-16 -40 -41.5 -66.5t-53.5 -26.5q-27 0 -61 28.5t-50 28.5zM320 660h60l138 -660h-69l-29 147h-289l-71 -147h-72zM338 559l-174 -343h242z" />
    <glyph glyph-name="Adieresis" unicode="&#xc4;" horiz-adv-x="585" 
d="M334 837l-11 -79h-67l11 79h67zM473 837l-12 -79h-68l12 79h68zM449 0l-29 147h-289l-71 -147h-72l332 660h60l138 -660h-69zM338 559l-174 -343h242z" />
    <glyph glyph-name="Aring" unicode="&#xc5;" horiz-adv-x="591" 
d="M449 0l-29 147h-289l-71 -147h-72l317 630q-53 25 -53 91q0 49 33 86.5t83 37.5q44 0 69.5 -29t25.5 -72q0 -38 -20.5 -71t-55.5 -45l131 -628h-69zM364 792q-28 0 -46 -19t-18 -46q0 -23 14 -38t39 -15q27 0 44.5 19.5t17.5 45.5q0 23 -14 38t-37 15zM338 559l-174 -343
h242z" />
    <glyph glyph-name="AE" unicode="&#xc6;" horiz-adv-x="855" 
d="M845 591h-327l-33 -220h297l-9 -66h-298l-36 -236h336l-10 -69h-404l22 149h-221l-98 -149h-76l436 660h431zM207 217h186l53 362z" />
    <glyph glyph-name="Ccedilla" unicode="&#xc7;" horiz-adv-x="536" 
d="M159 395l-21 -135q-16 -105 27.5 -159t139.5 -54q92 0 159 31l14 -62q-79 -35 -181 -35h-4l-13 -51q39 -2 63.5 -23.5t24.5 -58.5q0 -59 -54 -82.5t-138 -11.5l10 52q51 -10 89 0t38 41q0 19 -26 28.5t-74 6.5l24 103q-99 16 -142.5 87.5t-26.5 188.5l21 143
q41 275 281 275q98 0 176 -35l-26 -60q-59 27 -151 27t-143 -53.5t-67 -162.5z" />
    <glyph glyph-name="Egrave" unicode="&#xc8;" horiz-adv-x="535" 
d="M382 752h-68l-111 138h83zM526 591h-327l-33 -220h297l-10 -66h-297l-36 -236h335l-9 -69h-405l98 660h396z" />
    <glyph glyph-name="Eacute" unicode="&#xc9;" horiz-adv-x="535" 
d="M533 886l-150 -139h-72l136 139h86zM526 591h-327l-33 -220h297l-10 -66h-297l-36 -236h335l-9 -69h-405l98 660h396z" />
    <glyph glyph-name="Ecircumflex" unicode="&#xca;" horiz-adv-x="535" 
d="M360 824l-93 -77h-63l126 123h70l92 -123h-63zM526 591h-327l-33 -220h297l-10 -66h-297l-36 -236h335l-9 -69h-405l98 660h396z" />
    <glyph glyph-name="Edieresis" unicode="&#xcb;" horiz-adv-x="535" 
d="M323 837l-11 -79h-67l11 79h67zM462 837l-12 -79h-68l12 79h68zM526 591h-327l-33 -220h297l-10 -66h-297l-36 -236h335l-9 -69h-405l98 660h396z" />
    <glyph glyph-name="Igrave" unicode="&#xcc;" horiz-adv-x="225" 
d="M150 752l-111 138h83l96 -138h-68zM42 0l97 660h70l-97 -660h-70z" />
    <glyph glyph-name="Iacute" unicode="&#xcd;" horiz-adv-x="225" 
d="M147 747l136 139h86l-150 -139h-72zM42 0l97 660h70l-97 -660h-70z" />
    <glyph glyph-name="Icircumflex" unicode="&#xce;" horiz-adv-x="225" 
d="M236 870l92 -123h-63l-69 77l-93 -77h-63l126 123h70zM42 0l97 660h70l-97 -660h-70z" />
    <glyph glyph-name="Idieresis" unicode="&#xcf;" horiz-adv-x="225" 
d="M82 758l11 79h67l-11 -79h-67zM219 758l12 79h68l-12 -79h-68zM42 0l97 660h70l-97 -660h-70z" />
    <glyph glyph-name="Eth" unicode="&#xd0;" horiz-adv-x="621" 
d="M368 660q102 0 166 -64.5t48 -171.5l-29 -190q-18 -123 -87.5 -178.5t-191.5 -55.5h-232l45 305h-99l7 68h102l42 287h229zM511 416q12 81 -30.5 128t-116.5 47h-165l-33 -218h195l-8 -68h-197l-35 -236h161q177 0 204 178z" />
    <glyph glyph-name="Ntilde" unicode="&#xd1;" horiz-adv-x="624" 
d="M329 811q-29 0 -57 -57l-46 21q44 94 100 94q30 0 66.5 -27.5t46.5 -27.5q26 0 49 53l47 -20q-16 -40 -41.5 -66.5t-53.5 -26.5q-27 0 -61 28.5t-50 28.5zM536 660h72l-98 -660h-58l-263 522l-79 -522h-70l98 660h59l261 -517z" />
    <glyph glyph-name="Ograve" unicode="&#xd2;" horiz-adv-x="628" 
d="M342 752l-111 138h83l96 -138h-68zM288 -19q-106 0 -173.5 66.5t-52.5 174.5l34 224q16 109 92 171t177 62q107 0 174.5 -65t51.5 -172l-33 -224q-16 -110 -91.5 -173.5t-178.5 -63.5zM291 47q75 0 129.5 49t67.5 130l33 216q12 81 -35 126t-124 45q-73 0 -128.5 -47
t-68.5 -129l-33 -215q-12 -81 35.5 -128t123.5 -47z" />
    <glyph glyph-name="Oacute" unicode="&#xd3;" horiz-adv-x="628" 
d="M339 747l136 139h86l-150 -139h-72zM288 -19q-106 0 -173.5 66.5t-52.5 174.5l34 224q16 109 92 171t177 62q107 0 174.5 -65t51.5 -172l-33 -224q-16 -110 -91.5 -173.5t-178.5 -63.5zM291 47q75 0 129.5 49t67.5 130l33 216q12 81 -35 126t-124 45q-73 0 -128.5 -47
t-68.5 -129l-33 -215q-12 -81 35.5 -128t123.5 -47z" />
    <glyph glyph-name="Ocircumflex" unicode="&#xd4;" horiz-adv-x="628" 
d="M388 824l-93 -77h-63l126 123h70l92 -123h-63zM365 679q107 0 174.5 -65t51.5 -172l-33 -224q-16 -110 -91.5 -173.5t-178.5 -63.5q-106 0 -173.5 66.5t-52.5 174.5l34 224q16 109 92 171t177 62zM521 442q12 81 -35 126t-124 45q-73 0 -128.5 -47t-68.5 -129l-33 -215
q-12 -81 35.5 -128t123.5 -47q75 0 129.5 49t67.5 130z" />
    <glyph glyph-name="Otilde" unicode="&#xd5;" horiz-adv-x="628" 
d="M277 754l-46 21q44 94 100 94q30 0 66.5 -27.5t46.5 -27.5q26 0 49 53l47 -20q-16 -40 -41.5 -66.5t-53.5 -26.5q-27 0 -61 28.5t-50 28.5q-29 0 -57 -57zM288 -19q-106 0 -173.5 66.5t-52.5 174.5l34 224q16 109 92 171t177 62q107 0 174.5 -65t51.5 -172l-33 -224
q-16 -110 -91.5 -173.5t-178.5 -63.5zM291 47q75 0 129.5 49t67.5 130l33 216q12 81 -35 126t-124 45q-73 0 -128.5 -47t-68.5 -129l-33 -215q-12 -81 35.5 -128t123.5 -47z" />
    <glyph glyph-name="Odieresis" unicode="&#xd6;" horiz-adv-x="628" 
d="M274 758l11 79h67l-11 -79h-67zM411 758l12 79h68l-12 -79h-68zM288 -19q-106 0 -173.5 66.5t-52.5 174.5l34 224q16 109 92 171t177 62q107 0 174.5 -65t51.5 -172l-33 -224q-16 -110 -91.5 -173.5t-178.5 -63.5zM291 47q75 0 129.5 49t67.5 130l33 216q12 81 -35 126
t-124 45q-73 0 -128.5 -47t-68.5 -129l-33 -215q-12 -81 35.5 -128t123.5 -47z" />
    <glyph glyph-name="multiply" unicode="&#xd7;" horiz-adv-x="467" 
d="M433 447l-149 -137l108 -135l-46 -46l-109 137l-149 -137l-37 45l150 137l-109 136l47 45l109 -137l149 137z" />
    <glyph glyph-name="Oslash" unicode="&#xd8;" horiz-adv-x="628" 
d="M498 645q52 -30 77.5 -82.5t15.5 -120.5l-33 -224q-16 -110 -91.5 -173.5t-178.5 -63.5q-46 0 -84 13l-41 -91h-57l51 112q-52 30 -78 83.5t-17 123.5l34 224q16 109 92 171t177 62q48 0 86 -13l41 90h56zM132 222q-14 -95 53 -143l238 525q-29 9 -61 9q-73 0 -128.5 -47
t-68.5 -129zM521 442q14 92 -52 140l-237 -526q27 -9 59 -9q75 0 129.5 49t67.5 130z" />
    <glyph glyph-name="Ugrave" unicode="&#xd9;" horiz-adv-x="617" 
d="M341 752l-111 138h83l96 -138h-68zM284 -19q-120 0 -177 69t-40 189l62 421h70l-62 -426q-13 -89 27 -138t124 -49q82 0 130 50.5t61 140.5l62 422h71l-63 -426q-37 -253 -265 -253z" />
    <glyph glyph-name="Uacute" unicode="&#xda;" horiz-adv-x="617" 
d="M338 747l136 139h86l-150 -139h-72zM284 -19q-120 0 -177 69t-40 189l62 421h70l-62 -426q-13 -89 27 -138t124 -49q82 0 130 50.5t61 140.5l62 422h71l-63 -426q-37 -253 -265 -253z" />
    <glyph glyph-name="Ucircumflex" unicode="&#xdb;" horiz-adv-x="617" 
d="M387 824l-93 -77h-63l126 123h70l92 -123h-63zM541 660h71l-63 -426q-37 -253 -265 -253q-120 0 -177 69t-40 189l62 421h70l-62 -426q-13 -89 27 -138t124 -49q82 0 130 50.5t61 140.5z" />
    <glyph glyph-name="Udieresis" unicode="&#xdc;" horiz-adv-x="617" 
d="M272 758l11 79h67l-11 -79h-67zM409 758l12 79h68l-12 -79h-68zM284 -19q-120 0 -177 69t-40 189l62 421h70l-62 -426q-13 -89 27 -138t124 -49q82 0 130 50.5t61 140.5l62 422h71l-63 -426q-37 -253 -265 -253z" />
    <glyph glyph-name="Yacute" unicode="&#xdd;" horiz-adv-x="526" 
d="M522 886l-150 -139h-72l136 139h86zM494 660h75l-267 -407l-37 -253h-70l37 253l-146 407h72l120 -332z" />
    <glyph glyph-name="Thorn" unicode="&#xde;" horiz-adv-x="529" 
d="M346 556q86 0 131 -49.5t45 -126.5q0 -95 -63.5 -165.5t-169.5 -70.5h-157l-21 -144h-70l98 660h69l-15 -104h153zM295 213q70 0 113.5 48t43.5 112q0 51 -28 82.5t-84 31.5h-157l-41 -274h153z" />
    <glyph glyph-name="germandbls" unicode="&#xdf;" horiz-adv-x="578" 
d="M449 354q40 -18 58 -58.5t9 -92.5l-4 -25q-15 -92 -74.5 -135t-147.5 -43h-115l8 60h103q63 0 109 31t54 93l4 23q8 54 -23 85t-92 31l4 56q64 0 97 40t33 103q0 49 -33.5 73.5t-92.5 24.5q-152 0 -171 -128l-72 -492h-67l74 496q27 184 236 184q190 0 190 -154
q0 -59 -22 -106t-65 -66z" />
    <glyph glyph-name="agrave" unicode="&#xe0;" horiz-adv-x="504" 
d="M320 587h-67l-106 140h83zM279 519q193 0 165 -184l-42 -265l6 -70h-59l-7 31q-87 -50 -178 -50q-69 0 -109 37.5t-40 105.5q1 172 214 172q57 0 139 -12l9 56q10 66 -16.5 92.5t-85.5 26.5q-85 0 -160 -31l-9 61q90 30 173 30zM338 87l22 144q-76 12 -124 12
q-154 0 -154 -118q0 -40 25 -62.5t69 -22.5q92 0 162 47z" />
    <glyph glyph-name="aacute" unicode="&#xe1;" horiz-adv-x="504" 
d="M453 727l-132 -140h-70l116 140h86zM279 519q193 0 165 -184l-42 -265l6 -70h-59l-7 31q-87 -50 -178 -50q-69 0 -109 37.5t-40 105.5q1 172 214 172q57 0 139 -12l9 56q10 66 -16.5 92.5t-85.5 26.5q-85 0 -160 -31l-9 61q90 30 173 30zM338 87l22 144q-76 12 -124 12
q-154 0 -154 -118q0 -40 25 -62.5t69 -22.5q92 0 162 47z" />
    <glyph glyph-name="acircumflex" unicode="&#xe2;" horiz-adv-x="504" 
d="M294 669l-87 -82h-59l120 134h63l82 -134h-59zM279 519q193 0 165 -184l-42 -265l6 -70h-59l-7 31q-87 -50 -178 -50q-69 0 -109 37.5t-40 105.5q1 172 214 172q57 0 139 -12l9 56q10 66 -16.5 92.5t-85.5 26.5q-85 0 -160 -31l-9 61q90 30 173 30zM338 87l22 144
q-76 12 -124 12q-154 0 -154 -118q0 -40 25 -62.5t69 -22.5q92 0 162 47z" />
    <glyph glyph-name="atilde" unicode="&#xe3;" horiz-adv-x="504" 
d="M242 662q-28 0 -58 -56l-45 22q44 92 100 92q24 0 46 -14t39 -28.5t29 -14.5q23 0 50 53l46 -22q-17 -39 -42.5 -64.5t-53.5 -25.5q-23 0 -59 29t-52 29zM279 519q193 0 165 -184l-42 -265l6 -70h-59l-7 31q-87 -50 -178 -50q-69 0 -109 37.5t-40 105.5q1 172 214 172
q57 0 139 -12l9 56q10 66 -16.5 92.5t-85.5 26.5q-85 0 -160 -31l-9 61q90 30 173 30zM338 87l22 144q-76 12 -124 12q-154 0 -154 -118q0 -40 25 -62.5t69 -22.5q92 0 162 47z" />
    <glyph glyph-name="adieresis" unicode="&#xe4;" horiz-adv-x="504" 
d="M269 696l-11 -78h-67l11 78h67zM408 696l-11 -78h-69l12 78h68zM279 519q193 0 165 -184l-42 -265l6 -70h-59l-7 31q-87 -50 -178 -50q-69 0 -109 37.5t-40 105.5q1 172 214 172q57 0 139 -12l9 56q10 66 -16.5 92.5t-85.5 26.5q-85 0 -160 -31l-9 61q90 30 173 30z
M338 87l22 144q-76 12 -124 12q-154 0 -154 -118q0 -40 25 -62.5t69 -22.5q92 0 162 47z" />
    <glyph glyph-name="aring" unicode="&#xe5;" horiz-adv-x="504" 
d="M288 570q-44 0 -70 29t-26 72q0 48 33 85t82 37q45 0 70.5 -28.5t25.5 -71.5q0 -49 -32.5 -86t-82.5 -37zM304 742q-28 0 -46 -19t-18 -46q0 -24 14 -39t39 -15q27 0 44 19.5t17 45.5q0 23 -13.5 38.5t-36.5 15.5zM279 519q193 0 165 -184l-42 -265l6 -70h-59l-7 31
q-87 -50 -178 -50q-69 0 -109 37.5t-40 105.5q1 172 214 172q57 0 139 -12l9 56q10 66 -16.5 92.5t-85.5 26.5q-85 0 -160 -31l-9 61q90 30 173 30zM338 87l22 144q-76 12 -124 12q-154 0 -154 -118q0 -40 25 -62.5t69 -22.5q92 0 162 47z" />
    <glyph glyph-name="ae" unicode="&#xe6;" horiz-adv-x="829" 
d="M598 519q100 0 148 -66t32 -171l-11 -76h-343q-12 -81 25.5 -121.5t114.5 -40.5q75 0 153 30l7 -57q-82 -36 -165 -36q-124 0 -175 79q-70 -40 -119.5 -59.5t-98.5 -19.5q-77 0 -114.5 36.5t-37.5 94.5q0 95 52 128.5t157 33.5q73 0 144 -11l1 6l2 16l2 14l6 41
q10 65 -18 91t-86 26q-85 0 -160 -31l-10 62q93 31 178 31q120 0 147 -80q61 80 169 80zM597 459q-70 0 -110 -50t-51 -126l-3 -18h279l4 25q10 75 -20 122t-99 47zM173 38q82 0 190 68q-12 42 -4 101v1q-72 9 -126 9q-81 0 -119 -19.5t-38 -80.5q0 -34 23 -56.5t74 -22.5z
" />
    <glyph glyph-name="ccedilla" unicode="&#xe7;" horiz-adv-x="468" 
d="M128 280l-9 -57q-29 -180 143 -180q57 0 119 20l7 -58q-66 -24 -139 -24h-16l-13 -51q39 -2 63.5 -23.5t24.5 -58.5q0 -59 -54 -82.5t-138 -11.5l10 52q51 -10 89 0t38 41q0 19 -26 28.5t-74 6.5l25 107q-154 36 -124 235l8 62q18 126 80 179.5t160 53.5q91 0 148 -25
l-17 -57q-60 20 -123 20q-76 0 -121.5 -39.5t-60.5 -137.5z" />
    <glyph glyph-name="egrave" unicode="&#xe8;" horiz-adv-x="522" 
d="M342 587h-67l-106 140h83zM290 519q100 0 148 -66t32 -171l-11 -76h-343q-12 -82 25.5 -122t114.5 -40q75 0 153 30l7 -57q-82 -36 -165 -36q-108 0 -161.5 61t-38.5 165l11 78q15 107 72.5 170.5t155.5 63.5zM289 459q-70 0 -109.5 -50t-51.5 -126l-3 -18h280l3 25
q11 75 -19.5 122t-99.5 47z" />
    <glyph glyph-name="eacute" unicode="&#xe9;" horiz-adv-x="522" 
d="M475 727l-132 -140h-70l116 140h86zM290 519q100 0 148 -66t32 -171l-11 -76h-343q-12 -82 25.5 -122t114.5 -40q75 0 153 30l7 -57q-82 -36 -165 -36q-108 0 -161.5 61t-38.5 165l11 78q15 107 72.5 170.5t155.5 63.5zM289 459q-70 0 -109.5 -50t-51.5 -126l-3 -18h280
l3 25q11 75 -19.5 122t-99.5 47z" />
    <glyph glyph-name="ecircumflex" unicode="&#xea;" horiz-adv-x="522" 
d="M316 669l-87 -82h-59l120 134h63l82 -134h-59zM290 519q100 0 148 -66t32 -171l-11 -76h-343q-12 -82 25.5 -122t114.5 -40q75 0 153 30l7 -57q-82 -36 -165 -36q-108 0 -161.5 61t-38.5 165l11 78q15 107 72.5 170.5t155.5 63.5zM289 459q-70 0 -109.5 -50t-51.5 -126
l-3 -18h280l3 25q11 75 -19.5 122t-99.5 47z" />
    <glyph glyph-name="edieresis" unicode="&#xeb;" horiz-adv-x="522" 
d="M291 696l-11 -78h-67l11 78h67zM430 696l-11 -78h-69l12 78h68zM290 519q100 0 148 -66t32 -171l-11 -76h-343q-12 -82 25.5 -122t114.5 -40q75 0 153 30l7 -57q-82 -36 -165 -36q-108 0 -161.5 61t-38.5 165l11 78q15 107 72.5 170.5t155.5 63.5zM289 459
q-70 0 -109.5 -50t-51.5 -126l-3 -18h280l3 25q11 75 -19.5 122t-99.5 47z" />
    <glyph glyph-name="igrave" unicode="&#xec;" horiz-adv-x="217" 
d="M122 587l-106 140h83l90 -140h-67zM37 0l74 503h66l-74 -503h-66z" />
    <glyph glyph-name="iacute" unicode="&#xed;" horiz-adv-x="218" 
d="M113 587l116 140h86l-132 -140h-70zM34 0l74 503h66l-74 -503h-66z" />
    <glyph glyph-name="icircumflex" unicode="&#xee;" horiz-adv-x="221" 
d="M208 721l82 -134h-59l-60 82l-87 -82h-59l120 134h63zM38 0l74 503h66l-74 -503h-66z" />
    <glyph glyph-name="idieresis" unicode="&#xef;" horiz-adv-x="216" 
d="M51 618l11 78h67l-11 -78h-67zM188 618l12 78h68l-11 -78h-69zM34 0l74 503h66l-74 -503h-66z" />
    <glyph glyph-name="eth" unicode="&#xf0;" horiz-adv-x="522" 
d="M579 673l-84 -42q35 -59 22 -147l-45 -298q-14 -94 -76.5 -149.5t-162.5 -55.5q-41 0 -77.5 10.5t-67 32.5t-45 62t-6.5 93l23 154q15 100 71 139.5t146 39.5q66 0 173 -25q11 73 -13 115l-104 -52l-23 50l86 43q-31 17 -78 17q-62 0 -145 -33l-16 56q95 36 162 36
q87 0 141 -45l96 49zM238 41q146 0 169 154l34 230q-106 26 -159 26q-139 0 -158 -126l-22 -147q-6 -40 4 -68.5t33 -42.5t47 -20t52 -6z" />
    <glyph glyph-name="ntilde" unicode="&#xf1;" horiz-adv-x="563" 
d="M291 662q-28 0 -58 -56l-45 22q44 92 100 92q24 0 46 -14t39 -28.5t29 -14.5q24 0 50 53l46 -22q-17 -39 -42.5 -64.5t-53.5 -25.5q-23 0 -59 29t-52 29zM355 519q88 0 127 -52.5t24 -156.5l-47 -310h-66l47 312q22 146 -105 146q-85 0 -167 -54l-60 -404h-66l64 433
l-8 70h63l5 -39q101 55 189 55z" />
    <glyph glyph-name="ograve" unicode="&#xf2;" horiz-adv-x="534" 
d="M280 587l-106 140h83l90 -140h-67zM242 -19q-91 0 -150 49.5t-47 129.5l28 188q12 81 73.5 126t148.5 45q92 0 150.5 -48t46.5 -129l-29 -188q-12 -83 -72 -128t-149 -45zM243 41q62 0 104 33t51 89l27 179q9 55 -30.5 86t-101.5 31q-63 0 -105 -32t-50 -89l-26 -179
q-8 -54 30.5 -86t100.5 -32z" />
    <glyph glyph-name="oacute" unicode="&#xf3;" horiz-adv-x="534" 
d="M278 587l116 140h86l-132 -140h-70zM242 -19q-91 0 -150 49.5t-47 129.5l28 188q12 81 73.5 126t148.5 45q92 0 150.5 -48t46.5 -129l-29 -188q-12 -83 -72 -128t-149 -45zM243 41q62 0 104 33t51 89l27 179q9 55 -30.5 86t-101.5 31q-63 0 -105 -32t-50 -89l-26 -179
q-8 -54 30.5 -86t100.5 -32z" />
    <glyph glyph-name="ocircumflex" unicode="&#xf4;" horiz-adv-x="534" 
d="M321 669l-87 -82h-59l120 134h63l82 -134h-59zM295 519q92 0 150.5 -48t46.5 -129l-29 -188q-12 -83 -72 -128t-149 -45q-91 0 -150 49.5t-47 129.5l28 188q12 81 73.5 126t148.5 45zM425 342q9 55 -30.5 86t-101.5 31q-63 0 -105 -32t-50 -89l-26 -179q-8 -54 30.5 -86
t100.5 -32t104 33t51 89z" />
    <glyph glyph-name="otilde" unicode="&#xf5;" horiz-adv-x="534" 
d="M211 606l-45 22q44 92 100 92q24 0 46 -14t39 -28.5t29 -14.5q24 0 50 53l46 -22q-17 -39 -42.5 -64.5t-53.5 -25.5q-23 0 -59 29t-52 29q-28 0 -58 -56zM242 -19q-91 0 -150 49.5t-47 129.5l28 188q12 81 73.5 126t148.5 45q92 0 150.5 -48t46.5 -129l-29 -188
q-12 -83 -72 -128t-149 -45zM243 41q62 0 104 33t51 89l27 179q9 55 -30.5 86t-101.5 31q-63 0 -105 -32t-50 -89l-26 -179q-8 -54 30.5 -86t100.5 -32z" />
    <glyph glyph-name="odieresis" unicode="&#xf6;" horiz-adv-x="534" 
d="M218 618l11 78h67l-11 -78h-67zM355 618l12 78h68l-11 -78h-69zM242 -19q-91 0 -150 49.5t-47 129.5l28 188q12 81 73.5 126t148.5 45q92 0 150.5 -48t46.5 -129l-29 -188q-12 -83 -72 -128t-149 -45zM243 41q62 0 104 33t51 89l27 179q9 55 -30.5 86t-101.5 31
q-63 0 -105 -32t-50 -89l-26 -179q-8 -54 30.5 -86t100.5 -32z" />
    <glyph glyph-name="divide" unicode="&#xf7;" horiz-adv-x="523" 
d="M255 434l15 101h66l-15 -101h-66zM65 279l8 61h403l-10 -61h-401zM204 85l14 102h66l-13 -102h-67z" />
    <glyph glyph-name="oslash" unicode="&#xf8;" horiz-adv-x="534" 
d="M412 493q96 -50 80 -151l-29 -188q-12 -83 -72 -128t-149 -45q-38 0 -71 9l-39 -82h-54l48 99q-44 23 -66 62.5t-15 90.5l28 188q12 81 73.5 126t148.5 45q37 0 72 -9l39 81h53zM112 159q-9 -61 41 -94l187 389q-25 5 -47 5q-63 0 -105 -32t-50 -89zM425 342
q10 62 -41 93l-186 -389q23 -5 45 -5q62 0 104 33t51 89z" />
    <glyph glyph-name="ugrave" unicode="&#xf9;" horiz-adv-x="538" 
d="M337 587h-67l-106 140h83zM498 503l-65 -433l7 -70h-63l-6 36q-85 -55 -161 -55q-84 0 -126 52t-27 157l47 313h66l-47 -316q-11 -73 12.5 -109t86.5 -36q71 0 149 56l60 405h67z" />
    <glyph glyph-name="uacute" unicode="&#xfa;" horiz-adv-x="538" 
d="M470 727l-132 -140h-70l116 140h86zM498 503l-65 -433l7 -70h-63l-6 36q-85 -55 -161 -55q-84 0 -126 52t-27 157l47 313h66l-47 -316q-11 -73 12.5 -109t86.5 -36q71 0 149 56l60 405h67z" />
    <glyph glyph-name="ucircumflex" unicode="&#xfb;" horiz-adv-x="538" 
d="M311 669l-87 -82h-59l120 134h63l82 -134h-59zM498 503l-65 -433l7 -70h-63l-6 36q-85 -55 -161 -55q-84 0 -126 52t-27 157l47 313h66l-47 -316q-11 -73 12.5 -109t86.5 -36q71 0 149 56l60 405h67z" />
    <glyph glyph-name="udieresis" unicode="&#xfc;" horiz-adv-x="538" 
d="M286 696l-11 -78h-67l11 78h67zM425 696l-11 -78h-69l12 78h68zM498 503l-65 -433l7 -70h-63l-6 36q-85 -55 -161 -55q-84 0 -126 52t-27 157l47 313h66l-47 -316q-11 -73 12.5 -109t86.5 -36q71 0 149 56l60 405h67z" />
    <glyph glyph-name="yacute" unicode="&#xfd;" horiz-adv-x="493" 
d="M464 727l-132 -140h-70l116 140h86zM439 503l70 -2q-237 -432 -286 -511q-89 -147 -143 -178q-22 -12 -45 -12q-26 0 -55 10l15 57q9 -3 26 -3q37 0 72 39t89 129l-120 471h67l99 -393z" />
    <glyph glyph-name="thorn" unicode="&#xfe;" horiz-adv-x="545" 
d="M338 519q83 0 128.5 -56.5t31.5 -154.5l-20 -130q-31 -197 -201 -197q-81 0 -169 50l-31 -211h-66l131 880h66l-33 -222q103 41 163 41zM431 300q10 75 -18 115.5t-90 40.5q-70 0 -157 -42l-49 -324q70 -48 148 -48q128 0 150 154z" />
    <glyph glyph-name="ydieresis" unicode="&#xff;" horiz-adv-x="493" 
d="M280 696l-11 -78h-67l11 78h67zM419 696l-11 -78h-69l12 78h68zM439 503l70 -2q-237 -432 -286 -511q-89 -147 -143 -178q-22 -12 -45 -12q-26 0 -55 10l15 57q9 -3 26 -3q37 0 72 39t89 129l-120 471h67l99 -393z" />
    <glyph glyph-name="Amacron" unicode="&#x100;" horiz-adv-x="585" 
d="M517 839l-8 -56h-293l8 56h293zM449 0l-29 147h-289l-71 -147h-72l332 660h60l138 -660h-69zM338 559l-174 -343h242z" />
    <glyph glyph-name="amacron" unicode="&#x101;" horiz-adv-x="504" 
d="M443 673l-7 -58h-287l8 58h286zM279 519q193 0 165 -184l-42 -265l6 -70h-59l-7 31q-87 -50 -178 -50q-69 0 -109 37.5t-40 105.5q1 172 214 172q57 0 139 -12l9 56q10 66 -16.5 92.5t-85.5 26.5q-85 0 -160 -31l-9 61q90 30 173 30zM338 87l22 144q-76 12 -124 12
q-154 0 -154 -118q0 -40 25 -62.5t69 -22.5q92 0 162 47z" />
    <glyph glyph-name="Abreve" unicode="&#x102;" horiz-adv-x="585" 
d="M363 741q-54 0 -87.5 38t-23.5 96h56q-4 -40 12.5 -61.5t46.5 -21.5q31 0 54 22.5t28 60.5h57q-9 -63 -50 -98.5t-93 -35.5zM449 0l-29 147h-289l-71 -147h-72l332 660h60l138 -660h-69zM338 559l-174 -343h242z" />
    <glyph glyph-name="abreve" unicode="&#x103;" horiz-adv-x="504" 
d="M291 585q-55 0 -87.5 36t-23.5 98h56q-5 -38 12.5 -60.5t47.5 -22.5q29 0 52 22t30 61h56q-9 -63 -50 -98.5t-93 -35.5zM279 519q193 0 165 -184l-42 -265l6 -70h-59l-7 31q-87 -50 -178 -50q-69 0 -109 37.5t-40 105.5q1 172 214 172q57 0 139 -12l9 56
q10 66 -16.5 92.5t-85.5 26.5q-85 0 -160 -31l-9 61q90 30 173 30zM338 87l22 144q-76 12 -124 12q-154 0 -154 -118q0 -40 25 -62.5t69 -22.5q92 0 162 47z" />
    <glyph glyph-name="Aogonek" unicode="&#x104;" horiz-adv-x="591" 
d="M435 -167q22 0 42 10l5 -56q-31 -14 -65 -14q-38 0 -62 23.5t-24 60.5q0 73 117 152l-28 138h-289l-71 -147h-72l332 660h60l138 -660q-124 -65 -124 -126q0 -20 11 -30.5t30 -10.5zM338 559l-174 -343h242z" />
    <glyph glyph-name="aogonek" unicode="&#x105;" horiz-adv-x="507" 
d="M444 335l-42 -265l6 -70h1q-124 -65 -124 -126q0 -20 11 -30.5t30 -10.5q20 0 42 10l5 -56q-32 -14 -65 -14q-38 0 -62.5 23.5t-24.5 60.5q0 44 33.5 79.5t92.5 73.5l-5 21q-87 -50 -178 -50q-69 0 -109 37.5t-40 105.5q1 172 214 172q57 0 139 -12l9 56
q10 66 -16.5 92.5t-85.5 26.5q-85 0 -160 -31l-9 61q90 30 173 30q193 0 165 -184zM82 125q0 -40 25 -62.5t69 -22.5q92 0 162 47l22 144q-76 12 -124 12q-154 0 -154 -118z" />
    <glyph glyph-name="Cacute" unicode="&#x106;" horiz-adv-x="536" 
d="M343 747l136 139h86l-150 -139h-72zM297 -19q-130 0 -189 73t-40 207l21 143q41 275 281 275q98 0 176 -35l-26 -60q-59 27 -151 27t-143 -53.5t-67 -162.5l-21 -135q-16 -105 27.5 -159t139.5 -54q92 0 159 31l14 -62q-79 -35 -181 -35z" />
    <glyph glyph-name="cacute" unicode="&#x107;" horiz-adv-x="468" 
d="M277 587l116 140h86l-132 -140h-70zM249 -19q-104 0 -159 57.5t-36 185.5l8 62q18 126 80 179.5t160 53.5q91 0 148 -25l-17 -57q-60 20 -123 20q-76 0 -121.5 -39.5t-60.5 -137.5l-9 -57q-29 -180 143 -180q57 0 119 20l7 -58q-66 -24 -139 -24z" />
    <glyph glyph-name="Ccaron" unicode="&#x10c;" horiz-adv-x="536" 
d="M408 747h-70l-92 123h64l68 -78l91 78h65zM159 395l-21 -135q-16 -105 27.5 -159t139.5 -54q92 0 159 31l14 -62q-79 -35 -181 -35q-130 0 -189 73t-40 207l21 143q41 275 281 275q98 0 176 -35l-26 -60q-59 27 -151 27t-143 -53.5t-67 -162.5z" />
    <glyph glyph-name="ccaron" unicode="&#x10d;" horiz-adv-x="468" 
d="M348 587h-63l-82 134h59l60 -86l87 86h59zM62 286q18 126 80 179.5t160 53.5q91 0 148 -25l-17 -57q-60 20 -123 20q-76 0 -121.5 -39.5t-60.5 -137.5l-9 -57q-29 -180 143 -180q57 0 119 20l7 -58q-66 -24 -139 -24q-104 0 -159 57.5t-36 185.5z" />
    <glyph glyph-name="Dcaron" unicode="&#x10e;" horiz-adv-x="621" 
d="M362 747h-70l-92 123h64l68 -78l91 78h65zM368 660q102 0 166 -64.5t47 -171.5l-28 -190q-19 -124 -88.5 -179t-191.5 -55h-232l98 660h229zM510 416q12 82 -30 128.5t-117 46.5h-164l-79 -522h161q88 0 139 42.5t65 135.5z" />
    <glyph glyph-name="dcaron" unicode="&#x10f;" horiz-adv-x="605" 
d="M474 700h66l-95 -630l8 -70h-66l-6 36q-92 -55 -170 -55q-89 0 -130.5 61.5t-29.5 148.5l17 118q13 96 68 153t140 57q71 0 164 -44zM614 700h64l-58 -185h-56zM118 198q-6 -29 -2 -57t14.5 -50t34.5 -35.5t60 -13.5q78 0 159 59l48 319q-79 35 -147 37q-61 0 -101.5 -44
t-51.5 -118z" />
    <glyph glyph-name="Dcroat" unicode="&#x110;" horiz-adv-x="621" 
d="M368 660q102 0 166 -64.5t48 -171.5l-29 -190q-18 -123 -87.5 -178.5t-191.5 -55.5h-232l45 305h-99l7 68h102l42 287h229zM511 416q12 81 -30.5 128t-116.5 47h-165l-33 -218h195l-8 -68h-197l-35 -236h161q177 0 204 178z" />
    <glyph glyph-name="dcroat" unicode="&#x111;" horiz-adv-x="561" 
d="M596 566h-78l-74 -496l8 -70h-67l-6 36q-92 -55 -170 -55q-89 0 -130.5 61.5t-28.5 148.5l17 118q13 96 67.5 153t139.5 57q67 0 165 -44l13 91h-153l7 53h154l12 81h66l-12 -81h77zM117 198q-9 -66 14.5 -111t91.5 -45q78 0 159 59l48 319q-77 35 -146 37
q-61 0 -102 -44t-51 -118z" />
    <glyph glyph-name="Emacron" unicode="&#x112;" horiz-adv-x="535" 
d="M506 839l-8 -56h-293l8 56h293zM526 591h-327l-33 -220h297l-10 -66h-297l-36 -236h335l-9 -69h-405l98 660h396z" />
    <glyph glyph-name="emacron" unicode="&#x113;" horiz-adv-x="522" 
d="M465 673l-7 -58h-287l8 58h286zM290 519q100 0 148 -66t32 -171l-11 -76h-343q-12 -82 25.5 -122t114.5 -40q75 0 153 30l7 -57q-82 -36 -165 -36q-108 0 -161.5 61t-38.5 165l11 78q15 107 72.5 170.5t155.5 63.5zM289 459q-70 0 -109.5 -50t-51.5 -126l-3 -18h280l3 25
q11 75 -19.5 122t-99.5 47z" />
    <glyph glyph-name="Edotaccent" unicode="&#x116;" horiz-adv-x="535" 
d="M399 841l-13 -86h-73l12 86h74zM526 591h-327l-33 -220h297l-10 -66h-297l-36 -236h335l-9 -69h-405l98 660h396z" />
    <glyph glyph-name="edotaccent" unicode="&#x117;" horiz-adv-x="522" 
d="M364 700l-13 -84h-73l12 84h74zM290 519q100 0 148 -66t32 -171l-11 -76h-343q-12 -82 25.5 -122t114.5 -40q75 0 153 30l7 -57q-82 -36 -165 -36q-108 0 -161.5 61t-38.5 165l11 78q15 107 72.5 170.5t155.5 63.5zM289 459q-70 0 -109.5 -50t-51.5 -126l-3 -18h280l3 25
q11 75 -19.5 122t-99.5 47z" />
    <glyph glyph-name="Eogonek" unicode="&#x118;" horiz-adv-x="535" 
d="M526 591h-327l-33 -220h297l-10 -66h-297l-36 -236h335l-9 -69h-1q-124 -65 -124 -126q0 -20 11 -30.5t30 -10.5q22 0 42 10l5 -56q-31 -14 -65 -14q-38 0 -62 23.5t-24 60.5q0 69 103 143h-320l98 660h396z" />
    <glyph glyph-name="eogonek" unicode="&#x119;" horiz-adv-x="522" 
d="M290 519q100 0 148 -66t32 -171l-11 -76h-343q-12 -82 25.5 -122t114.5 -40q75 0 153 30l7 -57q-1 -1 -2 -1q-2 0 -2 -1l5 -3q-53 -28 -92.5 -66t-39.5 -72q0 -41 42 -41q20 0 42 10l4 -56q-31 -14 -65 -14q-38 0 -62 23.5t-24 60.5q0 62 81 128q-36 -4 -52 -4
q-108 0 -161.5 61t-38.5 165l11 78q15 107 72.5 170.5t155.5 63.5zM289 459q-70 0 -109.5 -50t-51.5 -126l-3 -18h280l3 25q11 75 -19.5 122t-99.5 47z" />
    <glyph glyph-name="Ecaron" unicode="&#x11a;" horiz-adv-x="535" 
d="M376 747h-70l-92 123h64l68 -78l91 78h65zM526 591h-327l-33 -220h297l-10 -66h-297l-36 -236h335l-9 -69h-405l98 660h396z" />
    <glyph glyph-name="ecaron" unicode="&#x11b;" horiz-adv-x="522" 
d="M344 587h-63l-82 134h59l60 -86l87 86h59zM290 519q100 0 148 -66t32 -171l-11 -76h-343q-12 -82 25.5 -122t114.5 -40q75 0 153 30l7 -57q-82 -36 -165 -36q-108 0 -161.5 61t-38.5 165l11 78q15 107 72.5 170.5t155.5 63.5zM289 459q-70 0 -109.5 -50t-51.5 -126
l-3 -18h280l3 25q11 75 -19.5 122t-99.5 47z" />
    <glyph glyph-name="Gbreve" unicode="&#x11e;" horiz-adv-x="619" 
d="M413 741q-54 0 -87.5 38t-23.5 96h56q-4 -40 12.5 -61.5t46.5 -21.5q31 0 54 22.5t28 60.5h57q-9 -63 -50 -98.5t-93 -35.5zM352 302l9 68h204l-49 -350q-31 -18 -93 -28.5t-116 -10.5q-126 0 -192 74.5t-47 203.5l22 149q40 271 299 271q111 0 185 -37l-26 -60
q-70 29 -155 29q-201 0 -234 -213l-21 -140q-17 -105 31 -158.5t141 -53.5q72 0 142 18l35 238h-135z" />
    <glyph glyph-name="gbreve" unicode="&#x11f;" horiz-adv-x="545" 
d="M336 585q-55 0 -87.5 36t-23.5 98h56q-5 -38 12.5 -60.5t47.5 -22.5q29 0 52 22t30 61h56q-9 -63 -50 -98.5t-93 -35.5zM458 503h68l-29 -70l-66 -449q-8 -54 -28 -91.5t-49.5 -57t-61 -27.5t-71.5 -8q-105 0 -181 35l22 58q63 -33 147 -33q137 0 155 118l7 50
q-88 -47 -162 -47q-89 0 -130.5 61.5t-29.5 148.5l18 118q13 96 67.5 153t139.5 57q69 0 169 -46zM223 43q79 0 159 54l47 323q-77 35 -146 37q-61 0 -101 -44t-51 -118l-15 -97q-9 -66 15 -110.5t92 -44.5z" />
    <glyph glyph-name="Gcommaaccent" unicode="&#x122;" horiz-adv-x="619" 
d="M352 302l9 68h204l-49 -350q-31 -18 -93 -28.5t-116 -10.5q-126 0 -192 74.5t-47 203.5l22 149q40 271 299 271q111 0 185 -37l-26 -60q-70 29 -155 29q-201 0 -234 -213l-21 -140q-17 -105 31 -158.5t141 -53.5q72 0 142 18l35 238h-135zM268 -131l9 62h56l-11 -72
q-6 -46 -30 -70.5t-50 -24.5l-14 49q34 20 40 56z" />
    <glyph glyph-name="gcommaaccent" unicode="&#x123;" horiz-adv-x="545" 
d="M385 640l-10 -63h-54l11 72q6 46 30 70.5t50 24.5l14 -49q-36 -20 -41 -55zM458 503h68l-29 -70l-66 -449q-8 -54 -28 -91.5t-49.5 -57t-61 -27.5t-71.5 -8q-105 0 -181 35l22 58q63 -33 147 -33q137 0 155 118l7 50q-88 -47 -162 -47q-89 0 -130.5 61.5t-29.5 148.5
l18 118q13 96 67.5 153t139.5 57q69 0 169 -46zM223 43q79 0 159 54l47 323q-77 35 -146 37q-61 0 -101 -44t-51 -118l-15 -97q-9 -66 15 -110.5t92 -44.5z" />
    <glyph glyph-name="Hbar" unicode="&#x126;" horiz-adv-x="628" 
d="M682 542l-7 -65h-90l-70 -477h-70l45 304h-334l-45 -304h-70l71 477h-94l7 65h96l18 118h70l-18 -118h334l17 118h70l-17 -118h87zM500 373l15 104h-333l-16 -104h334z" />
    <glyph glyph-name="hbar" unicode="&#x127;" horiz-adv-x="568" 
d="M351 519q88 0 127 -52.5t24 -156.5l-47 -310h-66l47 312q22 146 -105 146q-83 0 -167 -54l-59 -404h-67l84 566h-83l7 53h84l12 81h66l-12 -81h146l-6 -53h-148l-14 -96q95 49 177 49z" />
    <glyph glyph-name="Imacron" unicode="&#x12a;" horiz-adv-x="225" 
d="M41 783l8 56h293l-8 -56h-293zM42 0l97 660h70l-97 -660h-70z" />
    <glyph glyph-name="imacron" unicode="&#x12b;" horiz-adv-x="220" 
d="M65 609l9 56h191l-8 -56h-192zM37 0l74 503h67l-75 -503h-66z" />
    <glyph glyph-name="Iogonek" unicode="&#x12e;" horiz-adv-x="227" 
d="M112 0q-124 -65 -124 -126q0 -20 11 -30.5t30 -10.5q22 0 42 10l5 -56q-31 -14 -65 -14q-38 0 -62 23.5t-24 60.5q0 43 32 79.5t87 74.5l96 649h70z" />
    <glyph glyph-name="iogonek" unicode="&#x12f;" horiz-adv-x="220" 
d="M142 694h66l-15 -101h-67zM42 14l72 489h66l-74 -503q-124 -65 -124 -126q0 -20 11 -30.5t30 -10.5q22 0 42 10l5 -56q-31 -14 -65 -14q-38 0 -62 23.5t-24 60.5q0 44 33.5 81.5t89.5 75.5z" />
    <glyph glyph-name="Idotaccent" unicode="&#x130;" horiz-adv-x="225" 
d="M150 755l12 86h74l-13 -86h-73zM42 0l97 660h70l-97 -660h-70z" />
    <glyph glyph-name="dotlessi" unicode="&#x131;" horiz-adv-x="215" 
d="M37 0l74 503h67l-75 -503h-66z" />
    <glyph glyph-name="IJ" unicode="&#x132;" horiz-adv-x="475" 
d="M40 0l98 660h70l-98 -660h-70zM190 -153l-24 61q70 33 94 55q42 37 51 97l90 600h70l-93 -624q-5 -34 -22 -63t-34.5 -47t-47.5 -36.5t-43.5 -25t-40.5 -17.5z" />
    <glyph glyph-name="ij" unicode="&#x133;" horiz-adv-x="433" 
d="M125 593l15 101h66l-15 -101h-66zM349 593l15 101h67l-16 -101h-66zM38 0l74 503h66l-74 -503h-66zM208 -200q-37 0 -73 14l15 50q20 -6 36 -6q56 0 66 72l84 573h66l-85 -581q-17 -122 -109 -122z" />
    <glyph glyph-name="Kcommaaccent" unicode="&#x136;" horiz-adv-x="573" 
d="M578 660l-353 -325l283 -335h-89l-262 312l-46 -312h-70l98 660h70l-45 -299l326 299h88zM207 -131l9 62h56l-11 -72q-6 -46 -30 -70.5t-50 -24.5l-14 49q34 20 40 56z" />
    <glyph glyph-name="kcommaaccent" unicode="&#x137;" horiz-adv-x="492" 
d="M483 503l-282 -246l231 -257h-81l-213 228l-33 -228h-67l104 700h66l-61 -410l249 213h87zM177 -131l9 62h56l-11 -72q-6 -46 -30 -70.5t-50 -24.5l-14 49q34 20 40 56z" />
    <glyph glyph-name="Lacute" unicode="&#x139;" horiz-adv-x="490" 
d="M368 886l-150 -139h-72l136 139h86zM121 69h316l-10 -69h-386l98 660h70z" />
    <glyph glyph-name="lacute" unicode="&#x13a;" horiz-adv-x="216" 
d="M148 787l136 139h86l-150 -139h-72zM38 0l104 700h66l-103 -700h-67z" />
    <glyph glyph-name="Lcommaaccent" unicode="&#x13b;" horiz-adv-x="490" 
d="M121 69h316l-10 -69h-386l98 660h70zM191 -131l9 62h56l-11 -72q-6 -46 -30 -70.5t-50 -24.5l-14 49q34 20 40 56z" />
    <glyph glyph-name="lcommaaccent" unicode="&#x13c;" horiz-adv-x="216" 
d="M38 0l104 700h66l-103 -700h-67zM0 -236l-14 49q34 20 40 56l9 62h56l-11 -72q-6 -46 -30 -70.5t-50 -24.5z" />
    <glyph glyph-name="Lcaron" unicode="&#x13d;" horiz-adv-x="490" 
d="M490 700l-57 -185h-56l50 185h63zM209 660l-88 -591h316l-10 -69h-386l98 660h70z" />
    <glyph glyph-name="lcaron" unicode="&#x13e;" horiz-adv-x="268" 
d="M40 0l104 700h66l-104 -700h-66zM241 515l50 185h64l-58 -185h-56z" />
    <glyph glyph-name="Ldot" unicode="&#x13f;" horiz-adv-x="490" 
d="M209 660l-88 -591h316l-10 -69h-386l98 660h70zM393 447h69l-21 -138h-68z" />
    <glyph glyph-name="ldot" unicode="&#x140;" horiz-adv-x="301" 
d="M38 0l104 700h66l-103 -700h-67zM222 271l21 137h67l-21 -137h-67z" />
    <glyph glyph-name="Lslash" unicode="&#x141;" horiz-adv-x="490" 
d="M121 69h316l-10 -69h-386l38 260l-114 -80l11 77l115 80l48 323h70l-40 -268l177 123l-10 -76l-178 -125z" />
    <glyph glyph-name="lslash" unicode="&#x142;" horiz-adv-x="216" 
d="M262 479l-11 -76l-97 -68l-49 -335h-67l42 283l-87 -61l10 77l89 62l50 339h66l-43 -288z" />
    <glyph glyph-name="Nacute" unicode="&#x143;" horiz-adv-x="624" 
d="M556 886l-150 -139h-72l136 139h86zM536 660h72l-98 -660h-58l-263 522l-79 -522h-70l98 660h59l261 -517z" />
    <glyph glyph-name="nacute" unicode="&#x144;" horiz-adv-x="563" 
d="M502 727l-132 -140h-70l116 140h86zM355 519q88 0 127 -52.5t24 -156.5l-47 -310h-66l47 312q22 146 -105 146q-85 0 -167 -54l-60 -404h-66l64 433l-8 70h63l5 -39q101 55 189 55z" />
    <glyph glyph-name="Ncommaaccent" unicode="&#x145;" horiz-adv-x="624" 
d="M536 660h72l-98 -660h-58l-263 522l-79 -522h-70l98 660h59l261 -517zM235 -131l9 62h56l-11 -72q-6 -46 -30 -70.5t-50 -24.5l-14 49q34 20 40 56z" />
    <glyph glyph-name="ncommaaccent" unicode="&#x146;" horiz-adv-x="563" 
d="M355 519q88 0 127 -52.5t24 -156.5l-47 -310h-66l47 312q22 146 -105 146q-85 0 -167 -54l-60 -404h-66l64 433l-8 70h63l5 -39q101 55 189 55zM207 -131l9 62h56l-11 -72q-6 -46 -30 -70.5t-50 -24.5l-14 49q34 20 40 56z" />
    <glyph glyph-name="Ncaron" unicode="&#x147;" horiz-adv-x="624" 
d="M399 747h-70l-92 123h64l68 -78l91 78h65zM536 660h72l-98 -660h-58l-263 522l-79 -522h-70l98 660h59l261 -517z" />
    <glyph glyph-name="ncaron" unicode="&#x148;" horiz-adv-x="563" 
d="M370 587h-63l-82 134h59l60 -86l87 86h59zM355 519q88 0 127 -52.5t24 -156.5l-47 -310h-66l47 312q22 146 -105 146q-85 0 -167 -54l-60 -404h-66l64 433l-8 70h63l5 -39q101 55 189 55z" />
    <glyph glyph-name="Eng" unicode="&#x14a;" horiz-adv-x="625" 
d="M544 660h67l-95 -638q-6 -39 -27.5 -72t-55 -56t-55 -34.5t-50.5 -23.5l-24 61q74 34 100 58q35 32 44 76l-260 497l-79 -528h-67l97 660h54l273 -526z" />
    <glyph glyph-name="eng" unicode="&#x14b;" horiz-adv-x="567" 
d="M355 519q88 0 127 -52.5t24 -156.5l-59 -388q-17 -122 -109 -122q-37 0 -73 14l15 50q20 -6 36 -6q56 0 66 72l58 382q22 146 -105 146q-85 0 -167 -54l-60 -404h-66l64 433l-8 70h63l5 -39q101 55 189 55z" />
    <glyph glyph-name="Omacron" unicode="&#x14c;" horiz-adv-x="628" 
d="M233 783l8 56h293l-8 -56h-293zM288 -19q-106 0 -173.5 66.5t-52.5 174.5l34 224q16 109 92 171t177 62q107 0 174.5 -65t51.5 -172l-33 -224q-16 -110 -91.5 -173.5t-178.5 -63.5zM291 47q75 0 129.5 49t67.5 130l33 216q12 81 -35 126t-124 45q-73 0 -128.5 -47
t-68.5 -129l-33 -215q-12 -81 35.5 -128t123.5 -47z" />
    <glyph glyph-name="omacron" unicode="&#x14d;" horiz-adv-x="534" 
d="M176 615l8 58h286l-7 -58h-287zM242 -19q-91 0 -150 49.5t-47 129.5l28 188q12 81 73.5 126t148.5 45q92 0 150.5 -48t46.5 -129l-29 -188q-12 -83 -72 -128t-149 -45zM243 41q62 0 104 33t51 89l27 179q9 55 -30.5 86t-101.5 31q-63 0 -105 -32t-50 -89l-26 -179
q-8 -54 30.5 -86t100.5 -32z" />
    <glyph glyph-name="Ohungarumlaut" unicode="&#x150;" horiz-adv-x="628" 
d="M267 747l78 108h82l-94 -108h-66zM412 747l78 108h82l-93 -108h-67zM288 -19q-106 0 -173.5 66.5t-52.5 174.5l34 224q16 109 92 171t177 62q107 0 174.5 -65t51.5 -172l-33 -224q-16 -110 -91.5 -173.5t-178.5 -63.5zM291 47q75 0 129.5 49t67.5 130l33 216
q12 81 -35 126t-124 45q-73 0 -128.5 -47t-68.5 -129l-33 -215q-12 -81 35.5 -128t123.5 -47z" />
    <glyph glyph-name="ohungarumlaut" unicode="&#x151;" horiz-adv-x="534" 
d="M207 587l67 102h82l-83 -102h-66zM352 587l68 102h81l-83 -102h-66zM242 -19q-91 0 -150 49.5t-47 129.5l28 188q12 81 73.5 126t148.5 45q92 0 150.5 -48t46.5 -129l-29 -188q-12 -83 -72 -128t-149 -45zM243 41q62 0 104 33t51 89l27 179q9 55 -30.5 86t-101.5 31
q-63 0 -105 -32t-50 -89l-26 -179q-8 -54 30.5 -86t100.5 -32z" />
    <glyph glyph-name="OE" unicode="&#x152;" horiz-adv-x="952" 
d="M942 591h-327l-33 -221h297l-9 -65h-298l-35 -236h335l-10 -69h-402l6 43q-73 -62 -176 -62q-106 0 -173.5 66.5t-52.5 174.5l34 224q15 109 91.5 171t177.5 62q116 0 180 -73l8 54h397zM292 47q75 0 130 49t68 130l31 209l2 13q9 77 -38.5 121t-120.5 44t-128.5 -47
t-68.5 -129l-33 -215q-11 -80 36.5 -127.5t121.5 -47.5z" />
    <glyph glyph-name="oe" unicode="&#x153;" horiz-adv-x="878" 
d="M647 519q99 0 147 -66t32 -171l-11 -76h-343q-12 -81 25.5 -121.5t115.5 -40.5q73 0 153 30l6 -57q-82 -36 -165 -36q-129 0 -178 84q-61 -84 -187 -84q-91 0 -150 49.5t-47 129.5l28 188q12 81 73.5 126t148.5 45q60 0 108 -21.5t72 -61.5q61 83 172 83zM243 41
q62 0 104 33t51 89l27 179q9 55 -30.5 86t-101.5 31q-63 0 -105 -32t-50 -89l-26 -179q-8 -54 30.5 -86t100.5 -32zM646 459q-70 0 -110 -50t-52 -126l-3 -18h280l3 25q11 75 -19.5 122t-98.5 47z" />
    <glyph glyph-name="Racute" unicode="&#x154;" horiz-adv-x="604" 
d="M518 886l-150 -139h-72l136 139h86zM567 486q0 -84 -48.5 -140.5t-132.5 -70.5l126 -275h-76l-121 267h-164l-40 -267h-70l98 660h253q86 0 130.5 -50t44.5 -124zM199 591l-39 -258h185q69 0 110.5 43t41.5 106q0 47 -27 78t-83 31h-188z" />
    <glyph glyph-name="racute" unicode="&#x155;" horiz-adv-x="377" 
d="M402 727l-132 -140h-70l116 140h86zM333 519q45 0 70 -7l-7 -62q-29 6 -66 6q-67 0 -164 -63l-58 -393h-66l64 433l-8 70h63l6 -44q98 60 166 60z" />
    <glyph glyph-name="Rcommaaccent" unicode="&#x156;" horiz-adv-x="604" 
d="M567 486q0 -84 -48.5 -140.5t-132.5 -70.5l126 -275h-76l-121 267h-164l-40 -267h-70l98 660h253q86 0 130.5 -50t44.5 -124zM199 591l-39 -258h185q69 0 110.5 43t41.5 106q0 47 -27 78t-83 31h-188zM221 -131l9 62h56l-11 -72q-6 -46 -30 -70.5t-50 -24.5l-14 49
q34 20 40 56z" />
    <glyph glyph-name="rcommaaccent" unicode="&#x157;" horiz-adv-x="377" 
d="M333 519q45 0 70 -7l-7 -62q-29 6 -66 6q-67 0 -164 -63l-58 -393h-66l64 433l-8 70h63l6 -44q98 60 166 60zM35 -131l9 62h56l-11 -72q-6 -46 -30 -70.5t-50 -24.5l-14 49q34 20 40 56z" />
    <glyph glyph-name="Rcaron" unicode="&#x158;" horiz-adv-x="604" 
d="M361 747h-70l-92 123h64l68 -78l91 78h65zM567 486q0 -84 -48.5 -140.5t-132.5 -70.5l126 -275h-76l-121 267h-164l-40 -267h-70l98 660h253q86 0 130.5 -50t44.5 -124zM199 591l-39 -258h185q69 0 110.5 43t41.5 106q0 47 -27 78t-83 31h-188z" />
    <glyph glyph-name="rcaron" unicode="&#x159;" horiz-adv-x="377" 
d="M271 587h-63l-82 134h59l60 -86l87 86h59zM333 519q45 0 70 -7l-7 -62q-29 6 -66 6q-67 0 -164 -63l-58 -393h-66l64 433l-8 70h63l6 -44q98 60 166 60z" />
    <glyph glyph-name="Sacute" unicode="&#x15a;" horiz-adv-x="489" 
d="M276 747l136 139h86l-150 -139h-72zM194 -19q-89 0 -188 40l21 67q96 -37 168 -37q77 0 122.5 30.5t45.5 91.5q0 26 -7 45.5t-27 36t-35.5 26t-51.5 28.5q-11 6 -17 9q-77 42 -111.5 78t-34.5 97q0 87 61.5 136.5t162.5 49.5q103 0 170 -35l-24 -62q-60 31 -147 31
q-70 0 -112.5 -31t-42.5 -86q0 -37 25 -60t94 -61q92 -52 119 -77q50 -47 50 -121q0 -95 -65.5 -145.5t-175.5 -50.5z" />
    <glyph glyph-name="sacute" unicode="&#x15b;" horiz-adv-x="440" 
d="M221 587l116 140h86l-132 -140h-70zM173 -19q-78 0 -177 33l19 59q88 -32 158 -32q146 0 146 96q0 21 -6 34.5t-25 25.5t-33.5 18t-53.5 20q-40 14 -59.5 22.5t-43 24.5t-32.5 37t-9 51q0 71 56.5 110t150.5 39q82 0 149 -25l-18 -58q-57 23 -133 23q-64 0 -101.5 -22.5
t-37.5 -63.5q0 -29 22 -44t85 -38q38 -14 53.5 -20.5t40.5 -20t34.5 -26.5t18 -34.5t8.5 -49.5q0 -83 -57.5 -121t-154.5 -38z" />
    <glyph glyph-name="Scedilla" unicode="&#x15e;" horiz-adv-x="489" 
d="M302 613q-70 0 -112.5 -31t-42.5 -86q0 -37 25 -60t94 -61q92 -52 119 -77q50 -47 50 -121q0 -86 -54 -136t-147 -58l-13 -53q39 -2 63.5 -23.5t24.5 -58.5q0 -59 -54 -82.5t-138 -11.5l10 52q51 -10 89 0t38 41q0 19 -26 28.5t-74 6.5l23 99q-79 3 -171 40l21 67
q96 -37 168 -37q77 0 122.5 30.5t45.5 91.5q0 26 -7 45.5t-27 36t-35.5 26t-51.5 28.5q-11 6 -17 9q-77 42 -111.5 78t-34.5 97q0 87 61.5 136.5t162.5 49.5q103 0 170 -35l-24 -62q-60 31 -147 31z" />
    <glyph glyph-name="scedilla" unicode="&#x15f;" horiz-adv-x="440" 
d="M262 459q-64 0 -101.5 -22.5t-37.5 -63.5q0 -29 22 -44t85 -38q38 -14 53.5 -20.5t40.5 -20t34.5 -26.5t18 -34.5t8.5 -49.5q0 -79 -52.5 -117.5t-142.5 -41.5l-13 -51q39 -2 63.5 -23.5t24.5 -58.5q0 -59 -54 -82.5t-138 -11.5l10 52q51 -10 89 0t38 41q0 19 -26 28.5
t-74 6.5l23 100q-56 5 -137 32l19 59q88 -32 158 -32q146 0 146 96q0 21 -6 34.5t-25 25.5t-33.5 18t-53.5 20q-40 14 -59.5 22.5t-43 24.5t-32.5 37t-9 51q0 71 56.5 110t150.5 39q82 0 149 -25l-18 -58q-57 23 -133 23z" />
    <glyph glyph-name="Scaron" unicode="&#x160;" horiz-adv-x="489" 
d="M341 747h-70l-92 123h64l68 -78l91 78h65zM302 613q-70 0 -112.5 -31t-42.5 -86q0 -37 25 -60t94 -61q92 -52 119 -77q50 -47 50 -121q0 -95 -65.5 -145.5t-175.5 -50.5q-89 0 -188 40l21 67q96 -37 168 -37q77 0 122.5 30.5t45.5 91.5q0 26 -7 45.5t-27 36t-35.5 26
t-51.5 28.5q-11 6 -17 9q-77 42 -111.5 78t-34.5 97q0 87 61.5 136.5t162.5 49.5q103 0 170 -35l-24 -62q-60 31 -147 31z" />
    <glyph glyph-name="scaron" unicode="&#x161;" horiz-adv-x="440" 
d="M292 587h-63l-82 134h59l60 -86l87 86h59zM262 459q-64 0 -101.5 -22.5t-37.5 -63.5q0 -29 22 -44t85 -38q38 -14 53.5 -20.5t40.5 -20t34.5 -26.5t18 -34.5t8.5 -49.5q0 -83 -57.5 -121t-154.5 -38q-78 0 -177 33l19 59q88 -32 158 -32q146 0 146 96q0 21 -6 34.5
t-25 25.5t-33.5 18t-53.5 20q-40 14 -59.5 22.5t-43 24.5t-32.5 37t-9 51q0 71 56.5 110t150.5 39q82 0 149 -25l-18 -58q-57 23 -133 23z" />
    <glyph glyph-name="uni0162" unicode="&#x162;" horiz-adv-x="514" 
d="M260 0h-13l-17 -70q39 -2 63.5 -23.5t24.5 -58.5q0 -59 -54 -82.5t-138 -11.5l10 52q51 -10 89 0t38 41q0 19 -26 28.5t-74 6.5l27 118l87 591h-197l10 69h463l-9 -69h-197z" />
    <glyph glyph-name="uni0163" unicode="&#x163;" horiz-adv-x="369" 
d="M202 442l-48 -321q-11 -79 69 -79q41 0 79 13l5 -52q-50 -22 -105 -22l-13 -51q39 -2 63.5 -23.5t24.5 -58.5q0 -59 -54 -82.5t-138 -11.5l10 52q51 -10 89 0t38 41q0 19 -26 28.5t-74 6.5l25 107q-74 27 -60 120l49 333h-80l8 61h82l16 114h67l-17 -114h144l-9 -61h-145
z" />
    <glyph glyph-name="Tcaron" unicode="&#x164;" horiz-adv-x="513" 
d="M359 747h-70l-92 123h64l68 -78l91 78h65zM552 660l-9 -69h-197l-87 -591h-70l87 591h-197l10 69h463z" />
    <glyph glyph-name="tcaron" unicode="&#x165;" horiz-adv-x="385" 
d="M387 700h64l-58 -185h-56zM232 617l-17 -117h132l-9 -62h-132l-50 -332q-9 -64 62 -64q47 0 87 17l5 -56q-50 -22 -113 -22q-55 0 -86 30t-22 91l50 336h-84l9 62h84l17 117h67z" />
    <glyph glyph-name="Tbar" unicode="&#x166;" horiz-adv-x="514" 
d="M544 591h-197l-33 -222h144l-8 -68h-146l-44 -301h-70l44 301h-149l7 68h152l33 222h-197l10 69h463z" />
    <glyph glyph-name="tbar" unicode="&#x167;" horiz-adv-x="369" 
d="M347 442h-145l-21 -140h152l-7 -53h-153l-19 -128q-11 -79 69 -79q41 0 79 13l5 -52q-52 -22 -108 -22t-88.5 32t-23.5 96l21 140h-79l7 53h80l20 140h-80l8 61h82l16 114h67l-17 -114h144z" />
    <glyph glyph-name="Umacron" unicode="&#x16a;" horiz-adv-x="617" 
d="M232 783l8 56h293l-8 -56h-293zM284 -19q-120 0 -177 69t-40 189l62 421h70l-62 -426q-13 -89 27 -138t124 -49q82 0 130 50.5t61 140.5l62 422h71l-63 -426q-37 -253 -265 -253z" />
    <glyph glyph-name="umacron" unicode="&#x16b;" horiz-adv-x="538" 
d="M461 673l-7 -58h-287l8 58h286zM498 503l-65 -433l7 -70h-63l-6 36q-85 -55 -161 -55q-84 0 -126 52t-27 157l47 313h66l-47 -316q-11 -73 12.5 -109t86.5 -36q71 0 149 56l60 405h67z" />
    <glyph glyph-name="Uring" unicode="&#x16e;" horiz-adv-x="617" 
d="M368 689q-44 0 -70 29t-26 72q0 48 33 85.5t83 37.5q44 0 69.5 -29t25.5 -72q0 -49 -32 -86t-83 -37zM373 742q27 0 44.5 19.5t17.5 45.5q0 23 -14 38.5t-37 15.5q-28 0 -46 -19.5t-18 -45.5q0 -23 14 -38.5t39 -15.5zM284 -19q-120 0 -177 69t-40 189l62 421h70
l-62 -426q-13 -89 27 -138t124 -49q82 0 130 50.5t61 140.5l62 422h71l-63 -426q-37 -253 -265 -253z" />
    <glyph glyph-name="uring" unicode="&#x16f;" horiz-adv-x="538" 
d="M306 570q-44 0 -70 29t-26 72q0 48 33 85t82 37q45 0 70.5 -28.5t25.5 -71.5q0 -49 -32.5 -86t-82.5 -37zM322 742q-28 0 -46 -19t-18 -46q0 -24 14 -39t39 -15q27 0 44 19.5t17 45.5q0 23 -13.5 38.5t-36.5 15.5zM498 503l-65 -433l7 -70h-63l-6 36q-85 -55 -161 -55
q-84 0 -126 52t-27 157l47 313h66l-47 -316q-11 -73 12.5 -109t86.5 -36q71 0 149 56l60 405h67z" />
    <glyph glyph-name="Uhungarumlaut" unicode="&#x170;" horiz-adv-x="617" 
d="M266 747l78 108h82l-94 -108h-66zM411 747l78 108h82l-93 -108h-67zM284 -19q-120 0 -177 69t-40 189l62 421h70l-62 -426q-13 -89 27 -138t124 -49q82 0 130 50.5t61 140.5l62 422h71l-63 -426q-37 -253 -265 -253z" />
    <glyph glyph-name="uhungarumlaut" unicode="&#x171;" horiz-adv-x="538" 
d="M346 689l-83 -102h-66l67 102h82zM408 587h-66l68 102h81zM498 503l-65 -433l7 -70h-63l-6 36q-85 -55 -161 -55q-84 0 -126 52t-27 157l47 313h66l-47 -316q-11 -73 12.5 -109t86.5 -36q71 0 149 56l60 405h67z" />
    <glyph glyph-name="Uogonek" unicode="&#x172;" horiz-adv-x="617" 
d="M541 660h71l-63 -426q-22 -146 -109 -209q-107 -103 -107 -163q0 -19 11.5 -30t30.5 -11q21 0 41 10l6 -56q-32 -13 -66 -13q-38 0 -62 23.5t-24 60.5q0 58 69 139q-34 -4 -55 -4q-120 0 -177 69t-40 189l62 421h70l-62 -426q-13 -89 27 -138t124 -49q82 0 130 50.5
t61 140.5z" />
    <glyph glyph-name="uogonek" unicode="&#x173;" horiz-adv-x="539" 
d="M440 0q-124 -66 -124 -126q0 -20 11.5 -30.5t30.5 -10.5q20 0 42 10l5 -56q-32 -14 -66 -14q-38 0 -62 23.5t-24 60.5q0 43 33 78.5t90 73.5l-4 27q-85 -55 -161 -55q-85 0 -127 52t-26 157l47 313h66l-48 -316q-11 -73 13 -109t87 -36q70 0 148 56l61 405h66l-65 -433z
" />
    <glyph glyph-name="Ydieresis" unicode="&#x178;" horiz-adv-x="526" 
d="M313 837l-11 -79h-67l11 79h67zM452 837l-12 -79h-68l12 79h68zM494 660h75l-267 -407l-37 -253h-70l37 253l-146 407h72l120 -332z" />
    <glyph glyph-name="Zacute" unicode="&#x179;" horiz-adv-x="544" 
d="M524 886l-150 -139h-72l136 139h86zM544 660l-8 -56l-426 -535h355l-8 -69h-449l7 54l428 537h-331l10 69h422z" />
    <glyph glyph-name="zacute" unicode="&#x17a;" horiz-adv-x="453" 
d="M437 727l-132 -140h-70l116 140h86zM442 503l-6 -52l-344 -390h294l-8 -61h-381l7 52l343 390h-264l9 61h350z" />
    <glyph glyph-name="Zdotaccent" unicode="&#x17b;" horiz-adv-x="544" 
d="M391 841l-13 -86h-73l12 86h74zM544 660l-8 -56l-426 -535h355l-8 -69h-449l7 54l428 537h-331l10 69h422z" />
    <glyph glyph-name="zdotaccent" unicode="&#x17c;" horiz-adv-x="453" 
d="M326 700l-13 -84h-73l12 84h74zM442 503l-6 -52l-344 -390h294l-8 -61h-381l7 52l343 390h-264l9 61h350z" />
    <glyph glyph-name="Zcaron" unicode="&#x17d;" horiz-adv-x="544" 
d="M367 747h-70l-92 123h64l68 -78l91 78h65zM544 660l-8 -56l-426 -535h355l-8 -69h-449l7 54l428 537h-331l10 69h422z" />
    <glyph glyph-name="zcaron" unicode="&#x17e;" horiz-adv-x="453" 
d="M306 587h-63l-82 134h59l60 -86l87 86h59zM442 503l-6 -52l-344 -390h294l-8 -61h-381l7 52l343 390h-264l9 61h350z" />
    <glyph glyph-name="florin" unicode="&#x192;" horiz-adv-x="335" 
d="M329 653q-55 0 -82 -29.5t-39 -110.5l-2 -10h143l-8 -62h-144l-75 -504q-9 -64 -47.5 -100t-103.5 -36l4 61q71 4 82 81l75 498h-64l9 62h64l2 12q16 112 57 158t120 46q41 0 85 -12l-16 -62q-32 8 -60 8z" />
    <glyph glyph-name="Scommaaccent" unicode="&#x218;" horiz-adv-x="489" 
d="M194 -19q-89 0 -188 40l21 67q96 -37 168 -37q77 0 122.5 30.5t45.5 91.5q0 26 -7 45.5t-27 36t-35.5 26t-51.5 28.5q-11 6 -17 9q-77 42 -111.5 78t-34.5 97q0 87 61.5 136.5t162.5 49.5q103 0 170 -35l-24 -62q-60 31 -147 31q-70 0 -112.5 -31t-42.5 -86q0 -37 25 -60
t94 -61q92 -52 119 -77q50 -47 50 -121q0 -95 -65.5 -145.5t-175.5 -50.5zM145 -236l-14 49q34 20 40 56l9 62h56l-11 -72q-6 -46 -30 -70.5t-50 -24.5z" />
    <glyph glyph-name="scommaaccent" unicode="&#x219;" horiz-adv-x="440" 
d="M173 -19q-78 0 -177 33l19 59q88 -32 158 -32q146 0 146 96q0 21 -6 34.5t-25 25.5t-33.5 18t-53.5 20q-40 14 -59.5 22.5t-43 24.5t-32.5 37t-9 51q0 71 56.5 110t150.5 39q82 0 149 -25l-18 -58q-57 23 -133 23q-64 0 -101.5 -22.5t-37.5 -63.5q0 -29 22 -44t85 -38
q38 -14 53.5 -20.5t40.5 -20t34.5 -26.5t18 -34.5t8.5 -49.5q0 -83 -57.5 -121t-154.5 -38zM102 -236l-14 49q34 20 40 56l9 62h56l-11 -72q-6 -46 -30 -70.5t-50 -24.5z" />
    <glyph glyph-name="uni021A" unicode="&#x21a;" horiz-adv-x="513" 
d="M552 660l-9 -69h-197l-87 -591h-70l87 591h-197l10 69h463zM183 -131l9 62h56l-11 -72q-6 -46 -30 -70.5t-50 -24.5l-14 49q34 20 40 56z" />
    <glyph glyph-name="uni021B" unicode="&#x21b;" horiz-adv-x="369" 
d="M202 442l-48 -321q-11 -79 69 -79q41 0 79 13l5 -52q-52 -22 -108 -22t-88.5 32t-23.5 96l49 333h-80l8 61h82l16 114h67l-17 -114h144l-9 -61h-145zM140 -131l9 62h56l-11 -72q-6 -46 -30 -70.5t-50 -24.5l-14 49q34 20 40 56z" />
    <glyph glyph-name="circumflex" unicode="&#x2c6;" horiz-adv-x="302" 
d="M335 587h-59l-60 82l-87 -82h-59l120 134h63z" />
    <glyph glyph-name="caron" unicode="&#x2c7;" horiz-adv-x="298" 
d="M296 721h59l-120 -134h-63l-82 134h59l60 -86z" />
    <glyph glyph-name="breve" unicode="&#x2d8;" horiz-adv-x="376" 
d="M245 585q-55 0 -87.5 36t-23.5 98h56q-5 -38 12.5 -60.5t47.5 -22.5q29 0 52 22t30 61h56q-9 -63 -50 -98.5t-93 -35.5z" />
    <glyph glyph-name="dotaccent" unicode="&#x2d9;" horiz-adv-x="198" 
d="M122 616l12 84h74l-13 -84h-73z" />
    <glyph glyph-name="ring" unicode="&#x2da;" horiz-adv-x="311" 
d="M208 570q-44 0 -70 29t-26 72q0 48 33 85t82 37q45 0 70.5 -28.5t25.5 -71.5q0 -49 -32.5 -86t-82.5 -37zM213 623q27 0 44 19.5t17 45.5q0 23 -13.5 38.5t-36.5 15.5q-28 0 -46 -19t-18 -46q0 -24 14 -39t39 -15z" />
    <glyph glyph-name="ogonek" unicode="&#x2db;" horiz-adv-x="270" 
d="M34 -227q-38 0 -62 23.5t-24 60.5q0 34 25 68.5t51.5 55t69.5 48.5l41 -29q-124 -65 -124 -126q0 -20 11 -30.5t30 -10.5q22 0 42 10l5 -56q-31 -14 -65 -14z" />
    <glyph glyph-name="tilde" unicode="&#x2dc;" horiz-adv-x="404" 
d="M152 606l-45 22q44 92 100 92q24 0 46 -14t39 -28.5t29 -14.5q23 0 50 53l46 -22q-17 -39 -42.5 -64.5t-53.5 -25.5q-23 0 -59 29t-52 29q-28 0 -58 -56z" />
    <glyph glyph-name="hungarumlaut" unicode="&#x2dd;" horiz-adv-x="389" 
d="M123 587l67 102h82l-83 -102h-66zM268 587l68 102h81l-83 -102h-66z" />
    <glyph glyph-name="gravecomb" unicode="&#x300;" 
d="M-46 587l-105 140h83l89 -140h-67z" />
    <glyph glyph-name="acutecomb" unicode="&#x301;" 
d="M-147 587l116 140h86l-133 -140h-69z" />
    <glyph glyph-name="uni0302" unicode="&#x302;" 
d="M31 587h-59l-60 82l-87 -82h-58l119 134h63z" />
    <glyph glyph-name="tildecomb" unicode="&#x303;" 
d="M-254 606l-45 22q43 92 99 92q32 0 67 -28.5t47 -28.5q26 0 50 53l46 -22q-16 -38 -41.5 -64t-53.5 -26q-23 0 -59.5 29t-52.5 29q-29 0 -57 -56z" />
    <glyph glyph-name="uni0304" unicode="&#x304;" 
d="M-301 615l8 58h287l-8 -58h-287z" />
    <glyph glyph-name="uni0306" unicode="&#x306;" 
d="M-134 585q-55 0 -87.5 36t-23.5 98h56q-5 -38 12.5 -60.5t47.5 -22.5q29 0 51.5 22t29.5 61h57q-10 -63 -50.5 -98.5t-92.5 -35.5z" />
    <glyph glyph-name="uni0307" unicode="&#x307;" 
d="M-79 616l12 84h74l-13 -84h-73z" />
    <glyph glyph-name="uni0308" unicode="&#x308;" 
d="M-215 618l11 78h67l-11 -78h-67zM-78 618l12 78h68l-11 -78h-69z" />
    <glyph glyph-name="uni030A" unicode="&#x30a;" 
d="M-105 570q-44 0 -70.5 29t-26.5 72q0 48 33 85t83 37q44 0 69.5 -28.5t25.5 -71.5q0 -49 -32 -86t-82 -37zM-101 623q27 0 44.5 19.5t17.5 45.5q0 23 -14 38.5t-37 15.5q-28 0 -46 -19.5t-18 -45.5q0 -24 14 -39t39 -15z" />
    <glyph glyph-name="uni030B" unicode="&#x30b;" 
d="M-269 587l67 102h81l-83 -102h-65zM-124 587l68 102h81l-83 -102h-66z" />
    <glyph glyph-name="uni030C" unicode="&#x30c;" 
d="M-2 721h58l-120 -134h-63l-82 134h59l61 -86z" />
    <glyph glyph-name="uni0326" unicode="&#x326;" 
d="M-276 -236l-14 49q34 20 40 56l9 62h56l-11 -72q-6 -46 -30 -70.5t-50 -24.5z" />
    <glyph glyph-name="uni0327" unicode="&#x327;" 
d="M-207 -70q39 -2 63.5 -23.5t24.5 -58.5q0 -59 -54 -82.5t-138 -11.5l10 52q51 -10 89 0t38 41q0 19 -26 28.5t-74 6.5l30 130h57z" />
    <glyph glyph-name="uni0328" unicode="&#x328;" 
d="M-237 -227q-38 0 -62 23.5t-24 60.5q0 34 25.5 68.5t52 55t69.5 48.5l40 -29q-124 -65 -124 -126q0 -20 11.5 -30.5t30.5 -10.5q20 0 42 10l5 -56q-32 -14 -66 -14z" />
    <glyph glyph-name="uni0335" unicode="&#x335;" 
d="M-464 278l7 53h297l-7 -53h-297z" />
    <glyph glyph-name="uni0337" unicode="&#x337;" 
d="M-350 217l10 77l259 180l-11 -76z" />
    <glyph glyph-name="uni0338" unicode="&#x338;" 
d="M-504 -86l328 683h53l-327 -683h-54z" />
    <glyph glyph-name="uni0394" unicode="&#x394;" horiz-adv-x="576" 
d="M378 660l138 -591l-9 -69h-518l9 69l312 591h68zM332 563l-263 -494h377z" />
    <glyph glyph-name="uni03A9" unicode="&#x3a9;" horiz-adv-x="661" 
d="M630 425q0 -101 -49.5 -196.5t-133.5 -159.5h129l-8 -69h-234l8 69q95 52 156.5 153t61.5 202q0 82 -44.5 135.5t-127.5 53.5q-111 0 -181 -88t-70 -212q0 -77 30.5 -142t91.5 -102l-7 -69h-234l10 69h137q-99 95 -99 246q0 152 91 258t232 106q116 0 178.5 -71.5
t62.5 -182.5z" />
    <glyph glyph-name="uni03BC" unicode="&#x3bc;" horiz-adv-x="595" 
d="M522 46l5 -52q-33 -13 -66 -13q-61 0 -72 60q-97 -60 -184 -60q-71 0 -110 42l-19 -203h-68l56 370l47 313h66l-48 -316q-22 -145 94 -145q80 0 166 62q1 2 1 6.5t1 6.5l58 386h66l-57 -388q-13 -77 26 -77q14 0 38 8z" />
    <glyph glyph-name="pi" unicode="&#x3c0;" horiz-adv-x="588" 
d="M495 442l-48 -327q-7 -43 -1.5 -60t25.5 -17q11 0 39 10l7 -54q-37 -13 -66 -13q-45 0 -63 32t-8 104l49 325h-228l-65 -442h-66l65 442h-88l-4 61h549l-9 -61h-88z" />
    <glyph glyph-name="uni2009" unicode="&#x2009;" 
 />
    <glyph glyph-name="endash" unicode="&#x2013;" horiz-adv-x="500" 
d="M66 232l8 62h365l-9 -62h-364z" />
    <glyph glyph-name="emdash" unicode="&#x2014;" horiz-adv-x="641" 
d="M66 232l8 62h505l-8 -62h-505z" />
    <glyph glyph-name="quoteleft" unicode="&#x2018;" horiz-adv-x="185" 
d="M210 708l12 -53q-24 -3 -41.5 -22.5t-18.5 -52.5l-3 -91h-63l4 100q2 53 34 83t76 36z" />
    <glyph glyph-name="quoteright" unicode="&#x2019;" horiz-adv-x="184" 
d="M84 480l-12 54q24 3 41.5 22t18.5 52l3 92h63l-3 -100q-3 -53 -35 -83.5t-76 -36.5z" />
    <glyph glyph-name="quotesinglbase" unicode="&#x201a;" horiz-adv-x="184" 
d="M-8 -93l-12 53q25 3 42 22.5t18 51.5l4 92h63l-4 -100q-2 -53 -34.5 -83.5t-76.5 -35.5z" />
    <glyph glyph-name="quotedblleft" unicode="&#x201c;" horiz-adv-x="315" 
d="M210 708l12 -53q-24 -3 -41.5 -22.5t-18.5 -52.5l-3 -91h-63l4 100q2 53 34 83t76 36zM340 708l12 -53q-24 -3 -41.5 -22.5t-18.5 -52.5l-3 -91h-63l4 100q2 53 34 83t76 36z" />
    <glyph glyph-name="quotedblright" unicode="&#x201d;" horiz-adv-x="313" 
d="M84 480l-12 54q24 3 41.5 22t18.5 52l3 92h63l-3 -100q-3 -53 -35 -83.5t-76 -36.5zM213 478l-12 54q24 3 41.5 22t18.5 52l3 92h63l-4 -101q-2 -53 -34 -83t-76 -36z" />
    <glyph glyph-name="quotedblbase" unicode="&#x201e;" horiz-adv-x="320" 
d="M-8 -93l-12 53q25 3 42 22.5t18 51.5l4 92h63l-4 -100q-2 -53 -34.5 -83.5t-76.5 -35.5zM128 -93l-12 53q24 3 41.5 22t18.5 52l3 92h63l-3 -100q-3 -53 -35 -83.5t-76 -35.5z" />
    <glyph glyph-name="dagger" unicode="&#x2020;" horiz-adv-x="384" 
d="M392 500l-10 -69h-127l-88 -591h-66l88 591h-126l9 69h127l27 183h67l-27 -183h126z" />
    <glyph glyph-name="daggerdbl" unicode="&#x2021;" horiz-adv-x="393" 
d="M382 431h-127l-25 -170h133l-10 -69h-134l-52 -352h-66l52 352h-119l9 69h121l25 170h-127l11 69h126l27 183h67l-28 -183h126z" />
    <glyph glyph-name="bullet" unicode="&#x2022;" horiz-adv-x="290" 
d="M143 203q-37 0 -61.5 26.5t-24.5 64.5q0 48 32 80.5t75 32.5q37 0 61.5 -26t24.5 -64q0 -48 -32.5 -81t-74.5 -33z" />
    <glyph glyph-name="ellipsis" unicode="&#x2026;" horiz-adv-x="546" 
d="M34 0l17 119h68l-17 -119h-68zM198 0l17 119h69l-17 -119h-69zM363 0l17 119h70l-18 -119h-69z" />
    <glyph glyph-name="perthousand" unicode="&#x2030;" horiz-adv-x="1059" 
d="M108 0l504 700h55l-504 -700h-55zM192 311q-58 0 -93 36.5t-26 94.5l17 109q10 59 48 89.5t94 30.5q57 0 92.5 -34t25.5 -92l-18 -108q-10 -59 -48 -92.5t-92 -33.5zM194 360q34 0 57.5 25t29.5 65l15 92q6 37 -14 58.5t-53 21.5q-35 0 -58 -23t-30 -62l-16 -92
q-7 -37 14 -61t55 -24zM525 -12q-58 0 -93 36t-26 95l17 108q10 59 48 90t94 31q57 0 92.5 -34t25.5 -93l-18 -108q-10 -59 -48 -92t-92 -33zM854 -12q-59 0 -94 36t-25 95l17 108q10 59 48 90t94 31q57 0 92.5 -34t25.5 -93l-18 -108q-10 -59 -48 -92t-92 -33zM527 37
q35 0 58 24.5t29 64.5l15 93q6 37 -14 58.5t-53 21.5q-35 0 -58 -23t-30 -62l-16 -93q-7 -36 14 -60t55 -24zM856 37q35 0 58 24.5t29 64.5l15 93q6 37 -14 58.5t-53 21.5q-35 0 -58 -23t-30 -62l-16 -93q-7 -36 14 -60t55 -24z" />
    <glyph glyph-name="guilsinglleft" unicode="&#x2039;" horiz-adv-x="334" 
d="M297 466l-12 -90l-189 -141l147 -142l-13 -83l-209 202l6 44z" />
    <glyph glyph-name="guilsinglright" unicode="&#x203a;" horiz-adv-x="335" 
d="M99 466l210 -210l-6 -44l-270 -202l12 89l190 143l-147 142z" />
    <glyph glyph-name="fraction" unicode="&#x2044;" horiz-adv-x="212" 
d="M-104 0l398 700h53l-397 -700h-54z" />
    <glyph glyph-name="Euro" unicode="&#x20ac;" horiz-adv-x="574" 
d="M368 611q-162 0 -202 -171h270l-8 -53h-272l-13 -84h273l-8 -52h-272q-13 -101 30.5 -152.5t136.5 -51.5q91 0 160 31l13 -62q-78 -35 -181 -35q-128 0 -187 70.5t-42 199.5h-67l7 52h67l12 84h-66l8 53h67q52 239 275 239q99 0 175 -35l-26 -60q-59 27 -150 27z" />
    <glyph glyph-name="uni2113" unicode="&#x2113;" horiz-adv-x="221" 
d="M37 0l103 700h66l-103 -700h-66z" />
    <glyph glyph-name="trademark" unicode="&#x2122;" horiz-adv-x="797" 
d="M370 609h-132l-44 -304h-56l44 304h-125l8 51h312zM704 660h45l-40 -355h-51l26 239l-122 -190h-32l-65 196l-53 -245h-49l71 355h43l79 -233z" />
    <glyph glyph-name="uni2126" unicode="&#x2126;" horiz-adv-x="664" 
d="M630 425q0 -100 -49.5 -195.5t-133.5 -160.5h129l-9 -69h-234l8 69q95 52 156.5 153t61.5 202q0 82 -44.5 135.5t-127.5 53.5q-111 0 -181 -88t-70 -212q0 -77 30.5 -141.5t91.5 -102.5l-7 -69h-234l10 69h137q-99 93 -99 246q0 152 91.5 258t232.5 106
q116 0 178.5 -71.5t62.5 -182.5z" />
    <glyph glyph-name="uni2150" unicode="&#x2150;" horiz-adv-x="857" 
d="M615 700h53l-397 -700h-54zM241 277h-54l49 326l-112 -20l-1 53l141 24h33zM582 383h256l-4 -46q-62 -46 -111 -119t-60 -155l-9 -63h-53l10 69q12 78 52 147.5t94 118.5h-182z" />
    <glyph glyph-name="uni2151" unicode="&#x2151;" horiz-adv-x="856" 
d="M615 700h53l-397 -700h-54zM241 277h-54l49 326l-112 -20l-1 53l141 24h33zM707 395q64 0 97 -34t25 -92l-19 -126q-11 -75 -51 -114.5t-105 -39.5q-50 0 -102 21l16 46q41 -17 74 -17q47 0 77.5 27t37.5 76l2 13q-50 -19 -87 -19q-53 0 -84 27.5t-25 78.5l5 36
q15 117 139 117zM776 275q6 33 -14.5 52.5t-56.5 19.5q-75 0 -85 -74l-5 -32q-4 -31 16 -43.5t54 -12.5q37 0 81 19z" />
    <glyph glyph-name="uni2153" unicode="&#x2153;" horiz-adv-x="856" 
d="M615 700h53l-397 -700h-54zM241 277h-54l49 326l-112 -20l-1 53l141 24h33zM765 196q31 -25 31 -75q0 -132 -151 -132q-43 0 -112 17l11 48q57 -15 101 -15q47 0 73 21.5t26 58.5q0 22 -12 37t-37 15h-109l7 49h107q29 0 45.5 20t16.5 49q0 26 -18 41t-53 15
q-37 0 -96 -17l-5 50q65 16 107 16q118 0 118 -94q0 -73 -50 -104z" />
    <glyph glyph-name="uni2154" unicode="&#x2154;" horiz-adv-x="858" 
d="M617 700h53l-397 -700h-54zM297 326l-8 -49h-242l7 47q8 63 36.5 96t98.5 65q46 20 65.5 37t19.5 47q0 52 -60 52q-48 0 -99 -22l-12 49q54 23 117 23q107 0 107 -102q0 -54 -30 -83.5t-90 -54.5q-51 -21 -72.5 -40t-25.5 -61l-4 -4h192zM767 196q31 -25 31 -75
q0 -132 -151 -132q-43 0 -112 17l11 48q57 -15 101 -15q47 0 73 21.5t26 58.5q0 22 -12 37t-37 15h-109l7 49h107q29 0 45.5 20t16.5 49q0 26 -18 41t-53 15q-37 0 -96 -17l-5 50q65 16 107 16q118 0 118 -94q0 -73 -50 -104z" />
    <glyph glyph-name="uni2155" unicode="&#x2155;" horiz-adv-x="856" 
d="M615 700h53l-397 -700h-54zM241 277h-54l49 326l-112 -20l-1 53l141 24h33zM804 334h-146l-17 -98q16 1 41 1q115 0 115 -103q0 -62 -41 -103.5t-114 -41.5q-54 0 -110 16l15 48q41 -14 82 -14q56 0 86 24t30 66q0 33 -17.5 46.5t-56.5 13.5q-47 0 -89 -5l34 199h194z
" />
    <glyph glyph-name="uni2156" unicode="&#x2156;" horiz-adv-x="858" 
d="M617 700h53l-397 -700h-54zM297 326l-8 -49h-242l7 47q8 63 36.5 96t98.5 65q46 20 65.5 37t19.5 47q0 52 -60 52q-48 0 -99 -22l-12 49q54 23 117 23q107 0 107 -102q0 -54 -30 -83.5t-90 -54.5q-51 -21 -72.5 -40t-25.5 -61l-4 -4h192zM806 334h-146l-17 -98q16 1 41 1
q115 0 115 -103q0 -62 -41 -103.5t-114 -41.5q-54 0 -110 16l15 48q41 -14 82 -14q56 0 86 24t30 66q0 33 -17.5 46.5t-56.5 13.5q-47 0 -89 -5l34 199h194z" />
    <glyph glyph-name="uni2157" unicode="&#x2157;" horiz-adv-x="858" 
d="M617 700h53l-397 -700h-54zM307 398q0 -132 -151 -132q-43 0 -112 17l11 48q57 -15 101 -15q47 0 73 21.5t26 58.5q0 22 -12.5 37t-36.5 15h-109l7 49h107q29 0 45.5 20t16.5 49q0 26 -18 41t-53 15q-36 0 -96 -17l-5 50q65 16 107 16q118 0 118 -94q0 -73 -50 -104
q31 -25 31 -75zM806 334h-146l-17 -98q16 1 41 1q115 0 115 -103q0 -62 -41 -103.5t-114 -41.5q-54 0 -110 16l15 48q41 -14 82 -14q56 0 86 24t30 66q0 33 -17.5 46.5t-56.5 13.5q-47 0 -89 -5l34 199h194z" />
    <glyph glyph-name="uni2158" unicode="&#x2158;" horiz-adv-x="859" 
d="M618 700h53l-397 -700h-54zM259 277h-52l11 70h-179l5 35l154 288l45 -23l-135 -252h117l14 89l4 28h52l-18 -117h56l-7 -48h-56zM807 334h-146l-17 -98q16 1 41 1q115 0 115 -103q0 -62 -41 -103.5t-114 -41.5q-54 0 -110 16l15 48q41 -14 82 -14q56 0 86 24t30 66
q0 33 -17.5 46.5t-56.5 13.5q-46 0 -89 -5l34 199h194z" />
    <glyph glyph-name="uni2159" unicode="&#x2159;" horiz-adv-x="856" 
d="M615 700h53l-397 -700h-54zM241 277h-54l49 326l-112 -20l-1 53l141 24h33zM700 248q52 0 83.5 -28t25.5 -79l-5 -36q-15 -116 -139 -116q-64 0 -97 34t-25 92l20 126q10 75 50.5 114t104.5 39q52 0 102 -20l-16 -46q-41 17 -74 17q-46 0 -76.5 -27.5t-38.5 -75.5l-2 -13
q50 19 87 19zM757 142q4 32 -16 44.5t-54 12.5q-35 0 -81 -20l-10 -70q-5 -34 15 -53t56 -19q75 0 85 74z" />
    <glyph glyph-name="uni215A" unicode="&#x215a;" horiz-adv-x="858" 
d="M617 700h53l-397 -700h-54zM308 411q0 -62 -41 -103.5t-114 -41.5q-54 0 -110 16l15 48q41 -14 82 -14q56 0 86 24t30 66q0 33 -17.5 46.5t-56.5 13.5q-46 0 -89 -5l34 199h194l-6 -49h-146l-17 -98q16 1 41 1q115 0 115 -103zM702 248q52 0 83.5 -28t25.5 -79l-5 -36
q-15 -116 -139 -116q-64 0 -97 34t-25 92l20 126q10 75 50.5 114t104.5 39q52 0 102 -20l-16 -46q-41 17 -74 17q-46 0 -76.5 -27.5t-38.5 -75.5l-2 -13q50 19 87 19zM759 142q4 32 -16 44.5t-54 12.5q-35 0 -81 -20l-10 -70q-5 -34 15 -53t56 -19q75 0 85 74z" />
    <glyph glyph-name="oneeighth" unicode="&#x215b;" horiz-adv-x="856" 
d="M615 700h53l-397 -700h-54zM241 277h-54l49 326l-112 -20l-1 53l141 24h33zM826 288q-7 -64 -49 -89q38 -27 30 -77l-4 -30q-7 -54 -47.5 -78.5t-97.5 -24.5q-59 0 -93 26t-28 80l4 32q5 52 54 76q-34 24 -25 82q11 109 142 109q55 0 87.5 -26.5t26.5 -79.5zM623 277
q-8 -54 41 -54h47q55 0 61 65q4 31 -14 44.5t-51 13.5q-35 0 -57.5 -17.5t-26.5 -51.5zM754 121q4 26 -9.5 41t-39.5 15h-49q-26 0 -43.5 -15.5t-20.5 -40.5l-3 -26q-4 -29 16 -43.5t56 -14.5q80 0 90 58z" />
    <glyph glyph-name="threeeighths" unicode="&#x215c;" horiz-adv-x="858" 
d="M617 700h53l-397 -700h-54zM307 398q0 -132 -151 -132q-43 0 -112 17l11 48q57 -15 101 -15q47 0 73 21.5t26 58.5q0 22 -12.5 37t-36.5 15h-109l7 49h107q29 0 45.5 20t16.5 49q0 26 -18 41t-53 15q-36 0 -96 -17l-5 50q65 16 107 16q118 0 118 -94q0 -73 -50 -104
q31 -25 31 -75zM828 288q-7 -64 -49 -89q38 -27 30 -77l-4 -30q-7 -54 -47.5 -78.5t-97.5 -24.5q-59 0 -93 26t-28 80l4 32q5 52 54 76q-34 24 -25 82q11 109 142 109q55 0 87.5 -26.5t26.5 -79.5zM625 277q-8 -54 41 -54h47q55 0 61 65q4 31 -14 44.5t-51 13.5
q-35 0 -57.5 -17.5t-26.5 -51.5zM756 121q4 26 -9.5 41t-39.5 15h-49q-26 0 -43.5 -15.5t-20.5 -40.5l-3 -26q-4 -29 16 -43.5t56 -14.5q80 0 90 58z" />
    <glyph glyph-name="fiveeighths" unicode="&#x215d;" horiz-adv-x="858" 
d="M617 700h53l-397 -700h-54zM308 411q0 -62 -41 -103.5t-114 -41.5q-54 0 -110 16l15 48q41 -14 82 -14q56 0 86 24t30 66q0 33 -17.5 46.5t-56.5 13.5q-46 0 -89 -5l34 199h194l-6 -49h-146l-17 -98q16 1 41 1q115 0 115 -103zM828 288q-7 -64 -49 -89q38 -27 30 -77
l-4 -30q-7 -54 -47.5 -78.5t-97.5 -24.5q-59 0 -93 26t-28 80l4 32q5 52 54 76q-34 24 -25 82q11 109 142 109q55 0 87.5 -26.5t26.5 -79.5zM625 277q-8 -54 41 -54h47q55 0 61 65q4 31 -14 44.5t-51 13.5q-35 0 -57.5 -17.5t-26.5 -51.5zM756 121q4 26 -9.5 41t-39.5 15
h-49q-26 0 -43.5 -15.5t-20.5 -40.5l-3 -26q-4 -29 16 -43.5t56 -14.5q80 0 90 58z" />
    <glyph glyph-name="seveneighths" unicode="&#x215e;" horiz-adv-x="859" 
d="M618 700h53l-397 -700h-54zM345 614q-62 -46 -111 -119t-60 -155l-9 -63h-53l10 69q12 78 52 147.5t94 118.5h-182l7 48h256zM829 288q-7 -64 -49 -89q38 -27 30 -77l-4 -30q-7 -54 -47.5 -78.5t-97.5 -24.5q-59 0 -93 26t-28 80l4 32q5 52 54 76q-34 24 -25 82
q11 109 142 109q55 0 87.5 -26.5t26.5 -79.5zM626 277q-8 -54 41 -54h47q55 0 61 65q4 31 -14 44.5t-51 13.5q-35 0 -57.5 -17.5t-26.5 -51.5zM757 121q4 26 -9.5 41t-39.5 15h-49q-26 0 -43.5 -15.5t-20.5 -40.5l-3 -26q-4 -29 16 -43.5t56 -14.5q80 0 90 58z" />
    <glyph glyph-name="uni2206" unicode="&#x2206;" horiz-adv-x="578" 
d="M378 660l138 -591l-9 -69h-518l9 69l312 591h68zM332 562l-262 -493h376z" />
    <glyph glyph-name="product" unicode="&#x220f;" horiz-adv-x="638" 
d="M22 -130l117 790h481l-116 -790h-72l109 721h-342l-107 -721h-70z" />
    <glyph glyph-name="summation" unicode="&#x2211;" horiz-adv-x="552" 
d="M566 660l-10 -69h-395l176 -302l-3 -34l-269 -316h392l-8 -69h-459l11 85l263 318l-169 298l12 89h459z" />
    <glyph glyph-name="minus" unicode="&#x2212;" horiz-adv-x="523" 
d="M65 279l8 62h403l-10 -62h-401z" />
    <glyph glyph-name="uni2215" unicode="&#x2215;" horiz-adv-x="209" 
d="M-104 0l398 700h53l-397 -700h-54z" />
    <glyph glyph-name="radical" unicode="&#x221a;" horiz-adv-x="597" 
d="M526 677l61 -17l-287 -660h-73l-66 356l-90 -40l-19 55l160 71l63 -341z" />
    <glyph glyph-name="infinity" unicode="&#x221e;" horiz-adv-x="726" 
d="M543 503q62 0 93.5 -41.5t31.5 -100.5q0 -79 -47 -136t-119 -57q-50 0 -79 33.5t-52 90.5q-27 -38 -46 -60.5t-52 -43t-67 -20.5q-61 0 -92 41t-31 100q0 79 46.5 136.5t118.5 57.5q49 0 79.5 -27t52.5 -74q79 101 163 101zM212 229q47 0 119 105q7 10 11 15l3 5
q-20 44 -40.5 66t-53.5 22q-45 0 -75 -41.5t-30 -92.5q0 -35 17 -57t49 -22zM499 229q45 0 75.5 41.5t30.5 92.5q0 35 -17 57t-49 22q-38 0 -67.5 -25t-65.5 -75q31 -75 49 -94q19 -19 44 -19z" />
    <glyph glyph-name="integral" unicode="&#x222b;" horiz-adv-x="349" 
d="M34 -199q-47 0 -83 12l5 62q32 -8 64 -8q48 0 74.5 30.5t32.5 108.5l38 509q15 204 153 204q46 0 81 -12l-4 -62q-32 8 -62 8q-92 0 -102 -141l-39 -508q-8 -105 -50.5 -154t-107.5 -49z" />
    <glyph glyph-name="approxequal" unicode="&#x2248;" horiz-adv-x="559" 
d="M119 327l-42 35q42 70 71.5 98t67.5 28q37 0 73 -23l69 -48q19 -14 36 -14q15 0 31.5 16.5t24 29.5t23.5 42l45 -29q-31 -59 -60.5 -91.5t-64.5 -32.5q-31 0 -62 22l-70 50q-21 14 -43 14q-19 0 -38 -15.5t-31 -33t-30 -48.5zM101 124l-42 35q41 69 70.5 97.5t67.5 28.5
q39 0 73 -23l69 -48q19 -14 37 -14q20 0 37 21.5t37 58.5q3 5 4 8l46 -29q-66 -124 -125 -124q-32 0 -63 22l-70 50q-20 13 -42 13q-28 0 -50.5 -25t-48.5 -71z" />
    <glyph glyph-name="notequal" unicode="&#x2260;" horiz-adv-x="524" 
d="M482 378h-143l-82 -138h204l-9 -61h-231l-107 -179h-54l107 179h-116l8 61h144l82 138h-205l9 62h232l104 175h55l-104 -175h115z" />
    <glyph glyph-name="lessequal" unicode="&#x2264;" horiz-adv-x="424" 
d="M404 587l-10 -80l-267 -151l221 -151l-11 -77l-299 204l6 49zM-11 0l8 61h330l-8 -61h-330z" />
    <glyph glyph-name="greaterequal" unicode="&#x2265;" horiz-adv-x="426" 
d="M118 587l298 -206l-6 -49l-360 -204l11 80l266 150l-220 151zM32 0l8 61h329l-8 -61h-329z" />
    <glyph glyph-name="lozenge" unicode="&#x25ca;" horiz-adv-x="548" 
d="M368 660l149 -330l-244 -330h-64l-149 330l245 330h63zM249 69l195 261l-116 259l-195 -259z" />
    <glyph glyph-name="Iacute_J.loclNLD" horiz-adv-x="573" 
d="M152 747l136 139h86l-150 -139h-72zM377 747l135 139h86l-150 -139h-71zM46 0l98 660h70l-98 -660h-70zM195 -153l-23 61q70 33 94 55q41 37 50 97l90 600h71l-93 -624q-5 -34 -22 -63t-34.5 -47t-48 -36.5t-44 -24.5z" />
    <glyph glyph-name="iacute_j.loclNLD" horiz-adv-x="413" 
d="M112 587l116 140h86l-132 -140h-70zM310 587l116 140h86l-132 -140h-70zM33 0l74 503h66l-74 -503h-66zM207 -200q-32 0 -72 14l15 51q20 -9 36 -9q57 0 66 64l87 583h66l-87 -591q-18 -112 -111 -112z" />
    <glyph glyph-name="f_i" horiz-adv-x="557" 
d="M517 503l-74 -503h-66l65 442h-254l-67 -442h-65l66 442h-63l9 61h63l2 12q16 112 57.5 158t120.5 46q46 0 85 -12l-16 -56q-35 7 -60 7q-54 0 -81.5 -31.5t-40.5 -113.5l-1 -10h320zM479 694h66l-15 -101h-67z" />
    <glyph glyph-name="f_l" horiz-adv-x="559" 
d="M199 513l-1 -10h143l-8 -61h-145l-65 -442h-66l66 442h-63l9 61h63l2 12q16 112 57.5 158t120.5 46q46 0 85 -12l-16 -56q-35 7 -60 7q-54 0 -82 -32t-40 -113zM481 700h66l-104 -700h-66z" />
    <glyph glyph-name="zero.subs" horiz-adv-x="323" 
d="M108 -154q-59 0 -93.5 36t-25.5 95l22 154q9 58 48 89t94 31q56 0 91.5 -34t26.5 -92l-23 -154q-9 -58 -48 -91.5t-92 -33.5zM110 -106q34 0 57.5 25t29.5 65l20 138q6 37 -14 58.5t-53 21.5q-35 0 -58.5 -23t-29.5 -62l-21 -138q-6 -37 15 -61t54 -24z" />
    <glyph glyph-name="one.subs" horiz-adv-x="323" 
d="M121 -143l48 326l-111 -20l-2 53l142 24h32l-56 -383h-53z" />
    <glyph glyph-name="two.subs" horiz-adv-x="323" 
d="M-19 -143l6 47q9 63 37 96t98 65q46 20 66 37t20 47q0 52 -60 52q-48 0 -99 -22l-12 49q52 23 117 23q107 0 107 -102q0 -54 -30 -83.5t-90 -54.5q-51 -21 -72.5 -40t-25.5 -61l-4 -4h191l-7 -49h-242z" />
    <glyph glyph-name="three.subs" horiz-adv-x="323" 
d="M210 53q31 -25 31 -75q0 -132 -151 -132q-42 0 -113 17l11 48q59 -15 102 -15q47 0 73 21.5t26 58.5q0 22 -12.5 37t-37.5 15h-109l8 49h106q29 0 45.5 20t16.5 49q0 56 -70 56q-35 0 -97 -17l-4 50q65 16 106 16q119 0 119 -94q0 -73 -50 -104z" />
    <glyph glyph-name="four.subs" horiz-adv-x="323" 
d="M266 -25l-7 -48h-56l-11 -70h-52l11 70h-179l5 35l154 288l45 -23l-135 -252h117l14 89l4 28h52l-18 -117h56z" />
    <glyph glyph-name="five.subs" horiz-adv-x="323" 
d="M249 191h-146l-17 -98q16 1 41 1q115 0 115 -103q0 -62 -41 -103.5t-114 -41.5q-54 0 -110 16l15 48q41 -14 82 -14q56 0 86 24t30 66q0 33 -17.5 46.5t-56.5 13.5q-46 0 -89 -5l34 199h194z" />
    <glyph glyph-name="six.subs" horiz-adv-x="323" 
d="M144 105q53 0 84 -27.5t25 -78.5l-5 -36q-15 -117 -139 -117q-64 0 -97 34t-25 92l20 126q10 75 50.5 114.5t104.5 39.5q50 0 102 -21l-16 -46q-41 17 -74 17q-46 0 -76.5 -27t-38.5 -76l-2 -13q50 19 87 19zM201 0q4 31 -16 43.5t-54 12.5q-37 0 -81 -19l-10 -71
q-5 -34 15 -53t56 -19q75 0 85 74z" />
    <glyph glyph-name="seven.subs" horiz-adv-x="323" 
d="M26 240h257l-4 -46q-63 -46 -111.5 -119t-59.5 -155l-9 -63h-54l11 69q12 77 52 147t93 119h-181z" />
    <glyph glyph-name="eight.subs" horiz-adv-x="323" 
d="M270 145q-7 -64 -49 -89q38 -27 30 -77l-4 -30q-7 -54 -47.5 -78.5t-97.5 -24.5q-59 0 -93 26t-28 80l4 32q5 52 54 76q-34 24 -25 82q11 109 142 109q55 0 87.5 -26.5t26.5 -79.5zM67 134q-8 -54 41 -54h47q55 0 61 65q4 31 -14 44.5t-51 13.5q-35 0 -57.5 -17.5
t-26.5 -51.5zM198 -22q4 26 -9.5 41t-39.5 15h-49q-26 0 -43.5 -15.5t-20.5 -40.5l-3 -26q-4 -29 16 -43.5t56 -14.5q80 0 90 58z" />
    <glyph glyph-name="nine.subs" horiz-adv-x="323" 
d="M151 252q64 0 97 -34t25 -92l-19 -126q-11 -75 -51 -114.5t-105 -39.5q-50 0 -102 21l16 46q41 -17 74 -17q47 0 77.5 27t37.5 76l2 13q-50 -19 -87 -19q-53 0 -84 27.5t-25 78.5l5 36q15 117 139 117zM220 132q6 33 -14.5 52.5t-56.5 19.5q-75 0 -85 -74l-5 -32
q-4 -31 16 -43.5t54 -12.5q37 0 81 19z" />
    <glyph glyph-name="zero.sups" horiz-adv-x="323" 
d="M181 306q-58 0 -93 36t-26 95l22 154q9 59 48 89.5t94 30.5q56 0 91.5 -34t26.5 -92l-22 -154q-9 -58 -48.5 -91.5t-92.5 -33.5zM183 355q35 0 58.5 24.5t28.5 64.5l20 138q6 37 -14 58.5t-53 21.5q-35 0 -58 -23t-30 -62l-21 -138q-6 -36 15 -60t54 -24z" />
    <glyph glyph-name="one.sups" horiz-adv-x="323" 
d="M194 317l48 326l-111 -20l-2 53l142 24h32l-56 -383h-53z" />
    <glyph glyph-name="two.sups" horiz-adv-x="323" 
d="M53 317l7 47q8 63 36.5 96t98.5 65q46 20 65.5 37t19.5 47q0 52 -60 52q-48 0 -99 -22l-12 49q54 23 117 23q107 0 107 -102q0 -54 -30 -83.5t-90 -54.5q-51 -21 -72.5 -40t-25.5 -61l-4 -4h192l-8 -49h-242z" />
    <glyph glyph-name="three.sups" horiz-adv-x="323" 
d="M283 513q31 -25 31 -75q0 -132 -151 -132q-42 0 -113 17l11 48q59 -15 102 -15q47 0 73 21.5t26 58.5q0 22 -12.5 37t-37.5 15h-109l8 49h106q29 0 45.5 20t16.5 49q0 56 -70 56q-35 0 -97 -17l-4 50q65 16 106 16q119 0 119 -94q0 -73 -50 -104z" />
    <glyph glyph-name="four.sups" horiz-adv-x="323" 
d="M339 435l-7 -48h-56l-11 -70h-52l11 70h-179l5 35l154 288l45 -23l-135 -252h117l14 89l4 28h52l-18 -117h56z" />
    <glyph glyph-name="five.sups" horiz-adv-x="323" 
d="M322 651h-146l-17 -98q16 1 41 1q115 0 115 -103q0 -62 -41 -103.5t-114 -41.5q-54 0 -110 16l15 48q41 -14 82 -14q56 0 86 24t30 66q0 33 -17.5 46.5t-56.5 13.5q-47 0 -89 -5l34 199h194z" />
    <glyph glyph-name="six.sups" horiz-adv-x="323" 
d="M217 565q53 0 84 -27.5t25 -78.5l-5 -36q-15 -117 -139 -117q-64 0 -97 34t-25 92l20 126q10 75 50.5 114.5t104.5 39.5q49 0 102 -21l-16 -46q-41 17 -74 17q-46 0 -76.5 -27t-38.5 -76l-2 -13q50 19 87 19zM274 460q4 31 -16 43.5t-54 12.5q-37 0 -81 -19l-10 -71
q-5 -33 15 -52t56 -19q33 0 56.5 17.5t28.5 55.5z" />
    <glyph glyph-name="seven.sups" horiz-adv-x="323" 
d="M99 700h256l-4 -46q-62 -46 -111 -119t-60 -155l-9 -63h-53l10 69q12 78 52 147.5t94 118.5h-182z" />
    <glyph glyph-name="eight.sups" horiz-adv-x="323" 
d="M343 605q-7 -64 -49 -89q38 -27 30 -77l-4 -30q-7 -54 -47.5 -78.5t-97.5 -24.5q-59 0 -93 26t-28 80l4 32q5 52 54 76q-34 24 -25 82q11 109 142 109q55 0 87.5 -26.5t26.5 -79.5zM140 594q-8 -54 41 -54h47q55 0 61 65q4 31 -14 44.5t-51 13.5q-35 0 -57.5 -17.5
t-26.5 -51.5zM271 438q4 26 -9.5 41t-39.5 15h-49q-26 0 -43.5 -15.5t-20.5 -40.5l-3 -26q-4 -29 16 -43.5t56 -14.5q80 0 90 58z" />
    <glyph glyph-name="nine.sups" horiz-adv-x="323" 
d="M224 712q64 0 97 -34t25 -92l-19 -126q-11 -75 -51 -114.5t-105 -39.5q-49 0 -102 21l16 46q41 -17 74 -17q47 0 77.5 27t37.5 76l2 13q-50 -19 -87 -19q-53 0 -84 27.5t-25 78.5l5 36q15 117 139 117zM293 592q6 33 -14.5 52.5t-56.5 19.5q-75 0 -85 -74l-5 -32
q-4 -31 16 -43.5t54 -12.5q37 0 81 19z" />
    <glyph glyph-name="zero.dnom" horiz-adv-x="323" 
d="M131 -11q-59 0 -93.5 36t-25.5 95l22 154q9 58 48 89t94 31q56 0 91.5 -34t26.5 -92l-23 -154q-9 -58 -48 -91.5t-92 -33.5zM133 38q35 0 58 24.5t29 64.5l20 138q6 37 -14 58.5t-53 21.5q-35 0 -58.5 -23t-29.5 -62l-21 -138q-6 -36 15 -60t54 -24z" />
    <glyph glyph-name="one.dnom" horiz-adv-x="321" 
d="M143 0l49 326l-112 -20l-1 53l141 24h33l-56 -383h-54z" />
    <glyph glyph-name="two.dnom" horiz-adv-x="323" 
d="M3 0l7 47q8 63 36.5 96t98.5 65q46 20 65.5 37t19.5 47q0 52 -60 52q-48 0 -99 -22l-12 49q54 23 117 23q107 0 107 -102q0 -54 -30 -83.5t-90 -54.5q-51 -21 -72.5 -40t-25.5 -61l-4 -4h192l-8 -49h-242z" />
    <glyph glyph-name="three.dnom" horiz-adv-x="323" 
d="M232 195q31 -24 31 -74q0 -132 -151 -132q-43 0 -112 17l11 48q57 -15 101 -15q47 0 73 21.5t26 58.5q0 22 -12.5 37t-36.5 15h-109l7 49h107q29 0 45.5 20t16.5 49q0 26 -18 41t-53 15q-37 0 -96 -17l-5 50q65 16 107 16q118 0 118 -94q0 -73 -50 -105z" />
    <glyph glyph-name="four.dnom" horiz-adv-x="326" 
d="M289 118l-7 -48h-56l-11 -70h-52l10 70h-178l5 35l154 288l45 -23l-135 -252h117l14 89l4 28h52l-18 -117h56z" />
    <glyph glyph-name="five.dnom" horiz-adv-x="323" 
d="M271 334h-146l-17 -98q16 1 41 1q115 0 115 -103q0 -62 -41 -103.5t-114 -41.5q-54 0 -110 16l15 48q41 -14 82 -14q56 0 86 24t30 66q0 33 -17.5 46.5t-56.5 13.5q-46 0 -89 -5l34 199h194z" />
    <glyph glyph-name="six.dnom" horiz-adv-x="323" 
d="M167 248q52 0 83.5 -28t25.5 -79l-5 -36q-15 -116 -139 -116q-64 0 -97 34t-25 92l20 126q10 75 50.5 114t104.5 39q52 0 102 -20l-16 -46q-41 17 -74 17q-46 0 -76.5 -27.5t-38.5 -75.5l-1 -13q50 19 86 19zM224 142q4 32 -16 44.5t-54 12.5q-35 0 -81 -20l-10 -70
q-5 -34 15 -53t56 -19q75 0 85 74z" />
    <glyph glyph-name="seven.dnom" horiz-adv-x="324" 
d="M49 383h256l-4 -46q-62 -46 -111 -119t-60 -155l-9 -63h-53l10 69q12 78 52 147.5t94 118.5h-182z" />
    <glyph glyph-name="eight.dnom" horiz-adv-x="323" 
d="M293 288q-8 -66 -49 -89q38 -27 30 -77l-4 -30q-7 -54 -47.5 -78.5t-97.5 -24.5q-59 0 -93 26t-28 80l4 32q6 53 54 76q-32 23 -25 82q11 109 142 109q55 0 87.5 -26.5t26.5 -79.5zM90 277q-8 -54 41 -54h47q55 0 61 65q4 31 -14 44.5t-51 13.5q-35 0 -57.5 -17.5
t-26.5 -51.5zM221 121q4 26 -9.5 41t-39.5 15h-49q-26 0 -43.5 -15.5t-20.5 -40.5l-3 -26q-4 -29 16 -43.5t56 -14.5q80 0 90 58z" />
    <glyph glyph-name="nine.dnom" horiz-adv-x="323" 
d="M174 395q64 0 97 -34t25 -92l-19 -126q-11 -75 -51 -114.5t-105 -39.5q-49 0 -102 21l16 46q41 -17 74 -17q47 0 77.5 27t37.5 76l1 12q-47 -18 -86 -18q-53 0 -84 27.5t-25 78.5l5 36q15 117 139 117zM243 275q6 33 -14.5 52.5t-56.5 19.5q-75 0 -85 -74l-5 -32
q-4 -31 16 -43.5t54 -12.5t81 19z" />
    <glyph glyph-name="zero.numr" horiz-adv-x="323" 
d="M175 266q-59 0 -93.5 36t-25.5 95l22 154q9 58 48 89t94 31q56 0 91.5 -34t26.5 -92l-23 -154q-9 -58 -48 -91.5t-92 -33.5zM177 315q35 0 58 24.5t29 64.5l20 138q6 37 -14 58.5t-53 21.5q-35 0 -58.5 -23t-29.5 -62l-21 -138q-6 -36 15 -60t54 -24z" />
    <glyph glyph-name="one.numr" horiz-adv-x="321" 
d="M187 277l49 326l-112 -20l-1 53l141 24h33l-56 -383h-54z" />
    <glyph glyph-name="two.numr" horiz-adv-x="323" 
d="M47 277l6 47q9 63 37 96t98 65q46 20 66 37t20 47q0 52 -60 52q-48 0 -99 -22l-12 49q52 23 117 23q107 0 107 -102q0 -54 -30 -83.5t-90 -54.5q-51 -21 -72.5 -40t-25.5 -61l-4 -4h191l-7 -49h-242z" />
    <glyph glyph-name="three.numr" horiz-adv-x="323" 
d="M276 473q31 -25 31 -75q0 -132 -151 -132q-43 0 -112 17l11 48q57 -15 101 -15q47 0 73 21.5t26 58.5q0 22 -12.5 37t-36.5 15h-109l7 49h107q29 0 45.5 20t16.5 49q0 26 -18 41t-53 15q-36 0 -96 -17l-5 50q65 16 107 16q118 0 118 -94q0 -73 -50 -104z" />
    <glyph glyph-name="four.numr" horiz-adv-x="324" 
d="M333 395l-7 -48h-56l-11 -70h-52l11 70h-179l5 35l154 288l45 -23l-135 -252h117l14 89l4 28h52l-18 -117h56z" />
    <glyph glyph-name="five.numr" horiz-adv-x="323" 
d="M315 611h-146l-17 -98q16 1 41 1q115 0 115 -103q0 -62 -41 -103.5t-114 -41.5q-54 0 -110 16l15 48q41 -14 82 -14q56 0 86 24t30 66q0 33 -17.5 46.5t-56.5 13.5q-46 0 -89 -5l34 199h194z" />
    <glyph glyph-name="six.numr" horiz-adv-x="323" 
d="M211 525q53 0 84 -27.5t25 -78.5l-5 -36q-15 -117 -139 -117q-64 0 -97 34t-25 92l20 126q10 75 50.5 114.5t104.5 39.5q49 0 102 -21l-16 -46q-41 17 -74 17q-46 0 -76.5 -27t-38.5 -76l-2 -13q50 19 87 19zM268 420q4 31 -16 43.5t-54 12.5q-37 0 -81 -19l-10 -71
q-5 -33 15 -52t56 -19q33 0 56.5 17.5t28.5 55.5z" />
    <glyph glyph-name="seven.numr" horiz-adv-x="324" 
d="M92 660h257l-4 -46q-63 -46 -111.5 -119t-59.5 -155l-9 -63h-54l11 69q12 77 52 147t93 119h-181z" />
    <glyph glyph-name="eight.numr" horiz-adv-x="323" 
d="M337 565q-7 -64 -49 -89q38 -27 30 -77l-4 -30q-7 -54 -47.5 -78.5t-97.5 -24.5q-59 0 -93 26t-28 80l4 32q5 52 54 76q-34 24 -25 82q11 109 142 109q55 0 87.5 -26.5t26.5 -79.5zM134 554q-8 -54 41 -54h47q55 0 61 65q4 31 -14 44.5t-51 13.5q-35 0 -57.5 -17.5
t-26.5 -51.5zM265 398q4 26 -9.5 41t-39.5 15h-49q-26 0 -43.5 -15.5t-20.5 -40.5l-3 -26q-4 -29 16 -43.5t56 -14.5q80 0 90 58z" />
    <glyph glyph-name="nine.numr" horiz-adv-x="323" 
d="M218 672q64 0 97 -34t25 -92l-19 -126q-11 -75 -51 -114.5t-105 -39.5q-49 0 -102 21l16 46q41 -17 74 -17q47 0 77.5 27t37.5 76l2 13q-50 -19 -87 -19q-53 0 -84 27.5t-25 78.5l5 36q15 117 139 117zM287 552q6 33 -14.5 52.5t-56.5 19.5q-75 0 -85 -74l-5 -32
q-4 -31 16 -43.5t54 -12.5q37 0 81 19z" />
    <glyph glyph-name="exclamdown.case" horiz-adv-x="198" 
d="M118 598l15 102h68l-15 -102h-68zM30 0l77 522h67l-78 -522h-66z" />
    <glyph glyph-name="questiondown.case" horiz-adv-x="442" 
d="M382 700l-14 -102h-70l14 102h70zM359 522l-13 -86q-7 -52 -38.5 -91.5t-78.5 -62.5l-76 -37q-63 -29 -68 -88l-2 -20q-5 -46 25 -70t95 -24q77 0 177 20l2 -63q-95 -19 -180 -19q-99 0 -147 41t-39 117l3 26q11 93 107 142l76 37q68 35 79 97l11 81h67z" />
    <glyph glyph-name="braceleft.case" horiz-adv-x="338" 
d="M336 769q43 0 86 -12l-3 -56q-36 8 -71 8q-50 0 -76 -29t-38 -110l-14 -98q-9 -68 -27 -103t-57 -54q32 -19 40 -55.5t-2 -99.5l-15 -98q-12 -80 2.5 -107t60.5 -27q34 0 78 11l-5 -60q-41 -11 -85 -11q-37 0 -60.5 8t-41.5 30.5t-19.5 61.5t5.5 102l14 96q11 69 -4 93.5
t-61 26.5l4 62q48 2 72.5 29.5t35.5 99.5l14 96q17 117 55.5 156.5t111.5 39.5z" />
    <glyph glyph-name="braceright.case" horiz-adv-x="338" 
d="M250 471q-11 -69 4 -93.5t62 -26.5l-3 -61q-48 -2 -73 -30t-36 -100l-14 -96q-16 -117 -54.5 -156.5t-112.5 -39.5q-41 0 -87 12l5 57q35 -9 70 -9q50 0 76.5 29t37.5 109l14 100q9 69 27.5 104t57.5 53q-32 19 -41 55.5t2 99.5l14 97q13 80 -2 107.5t-61 27.5
q-32 0 -78 -11l5 60q51 11 86 11q76 0 105 -42t11 -160z" />
    <glyph glyph-name="bracketleft.case" horiz-adv-x="287" 
d="M24 -113l128 863h206l-9 -61h-140l-110 -741h139l-8 -61h-206z" />
    <glyph glyph-name="bracketright.case" horiz-adv-x="287" 
d="M-49 -113l8 61h140l110 741h-139l9 61h205l-128 -863h-205z" />
    <glyph glyph-name="parenleft.case" horiz-adv-x="260" 
d="M114 -100q-57 128 -57 277t46.5 294.5t131.5 263.5l50 -36q-75 -109 -118.5 -249t-43.5 -273t46 -251z" />
    <glyph glyph-name="parenright.case" horiz-adv-x="258" 
d="M46 -103l-50 35q76 113 118 249.5t42 273.5q0 135 -44 250l55 27q57 -133 57 -280q0 -151 -46.5 -294.5t-131.5 -260.5z" />
    <glyph glyph-name="emdash.case" horiz-adv-x="640" 
d="M70 262l8 62h505l-8 -62h-505z" />
    <glyph glyph-name="endash.case" horiz-adv-x="499" 
d="M70 262l8 62h365l-9 -62h-364z" />
    <glyph glyph-name="hyphen.case" horiz-adv-x="407" 
d="M72 291l8 61h260l-8 -61h-260z" />
    <glyph glyph-name="guillemotleft.case" horiz-adv-x="612" 
d="M307 526l-12 -90l-189 -142l146 -141l-12 -83l-210 202l7 44zM582 526l-12 -90l-189 -142l146 -141l-12 -83l-210 202l7 44z" />
    <glyph glyph-name="guillemotright.case" horiz-adv-x="609" 
d="M108 526l210 -210l-6 -44l-270 -202l12 89l190 143l-147 142zM384 526l209 -210l-6 -44l-269 -202l12 89l189 143l-147 142z" />
    <glyph glyph-name="guilsinglleft.case" horiz-adv-x="336" 
d="M306 526l-12 -90l-189 -142l146 -141l-12 -83l-210 202l7 44z" />
    <glyph glyph-name="guilsinglright.case" horiz-adv-x="334" 
d="M108 526l210 -210l-6 -44l-270 -202l12 89l190 143l-147 142z" />
    <glyph glyph-name="uni030C.calt" 
d="M142 515l51 185h63l-58 -185h-56z" />
    <glyph glyph-name="acutecomb.case" 
d="M-146 587l136 139h86l-150 -139h-72z" />
    <glyph glyph-name="uni0306.case" 
d="M-130 581q-54 0 -87.5 38t-23.5 96h56q-4 -40 12.5 -61.5t46.5 -21.5q31 0 54 22.5t28 60.5h57q-9 -63 -50 -98.5t-93 -35.5z" />
    <glyph glyph-name="uni030C.case" 
d="M0 710h65l-126 -123h-70l-92 123h64l68 -78z" />
    <glyph glyph-name="uni0327.case" 
d="M-201 -70q39 -2 63 -23.5t24 -58.5q0 -59 -54 -82.5t-137 -11.5l9 52q51 -10 89 0t38 41q0 19 -26 28.5t-73 6.5l29 130h57z" />
    <glyph glyph-name="uni0302.case" 
d="M41 587h-63l-69 77l-93 -77h-63l126 123h70z" />
    <glyph glyph-name="uni0308.case" 
d="M-216 598l11 79h67l-11 -79h-67zM-79 598l12 79h68l-12 -79h-68z" />
    <glyph glyph-name="uni0307.case" 
d="M-79 595l12 86h74l-13 -86h-73z" />
    <glyph glyph-name="gravecomb.case" 
d="M-47 592l-111 138h83l96 -138h-68z" />
    <glyph glyph-name="uni030B.case" 
d="M-267 587l78 108h82l-94 -108h-66zM-122 587l78 108h82l-93 -108h-67z" />
    <glyph glyph-name="uni0304.case" 
d="M-298 623l8 56h293l-8 -56h-293z" />
    <glyph glyph-name="uni0328.case" 
d="M-236 -227q-38 0 -62 23.5t-24 60.5q0 34 25 68.5t51.5 55t69.5 48.5l41 -29q-124 -65 -124 -126q0 -20 11 -30.5t30 -10.5q22 0 42 10l5 -56q-31 -14 -65 -14z" />
    <glyph glyph-name="uni030A.case" 
d="M-112 461q-44 0 -70 28.5t-26 71.5q0 49 32.5 86.5t82.5 37.5q44 0 70 -29t26 -72q0 -49 -32.5 -86t-82.5 -37zM-108 514q28 0 45 19t17 46q0 23 -13.5 38t-37.5 15q-28 0 -45.5 -19.5t-17.5 -45.5q0 -23 14 -38t38 -15z" />
    <glyph glyph-name="tildecomb.case" 
d="M-247 594l-46 21q44 94 100 94q30 0 66.5 -27.5t46.5 -27.5q26 0 49 53l47 -20q-16 -40 -41.5 -66.5t-53.5 -26.5q-27 0 -61 28.5t-50 28.5q-29 0 -57 -57z" />
    <glyph glyph-name="__periodcentered" horiz-adv-x="85" 
d="M-15 274l21 137h67l-21 -137h-67z" />
    <glyph glyph-name="__caroncomb.calt" horiz-adv-x="47" 
d="M181 515l51 185h63l-58 -185h-56z" />
    <glyph glyph-name="uni0338.case" 
d="M-500 -86l386 853h56l-385 -853h-57z" />
    <glyph glyph-name="uni0337.case" 
d="M-382 201l11 77l370 258l-10 -76z" />
    <glyph glyph-name="uni0336.case" 
d="M-635 480l7 65h657l-7 -65h-657z" />
    <glyph glyph-name="uni0335.case" 
d="M-493 278l7 68h366l-8 -68h-365z" />
    <glyph glyph-name="caron.001" horiz-adv-x="298" 
d="M296 721h59l-120 -134h-63l-82 134h59l60 -83z" />
    </font>
</defs>
</svg>
