<svg width="318" height="206" viewBox="0 0 318 206" fill="none" xmlns="http://www.w3.org/2000/svg">
<path d="M0.174805 40.9238H317.824V190.595C317.824 198.879 311.108 205.595 302.824 205.595H15.1748C6.89053 205.595 0.174805 198.879 0.174805 190.595V40.9238Z" fill="white"/>
<path d="M296.106 0H21.8944C19.0184 -2.84812e-07 16.1705 0.566638 13.5135 1.66754C10.8565 2.76845 8.44249 4.38205 6.40928 6.41617C4.37607 8.45029 2.76354 10.8651 1.66382 13.5225C0.564093 16.18 -0.00127778 19.0281 2.16839e-06 21.9042V40.6026H318V21.9042C318.001 19.0281 317.436 16.18 316.336 13.5225C315.236 10.8651 313.624 8.45029 311.591 6.41617C309.558 4.38205 307.143 2.76845 304.486 1.66754C301.829 0.566638 298.982 -2.84812e-07 296.106 0Z" fill="#C5CFD5"/>
<path d="M285.397 10.0264H26.7764V23.0734H285.397V10.0264Z" fill="white"/>
<path d="M285.397 27.2832H26.7764V31.2879H285.397V27.2832Z" fill="white"/>
<path d="M171.443 53.5918H122.042V63.4526H171.443V53.5918Z" fill="#D5DAD7"/>
<path d="M248.303 68.3145H122.042V76.5383H248.303V68.3145Z" fill="#D5DAD7"/>
<path d="M193.367 85.0645H122.042V94.9252H193.367V85.0645Z" fill="#D5DAD7"/>
<path d="M237.029 99.7871H122.042V108.011H237.029V99.7871Z" fill="#D5DAD7"/>
<path d="M221.712 116.537H122.042V126.398H221.712V116.537Z" fill="#D5DAD7"/>
<path d="M170.868 131.26H122.042V139.484H170.868V131.26Z" fill="#D5DAD7"/>
<path d="M171.443 148.009H122.042V157.87H171.443V148.009Z" fill="#D5DAD7"/>
<path d="M248.303 162.732H122.042V170.956H248.303V162.732Z" fill="#D5DAD7"/>
<path d="M107.718 50.2305H14.9766V177.826H107.718V50.2305Z" fill="#DEE6DA"/>
<path d="M49.6152 139.513L50.5896 184.441L62.5356 193.932L75.2026 183.681L74.8323 140.604C74.8323 140.604 69.9311 127.05 49.6152 139.513Z" fill="white"/>
<path d="M63.3548 162.684H60.4219L57.3623 151.312H66.4143L63.3548 162.684Z" fill="#E08663"/>
<path d="M71.1403 194.77H52.6367L60.4805 161.943H63.2965L71.1403 194.77Z" fill="#E08663"/>
<path d="M44.9392 104.581C44.9392 109.453 41.3924 113.409 37.0174 113.409C32.6424 113.409 29.0859 109.453 29.0859 104.581C29.0859 99.7091 32.6327 95.8115 37.0174 95.8115C41.4022 95.8115 44.9392 99.7091 44.9392 104.581Z" fill="#F8BBA3"/>
<path d="M95.4118 104.581C95.4118 109.453 91.8651 113.409 87.4901 113.409C83.1151 113.409 79.5586 109.453 79.5586 104.581C79.5586 99.7091 83.1054 95.8115 87.4901 95.8115C91.8748 95.8115 95.4118 99.7091 95.4118 104.581Z" fill="#F8BBA3"/>
<path d="M74.813 120.961H49.6836V151.147H74.813V120.961Z" fill="#FBD4C5"/>
<path d="M49.6836 134.515C53.6519 136.224 57.9274 137.106 62.2483 137.106C66.5692 137.106 70.8447 136.224 74.813 134.515V120.961H49.6836V134.515Z" fill="#F8BBA3"/>
<path d="M78.175 63.5889H47.2773C40.9973 63.5889 35.9062 68.6799 35.9062 74.9599V119.976C35.9062 126.257 40.9973 131.348 47.2773 131.348H78.175C84.4551 131.348 89.5461 126.257 89.5461 119.976V74.9599C89.5461 68.6799 84.4551 63.5889 78.175 63.5889Z" fill="#FBD4C5"/>
<path d="M43.0481 71.822C43.0481 71.822 67.7584 94.1647 78.9249 90.7738C90.0913 87.383 89.76 100.596 89.76 100.596C89.76 100.596 97.2043 84.6839 95.1776 78.9253C93.4822 74.1313 93.4822 67.4178 81.6337 64.3778C69.7852 61.3377 38.6341 46.4296 43.0481 71.822Z" fill="#595350"/>
<path d="M37.6702 65.5572C37.6702 65.5572 27.4587 66.6388 29.1736 76.3826C30.8885 86.1265 35.6338 101.356 35.6338 101.356C35.6338 101.356 50.2495 80.3679 47.5213 73.4887C44.793 66.6096 43.1073 64.1054 37.6702 65.5572Z" fill="#595350"/>
<path d="M57.1475 91.9727C57.1475 91.9727 61.045 92.6547 60.5481 99.2221C60.0511 105.789 58.0536 112.357 60.7722 112.581C61.4834 112.708 62.2153 112.65 62.8978 112.413C63.5803 112.175 64.1904 111.767 64.6697 111.226C64.6697 111.226 64.4456 116.206 59.9147 114.617C55.3838 113.029 57.8782 104.874 58.7844 101.034C59.6906 97.1954 57.1475 91.9727 57.1475 91.9727Z" fill="#F8BBA3"/>
<path d="M49.6448 139.513L62.3703 151.624L49.333 159.38L49.6448 139.513Z" fill="#E0E0E0"/>
<path d="M74.8524 139.513L62.127 151.624L75.1642 159.38L74.8524 139.513Z" fill="#E0E0E0"/>
<path d="M49.5183 138.742C49.5183 139.473 62.7505 195.753 62.7505 195.753H8.79883V152.666L49.5183 138.742Z" fill="#45454F"/>
<path d="M74.9889 138.742C74.9889 139.473 61.7471 195.753 61.7471 195.753H115.699V152.666L74.9889 138.742Z" fill="#45454F"/>
<g opacity="0.43">
<path opacity="0.43" d="M219.587 64.8262V147.775H290.405V64.8262H219.587ZM256.614 131.464C251.481 131.466 246.463 129.946 242.194 127.095C237.925 124.245 234.598 120.193 232.633 115.451C230.668 110.709 230.153 105.491 231.154 100.457C232.155 95.4224 234.626 90.798 238.256 87.1686C241.885 83.5391 246.51 81.0676 251.544 80.0667C256.578 79.0658 261.796 79.5805 266.538 81.5456C271.28 83.5108 275.332 86.8381 278.183 91.1067C281.033 95.3753 282.554 100.393 282.552 105.526C282.552 108.934 281.88 112.309 280.575 115.457C279.271 118.605 277.358 121.465 274.948 123.874C272.537 126.283 269.675 128.193 266.526 129.495C263.377 130.798 260.002 131.467 256.594 131.464H256.614Z" fill="#A4B7C5"/>
<path opacity="0.43" d="M256.799 125.238C267.804 125.238 276.725 116.317 276.725 105.312C276.725 94.307 267.804 85.3857 256.799 85.3857C245.794 85.3857 236.873 94.307 236.873 105.312C236.873 116.317 245.794 125.238 256.799 125.238Z" fill="#A4B7C5"/>
</g>
<path d="M126.661 177.124H123.007V190.239H126.661V177.124Z" fill="#A6A5A5"/>
<path d="M139.649 177.124H128.443V190.239H139.649V177.124Z" fill="#A6A5A5"/>
<path d="M141.626 177.124H140.545V190.239H141.626V177.124Z" fill="#A6A5A5"/>
<path d="M148.886 177.124H147.805V190.239H148.886V177.124Z" fill="#A6A5A5"/>
<path d="M156.145 177.124H155.063V190.239H156.145V177.124Z" fill="#A6A5A5"/>
<path d="M161.094 177.124H160.013V190.239H161.094V177.124Z" fill="#A6A5A5"/>
<path d="M166.044 177.124H164.963V190.239H166.044V177.124Z" fill="#A6A5A5"/>
<path d="M173.304 177.124H172.223V190.239H173.304V177.124Z" fill="#A6A5A5"/>
<path d="M178.253 177.124H177.172V190.239H178.253V177.124Z" fill="#A6A5A5"/>
<path d="M183.213 177.124H182.132V190.239H183.213V177.124Z" fill="#A6A5A5"/>
<path d="M188.164 177.124H187.082V190.239H188.164V177.124Z" fill="#A6A5A5"/>
<path d="M195.422 177.124H194.341V190.239H195.422V177.124Z" fill="#A6A5A5"/>
<path d="M207.709 177.124H201.59V190.239H207.709V177.124Z" fill="#A6A5A5"/>
<path d="M218.866 177.124H216.353V190.239H218.866V177.124Z" fill="#A6A5A5"/>
</svg>
