<svg xmlns="http://www.w3.org/2000/svg" width="158.367" height="42.894"><g fill-rule="evenodd" clip-rule="evenodd" fill="#FFF"><path d="M137.417 33.799h4.153l-6.617-18.273h-3.461l-7.309 18.273h4.292l1.163-3.212h6.589l1.19 3.212zm-4.264-12.542l1.744 5.454h-3.821l2.077-5.454zM124.315 15.526h-4.319v11.352c0 2.326-1.052 3.793-3.322 3.793-2.243 0-3.295-1.467-3.295-3.793V15.526h-4.319v11.352c0 4.568 2.575 7.337 7.614 7.337 5.094 0 7.641-2.769 7.641-7.337V15.526zM106.9 15.526h-4.319v11.079c0 2.934-1.301 3.599-3.544 4.817l1.717 3.295c1.938-.803 6.146-2.935 6.146-6.838V15.526zM89.912 15.526v10.576l-7.503-10.576h-3.156v18.273h4.097V23.167l7.614 10.632h3.046V15.526zM74.194 33.799h4.153L71.73 15.526h-3.461L60.96 33.799h4.291l1.163-3.212h6.589l1.191 3.212zm-4.263-12.542l1.744 5.454h-3.821l2.077-5.454zM54.59 14.917c-4.43 0-6.783 1.91-6.783 5.343s2.326 4.762 5.565 6.036c1.994.748 3.572 1.357 3.572 2.686 0 1.301-1.329 1.551-2.824 1.551-1.689 0-3.489-.36-5.427-1.052l-.941 3.655c2.16.831 4.458 1.274 6.534 1.274 4.568 0 6.949-2.104 6.949-5.676 0-2.824-1.495-4.347-5.205-5.814-3.184-1.246-3.876-1.522-3.876-2.519 0-1.218 1.024-1.772 2.685-1.772 1.357 0 3.184.36 4.569.914l.997-3.655c-1.607-.611-3.877-.971-5.815-.971zM153.353 15.526v10.576l-7.503-10.576h-3.157v18.273h4.098V23.167l7.613 10.632h3.046V15.526zM50.777 7.34v1.228h1.319v1.633a7.448 7.448 0 01-1.116.101c-.964 0-1.765-.487-1.765-1.857V7.28c0-1.41.801-1.847 1.877-1.847.721 0 1.37.162 1.837.325l.315-1.106c-.589-.233-1.329-.355-2.111-.355-2.11 0-3.186 1.005-3.186 2.892v1.35c0 1.827 1.207 2.882 2.973 2.882.812 0 1.776-.152 2.445-.487V7.34h-2.588zm6.269 4.08c1.553 0 2.821-.954 2.821-2.557v-2.04c0-1.613-1.268-2.527-2.821-2.527-1.522 0-2.811.913-2.811 2.527v2.039c0 1.604 1.269 2.558 2.811 2.558zm0-1.188c-.812 0-1.542-.517-1.542-1.461V6.904c0-.934.741-1.421 1.542-1.421.883 0 1.553.487 1.553 1.421v1.867c-.001.944-.66 1.461-1.553 1.461zm8.105-2.628c.315-.254.609-.69.609-1.38 0-1.076-.883-1.715-2.07-1.715h-2.902v6.697h2.993c1.177 0 2.303-.609 2.303-1.968 0-.852-.476-1.38-.933-1.634zM63.69 5.737c.518 0 .832.335.832.731 0 .406-.325.7-.741.7h-1.725V5.737h1.634zm.091 4.242h-1.725V8.264h1.847c.568 0 .933.365.933.842 0 .497-.344.873-1.055.873zM68.01 4.51h-1.268v6.697h1.268V4.51zm2.271 5.469V8.396h2.912V7.249h-2.912V5.737h3.216V4.51h-4.485v6.697h4.576V9.979h-3.307zm8.278 1.228h1.471l-1.684-2.618c.883-.315 1.329-1.096 1.329-1.979 0-1.147-.69-2.1-2.253-2.1H74.5v6.697h1.268V8.792h1.268l1.523 2.415zm-2.791-5.47h1.654c.71 0 .994.447.994.873 0 .497-.284.944-.994.944h-1.654V5.737zm8.887-1.227V8.7l-3.176-4.19h-.872v6.697h1.228V6.996l3.196 4.211h.852V4.51h-1.228zm4.949 6.91c1.553 0 2.821-.954 2.821-2.557v-2.04c0-1.613-1.268-2.527-2.821-2.527-1.522 0-2.811.913-2.811 2.527v2.039c0 1.604 1.269 2.558 2.811 2.558zm0-1.188c-.812 0-1.542-.517-1.542-1.461V6.904c0-.934.741-1.421 1.542-1.421.883 0 1.553.487 1.553 1.421v1.867c0 .944-.66 1.461-1.553 1.461zm9.049-5.722h-2.648v6.697h2.689c1.441 0 2.709-.944 2.709-2.496V6.986c0-1.573-1.33-2.476-2.75-2.476zm1.481 4.028c0 .893-.66 1.441-1.441 1.441h-1.421V5.737h1.421c.781 0 1.441.558 1.441 1.512v1.289zm3.458 1.441V8.396h2.912V7.249h-2.912V5.737h3.216V4.51h-4.485v6.697h4.576V9.979h-3.307zM32.76 4.225c3.474 2.524 1.54 11.173-2.429 13.783.408-3.883.886-10.555-3.774-14.19 2.047.364 4.529-.81 6.203.407zM40.434 14.786c1.327 4.085-5.321 9.944-10.066 9.723 2.612-2.902 6.92-8.018 5.287-13.699 1.441 1.499 4.139 2.008 4.779 3.976zM40.434 27.841c-1.327 4.084-10.15 4.917-13.859 1.949 3.819-.812 10.312-2.419 12.329-7.974.286 2.059 2.17 4.057 1.53 6.025zM32.761 38.403c-3.474 2.524-11.102-1.988-12.358-6.569 3.567 1.588 9.764 4.104 14.662.795-.979 1.834-.63 4.557-2.304 5.774zM20.345 42.437c-4.295 0-7.813-8.134-6.137-12.578 1.952 3.381 5.487 9.059 11.394 9.262-1.87.908-3.188 3.316-5.257 3.316zM7.929 38.403c-3.474-2.524-1.54-11.173 2.429-13.783-.408 3.883-.886 10.555 3.774 14.19-2.047-.364-4.529.81-6.203-.407zM.255 27.841c-1.327-4.084 5.321-9.944 10.067-9.723-2.612 2.902-6.921 8.018-5.287 13.699-1.442-1.498-4.14-2.007-4.78-3.976zM.255 14.786c1.327-4.084 10.15-4.917 13.859-1.949-3.819.812-10.312 2.419-12.329 7.975-.286-2.059-2.17-4.057-1.53-6.026zM7.928 4.225C11.403 1.7 19.03 6.213 20.286 10.794 16.72 9.206 10.522 6.69 5.624 9.998c.979-1.833.63-4.557 2.304-5.773zM20.344.19c4.295 0 7.813 8.134 6.137 12.578-1.952-3.381-5.487-9.059-11.394-9.262C16.957 2.599 18.274.19 20.344.19z"/></g></svg>