<svg width="103" height="142" viewBox="0 0 103 142" fill="none" xmlns="http://www.w3.org/2000/svg">
<path d="M36.2397 32.8544H26.7319C26.7319 32.7739 26.7319 32.701 26.7319 32.6243C26.7319 30.8831 26.7319 29.1418 26.7319 27.3968C26.7175 26.7841 26.8743 26.1796 27.1846 25.6511C27.4949 25.1226 27.9464 24.6912 28.4885 24.4052C28.556 24.3522 28.6402 24.325 28.726 24.3285C28.8118 24.332 28.8935 24.366 28.9564 24.4244C29.6969 24.9759 30.5964 25.2721 31.5197 25.2687C32.443 25.2652 33.3402 24.9622 34.0765 24.4052C34.1266 24.3559 34.1922 24.3255 34.2621 24.3192C34.3321 24.3129 34.4021 24.3311 34.4601 24.3707C35.0056 24.6413 35.4639 25.06 35.7827 25.5789C36.1015 26.0977 36.2678 26.6958 36.2627 27.3047C36.2818 29.0728 36.2627 30.8409 36.2627 32.609L36.2397 32.8544Z" fill="#E06506"/>
<path d="M34.4792 20.9572C34.4762 21.551 34.2972 22.1306 33.9648 22.6226C33.6325 23.1147 33.1618 23.4972 32.6121 23.7218C32.0624 23.9464 31.4585 24.003 30.8767 23.8845C30.2949 23.7659 29.7612 23.4776 29.3433 23.0559C28.9253 22.6341 28.6417 22.0979 28.5284 21.5151C28.415 20.9322 28.477 20.3288 28.7065 19.7812C28.936 19.2336 29.3227 18.7662 29.8177 18.4383C30.3128 18.1104 30.8939 17.9366 31.4877 17.9389C32.2838 17.9449 33.0453 18.2658 33.6058 18.8313C34.1662 19.3968 34.4802 20.161 34.4792 20.9572V20.9572Z" fill="#E06506"/>
<path d="M28.0782 18.2802C27.9659 17.558 27.6893 16.8712 27.2697 16.2728C26.8502 15.6743 26.2988 15.1802 25.6581 14.8284C25.8437 14.4021 26.1267 14.0252 26.4844 13.7281C26.8421 13.431 27.2645 13.222 27.7177 13.1179C28.168 13.0135 28.6363 13.0141 29.0863 13.1196C29.5363 13.2251 29.9561 13.4327 30.3131 13.7263C30.6701 14.0199 30.9548 14.3917 31.1452 14.8129C31.3356 15.2341 31.4266 15.6934 31.4111 16.1554V16.1823C31.3881 16.608 31.3881 16.608 30.9777 16.6617C29.9002 16.7918 28.9106 17.3214 28.2048 18.1459C28.1651 18.193 28.1228 18.2378 28.0782 18.2802V18.2802Z" fill="#E06506"/>
<path d="M20.1622 32.8544H10.6429V32.6013C10.6429 30.8255 10.6429 29.0498 10.6429 27.274C10.6387 26.6644 10.8081 26.0662 11.1314 25.5493C11.4547 25.0324 11.9185 24.6183 12.4685 24.3554C12.5192 24.322 12.5795 24.3066 12.64 24.3115C12.7004 24.3163 12.7575 24.3412 12.8022 24.3822C13.5472 24.9502 14.4581 25.2578 15.3949 25.2578C16.3317 25.2578 17.2425 24.9502 17.9875 24.3822C18.0344 24.3369 18.0955 24.3091 18.1604 24.3035C18.2254 24.2979 18.2903 24.3149 18.3442 24.3515C18.895 24.6231 19.3578 25.0448 19.6795 25.568C20.0011 26.0911 20.1684 26.6945 20.1622 27.3085C20.1928 29.1073 20.1622 30.9099 20.1622 32.7125C20.1775 32.7585 20.1698 32.793 20.1622 32.8544Z" fill="#E06506"/>
<path d="M19.092 23.2661C19.4036 22.9268 19.7895 22.6642 20.2196 22.499C20.2701 22.4938 20.3211 22.4993 20.3694 22.5151C20.4176 22.531 20.462 22.5569 20.4995 22.5911C21.1265 23.0983 21.8746 23.434 22.6703 23.5652C23.3086 23.6791 23.9639 23.6544 24.5919 23.493C25.2199 23.3315 25.8058 23.037 26.31 22.6294C26.3809 22.5537 26.4772 22.5068 26.5805 22.4976C26.6838 22.4884 26.7868 22.5176 26.87 22.5796L27.8211 23.2009C27.7798 23.2442 27.7349 23.284 27.6869 23.3198C26.9591 23.7391 26.3598 24.3496 25.9542 25.0852C25.5486 25.8207 25.352 26.6533 25.3857 27.4926C25.3857 29.1648 25.3857 30.8408 25.3857 32.5168V32.8313H21.4814V32.5245C21.4814 30.7296 21.5044 28.9347 21.4814 27.1551C21.4672 26.3938 21.2585 25.6489 20.8752 24.991C20.4919 24.3331 19.9467 23.7842 19.2914 23.3965L19.092 23.2661Z" fill="#E06506"/>
<path d="M20.0777 18.9551C20.0815 18.2907 20.282 17.6423 20.6539 17.0917C21.0258 16.5411 21.5524 16.1129 22.1673 15.8613C22.7823 15.6096 23.458 15.5458 24.1092 15.6777C24.7604 15.8096 25.3579 16.1315 25.8264 16.6027C26.2949 17.0738 26.6133 17.6732 26.7416 18.3251C26.8698 18.977 26.8021 19.6524 26.5469 20.2659C26.2918 20.8794 25.8607 21.4035 25.308 21.7723C24.7553 22.141 24.1057 22.3378 23.4413 22.3378C22.998 22.3379 22.559 22.2502 22.1497 22.08C21.7403 21.9098 21.3687 21.6603 21.0561 21.3459C20.7435 21.0315 20.4961 20.6585 20.3282 20.2482C20.1603 19.8379 20.0752 19.3984 20.0777 18.9551V18.9551Z" fill="#E06506"/>
<path d="M12.4071 20.9342C12.4117 20.3404 12.5921 19.7614 12.9257 19.2701C13.2593 18.7789 13.731 18.3976 14.2813 18.1744C14.8315 17.9513 15.4355 17.8962 16.0171 18.0162C16.5986 18.1362 17.1315 18.426 17.5484 18.8488C17.9653 19.2716 18.2475 19.8085 18.3593 20.3916C18.4712 20.9748 18.4077 21.578 18.1768 22.125C17.9459 22.6721 17.558 23.1384 17.0621 23.465C16.5663 23.7917 15.9847 23.964 15.391 23.9603C14.5948 23.9522 13.8342 23.6294 13.2751 23.0625C12.7161 22.4955 12.404 21.7304 12.4071 20.9342Z" fill="#E06506"/>
<path d="M21.1595 14.8706C20.5358 15.2257 20.0003 15.7171 19.5932 16.3082C19.1861 16.8993 18.9178 17.5747 18.8084 18.284C18.4172 17.7922 17.9244 17.3907 17.3638 17.1067C16.8032 16.8228 16.1879 16.6631 15.5599 16.6387C15.1457 15.5801 16.0508 13.954 17.328 13.4093C18.0323 13.1162 18.8222 13.1043 19.535 13.3762C20.2478 13.648 20.8292 14.1829 21.1595 14.8706V14.8706Z" fill="#E06506"/>
<path d="M55.4815 55.6425V54.4382C55.4815 51.37 55.4815 48.2877 55.4815 45.1913C55.4815 42.8211 56.8622 41.6628 59.1711 42.0694C62.1013 42.5871 64.9662 40.5352 65.3076 37.701C65.6911 34.5752 63.7159 32.0937 60.5787 31.7984C60.0034 31.7447 59.4281 31.7562 58.8374 31.7447C56.8661 31.7102 55.6388 30.5059 55.6349 28.5384C55.6349 24.946 55.6349 21.3498 55.6349 17.7497C55.6349 15.7285 56.7855 14.5587 58.8221 14.5587C71.5272 14.5587 84.2335 14.5587 96.9412 14.5587C98.9854 14.5587 100.105 15.6671 100.217 17.7037C100.217 17.976 100.217 18.2483 100.217 18.5244C100.217 44.5201 100.217 70.5146 100.217 96.5077C100.217 99.411 99.1657 100.462 96.2585 100.462H18.2906C15.4524 100.462 14.3862 99.3957 14.3862 96.5576C14.3862 84.1925 14.3862 71.8288 14.3862 59.4663C14.3862 56.8468 15.5138 55.7192 18.1372 55.7154C21.4624 55.7154 24.7876 55.8113 28.109 55.6809C30.1762 55.6003 31.8445 57.4413 31.6413 59.2937C31.4265 61.2574 31.9404 63.0293 33.5589 64.3333C34.389 64.973 35.3907 65.3511 36.4364 65.4194C37.4822 65.4877 38.5246 65.2432 39.4308 64.7168C40.3439 64.2073 41.0759 63.4262 41.5254 62.482C41.9748 61.5378 42.1194 60.4772 41.9391 59.4471C41.4903 56.9504 42.5642 55.6617 45.1147 55.654C48.1599 55.654 51.209 55.654 54.2581 55.654L55.4815 55.6425ZM59.1366 59.1403C59.1366 62.4617 59.1366 65.6105 59.1366 68.7593C59.1366 70.7651 58.266 71.8659 56.3406 72.3683C53.5332 73.097 51.8879 75.1834 51.8994 77.9947C51.9109 80.806 53.5716 82.877 56.3867 83.5942C58.2391 84.066 59.1289 85.1935 59.1366 87.1304C59.1366 89.9378 59.1366 92.7453 59.1366 95.5681V96.6496H96.6689V59.1403H95.5183C92.776 59.1403 90.0376 59.1403 87.2992 59.1403C86.8905 59.1508 86.4817 59.1187 86.0796 59.0444C84.3844 58.6877 83.8053 57.4259 83.4141 55.9033C82.7851 53.4487 80.6143 51.9108 77.9833 51.9031C76.7777 51.8648 75.5925 52.2203 74.6071 52.9158C73.6217 53.6113 72.8896 54.6089 72.5218 55.7576C71.6128 58.7299 71.0529 59.1442 67.9501 59.1442H59.1289L59.1366 59.1403ZM96.6497 55.4508V17.9645H59.1941V28.036C65.5684 28.8989 68.6443 31.6143 68.8629 36.5273C68.9895 38.5713 68.3511 40.5892 67.0718 42.1883C66.1765 43.3978 64.9808 44.3525 63.6031 44.9579C62.2255 45.5633 60.7136 45.7984 59.2171 45.64V55.4814H68.9396C70.4737 50.9519 73.542 48.4053 77.5422 48.3017C79.5727 48.2081 81.579 48.7746 83.2606 49.9164C85.1494 51.2279 86.4727 53.2047 86.9656 55.4508H96.6497ZM55.6119 96.6726V87.0613C50.7603 85.2626 48.3632 82.248 48.367 77.9717C48.3709 73.6953 50.7526 70.6846 55.5736 68.905V59.2017H45.6747C45.0227 65.4494 42.1078 68.7056 37.0567 68.8743C32.0708 69.0431 29.1867 65.9326 28.1051 59.2132H18.0988V96.6726H55.6119Z" fill="url(#paint0_linear_956_2200)"/>
<path d="M31.3268 44.5969C29.8655 49.9664 25.7963 51.884 22.2179 51.8648C18.2676 51.8418 14.4783 49.4755 13.2395 44.7197H6.47401C5.41163 44.7197 4.34925 44.7542 3.28687 44.7465C1.33853 44.7465 0.0843864 43.5077 9.68352e-06 41.5632C9.68352e-06 41.3599 9.68352e-06 41.1528 9.68352e-06 40.9496V3.74709C-0.00382562 1.15059 1.13142 0 3.73943 0H41.0378C43.5844 0 44.735 1.15059 44.7388 3.69724C44.7388 6.5392 44.7388 9.385 44.7388 12.227C44.7388 12.8406 44.8309 13.1704 45.5366 13.3775C47.4046 13.9318 49.0415 15.0787 50.2004 16.6451C51.3593 18.2114 51.9771 20.1123 51.9607 22.0607C51.9607 26.2028 49.487 29.7313 45.6018 30.8819C44.8808 31.1043 44.7312 31.4112 44.735 32.0862C44.7695 35.1007 44.7542 38.1153 44.735 41.1298C44.735 43.3812 43.5844 44.5624 41.3408 44.5816C38.0386 44.6084 34.7172 44.5969 31.3268 44.5969ZM41.0915 41.0991C41.0915 37.9197 41.0915 34.8783 41.0915 31.833C41.0915 29.3784 41.8125 28.4196 44.1329 27.7868C46.8176 27.0543 48.3977 24.8873 48.3249 22.0799C48.252 19.2724 46.599 17.2781 43.9104 16.6567C41.9506 16.2003 41.0991 15.1226 41.0915 13.0976C41.0915 10.2901 41.0915 7.48268 41.0915 4.6599C41.0915 4.29938 41.0608 3.93886 41.0416 3.57451H3.57451V41.0876H12.7792C15.207 41.0876 16.1121 41.7742 16.7334 44.0792C17.0593 45.2946 17.7759 46.369 18.7728 47.1368C19.7697 47.9046 20.9915 48.3232 22.2498 48.328C23.5081 48.3328 24.733 47.9236 25.7357 47.1634C26.7384 46.4032 27.4632 45.3342 27.7983 44.1214C28.4465 41.7511 29.3324 41.0876 31.8292 41.0876L41.0915 41.0991Z" fill="url(#paint1_linear_956_2200)"/>
<path d="M1.95855 114.262V132.462H5.36455V126.248H9.68055C11.6306 126.248 13.1126 125.702 14.1006 124.61C15.0886 123.518 15.5826 122.088 15.5826 120.268C15.5826 119.098 15.3746 118.058 14.9586 117.174C14.5426 116.29 13.8926 115.588 13.0086 115.068C12.0986 114.548 10.9806 114.262 9.68055 114.262H1.95855ZM5.36455 123.414V117.122H9.68055C10.5126 117.122 11.1626 117.408 11.5786 117.954C11.9946 118.526 12.2026 119.28 12.2026 120.268C12.2026 121.256 11.9946 122.036 11.5786 122.582C11.1626 123.154 10.5126 123.414 9.68055 123.414H5.36455ZM18.1832 114.262V132.462H21.5892V125.806H24.6052L28.7652 132.462H32.5612L28.0372 125.338C29.2852 125.026 30.2212 124.376 30.8452 123.44C31.4692 122.504 31.8072 121.386 31.8072 120.034C31.8072 118.318 31.3132 116.914 30.3252 115.848C29.3372 114.808 27.8552 114.262 25.9052 114.262H18.1832ZM21.5892 122.946V117.122H25.9052C26.7372 117.122 27.3872 117.382 27.8032 117.902C28.2192 118.422 28.4272 119.124 28.4272 120.034C28.4272 120.97 28.2192 121.672 27.8032 122.192C27.3872 122.712 26.7372 122.946 25.9052 122.946H21.5892ZM34.8811 129.108V132.566H38.1571V129.108H34.8811ZM41.1363 114.262V132.462H44.5423V114.262H41.1363ZM47.6018 129.108V132.566H50.8778V129.108H47.6018ZM52.921 131.604C55.365 132.462 57.471 132.878 59.239 132.878C59.655 132.878 59.993 132.878 60.279 132.852C60.565 132.852 60.929 132.826 61.345 132.774C61.761 132.722 62.151 132.644 62.463 132.54C62.775 132.436 63.113 132.306 63.477 132.15C63.841 131.994 64.127 131.76 64.387 131.474C64.647 131.214 64.881 130.876 65.089 130.512C65.297 130.148 65.479 129.706 65.583 129.186C65.687 128.666 65.765 128.068 65.765 127.418C65.765 126.898 65.687 126.43 65.557 125.962C65.427 125.52 65.271 125.13 65.115 124.792C64.933 124.48 64.673 124.168 64.335 123.856C63.971 123.544 63.685 123.31 63.425 123.128C63.165 122.972 62.775 122.764 62.281 122.556C61.787 122.348 61.397 122.166 61.137 122.062C60.851 121.958 60.435 121.828 59.889 121.62C59.447 121.49 59.109 121.386 58.875 121.282C58.641 121.204 58.355 121.074 58.043 120.918C57.731 120.762 57.471 120.58 57.315 120.424C57.159 120.268 57.003 120.086 56.873 119.826C56.743 119.566 56.691 119.28 56.691 118.968C56.691 117.486 57.679 116.732 59.681 116.732C60.877 116.732 62.229 117.2 63.685 118.084L65.271 115.588C64.387 114.964 63.425 114.522 62.437 114.262C61.423 114.002 60.513 113.872 59.681 113.872C58.485 113.872 57.445 114.028 56.587 114.288C55.703 114.574 55.053 114.964 54.585 115.458C54.117 115.978 53.805 116.498 53.597 117.07C53.389 117.642 53.311 118.292 53.311 118.968C53.311 119.618 53.415 120.216 53.649 120.736C53.883 121.282 54.169 121.724 54.507 122.062C54.819 122.4 55.261 122.738 55.807 123.05C56.353 123.362 56.847 123.622 57.263 123.778C57.679 123.934 58.225 124.116 58.875 124.324C59.395 124.532 59.837 124.688 60.175 124.844C60.513 125 60.877 125.182 61.267 125.416C61.631 125.676 61.917 125.962 62.099 126.3C62.281 126.638 62.385 127.002 62.385 127.418C62.385 127.99 62.281 128.432 62.125 128.796C61.943 129.16 61.683 129.446 61.371 129.602C61.033 129.758 60.695 129.888 60.383 129.94C60.071 129.992 59.681 130.018 59.239 130.018C58.485 130.018 57.731 129.94 56.951 129.784C56.171 129.628 55.105 129.316 53.753 128.874L52.921 131.604ZM67.9143 129.108V132.566H71.1903V129.108H67.9143ZM74.1695 114.262V132.462H86.4675V129.602H77.5755V124.506H85.4535V121.646H77.5755V117.122H86.2335V114.262H74.1695ZM88.0338 114.262V117.122H93.0778V132.462H96.4578V117.122H101.45V114.262H88.0338Z" fill="#9E1425"/>
<defs>
<linearGradient id="paint0_linear_956_2200" x1="16.4392" y1="17.8382" x2="97.9365" y2="98.3161" gradientUnits="userSpaceOnUse">
<stop stop-color="#BF2051"/>
<stop offset="0.286458" stop-color="#770A2B"/>
<stop offset="0.541667" stop-color="#680F02"/>
<stop offset="0.786458" stop-color="#A53709"/>
<stop offset="1" stop-color="#E06506"/>
</linearGradient>
<linearGradient id="paint1_linear_956_2200" x1="1.24285" y1="1.98003" x2="50.4492" y2="50.7023" gradientUnits="userSpaceOnUse">
<stop stop-color="#F29200"/>
<stop offset="0.494792" stop-color="#E8462F"/>
<stop offset="1" stop-color="#770A2B"/>
</linearGradient>
</defs>
</svg>
