<svg width="295" height="374" viewBox="0 0 295 374" fill="none" xmlns="http://www.w3.org/2000/svg">
<path d="M107.49 85.663H82.7001C82.7001 85.453 82.7001 85.263 82.7001 85.063C82.7001 80.523 82.7001 75.983 82.7001 71.433C82.6625 69.8355 83.0712 68.2593 83.8803 66.8813C84.6894 65.5034 85.8668 64.3785 87.2801 63.633C87.4561 63.4947 87.6757 63.4238 87.8994 63.4329C88.123 63.4421 88.336 63.5308 88.5001 63.683C90.4309 65.1208 92.7761 65.8933 95.1835 65.8843C97.5908 65.8753 99.9302 65.0853 101.85 63.633C101.981 63.5044 102.152 63.4251 102.334 63.4087C102.516 63.3923 102.699 63.4398 102.85 63.543C104.272 64.2486 105.468 65.3402 106.299 66.6931C107.13 68.0459 107.564 69.6053 107.55 71.193C107.6 75.803 107.55 80.413 107.55 85.023L107.49 85.663Z" fill="white"/>
<path d="M102.9 54.643C102.892 56.1912 102.426 57.7023 101.559 58.9853C100.693 60.2683 99.4651 61.2656 98.032 61.8512C96.5988 62.4368 95.0242 62.5844 93.5071 62.2753C91.9901 61.9663 90.5988 61.2144 89.5089 60.1148C88.4191 59.0152 87.6797 57.6172 87.3842 56.0974C87.0887 54.5777 87.2503 53.0045 87.8487 51.5766C88.4471 50.1487 89.4554 48.9303 90.7461 48.0753C92.0368 47.2203 93.5519 46.7671 95.1001 46.773C97.1761 46.7889 99.1614 47.6253 100.623 49.0998C102.084 50.5743 102.903 52.567 102.9 54.643Z" fill="white"/>
<path d="M86.2101 47.6629C85.9173 45.7799 85.1961 43.9892 84.1021 42.4289C83.0082 40.8685 81.5706 39.5801 79.9001 38.6629C80.384 37.5513 81.1219 36.5687 82.0546 35.7941C82.9872 35.0195 84.0886 34.4745 85.2702 34.2029C86.4443 33.9308 87.6652 33.9324 88.8386 34.2075C90.012 34.4826 91.1064 35.0238 92.0372 35.7894C92.9681 36.5549 93.7104 37.5243 94.2068 38.6225C94.7032 39.7207 94.9405 40.9184 94.9002 42.1229V42.1929C94.8402 43.3029 94.8402 43.3029 93.7702 43.4429C90.9606 43.7821 88.3805 45.1631 86.5401 47.3129C86.4366 47.4355 86.3264 47.5523 86.2101 47.6629Z" fill="white"/>
<path d="M65.5702 85.6628H40.7502V85.0028C40.7502 80.3728 40.7502 75.7428 40.7502 71.1128C40.7391 69.5233 41.1809 67.9635 42.0238 66.6158C42.8668 65.2682 44.0761 64.1884 45.5102 63.5028C45.6423 63.416 45.7996 63.3757 45.9572 63.3884C46.1148 63.4011 46.2637 63.466 46.3802 63.5729C48.3226 65.0537 50.6976 65.8558 53.1402 65.8558C55.5828 65.8558 57.9577 65.0537 59.9002 63.5729C60.0224 63.4547 60.1816 63.3823 60.351 63.3677C60.5204 63.3531 60.6896 63.3973 60.8302 63.4929C62.2663 64.2011 63.4731 65.3005 64.3117 66.6645C65.1503 68.0286 65.5865 69.6017 65.5702 71.2028C65.6502 75.8928 65.5702 80.5928 65.5702 85.2928C65.6102 85.4128 65.5902 85.5028 65.5702 85.6628Z" fill="white"/>
<path d="M62.7803 60.663C63.5927 59.7783 64.599 59.0938 65.7203 58.663C65.852 58.6493 65.9851 58.6636 66.1109 58.705C66.2367 58.7463 66.3524 58.8138 66.4503 58.903C68.0851 60.2256 70.0355 61.1008 72.1103 61.443C73.7746 61.7398 75.4832 61.6756 77.1205 61.2546C78.7578 60.8336 80.2855 60.0658 81.6003 59.003C81.7851 58.8057 82.0362 58.6833 82.3055 58.6594C82.5748 58.6354 82.8435 58.7114 83.0603 58.873L85.5403 60.493C85.4325 60.606 85.3154 60.7097 85.1903 60.803C83.2925 61.8963 81.7302 63.4881 80.6725 65.406C79.6149 67.3238 79.1023 69.4946 79.1903 71.683C79.1903 76.043 79.1903 80.413 79.1903 84.783V85.603H69.0103V84.803C69.0103 80.123 69.0703 75.443 69.0103 70.803C68.9732 68.8181 68.4291 66.8757 67.4297 65.1604C66.4303 63.4452 65.0087 62.014 63.3003 61.003L62.7803 60.663Z" fill="white"/>
<path d="M65.3502 49.4229C65.3601 47.6905 65.8829 45.9999 66.8525 44.5642C67.8221 43.1286 69.1953 42.0123 70.7986 41.3562C72.402 40.7001 74.1637 40.5335 75.8616 40.8775C77.5595 41.2216 79.1175 42.0607 80.339 43.2892C81.5605 44.5177 82.3909 46.0804 82.7252 47.7802C83.0596 49.4801 82.883 51.2409 82.2178 52.8405C81.5526 54.4401 80.4285 55.8068 78.9874 56.7683C77.5462 57.7298 75.8527 58.2429 74.1202 58.2429C72.9643 58.2429 71.8198 58.0144 70.7525 57.5706C69.6852 57.1267 68.7162 56.4762 67.9012 55.6566C67.0861 54.8369 66.4412 53.8642 66.0034 52.7944C65.5656 51.7246 65.3437 50.5788 65.3502 49.4229Z" fill="white"/>
<path d="M45.3502 54.5828C45.3621 53.0347 45.8326 51.5248 46.7024 50.2441C47.5722 48.9633 48.8021 47.9691 50.2368 47.3872C51.6714 46.8052 53.2464 46.6617 54.7626 46.9746C56.2789 47.2876 57.6683 48.043 58.7553 49.1453C59.8423 50.2477 60.5781 51.6476 60.8698 53.1681C61.1614 54.6886 60.9957 56.2614 60.3937 57.6877C59.7917 59.114 58.7803 60.3299 57.4875 61.1816C56.1946 62.0333 54.6783 62.4827 53.1302 62.4728C51.0542 62.4517 49.071 61.6102 47.6134 60.132C46.1557 58.6537 45.3421 56.6588 45.3502 54.5828Z" fill="white"/>
<path d="M68.1702 38.7728C66.544 39.6986 65.1479 40.98 64.0865 42.5211C63.025 44.0622 62.3255 45.8233 62.0402 47.6728C61.02 46.3905 59.7353 45.3435 58.2735 44.6031C56.8118 43.8628 55.2075 43.4465 53.5702 43.3828C52.4902 40.6228 54.8502 36.3828 58.1802 34.9628C60.0166 34.1984 62.0762 34.1675 63.9347 34.8763C65.7932 35.5851 67.3092 36.9797 68.1702 38.7728Z" fill="white"/>
<path d="M157.66 145.08V141.94C157.66 133.94 157.66 125.903 157.66 117.83C157.66 111.65 161.26 108.63 167.28 109.69C174.92 111.04 182.39 105.69 183.28 98.3C184.28 90.15 179.13 83.68 170.95 82.91C169.45 82.77 167.95 82.8 166.41 82.77C161.27 82.68 158.07 79.54 158.06 74.41C158.06 65.0433 158.06 55.6666 158.06 46.28C158.06 41.01 161.06 37.96 166.37 37.96C199.497 37.96 232.627 37.96 265.76 37.96C271.09 37.96 274.01 40.85 274.3 46.16C274.3 46.87 274.3 47.58 274.3 48.3C274.3 116.08 274.3 183.857 274.3 251.63C274.3 259.2 271.56 261.94 263.98 261.94H60.69C53.29 261.94 50.51 259.16 50.51 251.76C50.51 219.52 50.51 187.283 50.51 155.05C50.51 148.22 53.45 145.28 60.29 145.27C68.96 145.27 77.63 145.52 86.29 145.18C91.68 144.97 96.03 149.77 95.5 154.6C94.94 159.72 96.28 164.34 100.5 167.74C102.664 169.408 105.276 170.394 108.003 170.572C110.729 170.75 113.447 170.112 115.81 168.74C118.191 167.411 120.1 165.375 121.271 162.913C122.443 160.451 122.82 157.686 122.35 155C121.18 148.49 123.98 145.13 130.63 145.11C138.57 145.11 146.52 145.11 154.47 145.11L157.66 145.08ZM167.19 154.2C167.19 162.86 167.19 171.07 167.19 179.28C167.19 184.51 164.92 187.38 159.9 188.69C152.58 190.59 148.29 196.03 148.32 203.36C148.35 210.69 152.68 216.09 160.02 217.96C164.85 219.19 167.17 222.13 167.19 227.18C167.19 234.5 167.19 241.82 167.19 249.18V252H265.05V154.2H262.05C254.9 154.2 247.76 154.2 240.62 154.2C239.554 154.227 238.488 154.144 237.44 153.95C233.02 153.02 231.51 149.73 230.49 145.76C228.85 139.36 223.19 135.35 216.33 135.33C213.187 135.23 210.097 136.157 207.527 137.97C204.958 139.784 203.049 142.385 202.09 145.38C199.72 153.13 198.26 154.21 190.17 154.21H167.17L167.19 154.2ZM265 144.58V46.84H167.34V73.1C183.96 75.35 191.98 82.43 192.55 95.24C192.88 100.569 191.215 105.831 187.88 110C185.546 113.154 182.428 115.643 178.836 117.221C175.244 118.8 171.302 119.413 167.4 119V144.66H192.75C196.75 132.85 204.75 126.21 215.18 125.94C220.474 125.696 225.705 127.173 230.09 130.15C235.015 133.57 238.465 138.724 239.75 144.58H265ZM158 252.06V227C145.35 222.31 139.1 214.45 139.11 203.3C139.12 192.15 145.33 184.3 157.9 179.66V154.36H132.09C130.39 170.65 122.79 179.14 109.62 179.58C96.62 180.02 89.1 171.91 86.28 154.39H60.19V252.06H158Z" fill="white"/>
<path d="M94.68 116.28C90.87 130.28 80.26 135.28 70.93 135.23C60.63 135.17 50.75 129 47.52 116.6H29.88C27.11 116.6 24.34 116.69 21.57 116.67C16.49 116.67 13.22 113.44 13 108.37C13 107.84 13 107.3 13 106.77V9.77C12.99 3 15.95 0 22.75 0H120C126.64 0 129.64 3 129.65 9.64C129.65 17.05 129.65 24.47 129.65 31.88C129.65 33.48 129.89 34.34 131.73 34.88C136.6 36.3251 140.869 39.3155 143.89 43.3996C146.912 47.4837 148.523 52.4398 148.48 57.52C148.48 68.32 142.03 77.52 131.9 80.52C130.02 81.1 129.63 81.9 129.64 83.66C129.73 91.52 129.69 99.38 129.64 107.24C129.64 113.11 126.64 116.19 120.79 116.24C112.18 116.31 103.52 116.28 94.68 116.28ZM120.14 107.16C120.14 98.87 120.14 90.94 120.14 83C120.14 76.6 122.02 74.1 128.07 72.45C135.07 70.54 139.19 64.89 139 57.57C138.81 50.25 134.5 45.05 127.49 43.43C122.38 42.24 120.16 39.43 120.14 34.15C120.14 26.83 120.14 19.51 120.14 12.15C120.14 11.21 120.06 10.27 120.01 9.32H22.32V107.13H46.32C52.65 107.13 55.01 108.92 56.63 114.93C57.4797 118.099 59.3482 120.9 61.9474 122.902C64.5466 124.904 67.7322 125.996 71.013 126.008C74.2938 126.021 77.4876 124.954 80.102 122.972C82.7164 120.989 84.6062 118.202 85.48 115.04C87.17 108.86 89.48 107.13 95.99 107.13L120.14 107.16Z" fill="white"/>
<path d="M5.03371 295.209V347.8H14.8757V329.844H27.3473C32.9821 329.844 37.2645 328.266 40.1194 325.111C42.9744 321.955 44.4018 317.823 44.4018 312.564C44.4018 309.183 43.8008 306.178 42.5987 303.624C41.3966 301.069 39.5184 299.041 36.964 297.538C34.3344 296.035 31.1038 295.209 27.3473 295.209H5.03371ZM14.8757 321.655V303.473H27.3473C29.7515 303.473 31.6297 304.3 32.8318 305.878C34.0339 307.53 34.6349 309.709 34.6349 312.564C34.6349 315.419 34.0339 317.673 32.8318 319.251C31.6297 320.904 29.7515 321.655 27.3473 321.655H14.8757ZM51.9166 295.209V347.8H61.7586V328.567H70.4737L82.4945 347.8H93.4635L80.3909 327.214C83.9971 326.313 86.7018 324.435 88.5049 321.73C90.308 319.025 91.2847 315.795 91.2847 311.888C91.2847 306.929 89.8572 302.872 87.0023 299.792C84.1474 296.787 79.8649 295.209 74.2302 295.209H51.9166ZM61.7586 320.302V303.473H74.2302C76.6344 303.473 78.5126 304.225 79.7147 305.727C80.9168 307.23 81.5178 309.258 81.5178 311.888C81.5178 314.593 80.9168 316.621 79.7147 318.124C78.5126 319.626 76.6344 320.302 74.2302 320.302H61.7586ZM100.167 338.108V348.101H109.633V338.108H100.167ZM118.242 295.209V347.8H128.084V295.209H118.242ZM136.925 338.108V348.101H146.391V338.108H136.925ZM152.296 345.321C159.358 347.8 165.443 349.002 170.552 349.002C171.754 349.002 172.731 349.002 173.557 348.927C174.384 348.927 175.436 348.852 176.638 348.702C177.84 348.551 178.967 348.326 179.868 348.025C180.77 347.725 181.747 347.349 182.798 346.898C183.85 346.448 184.677 345.772 185.428 344.945C186.179 344.194 186.855 343.217 187.456 342.165C188.057 341.113 188.583 339.836 188.884 338.334C189.184 336.831 189.41 335.103 189.41 333.225C189.41 331.722 189.184 330.37 188.809 329.018C188.433 327.74 187.982 326.613 187.532 325.637C187.006 324.735 186.254 323.834 185.278 322.932C184.226 322.03 183.399 321.354 182.648 320.828C181.897 320.378 180.77 319.777 179.342 319.176C177.915 318.574 176.788 318.049 176.037 317.748C175.21 317.448 174.008 317.072 172.43 316.471C171.153 316.095 170.176 315.795 169.5 315.494C168.824 315.269 167.998 314.893 167.096 314.442C166.195 313.992 165.443 313.466 164.993 313.015C164.542 312.564 164.091 312.038 163.715 311.287C163.34 310.536 163.189 309.709 163.189 308.808C163.189 304.525 166.044 302.346 171.829 302.346C175.285 302.346 179.192 303.699 183.399 306.253L187.982 299.041C185.428 297.238 182.648 295.96 179.793 295.209C176.863 294.458 174.234 294.082 171.829 294.082C168.373 294.082 165.368 294.533 162.889 295.284C160.334 296.111 158.456 297.238 157.104 298.665C155.752 300.168 154.85 301.67 154.249 303.323C153.648 304.976 153.423 306.854 153.423 308.808C153.423 310.686 153.723 312.414 154.399 313.916C155.075 315.494 155.902 316.771 156.878 317.748C157.78 318.725 159.057 319.701 160.635 320.603C162.213 321.505 163.64 322.256 164.842 322.707C166.044 323.157 167.622 323.683 169.5 324.284C171.003 324.885 172.28 325.336 173.257 325.787C174.234 326.238 175.285 326.764 176.412 327.44C177.464 328.191 178.291 329.018 178.816 329.994C179.342 330.971 179.643 332.023 179.643 333.225C179.643 334.878 179.342 336.155 178.892 337.207C178.366 338.259 177.614 339.085 176.713 339.536C175.736 339.987 174.759 340.362 173.858 340.512C172.956 340.663 171.829 340.738 170.552 340.738C168.373 340.738 166.195 340.512 163.941 340.062C161.687 339.611 158.606 338.709 154.7 337.432L152.296 345.321ZM195.62 338.108V348.101H205.087V338.108H195.62ZM213.696 295.209V347.8H249.232V339.536H223.538V324.81H246.302V316.546H223.538V303.473H248.556V295.209H213.696ZM253.758 295.209V303.473H268.333V347.8H278.1V303.473H292.525V295.209H253.758Z" fill="white"/>
</svg>
