<svg width="251" height="66" viewBox="0 0 251 66" fill="none" xmlns="http://www.w3.org/2000/svg">
<path d="M8.274 3.2L5.488 8.478L2.716 3.2H1.092L0.742 13H2.548L2.772 7.064L4.872 11.012H6.132L8.218 7.064L8.428 13H10.248L9.898 3.2H8.274ZM11.9439 3.2V13H13.7779V3.2H11.9439ZM21.1793 3.2V9.444L17.0913 3.2H15.5093V13H17.3293V6.728L21.4593 13H22.9993V3.2H21.1793ZM24.7407 3.2V13H26.5747V3.2H24.7407ZM27.9281 12.538C29.2441 13 30.3781 13.224 31.3301 13.224C31.5541 13.224 31.7361 13.224 31.8901 13.21C32.0441 13.21 32.2401 13.196 32.4641 13.168C32.6881 13.14 32.8981 13.098 33.0661 13.042C33.2341 12.986 33.4161 12.916 33.6121 12.832C33.8081 12.748 33.9621 12.622 34.1021 12.468C34.2421 12.328 34.3681 12.146 34.4801 11.95C34.5921 11.754 34.6901 11.516 34.7461 11.236C34.8021 10.956 34.8441 10.634 34.8441 10.284C34.8441 10.004 34.8021 9.752 34.7321 9.5C34.6621 9.262 34.5781 9.052 34.4941 8.87C34.3961 8.702 34.2561 8.534 34.0741 8.366C33.8781 8.198 33.7241 8.072 33.5841 7.974C33.4441 7.89 33.2341 7.778 32.9681 7.666C32.7021 7.554 32.4921 7.456 32.3521 7.4C32.1981 7.344 31.9741 7.274 31.6801 7.162C31.4421 7.092 31.2601 7.036 31.1341 6.98C31.0081 6.938 30.8541 6.868 30.6861 6.784C30.5181 6.7 30.3781 6.602 30.2941 6.518C30.2101 6.434 30.1261 6.336 30.0561 6.196C29.9861 6.056 29.9581 5.902 29.9581 5.734C29.9581 4.936 30.4901 4.53 31.5681 4.53C32.2121 4.53 32.9401 4.782 33.7241 5.258L34.5781 3.914C34.1021 3.578 33.5841 3.34 33.0521 3.2C32.5061 3.06 32.0161 2.99 31.5681 2.99C30.9241 2.99 30.3641 3.074 29.9021 3.214C29.4261 3.368 29.0761 3.578 28.8241 3.844C28.5721 4.124 28.4041 4.404 28.2921 4.712C28.1801 5.02 28.1381 5.37 28.1381 5.734C28.1381 6.084 28.1941 6.406 28.3201 6.686C28.4461 6.98 28.6001 7.218 28.7821 7.4C28.9501 7.582 29.1881 7.764 29.4821 7.932C29.7761 8.1 30.0421 8.24 30.2661 8.324C30.4901 8.408 30.7841 8.506 31.1341 8.618C31.4141 8.73 31.6521 8.814 31.8341 8.898C32.0161 8.982 32.2121 9.08 32.4221 9.206C32.6181 9.346 32.7721 9.5 32.8701 9.682C32.9681 9.864 33.0241 10.06 33.0241 10.284C33.0241 10.592 32.9681 10.83 32.8841 11.026C32.7861 11.222 32.6461 11.376 32.4781 11.46C32.2961 11.544 32.1141 11.614 31.9461 11.642C31.7781 11.67 31.5681 11.684 31.3301 11.684C30.9241 11.684 30.5181 11.642 30.0981 11.558C29.6781 11.474 29.1041 11.306 28.3761 11.068L27.9281 12.538ZM35.6514 3.2V4.74H38.3674V13H40.1874V4.74H42.8754V3.2H35.6514ZM44.1821 3.2V13H50.8041V11.46H46.0161V8.716H50.2581V7.176H46.0161V4.74H50.6781V3.2H44.1821ZM52.2075 3.2V13H54.0415V9.416H55.6655L57.9055 13H59.9495L57.5135 9.164C58.1855 8.996 58.6895 8.646 59.0255 8.142C59.3615 7.638 59.5435 7.036 59.5435 6.308C59.5435 5.384 59.2775 4.628 58.7455 4.054C58.2135 3.494 57.4155 3.2 56.3655 3.2H52.2075ZM54.0415 7.876V4.74H56.3655C56.8135 4.74 57.1635 4.88 57.3875 5.16C57.6115 5.44 57.7235 5.818 57.7235 6.308C57.7235 6.812 57.6115 7.19 57.3875 7.47C57.1635 7.75 56.8135 7.876 56.3655 7.876H54.0415ZM61.4087 3.2V13H63.2427V3.2H61.4087ZM64.7641 9.794C64.7641 10.466 64.9321 11.068 65.2961 11.6C65.6601 12.132 66.1221 12.524 66.6961 12.804C67.2701 13.084 67.9001 13.21 68.5861 13.21C69.2581 13.21 69.8881 13.084 70.4761 12.804C71.0501 12.524 71.5121 12.132 71.8761 11.6C72.2401 11.068 72.4221 10.466 72.4221 9.794V6.35C72.4221 5.846 72.3101 5.384 72.1001 4.95C71.8901 4.53 71.6101 4.166 71.2601 3.886C70.8961 3.606 70.4901 3.382 70.0281 3.228C69.5661 3.074 69.0901 2.99 68.5861 2.99C67.9141 2.99 67.2841 3.13 66.7101 3.396C66.1361 3.662 65.6741 4.054 65.3101 4.572C64.9461 5.09 64.7641 5.678 64.7641 6.35V9.794ZM70.6021 9.794C70.6021 10.382 70.4061 10.83 70.0141 11.166C69.6221 11.502 69.1461 11.67 68.5861 11.67C68.0261 11.67 67.5501 11.502 67.1581 11.166C66.7661 10.83 66.5841 10.382 66.5841 9.794V6.35C66.5841 5.79 66.7661 5.342 67.1581 5.02C67.5361 4.698 68.0121 4.53 68.5861 4.53C69.1461 4.53 69.6221 4.698 70.0141 5.02C70.4061 5.342 70.6021 5.79 70.6021 6.35V9.794ZM78.1431 3.2V13H81.7551C82.4271 13 83.0571 12.874 83.6451 12.594C84.2191 12.314 84.6811 11.922 85.0451 11.39C85.3951 10.872 85.5771 10.27 85.5771 9.598V6.56C85.5771 5.888 85.3951 5.3 85.0311 4.782C84.6671 4.264 84.2051 3.872 83.6311 3.606C83.0431 3.34 82.4271 3.2 81.7551 3.2H78.1431ZM83.7571 9.598C83.7571 10.186 83.5611 10.634 83.1691 10.97C82.7771 11.306 82.3151 11.46 81.7551 11.46H79.9631V4.74H81.7551C82.1191 4.74 82.4411 4.81 82.7491 4.95C83.0431 5.09 83.2811 5.286 83.4771 5.566C83.6591 5.846 83.7571 6.182 83.7571 6.56V9.598ZM87.1118 3.2V13H93.7338V11.46H88.9458V8.716H93.1878V7.176H88.9458V4.74H93.6078V3.2H87.1118Z" fill="#9E1425"/>
<path d="M9.975 45.7L6.821 50.944L3.667 45.7H0.399L5.377 53.946V59H8.265V53.927L13.243 45.7H9.975ZM20.4545 45.7V59H23.3615V54.592H26.1925C27.6555 54.592 28.7575 54.193 29.4985 53.376C30.2395 52.578 30.6195 51.495 30.6195 50.165C30.6195 48.835 30.2395 47.752 29.4985 46.935C28.7575 46.118 27.6555 45.7 26.1925 45.7H20.4545ZM23.3615 52.179V48.132H26.1925C26.6865 48.132 27.0665 48.322 27.3325 48.664C27.5985 49.025 27.7315 49.519 27.7315 50.165C27.7315 50.811 27.5985 51.305 27.3325 51.647C27.0665 52.008 26.6865 52.179 26.1925 52.179H23.3615ZM32.2739 45.7V59H35.1809V54.288H36.9289L39.8739 59H43.1229L39.8549 53.87C40.7099 53.585 41.3559 53.11 41.7929 52.426C42.2109 51.742 42.4389 50.944 42.4389 49.994C42.4389 48.721 42.0589 47.695 41.3179 46.897C40.5769 46.099 39.4749 45.7 38.0119 45.7H32.2739ZM35.1809 51.856V48.132H38.0119C38.5059 48.132 38.8859 48.303 39.1519 48.626C39.4179 48.949 39.5509 49.405 39.5509 49.994C39.5509 50.393 39.4939 50.735 39.3799 51.001C39.2659 51.267 39.0949 51.476 38.8669 51.628C38.6389 51.78 38.3539 51.856 38.0119 51.856H35.1809ZM44.3242 54.592C44.3242 55.504 44.5712 56.34 45.0652 57.062C45.5592 57.784 46.2052 58.335 47.0032 58.715C47.8012 59.095 48.6562 59.285 49.5872 59.285C50.5372 59.285 51.4112 59.095 52.2092 58.715C53.0072 58.335 53.6532 57.784 54.1472 57.062C54.6412 56.34 54.8882 55.504 54.8882 54.592V50.051C54.8882 49.367 54.7362 48.721 54.4512 48.132C54.1472 47.543 53.7672 47.049 53.2922 46.65C52.7982 46.27 52.2472 45.966 51.6012 45.738C50.9552 45.529 50.2902 45.415 49.5872 45.415C48.9032 45.415 48.2382 45.529 47.6112 45.738C46.9652 45.966 46.4142 46.27 45.9202 46.65C45.4262 47.049 45.0462 47.543 44.7612 48.132C44.4572 48.721 44.3242 49.367 44.3242 50.051V54.592ZM52.0002 54.592C52.0002 55.295 51.7532 55.846 51.2972 56.245C50.8412 56.663 50.2712 56.853 49.5872 56.853C49.3212 56.853 49.0742 56.834 48.8462 56.758C48.5992 56.701 48.3712 56.606 48.1812 56.473C47.9912 56.359 47.8202 56.207 47.6682 56.017C47.5162 55.846 47.3832 55.637 47.3072 55.39C47.2312 55.143 47.1932 54.877 47.1932 54.592V50.051C47.1932 49.709 47.2502 49.386 47.3832 49.101C47.4972 48.835 47.6872 48.607 47.9152 48.417C48.1432 48.227 48.3902 48.094 48.6752 47.999C48.9602 47.904 49.2642 47.847 49.5872 47.847C50.2712 47.847 50.8412 48.056 51.2972 48.436C51.7532 48.816 52.0002 49.367 52.0002 50.051V54.592ZM66.4583 45.7L62.9623 52.331L59.4663 45.7H56.9393L56.4453 59H59.3333L59.5803 51.875L61.9933 56.378H63.9503L66.3443 51.894L66.5913 59H69.4793L69.0043 45.7H66.4583ZM71.0244 54.592C71.0244 55.504 71.2714 56.34 71.7654 57.062C72.2594 57.784 72.9054 58.335 73.7034 58.715C74.5014 59.095 75.3564 59.285 76.2874 59.285C77.2374 59.285 78.1114 59.095 78.9094 58.715C79.7074 58.335 80.3534 57.784 80.8474 57.062C81.3414 56.34 81.5884 55.504 81.5884 54.592V50.051C81.5884 49.367 81.4364 48.721 81.1514 48.132C80.8474 47.543 80.4674 47.049 79.9924 46.65C79.4984 46.27 78.9474 45.966 78.3014 45.738C77.6554 45.529 76.9904 45.415 76.2874 45.415C75.6034 45.415 74.9384 45.529 74.3114 45.738C73.6654 45.966 73.1144 46.27 72.6204 46.65C72.1264 47.049 71.7464 47.543 71.4614 48.132C71.1574 48.721 71.0244 49.367 71.0244 50.051V54.592ZM78.7004 54.592C78.7004 55.295 78.4534 55.846 77.9974 56.245C77.5414 56.663 76.9714 56.853 76.2874 56.853C76.0214 56.853 75.7744 56.834 75.5464 56.758C75.2994 56.701 75.0714 56.606 74.8814 56.473C74.6914 56.359 74.5204 56.207 74.3684 56.017C74.2164 55.846 74.0834 55.637 74.0074 55.39C73.9314 55.143 73.8934 54.877 73.8934 54.592V50.051C73.8934 49.709 73.9504 49.386 74.0834 49.101C74.1974 48.835 74.3874 48.607 74.6154 48.417C74.8434 48.227 75.0904 48.094 75.3754 47.999C75.6604 47.904 75.9644 47.847 76.2874 47.847C76.9714 47.847 77.5414 48.056 77.9974 48.436C78.4534 48.816 78.7004 49.367 78.7004 50.051V54.592ZM91.6575 55.77C90.3845 56.492 89.2635 56.853 88.2945 56.853C87.8575 56.853 87.4775 56.777 87.1735 56.606C86.8695 56.435 86.6225 56.226 86.4515 55.96C86.2805 55.713 86.1475 55.371 86.0525 54.953C85.9575 54.535 85.9005 54.136 85.8815 53.756C85.8435 53.376 85.8435 52.901 85.8435 52.331C85.8435 51.78 85.8435 51.305 85.8815 50.925C85.9005 50.545 85.9575 50.146 86.0525 49.728C86.1475 49.31 86.2805 48.987 86.4515 48.721C86.6225 48.474 86.8695 48.265 87.1735 48.094C87.4775 47.942 87.8575 47.847 88.2945 47.847C89.2635 47.847 90.3845 48.208 91.6575 48.93L92.5695 46.555C92.3035 46.403 92.0185 46.27 91.7145 46.137C91.4105 46.023 91.1445 45.909 90.8975 45.833C90.6315 45.757 90.3655 45.7 90.0995 45.643C89.8335 45.586 89.6055 45.548 89.4155 45.51C89.2255 45.491 89.0545 45.472 88.8645 45.453C88.6745 45.434 88.5415 45.415 88.4655 45.415H88.2945C87.6105 45.415 86.9835 45.491 86.4515 45.624C85.9195 45.757 85.4635 45.928 85.1025 46.156C84.7225 46.384 84.3995 46.688 84.1335 47.03C83.8675 47.391 83.6585 47.752 83.5065 48.113C83.3545 48.493 83.2215 48.93 83.1455 49.424C83.0505 49.918 82.9935 50.393 82.9745 50.83C82.9365 51.267 82.9365 51.761 82.9365 52.331C82.9365 52.825 82.9365 53.281 82.9555 53.661C82.9745 54.06 83.0125 54.478 83.0695 54.915C83.1265 55.371 83.2215 55.77 83.3355 56.112C83.4495 56.454 83.6015 56.815 83.7915 57.157C83.9625 57.499 84.1905 57.803 84.4565 58.031C84.7225 58.278 85.0455 58.506 85.4065 58.696C85.7485 58.886 86.1665 59.038 86.6605 59.133C87.1545 59.247 87.6865 59.285 88.2945 59.285C88.5035 59.285 88.7505 59.285 89.0545 59.266C89.3395 59.247 89.8525 59.133 90.5935 58.943C91.3155 58.753 91.9805 58.487 92.5695 58.145L91.6575 55.77ZM94.1723 45.7V59H97.0793V45.7H94.1723ZM103.816 41.083L101.878 43.534H103.93L106.362 41.083H103.816ZM98.8379 54.592C98.8379 55.504 99.0849 56.34 99.5789 57.062C100.073 57.784 100.719 58.335 101.517 58.715C102.315 59.095 103.17 59.285 104.101 59.285C105.051 59.285 105.925 59.095 106.723 58.715C107.521 58.335 108.167 57.784 108.661 57.062C109.155 56.34 109.402 55.504 109.402 54.592V50.051C109.402 49.367 109.25 48.721 108.965 48.132C108.661 47.543 108.281 47.049 107.806 46.65C107.312 46.27 106.761 45.966 106.115 45.738C105.469 45.529 104.804 45.415 104.101 45.415C103.417 45.415 102.752 45.529 102.125 45.738C101.479 45.966 100.928 46.27 100.434 46.65C99.9399 47.049 99.5599 47.543 99.2749 48.132C98.9709 48.721 98.8379 49.367 98.8379 50.051V54.592ZM106.514 54.592C106.514 55.295 106.267 55.846 105.811 56.245C105.355 56.663 104.785 56.853 104.101 56.853C103.835 56.853 103.588 56.834 103.36 56.758C103.113 56.701 102.885 56.606 102.695 56.473C102.505 56.359 102.334 56.207 102.182 56.017C102.03 55.846 101.897 55.637 101.821 55.39C101.745 55.143 101.707 54.877 101.707 54.592V50.051C101.707 49.595 101.821 49.196 102.049 48.854C102.277 48.512 102.562 48.265 102.923 48.094C103.265 47.942 103.664 47.847 104.101 47.847C104.785 47.847 105.355 48.056 105.811 48.436C106.267 48.816 106.514 49.367 106.514 50.051V54.592ZM118.502 45.7V53.319L113.505 45.7H111.035V59H113.923V51.343L118.958 59H121.39V45.7H118.502ZM128.558 58.316C130.401 58.962 131.978 59.285 133.308 59.285C133.65 59.285 133.954 59.285 134.201 59.266C134.429 59.266 134.733 59.228 135.113 59.171C135.474 59.114 135.778 59.038 136.044 58.924C136.291 58.829 136.557 58.677 136.861 58.468C137.146 58.278 137.374 58.031 137.564 57.746C137.735 57.48 137.887 57.119 138.001 56.682C138.115 56.264 138.172 55.77 138.172 55.238C138.172 54.839 138.115 54.478 138.02 54.136C137.925 53.794 137.811 53.509 137.697 53.281C137.564 53.053 137.374 52.806 137.127 52.578C136.861 52.35 136.633 52.179 136.443 52.046C136.253 51.913 135.968 51.761 135.607 51.609C135.246 51.457 134.961 51.343 134.771 51.267C134.562 51.191 134.258 51.077 133.84 50.925C133.555 50.849 133.327 50.773 133.175 50.716C133.023 50.659 132.833 50.583 132.624 50.469C132.415 50.355 132.263 50.26 132.149 50.146C132.035 50.051 131.94 49.918 131.864 49.766C131.788 49.614 131.75 49.424 131.75 49.234C131.75 48.322 132.377 47.847 133.631 47.847C134.41 47.847 135.36 48.208 136.5 48.911L137.868 46.802C137.488 46.536 137.089 46.289 136.671 46.099C136.253 45.909 135.854 45.757 135.474 45.662C135.094 45.586 134.752 45.51 134.448 45.472C134.144 45.434 133.878 45.415 133.631 45.415C132.719 45.415 131.959 45.529 131.313 45.738C130.667 45.966 130.173 46.251 129.831 46.631C129.489 47.011 129.242 47.41 129.09 47.828C128.938 48.265 128.862 48.74 128.862 49.234C128.862 49.728 128.938 50.165 129.109 50.545C129.28 50.944 129.489 51.267 129.736 51.533C129.983 51.799 130.306 52.046 130.724 52.274C131.123 52.502 131.484 52.692 131.788 52.806C132.092 52.939 132.491 53.072 132.966 53.224C133.308 53.357 133.612 53.471 133.84 53.566C134.068 53.68 134.296 53.813 134.543 53.965C134.79 54.117 134.98 54.307 135.094 54.516C135.208 54.725 135.284 54.953 135.284 55.219C135.284 55.561 135.227 55.846 135.113 56.074C134.999 56.302 134.847 56.473 134.657 56.587C134.467 56.701 134.258 56.758 134.049 56.796C133.84 56.834 133.593 56.853 133.308 56.853C132.947 56.853 132.586 56.834 132.225 56.777C131.864 56.72 131.465 56.625 131.009 56.511C130.553 56.397 129.983 56.226 129.28 55.998L128.558 58.316ZM139.343 54.592C139.343 55.504 139.59 56.34 140.084 57.062C140.578 57.784 141.224 58.335 142.022 58.715C142.82 59.095 143.675 59.285 144.606 59.285C145.556 59.285 146.43 59.095 147.228 58.715C148.026 58.335 148.672 57.784 149.166 57.062C149.66 56.34 149.907 55.504 149.907 54.592V50.051C149.907 49.367 149.755 48.721 149.47 48.132C149.166 47.543 148.786 47.049 148.311 46.65C147.817 46.27 147.266 45.966 146.62 45.738C145.974 45.529 145.309 45.415 144.606 45.415C143.922 45.415 143.257 45.529 142.63 45.738C141.984 45.966 141.433 46.27 140.939 46.65C140.445 47.049 140.065 47.543 139.78 48.132C139.476 48.721 139.343 49.367 139.343 50.051V54.592ZM147.019 54.592C147.019 55.295 146.772 55.846 146.316 56.245C145.86 56.663 145.29 56.853 144.606 56.853C144.34 56.853 144.093 56.834 143.865 56.758C143.618 56.701 143.39 56.606 143.2 56.473C143.01 56.359 142.839 56.207 142.687 56.017C142.535 55.846 142.402 55.637 142.326 55.39C142.25 55.143 142.212 54.877 142.212 54.592V50.051C142.212 49.709 142.269 49.386 142.402 49.101C142.516 48.835 142.706 48.607 142.934 48.417C143.162 48.227 143.409 48.094 143.694 47.999C143.979 47.904 144.283 47.847 144.606 47.847C145.29 47.847 145.86 48.056 146.316 48.436C146.772 48.816 147.019 49.367 147.019 50.051V54.592ZM159.976 55.77C158.703 56.492 157.582 56.853 156.613 56.853C156.176 56.853 155.796 56.777 155.492 56.606C155.188 56.435 154.941 56.226 154.77 55.96C154.599 55.713 154.466 55.371 154.371 54.953C154.276 54.535 154.219 54.136 154.2 53.756C154.162 53.376 154.162 52.901 154.162 52.331C154.162 51.78 154.162 51.305 154.2 50.925C154.219 50.545 154.276 50.146 154.371 49.728C154.466 49.31 154.599 48.987 154.77 48.721C154.941 48.474 155.188 48.265 155.492 48.094C155.796 47.942 156.176 47.847 156.613 47.847C157.582 47.847 158.703 48.208 159.976 48.93L160.888 46.555C160.622 46.403 160.337 46.27 160.033 46.137C159.729 46.023 159.463 45.909 159.216 45.833C158.95 45.757 158.684 45.7 158.418 45.643C158.152 45.586 157.924 45.548 157.734 45.51C157.544 45.491 157.373 45.472 157.183 45.453C156.993 45.434 156.86 45.415 156.784 45.415H156.613C155.929 45.415 155.302 45.491 154.77 45.624C154.238 45.757 153.782 45.928 153.421 46.156C153.041 46.384 152.718 46.688 152.452 47.03C152.186 47.391 151.977 47.752 151.825 48.113C151.673 48.493 151.54 48.93 151.464 49.424C151.369 49.918 151.312 50.393 151.293 50.83C151.255 51.267 151.255 51.761 151.255 52.331C151.255 52.825 151.255 53.281 151.274 53.661C151.293 54.06 151.331 54.478 151.388 54.915C151.445 55.371 151.54 55.77 151.654 56.112C151.768 56.454 151.92 56.815 152.11 57.157C152.281 57.499 152.509 57.803 152.775 58.031C153.041 58.278 153.364 58.506 153.725 58.696C154.067 58.886 154.485 59.038 154.979 59.133C155.473 59.247 156.005 59.285 156.613 59.285C156.822 59.285 157.069 59.285 157.373 59.266C157.658 59.247 158.171 59.133 158.912 58.943C159.634 58.753 160.299 58.487 160.888 58.145L159.976 55.77ZM162.491 45.7V59H165.398V45.7H162.491ZM171.716 45.7L166.89 59H169.911L170.804 56.454H174.87L175.82 59H178.803L173.977 45.7H171.716ZM174.281 54.288H171.393L172.837 50.032L174.281 54.288ZM180.322 45.7V59H189.043V56.568H183.229V45.7H180.322Z" fill="#9E1425"/>
<path d="M1.392 20.2V37H7.728C8.904 37 10.008 36.76 11.016 36.28C12.024 35.8 12.84 35.104 13.464 34.192C14.088 33.28 14.4 32.248 14.4 31.096V26.056C14.4 24.904 14.064 23.872 13.44 22.96C12.816 22.048 12 21.376 10.992 20.896C9.984 20.44 8.88 20.2 7.728 20.2H1.392ZM10.752 31.096C10.752 31.984 10.44 32.68 9.864 33.184C9.288 33.688 8.568 33.928 7.728 33.928H5.04V23.272H7.728C8.592 23.272 9.312 23.536 9.888 24.016C10.464 24.496 10.752 25.192 10.752 26.056V31.096ZM16.6264 20.2V37H28.2904V33.928H20.2984V29.896H27.3544V26.8H20.2984V23.272H28.0504V20.2H16.6264ZM29.5928 36.136C31.9208 36.952 33.9128 37.36 35.5928 37.36C36.0247 37.36 36.4088 37.36 36.7208 37.336C37.0088 37.336 37.3928 37.288 37.8728 37.216C38.3288 37.144 38.7128 37.048 39.0488 36.904C39.3608 36.784 39.6968 36.592 40.0808 36.328C40.4408 36.088 40.7288 35.776 40.9688 35.416C41.1848 35.08 41.3768 34.624 41.5208 34.072C41.6648 33.544 41.7368 32.92 41.7368 32.248C41.7368 31.744 41.6648 31.288 41.5448 30.856C41.4248 30.424 41.2808 30.064 41.1368 29.776C40.9688 29.488 40.7288 29.176 40.4168 28.888C40.0808 28.6 39.7928 28.384 39.5528 28.216C39.3128 28.048 38.9528 27.856 38.4968 27.664C38.0408 27.472 37.6808 27.328 37.4408 27.232C37.1768 27.136 36.7928 26.992 36.2648 26.8C35.9048 26.704 35.6168 26.608 35.4248 26.536C35.2328 26.464 34.9928 26.368 34.7288 26.224C34.4648 26.08 34.2728 25.96 34.1288 25.816C33.9848 25.696 33.8648 25.528 33.7688 25.336C33.6728 25.144 33.6248 24.904 33.6248 24.664C33.6248 23.512 34.4168 22.912 36.0008 22.912C36.9848 22.912 38.1848 23.368 39.6248 24.256L41.3528 21.592C40.8728 21.256 40.3688 20.944 39.8408 20.704C39.3128 20.464 38.8088 20.272 38.3288 20.152C37.8488 20.056 37.4168 19.96 37.0328 19.912C36.6488 19.864 36.3128 19.84 36.0008 19.84C34.8488 19.84 33.8888 19.984 33.0728 20.248C32.2568 20.536 31.6328 20.896 31.2008 21.376C30.7688 21.856 30.4568 22.36 30.2648 22.888C30.0728 23.44 29.9768 24.04 29.9768 24.664C29.9768 25.288 30.0728 25.84 30.2888 26.32C30.5048 26.824 30.7688 27.232 31.0808 27.568C31.3928 27.904 31.8008 28.216 32.3288 28.504C32.8328 28.792 33.2888 29.032 33.6728 29.176C34.0568 29.344 34.5608 29.512 35.1608 29.704C35.5928 29.872 35.9768 30.016 36.2648 30.136C36.5528 30.28 36.8408 30.448 37.1528 30.64C37.4648 30.832 37.7048 31.072 37.8488 31.336C37.9928 31.6 38.0888 31.888 38.0888 32.224C38.0888 32.656 38.0168 33.016 37.8728 33.304C37.7288 33.592 37.5368 33.808 37.2968 33.952C37.0568 34.096 36.7928 34.168 36.5288 34.216C36.2648 34.264 35.9528 34.288 35.5928 34.288C35.1367 34.288 34.6808 34.264 34.2248 34.192C33.7688 34.12 33.2648 34 32.6888 33.856C32.1128 33.712 31.3928 33.496 30.5048 33.208L29.5928 36.136ZM48.975 20.2L42.879 37H46.695L47.823 33.784H52.959L54.159 37H57.927L51.831 20.2H48.975ZM52.215 31.048H48.567L50.391 25.672L52.215 31.048ZM59.8451 20.2V37H63.5171V31.048H65.7251L69.4451 37H73.5491L69.4211 30.52C70.5011 30.16 71.3171 29.56 71.8691 28.696C72.3971 27.832 72.6851 26.824 72.6851 25.624C72.6851 24.016 72.2051 22.72 71.2691 21.712C70.3331 20.704 68.9411 20.2 67.0931 20.2H59.8451ZM63.5171 27.976V23.272H67.0931C67.7171 23.272 68.1971 23.488 68.5331 23.896C68.8691 24.304 69.0371 24.88 69.0371 25.624C69.0371 26.128 68.9651 26.56 68.8211 26.896C68.6771 27.232 68.4611 27.496 68.1731 27.688C67.8851 27.88 67.5251 27.976 67.0931 27.976H63.5171ZM75.6186 20.2V37H79.2906V31.048H81.4986L85.2186 37H89.3226L85.1946 30.52C86.2746 30.16 87.0906 29.56 87.6426 28.696C88.1706 27.832 88.4586 26.824 88.4586 25.624C88.4586 24.016 87.9786 22.72 87.0426 21.712C86.1066 20.704 84.7146 20.2 82.8666 20.2H75.6186ZM79.2906 27.976V23.272H82.8666C83.4906 23.272 83.9706 23.488 84.3066 23.896C84.6426 24.304 84.8106 24.88 84.8106 25.624C84.8106 26.128 84.7386 26.56 84.5946 26.896C84.4506 27.232 84.2346 27.496 83.9466 27.688C83.6586 27.88 83.2986 27.976 82.8666 27.976H79.2906ZM90.84 31.432C90.84 32.584 91.152 33.64 91.776 34.552C92.4 35.464 93.216 36.16 94.224 36.64C95.232 37.12 96.312 37.36 97.488 37.36C98.688 37.36 99.792 37.12 100.8 36.64C101.808 36.16 102.624 35.464 103.248 34.552C103.872 33.64 104.184 32.584 104.184 31.432V25.696C104.184 24.832 103.992 24.016 103.632 23.272C103.248 22.528 102.768 21.904 102.168 21.4C101.544 20.92 100.848 20.536 100.032 20.248C99.216 19.984 98.376 19.84 97.488 19.84C96.624 19.84 95.784 19.984 94.992 20.248C94.176 20.536 93.48 20.92 92.856 21.4C92.232 21.904 91.752 22.528 91.392 23.272C91.008 24.016 90.84 24.832 90.84 25.696V31.432ZM100.536 31.432C100.536 32.32 100.224 33.016 99.648 33.52C99.072 34.048 98.352 34.288 97.488 34.288C97.152 34.288 96.84 34.264 96.552 34.168C96.24 34.096 95.952 33.976 95.712 33.808C95.472 33.664 95.256 33.472 95.064 33.232C94.872 33.016 94.704 32.752 94.608 32.44C94.512 32.128 94.464 31.792 94.464 31.432V25.696C94.464 25.264 94.536 24.856 94.704 24.496C94.848 24.16 95.088 23.872 95.376 23.632C95.664 23.392 95.976 23.224 96.336 23.104C96.696 22.984 97.08 22.912 97.488 22.912C98.352 22.912 99.072 23.176 99.648 23.656C100.224 24.136 100.536 24.832 100.536 25.696V31.432ZM106.439 20.2V37H117.455V33.928H110.111V20.2H106.439ZM119.353 20.2V37H130.369V33.928H123.025V20.2H119.353ZM131.41 31.432C131.41 32.584 131.722 33.64 132.346 34.552C132.97 35.464 133.786 36.16 134.794 36.64C135.802 37.12 136.882 37.36 138.058 37.36C139.258 37.36 140.362 37.12 141.37 36.64C142.378 36.16 143.194 35.464 143.818 34.552C144.442 33.64 144.754 32.584 144.754 31.432V25.696C144.754 24.832 144.562 24.016 144.202 23.272C143.818 22.528 143.338 21.904 142.738 21.4C142.114 20.92 141.418 20.536 140.602 20.248C139.786 19.984 138.946 19.84 138.058 19.84C137.194 19.84 136.354 19.984 135.562 20.248C134.746 20.536 134.05 20.92 133.426 21.4C132.802 21.904 132.322 22.528 131.962 23.272C131.578 24.016 131.41 24.832 131.41 25.696V31.432ZM141.106 31.432C141.106 32.32 140.794 33.016 140.218 33.52C139.642 34.048 138.922 34.288 138.058 34.288C137.722 34.288 137.41 34.264 137.122 34.168C136.81 34.096 136.522 33.976 136.282 33.808C136.042 33.664 135.826 33.472 135.634 33.232C135.442 33.016 135.274 32.752 135.178 32.44C135.082 32.128 135.034 31.792 135.034 31.432V25.696C135.034 25.264 135.106 24.856 135.274 24.496C135.418 24.16 135.658 23.872 135.946 23.632C136.234 23.392 136.546 23.224 136.906 23.104C137.266 22.984 137.65 22.912 138.058 22.912C138.922 22.912 139.642 23.176 140.218 23.656C140.794 24.136 141.106 24.832 141.106 25.696V31.432ZM163.781 20.2V26.8H157.853V20.2H154.205V37H157.853V29.896H163.781V37H167.429V20.2H163.781ZM179.812 20.2V31.096C179.812 33.232 178.804 34.288 176.836 34.288C174.868 34.288 173.884 33.232 173.884 31.096V20.2H170.212V31.096C170.212 33.04 170.764 34.576 171.916 35.704C173.068 36.832 174.7 37.384 176.836 37.384C178.276 37.384 179.5 37.144 180.508 36.616C181.516 36.088 182.26 35.368 182.74 34.432C183.22 33.496 183.484 32.392 183.484 31.096V20.2H179.812ZM198.463 20.2L194.047 28.576L189.631 20.2H186.439L185.815 37H189.463L189.775 28L192.823 33.688H195.295L198.319 28.024L198.631 37H202.279L201.679 20.2H198.463ZM209.991 20.2L203.895 37H207.711L208.839 33.784H213.975L215.175 37H218.943L212.847 20.2H209.991ZM213.231 31.048H209.583L211.407 25.672L213.231 31.048ZM230.101 20.2V29.824L223.789 20.2H220.669V37H224.317V27.328L230.677 37H233.749V20.2H230.101ZM235.824 31.432C235.824 32.584 236.136 33.64 236.76 34.552C237.384 35.464 238.2 36.16 239.208 36.64C240.216 37.12 241.296 37.36 242.472 37.36C243.672 37.36 244.776 37.12 245.784 36.64C246.792 36.16 247.608 35.464 248.232 34.552C248.856 33.64 249.168 32.584 249.168 31.432V25.696C249.168 24.832 248.976 24.016 248.616 23.272C248.232 22.528 247.752 21.904 247.152 21.4C246.528 20.92 245.832 20.536 245.016 20.248C244.2 19.984 243.36 19.84 242.472 19.84C241.608 19.84 240.768 19.984 239.976 20.248C239.16 20.536 238.464 20.92 237.84 21.4C237.216 21.904 236.736 22.528 236.376 23.272C235.992 24.016 235.824 24.832 235.824 25.696V31.432ZM245.52 31.432C245.52 32.32 245.208 33.016 244.632 33.52C244.056 34.048 243.336 34.288 242.472 34.288C242.136 34.288 241.824 34.264 241.536 34.168C241.224 34.096 240.936 33.976 240.696 33.808C240.456 33.664 240.24 33.472 240.048 33.232C239.856 33.016 239.688 32.752 239.592 32.44C239.496 32.128 239.448 31.792 239.448 31.432V25.696C239.448 25.264 239.52 24.856 239.688 24.496C239.832 24.16 240.072 23.872 240.36 23.632C240.648 23.392 240.96 23.224 241.32 23.104C241.68 22.984 242.064 22.912 242.472 22.912C243.336 22.912 244.056 23.176 244.632 23.656C245.208 24.136 245.52 24.832 245.52 25.696V31.432Z" fill="#9E1425"/>
</svg>
